<svg width="200" height="200" viewBox="0 0 200 200" fill="none" xmlns="http://www.w3.org/2000/svg">
<path d="M57.0086 88.2628C57.8103 87.951 59.3025 87.5724 60.3493 87.3942C61.6856 87.1938 63.4896 87.1269 66.5854 87.1938C68.9685 87.2606 71.4183 87.3719 73.111 87.6392L72.9774 90.4232C72.8883 91.9599 72.7769 93.2517 72.7101 93.3185C72.621 93.3853 70.8838 93.4744 65.1377 93.6525V97.216L67.4763 98.6637C69.258 99.7995 70.082 100.178 70.9952 100.29C72.042 100.423 72.1533 100.49 72.2201 101.047C72.2647 101.537 72.621 101.849 74.4918 102.962C75.7168 103.697 78.4116 105.345 80.5052 106.659C82.5987 107.951 84.3805 109.087 84.5141 109.176C84.6448 109.285 85.4569 109.82 86.3466 110.406L86.4072 110.445C87.3203 111.047 88.8348 112.071 89.7479 112.717C90.6611 113.341 92.9773 115.033 98.3225 118.998L101.441 115.791C103.155 114.031 105.449 111.425 106.541 110.022C107.61 108.619 108.812 106.949 109.213 106.303C109.837 105.278 110.015 105.122 111.017 104.877C111.641 104.722 112.777 104.343 113.579 104.031C114.38 103.697 115.694 103.073 116.541 102.606C117.365 102.16 118.078 101.67 118.144 101.559C118.211 101.448 118.612 101.759 119.057 102.294C119.525 102.806 120.171 103.831 120.505 104.566C121.04 105.657 121.151 106.192 121.151 107.528C121.151 108.931 121.062 109.31 120.371 110.646C119.726 111.826 119.637 112.183 119.859 112.361C120.037 112.472 120.75 113.029 121.485 113.563C122.22 114.12 124.247 115.969 125.962 117.684C127.699 119.421 129.859 121.826 130.75 123.051C131.663 124.276 132.732 125.835 133.133 126.503C133.534 127.171 134.024 127.951 134.625 128.753H133.735C133.245 128.753 132.443 128.931 131.953 129.154C131.463 129.376 130.594 130.044 130.037 130.646C129.481 131.247 128.768 132.249 128.456 132.851C128.144 133.474 126.808 136.926 125.494 140.534C124.18 144.142 121.017 152.917 118.478 160.022C115.939 167.127 113.735 173.207 113.356 174.165L110.527 174.187C108.946 174.209 101.864 174.298 81.886 174.499L81.4183 175.122C81.062 175.612 80.9506 176.08 80.9506 177.127C80.9506 178.218 81.0843 178.708 81.5074 179.376C81.8638 179.955 82.3983 180.401 82.9996 180.668C83.8905 181.047 84.9818 181.069 99.1466 181.047C107.521 181.047 117.543 181.047 128.501 181.069L128.523 197.884L127.988 198.664C127.721 199.087 127.231 199.577 126.942 199.71C126.496 199.933 117.521 200 85.6277 200C60.3493 200 44.581 199.911 44.091 199.777C43.6678 199.666 42.9997 199.265 41.9752 198.196L41.8638 182.628H42.4206C42.7324 182.628 44.5587 182.049 46.4741 181.314C48.4117 180.601 51.797 179.287 54.0019 178.441C56.2068 177.572 58.278 176.659 58.6121 176.392C59.013 176.125 59.2357 175.746 59.2357 175.39C59.2357 175.078 59.1466 174.788 59.013 174.721C58.8794 174.655 58.7903 174.499 58.7903 174.387C58.7903 174.231 59.013 174.254 59.3916 174.41C59.748 174.521 61.6633 174.744 63.6901 174.877C66.4295 175.078 68.5898 175.078 72.1533 174.877C74.7814 174.744 77.699 174.454 78.6121 174.254C79.5252 174.076 80.8838 173.586 81.5965 173.207C82.3315 172.806 83.2446 172.093 83.6232 171.603C84.0241 171.113 84.8927 169.822 85.5386 168.708C86.3404 167.327 86.7635 166.392 86.8303 165.701C86.8972 164.9 86.8303 164.61 86.4517 164.254C86.2067 164.009 86.0508 163.652 86.1177 163.474C86.1845 163.296 86.4295 162.739 86.6522 162.249C86.8526 161.759 87.2535 160.824 87.4985 160.2C87.7658 159.554 87.9662 158.575 87.9662 158.018C87.9662 157.238 87.8548 156.904 86.8749 156.013L87.4317 154.009C87.7212 152.895 88.0776 151.448 88.2335 150.779C88.4339 149.71 88.4116 149.421 88.033 148.552C87.6989 147.75 87.3871 147.439 86.4963 146.993C85.4053 146.437 85.3827 146.436 71.0533 146.325L71.0397 146.325L71.1511 145.835C71.2179 145.546 71.4852 144.477 71.7524 143.43C72.131 141.96 72.2424 140.869 72.2424 138.53C72.2647 136.303 72.1756 135.212 71.886 134.298C71.6856 133.63 71.2847 132.739 70.9952 132.316C70.7056 131.893 70.1934 131.336 69.8593 131.091C69.4139 130.757 68.8794 130.624 68.1444 130.624C67.2981 130.624 66.8526 130.779 65.1377 131.982L65.0041 134.632C64.915 136.102 64.6923 137.906 64.4696 138.641C64.2691 139.376 63.6901 140.779 63.2001 141.759C62.7101 142.739 61.797 144.276 61.1734 145.189C60.5275 146.102 59.1021 147.795 57.9885 148.975C56.1845 150.891 55.9395 151.069 55.7613 150.668C55.5832 150.289 55.3827 150.223 52.9997 150.334L53.2224 147.439H52.4429C51.9232 147.439 51.5965 147.572 51.4629 147.84C51.3516 148.04 51.2179 148.797 51.1288 149.51C51.0175 150.601 50.9284 150.802 50.5052 150.891C50.2157 150.935 47.8326 151.292 45.2046 151.67C42.5765 152.027 39.4585 152.45 36.1845 152.895L36.14 153.853C36.0955 154.365 36.14 154.788 36.2291 154.788C36.3404 154.788 39.4139 154.387 43.0888 153.897C46.7636 153.385 50.6834 152.851 51.7747 152.673C52.866 152.494 53.8014 152.383 53.8237 152.405C53.846 152.428 53.7569 153.096 53.6233 153.897C53.4674 154.699 53.356 157.35 53.356 159.799C53.3337 163.229 53.4451 164.721 53.7346 166.258C53.9573 167.372 54.4473 169.154 54.8259 170.267C55.1823 171.381 55.8504 172.94 56.2959 173.764C56.7636 174.588 57.0754 175.301 57.0086 175.345C56.9417 175.39 54.5809 176.347 51.7747 177.439C48.9685 178.552 45.6055 179.866 44.3137 180.334C42.1311 181.158 41.9752 181.247 41.9084 181.871C41.8638 182.227 41.7747 182.405 41.6856 182.249C41.5743 182.049 41.1734 182.027 39.9707 182.227C39.0799 182.361 37.0309 182.405 35.1823 182.338C32.9106 182.249 31.4184 182.093 30.1712 181.737C29.1912 181.492 27.4318 180.802 26.2736 180.245C24.5142 179.376 23.846 178.886 22.2647 177.305C20.7503 175.791 20.1489 174.989 19.414 173.497C18.9017 172.45 18.2113 170.601 17.8772 169.376C17.3204 167.305 17.2759 166.837 17.2759 162.695C17.2759 158.909 17.3427 157.884 17.7659 155.902C18.0554 154.61 18.7681 151.826 19.3694 149.733C19.993 147.617 21.1066 144.298 21.8638 142.383C22.6211 140.445 23.9574 137.461 24.826 135.746C25.6946 134.031 26.9195 131.782 27.5431 130.735C28.1667 129.688 29.3471 127.884 30.1935 126.726C31.0175 125.568 32.3093 123.853 33.0888 122.94C33.846 122.027 35.6055 120.156 37.0086 118.82C38.4117 117.483 40.3493 115.813 41.307 115.122C42.287 114.432 44.0019 113.341 45.0932 112.717C46.1845 112.094 47.7435 111.314 48.5453 110.98C49.3471 110.646 50.0153 110.356 50.0375 110.312C50.0821 110.267 49.8594 109.911 49.5698 109.532C49.2803 109.131 48.768 108.263 48.4562 107.639C48.1444 106.993 47.7213 105.835 47.5431 105.078C47.3649 104.298 47.209 103.029 47.209 102.227C47.209 101.425 47.3872 100.022 47.6322 99.1091C47.8549 98.196 48.3226 96.8819 48.6567 96.2138C48.9908 95.5456 49.7034 94.3875 50.2157 93.6525C50.7279 92.9176 51.7079 91.804 52.3538 91.1804C53.0219 90.5568 54.0019 89.7773 54.5587 89.4209C55.1155 89.0869 56.2068 88.5523 57.0086 88.2628Z" fill="#6F4BFF"/>
<path fill-rule="evenodd" clip-rule="evenodd" d="M102.666 20.3789C105.205 20.4457 107.454 20.6239 109.125 20.9134C110.528 21.1584 112.532 21.6261 113.579 21.9379C114.626 22.272 116.074 22.7842 116.809 23.096C117.544 23.4078 118.902 24.076 119.815 24.6105C120.728 25.145 121.686 25.7686 121.931 25.9914C122.176 26.2141 122.755 26.704 123.245 27.0604C123.713 27.439 124.626 28.3744 125.272 29.1762C125.918 29.978 126.742 31.1807 127.12 31.8488C127.499 32.517 128.011 33.6751 128.278 34.41C128.523 35.145 128.791 36.3477 128.858 37.0826C128.947 37.8176 128.88 38.9535 128.746 39.6439C128.501 40.7575 128.523 41.0693 129.036 42.8733C129.347 43.9646 129.726 45.7909 129.86 46.8822C130.016 48.1071 130.06 49.9334 129.971 51.5592C129.904 53.0292 129.748 54.655 129.503 56.0804L131.998 56.214C134.225 56.3254 134.537 56.3922 134.737 56.7931C134.849 57.0381 134.96 57.6171 134.96 58.0848C134.96 58.5303 134.849 59.0871 134.693 59.3098C134.537 59.5325 133.958 59.9334 133.401 60.2007C132.421 60.6906 132.399 60.7129 132.243 62.0269C132.154 62.7619 131.953 64.165 131.82 65.145C131.686 66.1249 131.352 67.6171 131.085 68.4857C130.817 69.3543 130.283 70.5793 129.882 71.2251C129.192 72.3387 129.169 72.4501 129.169 74.8777C129.169 76.2585 129.058 78.508 128.924 79.8443C128.791 81.1806 128.501 83.2964 128.256 84.5213C128.011 85.7463 127.477 87.7507 127.076 88.9757C126.653 90.2006 126.007 91.8487 125.606 92.6505C125.205 93.4523 124.425 94.7886 123.846 95.6572C123.29 96.5258 122.109 97.9734 121.241 98.8866C120.372 99.7997 118.969 101.025 118.123 101.581C117.276 102.16 115.984 102.918 115.25 103.274C114.515 103.653 113.312 104.143 112.577 104.41C111.842 104.655 110.394 105.056 109.348 105.279C107.922 105.568 106.519 105.679 103.557 105.657C101.419 105.657 98.9021 105.546 97.989 105.39C97.0758 105.234 95.3609 104.855 94.2028 104.544C93.0446 104.232 90.7729 103.341 89.1917 102.561C87.6104 101.804 85.4945 100.579 84.5146 99.8442C83.5346 99.1093 82.0202 97.773 81.1516 96.8598C80.283 95.9467 79.1471 94.5658 78.6126 93.7641C78.0781 92.9623 77.2986 91.5146 76.8977 90.5347C76.5191 89.5547 75.94 87.7062 75.6282 86.4144C75.3164 85.1227 74.96 83.0737 74.8264 81.8487C74.715 80.6238 74.4923 76.0581 74.381 71.7151C74.2473 67.3721 74.0469 63.4078 73.9133 62.9178C73.7796 62.4278 73.3565 61.6929 72.9779 61.292C72.577 60.8911 71.7529 60.312 71.1516 59.9779C70.528 59.6661 69.5257 59.3543 68.9244 59.3098C68.1672 59.2207 67.4545 59.3321 65.5391 60.0225L65.4055 58.1294C65.3164 57.0826 65.205 54.6327 65.116 52.6728C65.0269 50.5793 65.0714 48.2408 65.2273 46.9935C65.3609 45.8354 65.7173 43.9646 66.0291 42.8733C66.3409 41.782 67.1427 39.7775 67.8108 38.4189C68.479 37.0604 69.6594 35.1227 70.4612 34.076C71.2407 33.0292 72.8665 31.2252 74.0692 30.0671C75.2941 28.8867 77.2763 27.2608 78.5012 26.4591C79.7262 25.635 81.4856 24.6328 82.3988 24.2096C83.3119 23.7865 84.8264 23.1851 85.7395 22.8733C86.6527 22.5615 88.4121 22.0493 89.6371 21.7375C90.862 21.4257 93.0224 21.0248 94.4255 20.8466C95.8286 20.6461 97.3876 20.4457 97.8776 20.4012C98.3676 20.3566 100.528 20.3566 102.666 20.3789ZM11.0848 23.6528C11.5748 23.6974 11.753 23.8978 12.0648 24.8332C12.2652 25.4568 12.5993 26.5259 12.7775 27.2386C13.0893 28.3744 13.2229 28.5303 13.8688 28.7085C14.2474 28.8199 15.1828 29.0426 15.9178 29.1762C16.6528 29.3321 17.4323 29.5325 17.655 29.6439C17.8554 29.7553 18.0336 30.0893 18.0336 30.4011C18.0336 30.7129 17.9 31.0248 17.7663 31.1138C17.6104 31.2029 16.5859 31.4925 15.4724 31.782C14.381 32.0492 13.4011 32.3611 13.2897 32.4501C13.2006 32.5615 12.8666 33.5637 12.5102 34.7218C12.1539 35.9468 11.753 36.9267 11.5303 37.0604C11.2407 37.2385 11.018 37.2385 10.7508 37.0604C10.5058 36.9045 10.0603 35.88 8.9913 32.4056L6.67504 31.8043C5.38328 31.4479 4.2697 31.047 4.18061 30.9134C4.09152 30.7575 4.00244 30.5348 4.00244 30.4011C3.98017 30.2675 4.1138 30.0448 4.2697 29.9112C4.4256 29.7553 5.47237 29.4212 6.56368 29.1762C7.67727 28.9312 8.67949 28.5971 8.83539 28.4412C8.96902 28.3076 9.3031 27.3722 9.57036 26.3922C9.83762 25.4123 10.1717 24.3878 10.2831 24.0983C10.439 23.6974 10.6394 23.586 11.0848 23.6528ZM152.733 25.88C153.178 25.9245 153.356 26.1473 153.579 26.8377C153.735 27.3277 154.069 28.4635 154.782 30.9579L156.942 31.4256C158.145 31.6929 159.258 32.0047 159.414 32.1606C159.57 32.2942 159.704 32.5615 159.704 32.7397C159.704 32.9178 159.57 33.2074 159.414 33.341C159.258 33.4969 158.278 33.831 157.232 34.076C156.185 34.321 155.205 34.6105 155.049 34.6996C154.893 34.7887 154.47 35.8577 154.091 37.0826C153.735 38.3076 153.312 39.4434 153.156 39.5993C153 39.7552 152.777 39.8889 152.666 39.8889C152.555 39.8889 152.287 39.7107 152.087 39.488C151.886 39.2653 151.486 38.2408 151.196 37.2163C150.906 36.1918 150.55 35.2118 150.439 35.0337C150.327 34.8555 149.258 34.4769 148.1 34.1873C146.942 33.8755 145.851 33.5192 145.695 33.3633C145.517 33.1851 145.45 32.851 145.517 32.5838C145.606 32.2497 145.918 32.0047 146.363 31.8711C146.764 31.7374 147.699 31.537 148.434 31.4034C149.169 31.2697 149.949 31.047 150.149 30.8911C150.35 30.7352 150.795 29.7107 151.107 28.6194C151.441 27.5281 151.797 26.4368 151.931 26.2141C152.065 25.9468 152.354 25.8354 152.733 25.88ZM40.283 62.8064C40.4835 62.7842 40.7507 62.9178 40.9066 63.0737C41.0625 63.2296 41.4411 64.3209 41.7529 65.479C42.0648 66.6372 42.4434 67.7062 42.6215 67.8176C42.7774 67.9289 43.7351 68.2185 44.7819 68.4412C45.8064 68.6862 46.7863 68.9757 46.9423 69.1093C47.0982 69.2652 47.2318 69.5993 47.2095 69.8666C47.2095 70.1561 47.0759 70.4456 46.92 70.5347C46.7863 70.6238 45.7396 70.9133 44.6483 71.2029C43.557 71.4701 42.577 71.8265 42.4656 71.9824C42.3766 72.1383 42.1984 72.6728 42.0648 73.1628C41.9311 73.6527 41.6861 74.5882 41.508 75.2118C41.3075 75.9467 41.018 76.4813 40.7507 76.6149C40.4166 76.7931 40.1939 76.7485 39.8599 76.4367C39.5926 76.214 39.214 75.3231 38.9467 74.2764C38.6795 73.2964 38.3899 72.3387 38.3008 72.1605C38.2118 71.9824 37.4545 71.6483 36.6082 71.4033C35.7619 71.1806 34.7374 70.9133 34.3365 70.802C33.9579 70.6906 33.5347 70.4011 33.4011 70.1561C33.2229 69.822 33.2674 69.6216 33.557 69.3098C33.7797 69.0871 34.8042 68.7307 35.94 68.4857C37.3654 68.1516 38.0113 67.9067 38.2118 67.5949C38.3677 67.3499 38.7017 66.3031 38.9913 65.2563C39.2585 64.2096 39.5703 63.2296 39.704 63.0737C39.8153 62.9401 40.0826 62.8064 40.283 62.8064ZM72.6438 93.3632C72.7551 93.3409 72.822 93.5414 72.822 93.8309C72.822 94.0982 72.7106 95.5681 72.577 97.1048C72.4433 98.6416 72.2652 100.022 72.1983 100.156C72.087 100.356 71.7306 100.401 70.9289 100.29C70.1048 100.178 69.1917 99.7552 65.1382 97.2162V93.6527L68.8131 93.5414C70.8398 93.4745 72.5547 93.3855 72.6438 93.3632ZM156.519 97.5503C156.719 97.528 157.009 97.6616 157.165 97.8175C157.298 97.9734 157.677 98.9979 157.989 100.112C158.323 101.225 158.702 102.227 158.857 102.383C158.991 102.539 159.927 102.829 160.906 103.029C161.886 103.23 162.866 103.475 163.067 103.586C163.29 103.697 163.468 104.031 163.468 104.343C163.468 104.766 163.29 104.967 162.733 105.212C162.354 105.368 161.419 105.635 160.684 105.769C159.949 105.924 159.236 106.103 159.08 106.192C158.924 106.281 158.546 107.238 158.212 108.352C157.9 109.466 157.543 110.535 157.432 110.757C157.321 110.958 157.031 111.136 156.786 111.136C156.541 111.136 156.207 110.913 156.029 110.646C155.851 110.356 155.494 109.377 155.227 108.463C154.96 107.55 154.559 106.637 154.359 106.459C154.158 106.281 153.401 105.991 152.666 105.835C151.931 105.679 151.018 105.457 150.662 105.345C150.283 105.234 149.927 104.967 149.86 104.744C149.771 104.521 149.793 104.165 149.904 103.965C150.038 103.675 150.795 103.408 152.332 103.074C154.27 102.628 154.581 102.495 154.782 102.005C154.893 101.693 155.205 100.646 155.472 99.6661C155.739 98.6861 155.984 97.8175 156.051 97.7284C156.096 97.6171 156.319 97.5503 156.519 97.5503ZM53.1115 147.439L52.9556 150.445L54.136 150.267C55.1382 150.111 55.3832 150.134 55.6728 150.445C55.9623 150.802 55.9623 151.091 55.6728 153.096C55.45 154.543 55.3387 156.993 55.3387 160.022C55.3387 163.719 55.4278 165.1 55.7618 166.592C55.9846 167.639 56.43 169.176 56.7195 170.045C57.0313 170.913 57.5213 172.049 57.8331 172.606C58.1226 173.163 58.5458 173.92 58.7908 174.276C59.0135 174.633 59.214 175.167 59.214 175.457C59.2362 175.746 58.9912 176.125 58.6126 176.392C58.2785 176.659 56.2073 177.572 54.0024 178.441C51.7975 179.287 48.4122 180.601 46.4745 181.314C44.5592 182.049 42.7329 182.628 42.4211 182.628C41.9311 182.628 41.8643 182.539 41.9088 181.915C41.9757 181.225 42.0425 181.18 44.3142 180.334C45.606 179.866 48.9467 178.552 51.7752 177.439C54.5814 176.347 56.9422 175.39 57.0091 175.345C57.0759 175.301 56.7641 174.588 56.2964 173.764C55.8509 172.94 55.1828 171.381 54.8264 170.267C54.4478 169.154 53.9578 167.372 53.7351 166.258C53.4456 164.722 53.3342 163.229 53.3565 159.8C53.3565 157.35 53.4679 154.699 53.6238 153.898C53.7574 153.096 53.8465 152.428 53.8242 152.405C53.8019 152.383 52.8665 152.494 51.7752 152.673C50.6616 152.851 46.7641 153.385 43.0892 153.898C39.4144 154.388 36.3409 154.788 36.2296 154.788C36.1405 154.788 36.0959 154.365 36.185 152.895L38.3008 152.606C39.459 152.45 42.577 152.027 45.2051 151.67C47.8331 151.292 50.2162 150.935 50.4835 150.891C50.9289 150.802 51.018 150.601 51.1293 149.51C51.2184 148.797 51.3743 148.04 51.4857 147.84C51.597 147.572 51.9311 147.439 53.1115 147.439ZM83.2228 154.12C85.4723 154.12 87.2986 154.187 87.2986 154.299C87.2986 154.388 87.1872 154.833 86.8531 156.125H83.1783C81.1516 156.125 79.303 156.013 79.058 155.902C78.813 155.791 78.5903 155.457 78.568 155.167C78.5458 154.878 78.6571 154.543 78.8353 154.388C79.058 154.209 80.3721 154.12 83.2228 154.12ZM86.6304 162.138L86.0291 163.809H79.3921L79.3253 163.252C79.303 162.94 79.3921 162.561 79.5257 162.428C79.7039 162.227 80.7507 162.138 86.6304 162.138ZM85.2941 169.042L84.2919 170.824H81.4411C78.8353 170.824 78.5903 170.78 78.3899 170.379C78.2414 170.082 78.2414 169.785 78.3899 169.488C78.6126 169.065 78.8576 169.042 85.2941 169.042Z" fill="#080A16"/>
<path d="M130.038 130.646C130.595 130.045 131.463 129.377 131.953 129.154C132.443 128.931 133.067 128.731 133.356 128.731C133.735 128.731 133.868 128.887 133.958 129.399C134.047 129.911 134.203 130.089 134.693 130.178C135.071 130.267 135.717 130.112 137.744 129.176L192.755 129.154L193.712 129.844C194.358 130.312 194.715 130.757 194.893 131.359C195.093 132.071 195.049 132.428 194.447 134.076C194.091 135.123 191.263 143.185 188.189 152.005C185.116 160.824 181.931 169.889 181.129 172.161C180.327 174.432 179.459 176.637 179.169 177.06C178.902 177.483 178.3 178.218 177.81 178.708C177.343 179.176 176.452 179.822 175.828 180.134C174.782 180.691 174.47 180.713 170.26 180.846C167.811 180.936 147.387 181.002 124.893 181.025C85.873 181.069 83.9131 181.047 83.0222 180.668C82.3986 180.401 81.8641 179.956 81.5077 179.377C81.0846 178.708 80.9509 178.218 80.9509 177.127C80.9509 176.08 81.0623 175.613 81.8863 174.499L94.7816 174.365C101.864 174.299 108.946 174.209 113.356 174.165L113.601 173.564C113.735 173.207 115.94 167.127 118.479 160.022C121.018 152.918 124.18 144.143 125.494 140.535C126.808 136.927 128.145 133.475 128.456 132.851C128.768 132.25 129.481 131.247 130.038 130.646Z" fill="#86949A"/>
<path d="M47.4318 20.6017C48.4786 20.0672 50.0822 19.4213 50.9953 19.1763C51.9084 18.9313 53.0888 18.7309 53.6234 18.7309C54.1356 18.7086 54.9151 18.8645 55.3383 19.0427C55.8728 19.2654 56.2292 19.644 56.4741 20.2008C56.7637 20.869 56.8082 21.4926 56.7191 23.0516C56.6523 24.1652 56.3851 25.7465 56.1178 26.6151C55.8505 27.4837 55.0933 29.2654 54.4251 30.624C53.7347 32.0271 52.4652 34.0761 51.4407 35.4124C50.4608 36.7041 49.4586 37.9959 48.7236 38.8645L49.3249 40.7576C49.8149 42.2943 49.904 42.9402 49.8372 44.0983C49.7481 45.1006 49.5254 45.9469 49.0577 46.8823C48.6345 47.7064 47.9218 48.6195 47.1868 49.2876C46.5187 49.8667 45.6724 50.4012 45.316 50.4903C44.9374 50.5571 44.3583 50.468 43.9797 50.2676C43.6234 50.0894 42.9998 49.4658 42.5989 48.8645C42.2203 48.2631 41.708 47.3945 41.4853 46.9268C41.2626 46.4814 40.9953 46.1028 40.8617 46.1028C40.7281 46.1028 40.4385 46.2364 40.1935 46.4369C39.9485 46.615 39.3695 46.7709 38.9241 46.7709C38.1668 46.7709 37.8105 46.526 35.2715 44.2542C33.7125 42.8957 32.198 41.5594 31.8862 41.3144C31.5744 41.0694 31.1958 40.6017 31.0399 40.2453C30.8617 39.9113 30.7281 39.399 30.7281 39.0872C30.7281 38.7754 30.9285 38.1518 31.5744 36.86L29.9931 36.3255C29.1022 36.0137 28.0109 35.546 27.5655 35.2565C27.0978 34.9669 26.5633 34.5215 26.3851 34.232C26.2069 33.9647 26.051 33.497 26.051 33.1852C26.051 32.8734 26.3183 32.2275 26.6746 31.7376C27.031 31.2476 27.7214 30.4903 28.2114 30.0672C28.7013 29.644 29.6813 29.0204 30.3717 28.6641C31.129 28.3077 32.1757 28.0182 32.9998 27.9291C33.9797 27.84 34.8929 27.9291 37.6323 28.6195L39.6813 26.5482C40.8171 25.3901 42.5989 23.8088 43.6456 23.0293C44.6924 22.2498 46.3851 21.1585 47.4318 20.6017Z" fill="#F7BC4C"/>
<path d="M25.0042 47.105C25.6501 45.8801 26.5633 44.4547 27.0755 43.9202C27.7882 43.1852 28.1446 42.9848 28.7459 42.9848C29.2136 42.9848 29.8817 43.2297 30.5054 43.6306C31.0621 43.987 32.3762 45.1674 33.4452 46.2587C35.2715 48.085 35.3829 48.2854 35.4051 49.154C35.4051 49.9558 35.2715 50.2676 34.5365 51.0471C34.0688 51.5816 32.9998 52.4725 32.1535 53.0293C31.3071 53.6083 29.2136 54.9001 27.4987 55.9023C25.7838 56.9046 23.9129 57.9736 23.3339 58.2631C22.7325 58.5527 21.9753 58.7976 21.5967 58.7976C21.1958 58.7976 20.884 58.664 20.8172 58.4636C20.7504 58.2854 20.7058 57.9513 20.7058 57.7286C20.7058 57.5282 21.4185 55.546 22.2871 53.3411C23.1557 51.1362 24.3806 48.33 25.0042 47.105Z" fill="#F7BC4C"/>
<path d="M64.826 60.7353C65.3605 60.2899 66.2069 59.7553 66.6968 59.5772C67.2091 59.3767 68.1 59.2876 68.8127 59.3322C69.5699 59.3767 70.4608 59.6217 71.1512 59.9781C71.7748 60.3121 72.5766 60.8912 72.9775 61.2921C73.3561 61.693 73.7792 62.4279 73.9129 62.9179C74.0465 63.4079 74.2469 67.3722 74.3806 71.7152C74.4919 76.0582 74.7146 80.6239 74.826 81.8488C74.9596 83.0738 75.316 85.1228 75.6278 86.4145C75.9396 87.7063 76.5187 89.5548 76.8973 90.5348C77.2982 91.5148 78.0777 92.9624 78.6122 93.7642C79.1467 94.566 80.2826 95.9468 81.1512 96.86C82.0198 97.7731 83.5342 99.1094 84.5142 99.8444C85.4941 100.579 87.61 101.804 89.1912 102.562C90.7725 103.341 93.0443 104.232 94.2024 104.544C95.3605 104.855 97.0754 105.234 97.9886 105.39C98.9017 105.546 101.463 105.657 103.668 105.657C105.873 105.635 108.144 105.546 108.724 105.435C109.303 105.323 109.793 105.279 109.793 105.345C109.793 105.412 109.28 106.214 108.657 107.127C108.033 108.04 106.764 109.755 105.828 110.913C104.893 112.072 102.822 114.366 98.3226 118.998L94.8705 116.437C92.9774 115.011 90.6612 113.341 89.748 112.717C88.8349 112.072 87.3204 111.047 86.4073 110.446L86.3451 110.405C85.456 109.819 84.6448 109.285 84.5142 109.176C84.3806 109.087 82.5988 107.951 80.5053 106.637C78.4118 105.345 75.7392 103.697 74.5142 102.985C73.3115 102.25 72.287 101.604 72.2425 101.492C72.1979 101.403 72.3093 99.7553 72.4875 97.8176C72.6879 95.9023 72.9106 92.0715 72.9997 89.3099C73.0888 86.5482 73.1334 83.1852 73.022 79.399L71.7525 79.2653C71.0398 79.1985 69.7926 78.8199 68.924 78.419C67.7659 77.8622 66.9418 77.2609 65.6723 75.9914C64.3583 74.6551 63.757 73.831 62.9997 72.2943C62.1311 70.5348 62.0198 70.0894 61.953 68.5081C61.8862 67.3054 61.9975 66.2141 62.2425 65.2564C62.443 64.4547 62.8884 63.2965 63.2447 62.6952C63.5788 62.0716 64.2915 61.203 64.826 60.7353Z" fill="#F7BC4C"/>
<path d="M65.806 131.492C66.1623 131.225 66.7191 130.891 67.0309 130.757C67.3427 130.624 67.9886 130.579 68.4786 130.624C68.9686 130.691 69.6144 130.936 69.9262 131.158C70.238 131.381 70.7057 131.893 70.9953 132.316C71.2848 132.74 71.6857 133.631 71.8861 134.299C72.1757 135.212 72.2648 136.303 72.2425 138.53C72.2425 140.869 72.1311 141.96 71.7525 143.43C71.4853 144.477 71.218 145.546 71.0398 146.325L78.2336 146.37L78.2417 146.37C85.3828 146.437 85.4055 146.437 86.4964 146.994C87.3872 147.439 87.699 147.751 88.0331 148.553C88.3449 149.265 88.4117 149.8 88.3227 150.446C88.2336 150.936 87.9886 151.938 87.3427 154.009L83.267 154.076C80.4607 154.12 79.0799 154.232 78.8795 154.41C78.7236 154.566 78.5899 154.9 78.6122 155.167C78.6122 155.457 78.8126 155.791 79.0576 155.902C79.3026 156.014 81.1957 156.125 83.2892 156.125C86.7859 156.125 87.12 156.169 87.5209 156.57C87.8327 156.882 87.9663 157.328 87.9663 157.951C87.9663 158.486 87.699 159.644 86.7414 162.138H83.2892C80.7503 162.116 79.7703 162.205 79.5476 162.406C79.3917 162.561 79.3026 162.94 79.3917 163.809L82.9106 163.92C85.6946 164.009 86.4741 164.098 86.6523 164.365C86.7636 164.544 86.8304 165.145 86.8082 165.702C86.7636 166.325 86.4741 167.127 85.3828 168.931L81.9975 168.976C78.8572 169.042 78.5899 169.065 78.3895 169.488C78.241 169.785 78.241 170.082 78.3895 170.379C78.5899 170.78 78.8572 170.824 84.1801 170.936L83.5565 171.715C83.2002 172.138 82.3316 172.806 81.5966 173.207C80.8839 173.586 79.5253 174.076 78.6122 174.254C77.6991 174.455 74.7815 174.744 72.1534 174.878C68.4786 175.078 66.4964 175.078 63.5788 174.878C61.4853 174.722 59.5476 174.477 59.2358 174.321C58.9463 174.187 58.4563 173.697 58.1668 173.274C57.8995 172.851 57.3427 171.693 56.9864 170.713C56.6078 169.733 56.0732 168.04 55.8283 166.927C55.4274 165.212 55.3606 164.187 55.3383 159.911C55.3383 156.548 55.4496 154.276 55.9842 151.114L57.9886 148.976C59.1022 147.795 60.5276 146.103 61.1735 145.19C61.7971 144.276 62.7102 142.74 63.2002 141.76C63.6902 140.78 64.2692 139.421 64.4697 138.753C64.6701 138.085 64.8928 136.281 64.9819 134.766L64.9829 134.75C65.1378 132.027 65.1391 132.004 65.806 131.492Z" fill="#F7BC4C"/>
<path d="M43.1778 29.6215C43.4005 29.1984 43.935 28.6638 44.3359 28.4411C44.7591 28.2407 45.3827 28.0625 45.7613 28.0625C46.1177 28.0625 46.8526 28.3298 47.3871 28.6638C47.9439 29.0425 48.4116 29.5547 48.5453 29.9556C48.6789 30.3119 48.768 30.9355 48.768 31.2919C48.768 31.6482 48.5898 32.2718 48.3671 32.6282C48.1444 32.9845 47.5653 33.4745 47.0753 33.7195C46.4963 33.9868 45.9469 34.0759 45.4272 33.9868C45.0041 33.92 44.3582 33.6304 44.0019 33.3632C43.6455 33.0736 43.2223 32.5168 43.0442 32.1382C42.8883 31.7373 42.7546 31.1805 42.7546 30.9133C42.7546 30.6237 42.9328 30.0447 43.1778 29.6215Z" fill="#FDF8EB"/>
<path d="M95.494 84.8553C95.4717 84.4099 95.6054 84.1426 95.8949 83.9867C96.1176 83.8531 96.5408 83.7417 96.808 83.7417C97.0975 83.7417 98.7457 84.0981 100.483 84.5212C102.242 84.9667 104.781 85.4344 106.118 85.568C108.1 85.7684 109.236 85.7462 112.02 85.4566C114.982 85.1671 115.539 85.1671 115.962 85.4344C116.273 85.6125 116.474 85.9689 116.474 86.303C116.474 86.6148 116.34 87.127 116.162 87.4834C115.984 87.8174 115.338 88.5524 114.714 89.1537C114.091 89.7328 112.955 90.49 112.175 90.8464C111.418 91.225 110.015 91.6704 109.057 91.8486C108.122 92.049 106.942 92.205 106.452 92.205C105.962 92.205 104.781 92.049 103.824 91.8486C102.888 91.6704 101.463 91.2027 100.661 90.8241C99.7479 90.4009 98.7011 89.6437 97.8102 88.7751C97.053 88.0401 96.2067 86.9934 95.984 86.4811C95.739 85.9466 95.5163 85.2339 95.494 84.8553Z" fill="#FDF8EB"/>
<path d="M152.265 151.448C152.754 150.891 153.579 150.223 154.135 149.955C154.803 149.599 155.516 149.443 156.385 149.443C157.209 149.443 157.988 149.599 158.501 149.866C158.968 150.089 159.636 150.624 159.993 151.024C160.349 151.448 160.772 152.116 160.95 152.517C161.106 152.895 161.24 153.653 161.24 154.187C161.24 154.699 161.084 155.568 160.906 156.125C160.705 156.681 160.149 157.661 159.659 158.307C159.013 159.154 158.456 159.621 157.498 160.044C156.385 160.579 156.051 160.624 154.781 160.512C153.757 160.423 153.089 160.2 152.487 159.8C152.042 159.488 151.396 158.775 151.04 158.196C150.55 157.305 150.438 156.882 150.461 155.679C150.483 154.699 150.639 153.942 150.95 153.341C151.195 152.851 151.797 152.004 152.265 151.448Z" fill="#FDF8EB"/>
<path d="M65.4276 112.651C65.4053 112.517 65.628 112.161 65.9175 111.871C66.2739 111.515 66.5857 111.403 66.8975 111.492C67.1648 111.559 68.6124 112.227 70.1492 112.962C71.6859 113.697 73.8463 114.789 74.9376 115.39C76.0289 115.991 77.0979 116.593 77.2761 116.704C77.4543 116.815 78.2559 117.283 79.0577 117.751L79.0578 117.751C79.8596 118.218 80.9064 118.82 81.3964 119.109C81.8863 119.377 82.5099 119.733 82.7995 119.889C83.2226 120.112 83.3117 120.334 83.2895 121.225C83.2895 121.804 83.2226 122.272 83.1113 122.272C83.0222 122.272 82.7549 122.138 82.5099 121.96C82.265 121.782 80.7505 120.913 79.1692 120C77.5879 119.087 75.5835 117.951 74.7149 117.483C73.8463 117.016 72.3541 116.214 71.3741 115.702C70.3941 115.212 68.657 114.365 67.5211 113.853C66.4075 113.341 65.4498 112.806 65.4276 112.651Z" fill="#080A16"/>
<path d="M111.374 117.261C112.421 116.281 114.136 114.544 115.16 113.408C116.675 111.737 117.142 111.359 117.588 111.403C118.033 111.448 118.145 111.604 118.211 112.205C118.256 112.851 117.966 113.207 115.205 116.058C113.512 117.795 111.174 120 110.015 120.98C108.857 121.938 107.744 122.717 107.566 122.717C107.387 122.717 107.098 122.606 106.942 122.45C106.786 122.294 106.675 121.96 106.652 121.715C106.652 121.426 107.165 120.869 108.056 120.156C108.835 119.555 110.327 118.241 111.374 117.261Z" fill="#080A16"/>
<path d="M83.2006 43.8753C83.0001 43.0735 82.6438 42.0936 82.3988 41.7149V41.6927C82.1761 41.3141 82.0425 40.98 82.1315 40.98C82.1984 40.98 83.3342 41.2918 84.626 41.6704C85.9177 42.049 87.9667 42.5835 89.1917 42.8731C90.4166 43.1626 92.4211 43.5412 93.646 43.7417C94.8709 43.9198 97.7217 44.1871 99.9934 44.3207C102.265 44.4766 105.361 44.5212 106.898 44.4321C108.434 44.3653 110.684 44.2094 111.909 44.0757C113.134 43.9644 114.982 43.6971 116.029 43.519C117.076 43.3408 118.969 42.8285 120.261 42.4054C121.552 41.9822 122.599 41.6481 122.621 41.6927C122.621 41.7372 123.089 42.5613 123.646 43.5412C124.203 44.5212 124.96 46.1247 125.339 47.1047C125.717 48.0846 126.229 49.8887 126.474 51.1136C126.719 52.3385 126.987 53.9421 127.209 56.0134L122.666 55.9243C120.105 55.8797 117.187 55.9466 115.918 56.1025C114.27 56.2806 113.356 56.5256 112.354 57.0156C111.463 57.461 110.617 57.6837 109.793 57.7283C108.813 57.7728 108.434 57.6837 107.9 57.2606C107.544 56.9933 107.031 56.7261 106.786 56.6592C106.541 56.5924 105.784 56.4588 105.116 56.3252C104.425 56.1915 98.7908 56.0579 80.283 55.8797L80.773 55.3898C81.0402 55.1225 81.5747 54.2539 81.9311 53.4521C82.3097 52.6503 82.7774 51.4477 82.9556 50.7795C83.156 50.1114 83.3565 48.5969 83.4233 47.4388C83.5347 45.8352 83.4901 44.9666 83.2006 43.8753Z" fill="#F7BC4C"/>
<path d="M79.3476 64.2762C79.2808 62.1826 79.2585 60.3118 79.3476 60.0891C79.4812 59.7773 79.793 59.7105 81.4411 59.7105C82.6661 59.7105 83.5569 59.7996 83.8019 59.9777C84.136 60.2004 84.2696 60.8686 84.5369 63.1626C84.7151 64.7439 85.0269 66.6592 85.205 67.3942C85.3832 68.1292 85.7618 69.2205 86.0514 69.8441C86.3409 70.4454 87.0313 71.4031 87.5658 71.9822C88.0781 72.539 89.1694 73.3185 89.9712 73.6971C91.107 74.2761 91.9088 74.4766 93.646 74.677C95.5391 74.8775 96.1404 74.8775 97.6549 74.5657C98.6349 74.343 100.06 73.8753 100.817 73.5189C101.597 73.1403 102.688 72.4053 103.267 71.8708C103.869 71.3363 104.67 70.2672 105.094 69.4877C105.517 68.7082 106.319 66.6147 107.944 61.6036L108.813 61.4254C109.281 61.314 110.216 61.2918 112.02 61.4922L112.354 62.6503C112.532 63.2962 113.312 66.147 114.114 68.9532C114.915 71.7817 115.584 74.5211 115.584 75.0779C115.584 75.6347 115.472 76.2583 115.316 76.481C115.138 76.7483 114.47 77.0156 113.579 77.1937C112.621 77.3942 111.486 77.461 110.238 77.3496C108.679 77.2383 108.234 77.2828 107.722 77.5946C107.254 77.8842 107.12 78.1514 107.12 79.5323L105.717 79.3986C104.96 79.3318 102.978 79.02 101.33 78.7305C99.6816 78.4187 97.7663 78.1514 97.0981 78.1514C96.43 78.1292 95.3164 78.2851 94.6482 78.4855C93.9355 78.6859 93.0224 79.1982 92.4433 79.6882C91.8865 80.1559 91.0625 81.1358 90.5948 81.8708C90.1048 82.6058 89.5703 83.7639 89.3698 84.432C89.1471 85.1002 88.9912 85.6793 88.9912 85.7238C88.9689 85.7461 88.2785 85.5011 87.4099 85.167C86.2741 84.7216 85.4723 84.187 84.4255 83.2071C83.3788 82.2049 82.7997 81.4254 82.1538 80.0891C81.6861 79.1091 81.0848 77.4165 80.8175 76.3029C80.5725 75.1893 80.1716 72.8953 79.9266 71.1804C79.6817 69.4655 79.4367 66.3697 79.3476 64.2762Z" fill="#F7BC4C"/>
<path d="M117.699 78.196C118.368 77.5055 118.368 77.461 118.301 75.3006L118.234 73.0957L119.303 73.6525C119.904 73.9421 120.929 74.2984 121.597 74.4321C122.265 74.5657 123.512 74.6325 124.381 74.588C125.272 74.5434 126.341 74.2984 126.875 74.0534C127.388 73.8307 127.811 73.7416 127.833 73.853C127.833 73.9643 127.677 75.0334 127.477 76.1915C127.276 77.3496 126.831 79.1091 126.474 80.0891C126.096 81.069 125.539 82.3162 125.227 82.873C124.893 83.4298 124.225 84.2984 123.735 84.8329C123.223 85.3674 122.755 85.7906 122.644 85.7683C122.555 85.7683 122.555 85.3006 122.621 84.6993C122.711 83.9421 122.644 83.363 122.354 82.6503C122.131 82.0935 121.731 81.4699 121.486 81.2472C121.241 81.0245 120.728 80.6681 120.372 80.4677C119.949 80.2227 118.924 80.0668 115.25 79.8663L116.14 79.3764C116.63 79.1314 117.343 78.5969 117.699 78.196Z" fill="#F7BC4C"/>
</svg>
