<svg width="200" height="200" viewBox="0 0 200 200" fill="none" xmlns="http://www.w3.org/2000/svg">
<path d="M69.4113 78.2972C70.4177 78.1008 71.5223 77.8799 71.866 77.8308C72.2096 77.7571 73.6579 77.708 77.7572 77.6589V91.037L80.3838 92.5835C81.8566 93.4426 84.2376 94.9891 85.735 96.0201C87.2324 97.051 90.5953 99.4812 93.2218 101.469C95.8484 103.433 98.5976 105.446 100.586 106.87L102.599 105.716C103.728 105.102 105.299 104.121 106.109 103.556C106.919 102.967 108.367 101.69 109.3 100.709C110.478 99.4812 111.362 98.2538 112 96.9528C112.54 95.8973 113.105 94.9891 113.228 94.9645C113.35 94.9154 114.406 94.6945 115.56 94.4491C116.713 94.2036 118.432 93.5899 121.156 92.2644L121.893 93.4917C122.285 94.1545 122.825 95.2591 123.071 95.9464C123.341 96.7074 123.513 97.8611 123.537 99.0148C123.537 100.021 123.464 101.249 123.169 102.574L124.961 103.36C125.918 103.801 127.71 104.808 128.938 105.593C130.165 106.379 131.908 107.729 132.865 108.588C133.822 109.472 135.222 110.896 136.007 111.779C136.793 112.663 138.339 114.7 139.419 116.32C140.499 117.94 142.095 120.69 142.929 122.457C143.789 124.2 144.869 126.728 145.36 128.029C145.85 129.355 146.243 130.582 146.243 130.729C146.243 130.901 145.973 131.711 145.63 132.521C145.163 133.675 145.016 134.436 145.016 136.081C145.016 137.554 145.114 138.339 145.384 138.707C145.58 139.026 145.826 139.272 145.924 139.272C146.047 139.272 146.44 138.535 146.832 137.627C147.225 136.719 147.642 135.835 147.741 135.712C147.839 135.565 148.207 136.694 148.551 138.167C148.894 139.64 149.263 141.358 149.557 143.003L135.565 142.88L135.001 143.543C134.608 144.009 134.461 144.5 134.461 145.286C134.461 145.899 134.338 146.39 134.215 146.39C134.068 146.39 133.97 145.507 133.97 144.23C133.97 143.052 133.798 139.615 133.577 136.572C133.381 133.528 133.135 130.459 133.037 129.723C132.939 128.913 132.718 128.299 132.448 128.127C132.153 127.931 131.957 127.956 131.638 128.226C131.294 128.52 131.245 128.864 131.368 130.067C131.441 130.877 131.687 133.921 131.883 136.817C132.08 139.714 132.251 143.224 132.251 144.598C132.251 146.513 132.153 147.225 131.883 147.495C131.638 147.74 131.515 148.379 131.515 149.582C131.515 151.03 131.589 151.349 132.006 151.594C132.472 151.913 132.497 152.183 132.497 160.996C132.497 165.979 132.374 173.515 132.251 177.688C132.104 181.861 131.957 185.911 131.932 186.647C131.883 187.997 131.883 187.997 133.356 187.997L133.528 185.911C133.602 184.757 133.798 180.633 133.945 176.706C134.092 172.778 134.24 166.887 134.264 163.573C134.289 160.259 134.338 158.001 134.363 158.541C134.412 159.081 134.559 161.168 134.706 163.205C134.853 165.218 135.197 169.096 135.467 171.797C135.762 174.497 136.13 177.074 136.326 177.491C136.523 177.933 137.038 178.522 137.455 178.792C138.216 179.259 138.707 179.283 147.151 179.283C152.061 179.283 156.062 179.332 156.062 179.406C156.062 179.48 155.817 179.995 155.547 180.56C155.252 181.149 154.589 182.229 154.098 182.965C153.583 183.702 152.576 184.88 151.864 185.567C151.128 186.255 149.974 187.114 148.084 188.194L132.497 199.903L96.1675 198.43H71.4978C55.2968 198.43 46.779 198.356 46.7054 198.184C46.6317 198.062 46.6808 194.061 46.8281 189.348C46.9754 184.61 47.1227 180.609 47.1963 180.437C47.2699 180.29 47.7363 180.069 48.2273 179.995C48.7428 179.922 50.3138 179.431 51.7375 178.891C53.1612 178.375 55.6404 177.295 57.2605 176.46C58.8806 175.65 61.2617 174.276 62.5381 173.417C63.8146 172.557 65.9011 171.011 67.1775 169.98C68.454 168.949 70.7368 166.887 72.2096 165.414C73.707 163.917 75.6217 161.781 76.4808 160.628C77.4627 159.327 78.0027 158.345 77.9536 158.05C77.9045 157.78 77.6591 157.535 77.389 157.486C77.0208 157.437 76.6035 157.829 75.7935 158.958C75.1798 159.793 73.3633 161.855 71.7432 163.524C70.1231 165.218 67.693 167.476 66.3429 168.556C64.9928 169.636 62.7345 171.306 61.3108 172.238C59.8871 173.171 57.2851 174.619 55.5423 175.479C53.7994 176.338 51.3447 177.393 50.1419 177.811C48.9391 178.252 47.6381 178.768 47.2454 178.94C46.8772 179.136 45.5516 179.406 44.2998 179.553C42.6551 179.75 41.4769 179.725 39.9549 179.529C38.8012 179.357 37.2057 178.989 36.3956 178.719C35.5856 178.424 34.2846 177.786 33.4745 177.32C32.689 176.853 31.3635 175.724 30.5289 174.84C29.6452 173.883 28.6633 172.459 28.1233 171.404C27.6324 170.397 27.0678 168.925 26.8469 168.114C26.6505 167.304 26.3314 165.488 26.1841 164.064C25.9386 162.051 25.9386 160.677 26.1841 157.805C26.3559 155.767 26.7487 152.576 27.0923 150.686C27.4114 148.796 28.0988 145.531 28.5652 143.445C29.0561 141.358 29.8907 138.143 30.4307 136.326C30.9708 134.51 31.9526 131.515 32.6399 129.698C33.3273 127.882 34.5301 124.936 35.3401 123.194C36.1256 121.426 37.4512 118.775 38.2612 117.302C39.0958 115.829 40.3968 113.669 41.1577 112.516C41.9187 111.362 43.5879 109.349 44.8643 107.999C46.1408 106.673 48.1291 104.882 49.2828 103.998C50.4365 103.139 52.7439 101.739 57.4815 99.383L59.5925 99.4075C60.7462 99.4321 62.6118 99.6285 63.7655 99.8739C64.9192 100.095 66.9566 100.659 68.3067 101.101C69.6568 101.543 71.866 102.427 73.2161 103.04C74.5661 103.679 76.3335 104.661 77.1436 105.201C77.9536 105.741 79.2546 106.723 80.0156 107.385C80.8011 108.048 81.6357 108.564 81.8566 108.514C82.1021 108.49 82.323 108.244 82.3721 107.974C82.4212 107.68 82.1266 107.164 81.6357 106.673C81.1938 106.207 79.9419 105.176 78.8619 104.366C77.7818 103.556 75.5726 102.23 73.9525 101.445C72.3324 100.659 70.0004 99.6776 68.7976 99.2848C67.5948 98.8921 65.7047 98.3766 64.6246 98.1556C63.5446 97.9347 61.679 97.7383 60.5007 97.7138C58.6843 97.6647 58.267 97.7383 57.9724 98.082C57.6533 98.4993 57.6042 98.4993 57.1378 97.9593C56.8432 97.6647 56.4014 96.7074 56.1314 95.8237C55.8123 94.7927 55.665 93.5408 55.665 92.2644C55.665 90.8652 55.8368 89.8342 56.2296 88.7051C56.5487 87.8214 57.1133 86.6186 57.506 86.0049C57.8988 85.3912 58.7579 84.3112 59.4452 83.5748C60.1325 82.8383 61.409 81.7828 62.2927 81.1937C63.1764 80.6291 64.7228 79.8191 65.7292 79.4263C66.7357 79.009 68.4049 78.5181 69.4113 78.2972Z" fill="#6F4BFF"/>
<path d="M96.4384 17.4944C97.8621 17.2244 99.9486 16.9053 101.102 16.7826C102.256 16.6598 104.956 16.6107 107.116 16.6353C109.964 16.7089 111.731 16.8808 113.499 17.249C114.849 17.5435 117.009 18.1327 118.285 18.5254C119.562 18.9427 121.452 19.7037 122.458 20.2191C123.465 20.7101 124.986 21.6429 125.846 22.2565C126.68 22.8948 127.932 24.0976 128.644 24.9322C129.331 25.7668 130.313 27.3623 130.829 28.4178C131.344 29.4979 131.933 31.118 132.179 31.9771C132.498 33.2781 132.596 35.1682 132.817 49.7737L134.02 49.9701C134.854 50.0928 135.345 50.3137 135.591 50.7065C135.787 51.001 135.959 51.5656 135.959 51.9338C135.959 52.302 135.861 52.8911 135.713 53.2103C135.591 53.5539 135.198 53.9467 134.854 54.0694C134.511 54.2167 134.192 54.5849 134.118 54.8794C134.069 55.174 133.725 56.6959 133.357 58.2424C132.989 59.8134 132.547 61.4089 132.375 61.8017C132.203 62.219 131.909 64.4773 131.688 66.8338C131.491 69.2149 131.123 72.3569 130.902 73.8297C130.681 75.3271 130.19 77.8063 129.798 79.3528C129.356 81.0956 128.619 83.133 127.858 84.6304C126.999 86.4223 126.214 87.6005 124.986 88.9015C124.078 89.9079 122.655 91.1844 121.844 91.7244C121.034 92.2645 119.709 93.0009 118.899 93.3691C118.089 93.7373 116.714 94.2037 115.83 94.4246C114.947 94.621 113.523 94.891 112.639 94.9892C111.756 95.1119 109.399 95.1855 107.362 95.161C104.932 95.161 102.968 95.0137 101.593 94.7192C100.44 94.4982 98.6231 94.0318 97.543 93.6636C96.4629 93.32 94.6465 92.5836 93.4927 91.9944C92.339 91.4299 90.7435 90.4725 89.9334 89.8834C89.1234 89.2697 87.6997 87.8214 86.7423 86.6432C85.8095 85.4649 84.5822 83.7712 84.0176 82.863C83.453 81.9547 82.5939 80.1628 82.0784 78.8618C81.5629 77.5854 80.9002 75.4989 80.5565 74.1979C80.1883 72.7496 79.8937 70.565 79.7465 68.3066C79.6237 66.3674 79.501 62.759 79.501 60.3289C79.501 57.9233 79.3782 55.2476 79.2555 54.4376C79.1082 53.6521 78.74 52.572 78.3964 52.0565C78.0527 51.5411 77.3163 50.8292 76.7517 50.461C75.9171 49.8964 75.4753 49.7737 72.5542 49.7737L72.7015 44.7416C72.7997 41.1332 72.9715 39.0958 73.3151 37.5002C73.5852 36.2974 74.0516 34.6282 74.3707 33.8182C74.7143 33.0081 75.4507 31.4862 76.0644 30.4061C76.8499 29.007 77.93 27.6814 79.7465 25.8158C81.2438 24.2939 83.0848 22.6984 84.1649 22.0356C85.1713 21.3728 86.7914 20.4892 87.7242 20.0473C88.6815 19.63 90.4489 18.9672 91.6517 18.6236C92.8791 18.2799 95.0147 17.7644 96.4384 17.4944Z" fill="#080A16"/>
<path d="M58.0715 98.1557C58.1697 97.9594 58.5133 97.763 58.8815 97.6893C59.2252 97.6402 60.2807 97.6402 61.2135 97.6893C62.1708 97.763 63.7664 97.9839 64.7728 98.1803C65.7792 98.3766 67.6203 98.8676 68.8231 99.2849C70.0504 99.6776 72.3578 100.635 73.9779 101.445C75.598 102.231 77.8072 103.532 78.8873 104.342C79.9674 105.176 81.2193 106.207 81.6611 106.649C82.1766 107.164 82.4466 107.655 82.3975 107.95C82.3484 108.22 82.1275 108.49 81.882 108.515C81.6611 108.539 80.8265 108.048 80.0656 107.385C79.2801 106.723 77.9791 105.741 77.169 105.176C76.359 104.636 74.5916 103.679 73.2415 103.041C71.8914 102.402 69.8049 101.568 68.5776 101.15C67.3748 100.758 65.4356 100.218 64.2819 99.9722C63.1282 99.7267 61.2135 99.4322 60.0107 99.334C58.317 99.1621 57.8015 99.0394 57.6296 98.6958C57.4824 98.4257 57.5069 98.303 57.6542 98.3767C57.8015 98.4503 57.9733 98.3521 58.0715 98.1557Z" fill="#080A16"/>
<path d="M131.369 130.14C131.221 129.109 131.246 128.668 131.516 128.373C131.688 128.152 131.958 127.956 132.13 127.956C132.277 127.956 132.522 128.078 132.67 128.275C132.817 128.447 133.013 129.257 133.112 130.042C133.185 130.852 133.431 133.847 133.627 136.67C133.823 139.517 133.995 142.856 133.995 144.108C133.995 145.458 134.093 146.366 134.241 146.366C134.388 146.366 134.486 145.875 134.486 145.261C134.486 144.476 134.633 143.985 135.051 143.518C135.443 143.077 135.861 142.88 136.45 142.856C136.916 142.856 142.218 142.856 148.232 142.88C158.321 142.929 159.205 142.954 159.72 143.371C160.138 143.69 160.334 144.157 160.457 145.139C160.629 146.415 160.678 146.513 161.365 146.587C161.782 146.636 162.298 146.857 162.543 147.078C162.887 147.397 162.985 147.863 162.961 149.262C162.961 150.981 162.936 151.054 162.298 151.3C161.807 151.496 161.586 151.496 161.561 151.3C161.512 151.128 157.29 151.03 134.241 151.03V160.309C134.241 165.414 134.118 172.778 133.971 176.681C133.823 180.609 133.627 184.757 133.382 187.973H132.645C131.909 187.973 131.909 187.973 131.958 186.623C131.982 185.887 132.13 181.861 132.277 177.663C132.4 173.49 132.522 165.979 132.522 160.971C132.522 152.159 132.498 151.889 132.031 151.594C131.614 151.324 131.541 151.03 131.541 149.557C131.541 148.379 131.663 147.741 131.909 147.471C132.179 147.201 132.277 146.513 132.277 144.599C132.277 143.224 132.105 139.714 131.909 136.793C131.712 133.896 131.467 130.901 131.369 130.14Z" fill="#080A16"/>
<path d="M71.7687 163.524C73.3888 161.855 75.2053 159.793 75.8189 158.934C76.629 157.805 77.0463 157.437 77.4145 157.486C77.6845 157.51 77.93 157.756 77.9791 158.026C78.0282 158.345 77.4881 159.327 76.5063 160.603C75.6471 161.757 73.7324 163.917 72.2351 165.39C70.7623 166.887 68.4794 168.949 67.203 169.98C65.9265 171.011 63.84 172.558 62.5636 173.417C61.2871 174.276 58.9061 175.65 57.286 176.461C55.6659 177.271 53.1866 178.375 51.7629 178.891C50.3392 179.406 48.7927 179.873 48.3264 179.946C47.86 180.02 47.369 180.216 47.2708 180.363C47.1726 180.511 47.1236 180.241 47.1481 179.799C47.1972 179.333 47.3936 178.866 47.5899 178.768C47.7863 178.67 48.9646 178.228 50.1674 177.811C51.3947 177.369 53.8249 176.313 55.5677 175.454C57.3351 174.619 59.9125 173.147 61.3362 172.214C62.76 171.281 65.0183 169.636 66.3684 168.556C67.7184 167.452 70.1486 165.193 71.7687 163.524Z" fill="#080A16"/>
<path d="M70.6393 51.0994C71.1547 50.6576 71.9648 50.1421 72.4066 49.9948C72.8485 49.823 73.7076 49.7248 74.3213 49.7493C75.0332 49.7984 75.8678 50.0684 76.6533 50.5594C77.586 51.124 78.0524 51.6149 79.2552 53.9714L79.4762 62.1946C79.5989 66.7113 79.8198 71.0806 79.9425 71.8907C80.0898 72.7007 80.4826 74.3208 80.8262 75.5236C81.1699 76.7019 81.8572 78.6166 82.3727 79.8194C82.8636 80.9976 83.7964 82.7404 84.4346 83.6732C85.0729 84.6306 86.1775 86.1034 86.8893 86.9871C87.6257 87.8708 88.7058 88.9999 89.2949 89.4909C89.9086 89.9818 91.2832 90.89 92.3633 91.5037C93.4434 92.1419 95.2598 92.9765 96.4136 93.3938C97.5673 93.8111 99.5065 94.3757 100.709 94.6703C102.526 95.0876 103.753 95.1857 107.754 95.1857C110.43 95.2103 112.615 95.2839 112.615 95.4067C112.615 95.5049 112.197 96.364 111.706 97.3459C111.117 98.475 110.135 99.7515 109.055 100.856C108.098 101.813 106.944 102.893 106.478 103.237C106.011 103.605 104.49 104.563 100.587 106.87L94.1552 102.059C90.5959 99.4078 86.1038 96.1676 84.1401 94.8666C82.1763 93.5656 79.9425 92.1665 77.7579 91.0373V68.3314L76.8496 68.1841C76.3341 68.1105 75.205 67.6932 74.3213 67.2759C73.3885 66.8095 72.2103 65.9503 71.4248 65.1403C70.6883 64.4039 69.7801 63.1274 69.4119 62.3174C69.0192 61.5073 68.5773 60.2309 68.4055 59.4945C68.2582 58.7581 68.1846 57.3834 68.2337 56.4261C68.3155 55.2806 68.5691 54.2414 68.9946 53.3086C69.3874 52.4495 70.0501 51.5658 70.6393 51.0994Z" fill="#F7BC4C"/>
<path d="M134.83 163.819C134.633 161.192 134.388 157.216 134.314 155.031L134.167 151.006L147.668 151.104C155.105 151.128 161.242 151.226 161.34 151.3C161.414 151.374 161.389 151.914 161.046 153.632H163.034C164.703 153.632 165.243 153.73 166.495 154.344C167.305 154.712 168.606 155.645 169.392 156.43C170.177 157.191 171.184 158.37 171.601 159.032C172.018 159.72 172.509 160.873 172.681 161.61C172.853 162.346 173 164.089 173 165.488C173 166.863 172.853 168.802 172.656 169.784C172.46 170.741 172.043 172.263 171.724 173.147C171.404 174.031 170.766 175.381 170.3 176.191C169.833 176.976 168.901 178.105 168.213 178.719C167.305 179.529 166.544 179.946 165.268 180.315C164.09 180.658 163.157 180.781 162.322 180.707C161.659 180.634 160.555 180.29 158.64 179.333L148.33 179.234C139.003 179.161 137.947 179.112 137.333 178.744C136.965 178.498 136.548 178.081 136.425 177.811C136.302 177.541 135.959 175.356 135.689 172.975C135.419 170.569 135.026 166.446 134.83 163.819Z" fill="#F7BC4C"/>
<path d="M72.5306 49.1847C72.4815 49.6511 72.4324 49.2093 72.4324 48.2028C72.4324 47.1964 72.4815 46.8037 72.5306 47.3437C72.5797 47.8837 72.5797 48.7183 72.5306 49.1847Z" fill="#6F4BFF"/>
<path d="M154.713 142.88C153.756 142.929 152.283 142.929 151.399 142.88C150.515 142.831 151.301 142.806 153.117 142.806C154.934 142.806 155.67 142.831 154.713 142.88Z" fill="#92A8A5"/>
<path d="M119.561 106.87C120.371 105.864 121.304 104.612 121.623 104.121C121.942 103.605 122.311 103.188 122.433 103.188C122.581 103.188 122.851 103.36 123.047 103.556C123.243 103.753 123.415 103.998 123.415 104.121C123.415 104.219 123.17 104.685 122.9 105.152C122.605 105.618 121.672 106.895 120.838 107.975C120.003 109.055 118.334 110.871 117.131 112C115.928 113.13 114.701 114.21 114.382 114.381C113.989 114.627 113.695 114.651 113.351 114.48C113.081 114.357 112.86 114.087 112.86 113.94C112.885 113.768 114.038 112.516 115.487 111.166C116.91 109.816 118.751 107.876 119.561 106.87Z" fill="#080A16"/>
<path d="M96.9046 124.593C98.9911 123.218 100.808 121.917 100.906 121.721C101.028 121.525 101.225 121.426 101.372 121.5C101.519 121.574 101.618 121.917 101.593 122.286C101.569 122.654 101.47 123.071 101.372 123.218C101.274 123.366 98.8193 125.084 95.9227 127.048C93.0262 129.011 90.0069 130.975 89.2214 131.392C88.4604 131.81 87.6504 132.104 87.454 132.031C87.2576 131.957 87.0858 131.81 87.1104 131.687C87.1349 131.54 88.485 130.46 90.1296 129.257C91.7497 128.054 94.8181 125.968 96.9046 124.593Z" fill="#080A16"/>
<path d="M99.3593 130.607C100.636 129.723 102.403 128.57 103.287 128.03C104.171 127.465 105.005 127.048 105.128 127.097C105.251 127.121 105.373 127.465 105.373 127.833C105.373 128.373 105.152 128.619 104.146 129.183C103.459 129.576 101.102 131.147 98.8684 132.718C96.6346 134.264 94.1553 135.934 93.3453 136.425C92.5352 136.915 91.6761 137.308 91.4306 137.308C91.2097 137.308 91.0133 137.136 91.0133 136.94C91.0133 136.744 92.3634 135.59 94.0081 134.387C95.6772 133.209 98.0829 131.491 99.3593 130.607Z" fill="#080A16"/>
<path d="M57.5804 134.927C57.5558 134.584 57.7522 134.068 57.9977 133.823C58.2431 133.577 58.5623 133.405 58.7095 133.454C58.8568 133.503 59.0777 133.7 59.2005 133.896C59.3232 134.117 59.1268 136.277 58.7095 139.444C58.3168 142.316 58.0468 144.672 58.1204 144.672C58.1941 144.672 59.9614 143.911 62.0479 142.954C64.1344 142.021 66 141.236 66.1473 141.236C66.3436 141.236 66.4418 141.53 66.3927 142.021C66.3436 142.782 66.2209 142.88 63.2753 144.23C61.5815 144.991 58.1695 146.489 55.6657 147.52C53.1619 148.551 48.7189 150.343 45.7733 151.447C41.0357 153.288 40.3975 153.46 40.0784 153.141C39.8575 152.92 39.7838 152.626 39.882 152.356C40.0048 152.135 40.3484 151.865 40.6921 151.717C41.0357 151.595 43.4659 150.662 46.0924 149.655C48.7189 148.649 52.0328 147.348 53.4565 146.759C55.8621 145.752 56.0585 145.605 56.2058 144.869C56.3039 144.427 56.6721 142.144 57.0158 139.837C57.3595 137.505 57.6049 135.295 57.5804 134.927Z" fill="#080A16"/>
<path d="M93.959 142.365C94.1553 142.169 96.6837 140.352 99.5802 138.315C102.477 136.277 104.981 134.608 105.152 134.608C105.324 134.608 105.398 134.903 105.349 135.418C105.275 135.835 105.152 136.228 105.054 136.253C104.956 136.302 102.845 137.726 100.341 139.419C97.8374 141.138 95.4318 142.709 94.9899 142.929C94.3517 143.249 94.1553 143.273 93.8853 143.003C93.6399 142.758 93.6644 142.635 93.959 142.365Z" fill="#080A16"/>
<path d="M158.91 160.873C158.984 158.37 159.082 156.185 159.131 156.038C159.205 155.866 159.524 155.718 159.868 155.718C160.432 155.718 160.481 155.817 160.481 156.774C160.506 157.339 160.604 158.296 160.727 158.91C160.874 159.572 161.218 160.284 161.635 160.701C162.003 161.094 163.083 161.782 164.041 162.248C164.973 162.714 166.225 163.132 166.79 163.205C167.723 163.303 167.845 163.402 167.845 163.942C167.845 164.531 167.796 164.555 166.667 164.408C166.029 164.334 164.949 164.064 164.286 163.794C163.599 163.549 162.543 163.009 160.727 161.855L160.604 162.911C160.555 163.475 160.432 164.58 160.236 166.765L161.463 167.378C162.126 167.722 163.697 168.237 164.924 168.557C166.569 168.949 167.109 169.195 167.06 169.465C167.011 169.661 166.667 169.857 166.25 169.907C165.832 169.956 164.63 169.759 163.55 169.465C162.47 169.195 161.242 168.802 160.849 168.606C160.432 168.409 160.088 168.262 160.064 168.311C160.039 168.336 159.941 169.293 159.671 172.533L160.506 173.073C160.972 173.343 161.954 173.76 162.69 173.981C163.427 174.202 164.335 174.374 164.703 174.374C165.219 174.374 165.391 174.497 165.391 174.865C165.391 175.135 165.194 175.43 164.949 175.528C164.728 175.601 163.82 175.552 162.936 175.381C162.052 175.233 160.899 174.89 160.358 174.62C159.818 174.35 159.352 174.129 159.303 174.129C159.278 174.129 159.254 174.718 159.254 175.43C159.254 176.117 159.18 177.074 159.082 177.516C158.959 177.958 158.738 178.351 158.567 178.424C158.419 178.498 158.1 178.498 157.904 178.424C157.658 178.351 157.536 177.983 157.536 177.271C157.536 176.682 157.83 173.785 158.174 170.815C158.517 167.845 158.837 163.377 158.91 160.873Z" fill="#080A16"/>
<path d="M88.0421 36.2483C87.6494 35.6591 87.3302 35.1436 87.3302 35.07C87.3302 34.9964 87.3793 34.9473 87.4284 34.9473C87.4775 34.9473 90.104 35.3891 93.2706 35.9046C96.4126 36.4446 100.144 37.0092 101.567 37.181C102.991 37.3529 106.698 37.5001 109.791 37.5247C113.252 37.5247 116.124 37.402 117.204 37.2301C118.186 37.0583 120.027 36.5183 121.254 36.0273C122.506 35.5609 124.028 35.0945 124.642 35.0209C125.378 34.9227 126.114 34.9964 126.851 35.2664C127.465 35.4873 128.348 36.0764 128.839 36.5919C129.306 37.1074 129.944 38.1384 130.214 38.8748C130.508 39.6112 130.852 41.084 130.999 42.115C131.147 43.1705 131.269 45.2815 131.269 49.5527L129.723 49.4545C128.446 49.3809 128.054 49.2336 127.342 48.6199C126.875 48.2026 125.918 47.6135 125.255 47.2944C124.323 46.8771 123.586 46.7298 122.236 46.7298C121.279 46.7298 120.174 46.8525 119.781 47.0244C119.413 47.1716 118.922 47.4908 118.677 47.6871C118.431 47.9081 118.235 48.2763 118.259 48.5217C118.259 48.7672 118.505 48.9881 118.922 49.0863C119.364 49.1845 119.536 49.3072 119.364 49.4791C119.241 49.6018 118.137 49.7736 116.909 49.8473C115.682 49.9209 113.325 49.8473 111.632 49.7C109.938 49.5527 107.851 49.3072 105.372 48.9145L105.986 48.3008C106.477 47.8099 106.551 47.6135 106.33 47.2698C106.182 47.0489 105.691 46.7298 105.225 46.558C104.759 46.3861 103.728 46.2634 102.918 46.2634C102.108 46.2389 100.807 46.4107 100.021 46.6071C99.2601 46.8034 97.7627 47.4171 96.7072 47.9326C94.8662 48.8654 94.7434 48.8899 91.1596 49.1109C88.7294 49.2336 87.5266 49.2336 87.6003 49.0618C87.6739 48.939 88.0176 48.2026 88.3858 47.4662C88.754 46.7298 89.2204 45.2815 89.4167 44.2751C89.6868 43.0232 89.7604 41.9677 89.6622 40.9613C89.564 40.1512 89.3185 38.9975 89.1222 38.3838C88.9013 37.7702 88.4349 36.8128 88.0421 36.2483Z" fill="#F7BC4C"/>
<path d="M84.8755 57.0395C85.0228 55.4931 85.1947 53.9221 85.2683 53.5539C85.391 52.8665 85.4401 52.8665 89.0485 52.8665L89.4167 53.7257C89.6131 54.1921 89.8586 55.3949 89.9322 56.3768C90.0059 57.3341 90.1777 58.7087 90.325 59.3715C90.4723 60.0588 90.7914 61.0652 91.0614 61.6544C91.3069 62.2189 92.0187 63.2499 92.6569 63.9372C93.467 64.7718 94.2525 65.3364 95.1853 65.6801C96.1917 66.0728 97.2963 66.2201 99.6037 66.3183C101.936 66.3919 102.991 66.3428 104.022 66.0483C104.759 65.8273 105.912 65.2873 106.575 64.8455C107.262 64.4036 108.293 63.4217 108.858 62.6853C109.447 61.9489 110.257 60.6725 110.65 59.8624C111.018 59.0524 111.534 57.6777 111.754 56.7941C111.975 55.9104 112.294 55.0512 112.442 54.8794C112.614 54.7076 112.982 54.5603 113.276 54.5848C113.595 54.5848 114.062 54.7076 114.332 54.8303C114.602 54.953 114.921 55.444 115.044 55.8858C115.166 56.3031 115.461 57.555 115.682 58.6351C115.927 59.7151 116.541 61.7034 117.081 63.0535C117.793 64.8209 118.088 65.901 118.112 66.9074C118.137 67.9384 118.014 68.4539 117.646 68.9693C117.376 69.3376 116.811 69.7548 116.418 69.8776C115.903 70.0494 115.24 70.0249 114.209 69.8285C113.399 69.6567 112.319 69.2885 111.804 69.043C111.313 68.7975 110.674 68.5766 110.404 68.5766C110.134 68.5766 109.84 68.773 109.766 69.0184C109.668 69.2394 109.717 69.6076 109.84 69.8039C110.061 70.1231 109.57 70.1721 106.01 70.1721C102.598 70.1721 101.715 70.2458 100.586 70.6385C99.8492 70.9086 98.6709 71.4977 98.0082 71.9641C97.3209 72.4305 96.339 73.0687 95.7989 73.3878C95.1116 73.8051 94.4489 73.9769 93.5161 73.9769C92.7551 73.9769 91.8714 73.8051 91.3069 73.5105C90.8159 73.2651 89.834 72.455 89.1713 71.7186C88.484 71.0067 87.5512 69.6321 87.0357 68.6993C86.5447 67.742 85.9065 66.2201 85.612 65.2628C85.3419 64.3054 84.9983 62.7099 84.8755 61.7034C84.7283 60.5252 84.7283 58.856 84.8755 57.0395Z" fill="#F7BC4C"/>
<path d="M128.569 66.0728C129.306 65.7046 130.14 65.1891 130.386 64.9191C130.656 64.6245 130.901 64.4282 130.95 64.4773C130.999 64.5263 130.926 65.4837 130.803 66.6374C130.656 67.7665 130.361 69.313 130.14 70.0494C129.919 70.7858 129.502 71.8904 129.183 72.5041C128.888 73.1178 128.299 73.9033 127.857 74.296C127.44 74.6642 126.851 74.9588 126.532 74.9588C126.237 74.9833 125.206 74.3451 124.151 73.486C123.144 72.6759 121.721 71.7922 121.009 71.5222C120.321 71.2522 119.56 71.0313 119.364 71.0313C119.168 71.0313 118.799 70.9576 118.554 70.884C118.161 70.7367 118.186 70.7122 118.628 70.4176C118.898 70.2703 119.315 69.7303 119.536 69.2394C119.781 68.7239 119.978 67.9384 119.978 67.472C119.978 67.0056 119.88 66.3674 119.56 65.5082L120.984 66.0728C122.064 66.4656 123.022 66.6374 124.813 66.6619C126.974 66.711 127.366 66.6619 128.569 66.0728Z" fill="#F7BC4C"/>
<path d="M100.659 76.4807C100.978 76.0143 101.617 75.4252 102.083 75.1797C102.697 74.8115 103.261 74.7133 104.145 74.787C104.808 74.8361 106.084 75.0815 106.968 75.327C108.097 75.6461 109.447 75.7688 111.632 75.7934C113.325 75.7934 115.535 75.7198 116.541 75.6216C117.891 75.4743 118.529 75.4988 118.996 75.7443C119.315 75.9161 119.855 76.4562 120.174 76.9226C120.64 77.6099 120.739 78.0026 120.665 79.009C120.591 79.6964 120.346 80.6782 120.076 81.2183C119.83 81.7583 119.168 82.642 118.628 83.182C118.088 83.7221 117.13 84.4094 116.467 84.7285C115.829 85.0231 114.626 85.4403 113.767 85.6367C112.933 85.8331 111.386 86.0049 110.331 86.0049C109.202 86.0049 107.876 85.8331 107.017 85.5631C106.256 85.3176 105.053 84.7776 104.39 84.3603C103.703 83.943 102.648 83.0348 101.985 82.3474C101.347 81.6601 100.659 80.7028 100.463 80.2364C100.266 79.77 100.095 78.9109 100.095 78.3463C100.095 77.6344 100.266 77.0207 100.659 76.4807Z" fill="#F7BC4C"/>
<path d="M73.1176 122.457C73.5349 121.23 73.9767 119.561 74.124 118.726L74.394 117.18H75.4004C76.0141 117.18 76.726 117.4 77.2414 117.744C77.6833 118.039 78.297 118.677 78.5915 119.143C79.0334 119.88 79.107 120.371 79.107 122.825C79.0825 125.206 78.9843 125.943 78.4442 127.612C78.076 128.692 77.8306 129.6 77.8797 129.649C77.9533 129.674 78.8125 129.404 79.7698 129.036C80.7517 128.643 82.9363 127.489 84.6301 126.409C86.3238 125.354 88.5821 123.93 89.6622 123.243C90.7423 122.555 92.5097 121.598 93.5897 121.083C94.6698 120.567 96.2162 120.002 97.0263 119.782C97.8363 119.561 98.8428 119.389 99.2355 119.389C99.6283 119.389 100.217 119.561 100.512 119.757C100.831 119.953 101.077 120.371 101.077 120.69C101.077 120.984 100.733 121.573 100.291 121.991C99.8492 122.408 97.8118 123.856 95.7989 125.231C93.7615 126.581 90.9877 128.52 89.5886 129.551C88.2139 130.582 87.0848 131.589 87.0848 131.785C87.0848 132.006 87.3057 132.153 87.6248 132.153C87.9439 132.153 88.6803 131.859 89.294 131.49C89.906 131.148 92.8613 129.17 95.8963 127.138L95.9217 127.121C98.9655 125.059 102.034 123.095 102.721 122.727C103.433 122.384 104.366 122.089 104.759 122.089C105.176 122.089 105.716 122.31 105.986 122.58C106.256 122.85 106.551 123.316 106.624 123.635C106.722 123.979 106.575 124.642 106.207 125.403C105.839 126.139 105.323 126.753 104.906 126.998C104.513 127.195 103.188 128.005 101.96 128.815C100.733 129.6 98.0082 131.466 95.9217 132.963C93.8352 134.461 91.8714 135.909 91.5523 136.179C91.2578 136.473 91.0123 136.842 91.0123 137.013C91.0123 137.161 91.2823 137.308 91.626 137.308C91.9942 137.308 93.3688 136.523 94.9889 135.418C96.5108 134.387 99.4564 132.399 101.494 130.999C103.777 129.453 105.495 128.471 105.863 128.471C106.207 128.471 106.722 128.717 107.017 129.036C107.434 129.478 107.508 129.797 107.434 130.68C107.361 131.294 107.041 132.227 106.698 132.767C106.305 133.405 105.2 134.338 103.629 135.418C102.304 136.326 99.5301 138.265 97.5172 139.714C95.4798 141.162 93.8352 142.512 93.8352 142.708C93.8352 142.905 94.0561 143.101 94.3261 143.15C94.5961 143.199 95.6762 142.659 96.7808 141.898C97.8609 141.186 100.144 139.64 101.862 138.462C103.605 137.284 105.151 136.351 105.299 136.4C105.47 136.449 105.642 136.743 105.691 137.087C105.74 137.406 105.446 138.241 105.078 138.953C104.709 139.64 103.629 141.113 102.672 142.217C101.715 143.322 99.9228 145.114 98.6709 146.219C97.419 147.323 95.4307 148.919 94.2525 149.753C93.0742 150.588 90.8896 151.889 89.4167 152.625C87.9194 153.362 86.0047 154.221 85.121 154.491C84.2373 154.761 82.5927 155.203 81.439 155.473C80.2853 155.718 78.7388 155.988 76.6523 156.258L75.7686 154.835C75.2777 154.025 73.9031 152.061 72.7248 150.441C71.5466 148.821 69.6564 146.366 68.5273 144.991C66.7108 142.757 66.4653 142.34 66.4653 141.481C66.4653 140.941 66.6372 139.738 66.8335 138.781C67.0299 137.824 67.5699 136.105 68.0363 134.927C68.4782 133.724 69.6564 130.95 70.6383 128.717C71.6202 126.483 72.7248 123.685 73.1176 122.457Z" fill="#F7BC4C"/>
<path d="M153.853 126.998C153.853 129.649 148.453 136.367 145.752 139.395C145.163 139.1 144.934 136.326 144.893 134.976C144.893 130.558 147.962 124.912 148.33 121.598C148.698 118.284 150.294 115.216 152.012 113.129C153.73 111.043 154.958 115.216 153.853 117.425C152.748 119.634 153.853 123.685 153.853 126.998Z" fill="white"/>
<path d="M103.63 77.487C103.581 77.1679 103.654 76.7506 103.801 76.5542C103.949 76.3579 104.292 76.186 104.538 76.186C104.808 76.186 105.593 76.7506 106.281 77.4625C106.993 78.1743 108.024 78.9353 108.564 79.1562C109.104 79.4017 110.012 79.6717 110.601 79.7453C111.19 79.8435 112.074 79.7944 112.565 79.6472C113.056 79.5244 113.866 79.1317 114.332 78.788C114.799 78.4444 115.437 78.0271 115.756 77.8552C116.173 77.6098 116.443 77.6098 116.738 77.8061C116.959 77.9534 117.18 78.2234 117.229 78.4198C117.278 78.6162 117.008 79.1317 116.615 79.5981C116.247 80.0645 115.363 80.7027 114.7 81.0709C113.645 81.6109 113.178 81.7091 111.141 81.7091C109.128 81.7091 108.637 81.6109 107.582 81.0954C106.919 80.7518 105.765 79.9417 105.053 79.2544C104.317 78.5916 103.679 77.7816 103.63 77.487Z" fill="#080A16"/>
<path d="M40.4814 66.4222C40.3309 66.2717 40.0515 66.1427 39.8581 66.1642C39.6646 66.1642 39.4497 66.2287 39.4067 66.3362C39.3422 66.4222 39.1058 67.2604 38.8478 68.2062C38.5899 69.1519 38.289 70.1622 38.1815 70.4631C37.988 70.936 37.6871 71.0649 35.8171 71.4948C34.334 71.8173 33.6032 72.0752 33.4742 72.3546C33.3668 72.5481 33.3452 72.892 33.4312 73.1069C33.4957 73.3219 33.8396 73.5798 34.205 73.6873C34.5489 73.7947 35.4302 74.0097 36.1395 74.1601C36.8488 74.3106 37.5796 74.59 37.7731 74.762C37.9665 74.9339 38.3534 75.8152 38.6114 76.6965C38.8693 77.5777 39.2132 78.5235 39.3852 78.8029C39.5571 79.0609 39.8795 79.2758 40.116 79.2758C40.3524 79.2758 40.6318 79.1039 40.7393 78.9104C40.8468 78.6955 41.1907 77.6637 41.4916 76.589C41.814 75.5143 42.1795 74.59 42.3299 74.5041C42.4804 74.4181 43.1682 74.2461 43.8775 74.0957C44.5868 73.9667 45.4896 73.7088 45.855 73.5583C46.3923 73.3219 46.5643 73.1284 46.5643 72.72C46.5643 72.4191 46.3924 72.0967 46.1774 71.9892C45.984 71.8817 45.0382 71.6453 44.0924 71.4518C43.1467 71.2584 42.2439 70.979 42.115 70.8285C41.9645 70.678 41.5991 69.7108 41.2767 68.6361C40.9758 67.5614 40.6103 66.5726 40.4814 66.4222Z" fill="#080A16"/>
<path d="M54.1821 4.24271C54.0316 4.09225 53.7522 3.96328 53.5587 3.98477C53.3653 3.98477 53.1503 4.04926 53.1074 4.15674C53.0429 4.24271 52.8064 5.08099 52.5485 6.02674C52.2906 6.9725 51.9896 7.98274 51.8822 8.28366C51.6887 8.75653 51.3878 8.8855 49.5178 9.31539C48.0347 9.63781 47.3039 9.89574 47.1749 10.1752C47.0674 10.3686 47.0459 10.7125 47.1319 10.9275C47.1964 11.1424 47.5403 11.4003 47.9057 11.5078C48.2496 11.6153 49.1309 11.8302 49.8402 11.9807C50.5495 12.1312 51.2803 12.4106 51.4738 12.5825C51.6672 12.7545 52.0541 13.6358 52.3121 14.517C52.57 15.3983 52.9139 16.3441 53.0859 16.6235C53.2578 16.8814 53.5802 17.0964 53.8167 17.0964C54.0531 17.0964 54.3325 16.9244 54.44 16.731C54.5475 16.516 54.8914 15.4843 55.1923 14.4096C55.5147 13.3348 55.8801 12.4106 56.0306 12.3246C56.1811 12.2386 56.8689 12.0667 57.5782 11.9162C58.2875 11.7872 59.1903 11.5293 59.5557 11.3789C60.093 11.1424 60.265 10.949 60.265 10.5406C60.265 10.2397 60.093 9.91723 59.8781 9.80976C59.6846 9.70229 58.7389 9.46585 57.7931 9.2724C56.8474 9.07895 55.9446 8.79953 55.8157 8.64907C55.6652 8.49861 55.2998 7.53136 54.9774 6.45664C54.6764 5.38192 54.311 4.39317 54.1821 4.24271Z" fill="#080A16"/>
<path d="M160.624 85.3919C160.474 85.2414 160.195 85.1124 160.001 85.1339C159.808 85.1339 159.593 85.1984 159.55 85.3059C159.485 85.3919 159.249 86.2302 158.991 87.1759C158.733 88.1217 158.432 89.1319 158.325 89.4328C158.131 89.9057 157.83 90.0347 155.96 90.4646C154.477 90.787 153.746 91.0449 153.617 91.3243C153.51 91.5178 153.488 91.8617 153.574 92.0766C153.639 92.2916 153.983 92.5495 154.348 92.657C154.692 92.7645 155.573 92.9794 156.283 93.1299C156.992 93.2803 157.723 93.5598 157.916 93.7317C158.11 93.9037 158.497 94.7849 158.754 95.6662C159.012 96.5475 159.356 97.4932 159.528 97.7727C159.7 98.0306 160.023 98.2455 160.259 98.2455C160.495 98.2455 160.775 98.0736 160.882 97.8801C160.99 97.6652 161.334 96.6335 161.635 95.5587C161.957 94.484 162.323 93.5598 162.473 93.4738C162.623 93.3878 163.311 93.2158 164.021 93.0654C164.73 92.9364 165.633 92.6785 165.998 92.528C166.535 92.2916 166.707 92.0981 166.707 91.6897C166.707 91.3888 166.535 91.0664 166.32 90.9589C166.127 90.8515 165.181 90.615 164.236 90.4216C163.29 90.2281 162.387 89.9487 162.258 89.7982C162.108 89.6478 161.742 88.6805 161.42 87.6058C161.119 86.5311 160.753 85.5423 160.624 85.3919Z" fill="#080A16"/>
</svg>
