<svg width="200" height="200" viewBox="0 0 200 200" fill="none" xmlns="http://www.w3.org/2000/svg">
<path d="M58.2484 93.4766C58.8806 93.1334 60.0185 92.7215 60.7772 92.5385C61.5358 92.3554 63.3903 92.1952 67.6261 92.1724L67.4575 95.7646C67.3522 97.7553 67.2257 99.4027 67.1836 99.4256C67.1414 99.4713 66.6567 99.2654 66.0877 98.9908C65.5398 98.7162 64.6758 98.4417 64.149 98.3959C63.5168 98.3349 63.1093 98.4035 62.9267 98.6018C62.7792 98.7849 62.6949 99.1739 62.716 99.4942C62.7792 99.9518 63.011 100.135 64.2543 100.592C65.0762 100.913 66.6778 101.782 67.8369 102.537C68.9959 103.292 70.6818 104.459 71.5669 105.123C72.4731 105.809 73.2528 106.358 73.316 106.358C73.3792 106.358 74.5804 107.205 75.9924 108.258C77.4254 109.287 80.2492 111.369 82.2723 112.857C84.2954 114.367 86.0023 115.648 86.0656 115.717C86.1288 115.785 86.5924 116.151 87.1192 116.54C87.6461 116.906 89.3109 118.165 90.8071 119.286C92.3034 120.43 93.6731 121.437 93.7996 121.528C93.9892 121.643 95.5065 119.858 98.225 116.403C100.522 113.474 102.587 110.843 102.819 110.546C103.135 110.134 103.704 109.882 105.032 109.562C106.022 109.333 107.476 108.852 108.298 108.486C109.12 108.12 110.427 107.434 111.249 106.93C112.07 106.427 112.808 106.015 112.892 106.015C112.998 106.015 113.293 106.587 113.567 107.274C113.862 107.96 114.072 108.875 114.094 109.264C114.094 109.905 113.862 110.248 112.66 111.484C111.881 112.285 110.532 113.634 109.668 114.458C108.804 115.305 107.476 116.54 106.718 117.227C105.959 117.89 104.547 119.011 103.557 119.721C102.566 120.43 101.702 121.002 101.597 121.002C101.513 121.002 101.407 121.254 101.344 121.574C101.281 121.894 101.365 122.306 101.491 122.489C101.639 122.695 101.976 122.855 102.229 122.833C102.503 122.833 103.388 122.398 104.21 121.849C105.032 121.322 106.865 119.858 108.277 118.577C109.668 117.318 111.628 115.465 112.597 114.458C114.157 112.857 114.389 112.536 114.62 110.683L115.569 111.232C116.095 111.529 117.318 112.353 118.308 113.04C119.299 113.749 120.331 114.527 120.605 114.756C120.879 114.984 122.101 116.083 123.324 117.227C124.546 118.371 126.232 120.11 127.075 121.116C127.918 122.123 129.203 123.771 129.941 124.777C130.678 125.784 131.479 126.997 132.217 128.324L130.615 133.06C129.73 135.691 128.255 140.039 127.328 142.739C126.422 145.439 125.579 147.864 125.473 148.116C125.347 148.436 125.284 147.933 125.263 144.569H123.366L123.429 154.065L122.101 157.954C121.364 160.105 119.741 164.819 118.477 168.48C116.664 173.696 116.159 175.39 116.138 176.396C116.095 177.563 116.159 177.769 116.938 178.799C117.402 179.417 118.161 180.355 118.624 180.904C119.088 181.453 119.931 182.139 120.521 182.46C121.259 182.849 122.186 183.077 123.577 183.238C124.672 183.352 125.642 183.466 125.726 183.466C125.832 183.466 125.874 186.967 125.789 199.071L125.263 199.506C124.736 199.963 124.125 199.963 49.6082 199.941L49.1867 199.3C48.7652 198.705 48.7441 198.408 48.7652 186.601C48.7652 175.298 48.7863 174.543 49.1235 174.474C49.3342 174.429 49.9453 173.788 50.4722 173.033C51.0201 172.301 52.0106 170.699 52.6849 169.509C53.3382 168.319 54.434 166.1 55.1084 164.59C55.7617 163.08 56.731 160.654 57.2579 159.213C57.7847 157.771 58.5434 155.438 58.9649 154.065C59.3863 152.692 60.0607 150.267 60.4611 148.688C60.8615 147.109 61.3883 144.729 61.6623 143.402C62.1048 141.229 62.1048 140.908 61.8309 140.565C61.6412 140.336 61.283 140.222 60.8826 140.268C60.3136 140.336 60.2293 140.451 60.0607 141.366C59.9764 141.938 59.576 143.837 59.1756 145.599C58.7963 147.361 58.0376 150.289 57.4897 152.12C56.9629 153.95 55.9935 156.879 55.3613 158.641C54.708 160.403 53.6332 163.057 52.9589 164.521C52.2634 166.008 51.3362 167.885 50.8726 168.708C50.409 169.532 49.6082 170.836 49.0813 171.614C48.5545 172.415 48.133 173.262 48.133 173.513C48.133 173.765 48.2384 174.108 48.3859 174.268C48.6177 174.52 48.5123 174.726 47.8169 175.367C47.3533 175.801 46.1732 176.625 45.1827 177.174C44.1922 177.723 42.5274 178.456 41.4948 178.799C39.8089 179.371 39.261 179.439 36.4371 179.439C33.6765 179.462 33.0654 179.394 31.6956 178.913C30.8315 178.616 29.5882 178.089 28.956 177.746C28.3238 177.38 27.249 176.625 26.5747 176.053C25.9214 175.481 24.9309 174.36 24.4041 173.559C23.8772 172.781 23.1186 171.431 22.7182 170.539C22.3389 169.646 21.8331 168.113 21.5802 167.107C21.3484 166.1 21.0955 164.247 21.0323 162.988C20.948 161.478 21.0323 159.625 21.243 157.611C21.4327 155.918 21.8331 153.241 22.1281 151.662C22.4442 150.083 22.9922 147.521 23.3925 145.942C23.7929 144.363 24.8045 140.84 27.1647 133.129L27.6073 134.456C27.8602 135.165 28.2606 136.218 28.5345 136.79C28.7874 137.362 29.3142 138.231 29.6725 138.712C30.0307 139.215 30.7473 139.924 31.2741 140.313C31.8009 140.702 32.4121 141.137 32.6439 141.274C32.8757 141.412 33.6765 141.686 34.4351 141.915C35.4677 142.235 36.2685 142.304 37.7016 142.212C38.8395 142.144 40.1461 141.915 40.968 141.618C41.7266 141.32 42.9489 140.702 43.7075 140.222C44.4662 139.741 45.5409 138.895 46.131 138.346C46.7 137.774 47.564 136.721 48.0276 135.966C48.4702 135.234 49.1235 133.838 49.4606 132.9C49.7978 131.962 50.3036 130.2 50.5986 129.01C50.8726 127.821 51.4205 124.571 51.8209 121.803C52.2213 119.034 52.7481 115.74 52.9799 114.481C53.2328 113.223 53.4646 112.147 53.5068 112.079C53.5489 112.01 53.7175 111.301 54.1811 108.99L53.5279 107.502C52.8956 106.084 52.8746 105.878 52.8746 103.155C52.8746 100.387 52.8956 100.249 53.57 98.6934C54.0758 97.5722 54.708 96.6341 55.6774 95.5816C56.4571 94.7579 57.6161 93.8198 58.2484 93.4766Z" fill="#6F4BFF"/>
<path d="M157.294 184.016C157.821 183.741 158.559 183.215 158.959 182.849C159.423 182.406 159.809 182.216 160.118 182.277C160.392 182.322 160.603 182.483 160.624 182.643C160.645 182.78 159.591 184.038 158.285 185.434C156.957 186.876 155.187 188.5 154.239 189.164C153.312 189.804 151.984 190.559 151.288 190.788C150.593 191.04 149.371 191.406 148.549 191.589C147.727 191.772 146.168 191.932 145.072 191.932C143.934 191.932 142.522 191.772 141.805 191.589C141.11 191.383 139.972 190.948 139.277 190.605C138.581 190.285 137.443 189.576 136.748 189.072C136.052 188.569 134.598 187.173 131.521 183.81L132.449 183.741C132.954 183.695 136.748 183.833 140.857 184.061C144.966 184.267 150.129 184.45 152.342 184.473C156.03 184.496 156.43 184.45 157.294 184.016Z" fill="#6F4BFF"/>
<path fill-rule="evenodd" clip-rule="evenodd" d="M96.3917 25.0175C98.752 25.0633 101.091 25.2463 102.292 25.4752C103.388 25.6811 105.137 26.1616 106.191 26.5277C107.245 26.9166 108.846 27.6259 109.774 28.1293C110.701 28.6556 112.26 29.6394 113.23 30.3487C114.22 31.0809 115.674 32.4309 116.475 33.369C117.276 34.3071 118.35 35.7486 118.835 36.5723C119.341 37.396 120.079 38.8375 120.5 39.7756C120.9 40.7137 121.469 42.3611 121.743 43.4365C122.038 44.5119 122.418 46.4568 122.607 47.7838C122.797 49.1109 122.945 51.216 122.945 52.4744C122.945 53.7328 122.797 55.7006 122.628 56.8217C122.46 57.9429 122.312 59.0183 122.312 59.1784C122.312 59.3615 122.86 59.4988 123.956 59.6132C125.263 59.7276 125.663 59.8649 126.063 60.2996C126.443 60.7115 126.527 61.0775 126.527 62.1529C126.527 62.8622 126.443 63.5715 126.358 63.6859C126.274 63.8232 125.979 64.0749 125.684 64.2808C125.389 64.4868 125.094 64.8757 125.01 65.1961C124.925 65.4935 124.673 67.1867 124.441 68.9485C124.083 71.5569 123.872 72.4493 122.544 75.3551L122.333 81.4185C122.207 84.7591 121.975 88.4658 121.807 89.6556C121.638 90.8454 121.259 92.7216 120.964 93.8427C120.648 94.941 120.121 96.474 119.762 97.2748C119.383 98.0528 118.751 99.2655 118.308 99.9519C117.887 100.638 117.002 101.828 116.37 102.583C115.737 103.338 114.705 104.391 114.073 104.917C113.44 105.443 112.176 106.336 111.249 106.93C110.321 107.503 108.846 108.258 107.982 108.624C107.118 108.99 105.39 109.493 104.147 109.768C102.608 110.088 101.049 110.248 99.3421 110.248C97.9512 110.248 96.0756 110.134 95.1905 109.997C94.2844 109.882 92.5563 109.493 91.3341 109.173C90.1118 108.852 88.173 108.189 87.014 107.663C85.8549 107.159 84.443 106.45 83.8529 106.13C83.2839 105.786 82.4199 105.26 81.9563 104.963C81.4927 104.665 80.6287 104.07 80.0386 103.613C79.4485 103.178 78.4159 102.354 77.7205 101.782C77.0251 101.21 75.8871 100.043 75.2127 99.1968C74.5173 98.3502 73.4425 96.7943 72.8314 95.7647C72.2414 94.7351 71.4406 93.1105 71.0823 92.1724C70.703 91.2343 70.134 89.2666 69.7968 87.8251C69.4807 86.3836 68.996 83.7523 68.7221 81.9905C68.3217 79.1533 68.2584 77.9177 68.2584 63.5487L66.6779 62.7478C65.8139 62.3131 64.6759 61.8326 64.1491 61.7182C63.6222 61.5809 62.7371 61.5123 61.0934 61.6038L60.9248 60.3682C60.8194 59.6818 60.7984 57.3709 60.8405 55.2201C60.9248 52.0625 61.0512 50.9185 61.4727 49.1567C61.7467 47.9669 62.2735 46.2051 62.6318 45.267C62.99 44.3289 63.9805 42.4298 64.8234 41.034C65.7296 39.5468 67.0572 37.7392 68.0898 36.6181C69.0592 35.5884 70.6187 34.1012 71.5881 33.3461C72.5364 32.5682 74.2223 31.3784 75.3181 30.6691C76.4139 29.9598 78.1209 29.0217 79.1114 28.5412C80.1018 28.0836 81.8299 27.3742 82.9678 26.9853C84.0847 26.5963 85.9814 26.07 87.1826 25.8184C88.3627 25.5667 90.0486 25.2463 90.9126 25.1319C91.7766 25.0175 94.2422 24.9718 96.3917 25.0175V25.0175ZM44.4031 76.4991C44.5295 76.7508 44.9931 77.872 45.4357 79.016C45.8782 80.1601 46.2154 81.0982 46.1733 81.121C46.1522 81.1668 45.2671 81.1668 42.2746 81.0753L43.2229 78.5584C44.0659 76.3847 44.2134 76.1102 44.4031 76.4991ZM64.1491 98.396C64.6759 98.4646 65.6032 98.7621 67.3101 99.6087V100.798C67.3101 101.462 67.2469 102.011 67.1415 102.011C67.0572 101.988 66.6568 101.782 66.2564 101.531C65.856 101.279 64.9077 100.844 64.1491 100.57C63.0111 100.135 62.7793 99.9519 62.7161 99.4943C62.695 99.1739 62.7793 98.785 62.9268 98.6019C63.1094 98.4036 63.5169 98.335 64.1491 98.396V98.396ZM40.3148 101.782C41.242 101.805 41.7478 101.943 42.654 102.515C43.2862 102.926 44.4874 103.979 45.2882 104.871C46.2997 105.97 47.0162 106.976 47.5009 108.075C48.1542 109.516 48.2385 109.905 48.3017 112.079C48.3649 113.909 48.3017 114.801 48.0277 115.854C47.817 116.609 47.6484 117.593 47.6695 118.028C47.6906 118.462 47.7538 119.652 47.8381 120.659C47.9224 121.78 47.8591 123.016 47.7116 123.862C47.5641 124.617 47.2269 125.853 46.9319 126.608C46.6369 127.363 46.2154 128.255 46.0047 128.599C45.7729 128.965 45.2249 129.445 44.7613 129.697C44.2134 129.994 43.8552 130.383 43.7287 130.772C43.6444 131.138 43.2862 131.756 42.949 132.168C42.6118 132.58 41.9585 133.083 41.4949 133.289C40.9681 133.495 40.3569 133.587 39.8512 133.495C39.4297 133.426 38.8396 133.129 38.5446 132.831C38.2496 132.557 37.5331 131.344 36.9641 130.154C36.374 128.965 35.9104 127.752 35.9104 127.454C35.9104 127.18 36.0579 126.905 36.2265 126.837C36.3951 126.768 36.7533 126.86 37.0062 127.043C37.4277 127.34 37.5331 127.34 37.8702 126.997C38.1442 126.699 38.3128 126.654 38.6078 126.86C38.7975 126.997 38.9661 127.363 38.9661 127.66C38.9661 128.072 38.8186 128.232 37.7859 128.438L38.3128 129.582C38.6078 130.2 39.0925 131.024 39.4297 131.367C39.9144 131.893 40.1462 132.008 40.652 131.87C40.9891 131.802 41.4528 131.55 41.6846 131.344C41.8953 131.138 42.1903 130.681 42.3589 130.315C42.5275 129.971 42.654 129.033 42.654 128.21C42.654 127.386 42.4643 125.876 42.2325 124.823C41.9796 123.794 41.5371 122.375 41.221 121.689C40.7995 120.796 40.4202 120.316 39.9144 120.041C39.3875 119.744 38.9239 119.675 38.2285 119.767C37.7017 119.858 36.669 120.133 35.9104 120.43C35.1517 120.705 34.1402 121.162 33.6344 121.437C33.1497 121.689 32.6018 121.917 32.4332 121.917C32.2647 121.917 32.075 121.711 32.0118 121.46C31.9486 121.208 31.9486 120.888 32.0118 120.773C32.075 120.659 32.6651 120.247 33.3183 119.881C33.9927 119.515 35.2571 118.989 36.1211 118.691C36.9852 118.417 38.2285 118.165 38.8818 118.165C39.8301 118.142 40.2305 118.256 40.9259 118.76C41.4106 119.126 42.0428 119.835 42.3168 120.361C42.6118 120.911 43.1387 122.489 43.4969 123.862C43.8341 125.235 44.1291 126.768 44.1291 127.226C44.1291 127.706 44.2134 128.095 44.3399 128.095C44.4452 128.095 44.7402 127.821 44.9721 127.454C45.2249 127.111 45.6675 126.013 45.9625 125.006C46.3208 123.794 46.5104 122.627 46.5315 121.574C46.5526 120.476 46.4261 119.606 46.1311 118.828C45.9204 118.188 45.0564 116.701 44.2345 115.511C43.4126 114.321 42.4011 112.948 42.0007 112.491C41.4738 111.85 41.1156 111.644 40.5887 111.621C40.2305 111.621 39.3243 111.827 38.5867 112.102C37.8702 112.353 36.374 113.04 35.2782 113.589C34.1824 114.138 33.1076 114.596 32.8969 114.596C32.7072 114.596 32.4965 114.435 32.4332 114.252C32.37 114.069 32.37 113.772 32.4332 113.612C32.4754 113.474 33.5501 112.811 34.7935 112.147C36.0579 111.507 37.7227 110.752 38.5446 110.5C39.3454 110.225 40.2726 110.019 40.5887 110.019C40.9259 110.019 41.4949 110.157 41.8532 110.317C42.2746 110.5 43.0754 111.346 43.8973 112.445C44.6349 113.429 45.4568 114.573 45.7307 114.939C46.0257 115.305 46.2365 115.694 46.2365 115.785C46.2365 115.9 46.3208 115.968 46.4472 115.968C46.5526 115.968 46.7633 115.373 46.8898 114.641C47.0162 113.932 47.0794 112.628 46.9951 111.735C46.9108 110.66 46.679 109.722 46.2997 108.875C45.9836 108.189 45.2249 107.045 44.6349 106.358C44.0448 105.672 43.0122 104.688 42.3379 104.185C41.3474 103.43 40.9259 103.27 40.0408 103.224C39.4508 103.201 38.9029 103.178 38.7975 103.155C38.7132 103.155 38.6289 102.972 38.6078 102.743C38.5867 102.515 38.6921 102.217 38.8607 102.057C39.0293 101.897 39.6826 101.782 40.3148 101.782V101.782ZM113.988 110.546C114.325 110.569 114.431 110.797 114.473 111.507C114.536 112.399 114.473 112.491 112.682 114.344C111.67 115.419 109.668 117.318 108.277 118.577C106.865 119.858 105.032 121.322 104.21 121.849C103.388 122.398 102.503 122.833 102.229 122.833C101.976 122.855 101.639 122.695 101.492 122.489C101.365 122.306 101.281 121.917 101.344 121.62C101.407 121.322 101.808 120.888 102.335 120.567C102.84 120.27 103.894 119.515 104.716 118.874C105.517 118.234 107.097 116.884 108.193 115.854C109.289 114.824 110.954 113.2 111.881 112.239C112.998 111.095 113.714 110.5 113.988 110.546ZM60.9248 140.222C61.262 140.199 61.6624 140.382 61.831 140.588C62.1049 140.908 62.0839 141.229 61.6624 143.402C61.3884 144.729 60.8616 147.109 60.4612 148.688C60.0608 150.267 59.3864 152.692 58.965 154.065C58.5435 155.438 57.7848 157.771 57.258 159.213C56.7312 160.654 55.7196 163.194 54.982 164.819C54.2655 166.443 53.1486 168.686 52.5375 169.784C51.9053 170.859 50.957 172.392 50.388 173.147C49.8401 173.925 49.2289 174.543 49.0182 174.543C48.8285 174.543 48.5335 174.429 48.386 174.268C48.2385 174.108 48.1331 173.765 48.1331 173.513C48.1331 173.262 48.5546 172.415 49.0814 171.637C49.6083 170.836 50.4091 169.532 50.8727 168.708C51.3363 167.885 52.2425 166.054 52.8957 164.659C53.549 163.24 54.4973 160.998 54.982 159.671C55.4878 158.343 56.2886 156.033 56.7733 154.522C57.258 153.012 57.9956 150.381 58.4592 148.688C58.9017 146.995 59.4497 144.524 59.7025 143.196C59.9554 141.869 60.2083 140.657 60.2505 140.519C60.2926 140.359 60.6087 140.222 60.9248 140.222V140.222ZM123.366 144.569H125.263V146.629C125.263 148.436 125.157 148.962 124.504 150.93C124.083 152.143 123.661 153.264 123.556 153.378C123.429 153.516 123.366 151.777 123.366 149.1V144.569ZM158.138 156.696C158.369 156.696 158.854 156.879 159.233 157.108C159.613 157.337 160.687 157.84 161.615 158.252C162.542 158.641 164.818 159.51 166.672 160.174C169.833 161.295 170.044 161.409 170.044 161.959C170.044 162.485 169.981 162.508 168.99 162.485C168.337 162.485 166.693 162.004 164.67 161.272C162.879 160.632 160.603 159.671 159.613 159.121C158.643 158.595 157.737 158.023 157.632 157.84C157.526 157.634 157.505 157.314 157.569 157.085C157.653 156.856 157.885 156.696 158.138 156.696V156.696ZM154.429 162.851C154.555 162.851 155.187 163.194 155.819 163.606C156.452 164.018 157.969 164.887 159.191 165.528C160.413 166.169 162.774 167.29 164.46 167.999C166.145 168.708 167.726 169.395 167.979 169.509C168.253 169.624 168.464 169.898 168.464 170.127C168.485 170.356 168.337 170.653 168.147 170.813C167.895 171.042 167.368 170.928 165.239 170.173C163.827 169.647 161.488 168.617 160.034 167.862C158.58 167.107 156.62 166.008 155.651 165.436C154.239 164.544 153.923 164.247 153.881 163.766C153.86 163.423 153.923 163.103 154.028 163.011C154.112 162.92 154.302 162.851 154.429 162.851V162.851ZM152.996 169.967C153.038 169.944 154.197 170.63 155.545 171.454C156.915 172.255 159.065 173.445 160.35 174.063C161.615 174.68 163.111 175.39 163.659 175.664C164.291 175.962 164.67 176.282 164.67 176.534C164.691 176.762 164.544 177.06 164.354 177.22C164.101 177.449 163.743 177.403 162.458 176.923C161.594 176.625 159.718 175.733 158.285 174.978C156.873 174.2 155.04 173.147 154.239 172.644C153.417 172.118 152.637 171.546 152.49 171.34C152.342 171.157 152.216 170.905 152.216 170.836C152.216 170.745 152.363 170.516 152.553 170.31C152.743 170.127 152.932 169.944 152.996 169.944V169.967Z" fill="#080A16"/>
<path d="M58.6485 63.48C59.1754 62.8851 59.9551 62.1986 60.3555 61.9698C60.7559 61.7639 61.5567 61.558 62.1467 61.5351C62.7157 61.5122 63.6219 61.5809 64.1487 61.7181C64.6756 61.8325 65.8136 62.313 68.2581 63.5486V71.1679C68.2581 77.9177 68.3213 79.1532 68.7217 81.9905C68.9957 83.7523 69.4804 86.3836 69.7965 87.825C70.1337 89.2665 70.7026 91.2343 71.082 92.1724C71.4402 93.1105 72.241 94.735 72.8311 95.7647C73.4422 96.7943 74.517 98.3502 75.2124 99.1968C75.8868 100.043 77.0247 101.21 77.7202 101.782C78.4156 102.354 79.4482 103.178 80.0383 103.613C80.6283 104.07 81.4923 104.665 81.956 104.963C82.4196 105.26 83.2625 105.786 83.8526 106.13C84.4216 106.45 85.8546 107.159 87.0136 107.663C88.1727 108.189 90.1115 108.875 91.3337 109.196C92.556 109.516 94.4105 109.882 95.4431 110.042C96.4757 110.18 98.6252 110.271 100.206 110.225C102.756 110.134 103.051 110.18 102.84 110.477C102.714 110.683 100.69 113.268 98.3513 116.266C95.5485 119.812 93.989 121.643 93.7994 121.528C93.6729 121.437 92.3031 120.43 90.8069 119.286C89.3107 118.165 87.6458 116.906 87.119 116.54C86.5922 116.151 86.1285 115.785 86.0653 115.717C86.0021 115.648 84.2951 114.367 82.2721 112.857C80.249 111.369 77.4251 109.287 75.9921 108.258C74.5802 107.205 73.379 106.358 73.3158 106.358C73.2525 106.358 72.4728 105.809 71.5877 105.146C70.6816 104.459 69.3329 103.521 67.2466 102.125L67.4362 97.2061C67.5416 94.5062 67.6259 89.747 67.6259 80.9608H66.6776C66.1507 80.9608 65.2024 80.7778 64.5702 80.5261C63.938 80.2973 62.9897 79.8854 62.4628 79.6109C61.936 79.3592 61.072 78.7643 60.5451 78.2838C59.9972 77.8033 59.3229 77.094 59.0278 76.7279C58.7539 76.3618 58.227 75.4695 57.8688 74.783C57.5105 74.0966 57.0469 72.8611 56.8573 72.0373C56.6254 71.0306 56.5412 70.0238 56.6254 68.9484C56.6676 68.0561 56.9416 66.729 57.2155 65.974C57.4895 65.1503 58.0795 64.1664 58.6485 63.48Z" fill="#F7BC4C"/>
<path d="M41.052 84.2785C41.5578 83.0201 42.0214 81.8074 42.0846 81.6015V81.5786C42.2111 81.2354 42.5061 81.1896 46.3415 81.2125L48.5542 86.681V97.2061C48.5542 105.466 48.6175 107.731 48.8282 107.731C48.9546 107.731 49.3972 107.457 49.7765 107.159C50.1769 106.816 50.7248 106.587 51.1463 106.61C51.5046 106.61 51.9682 106.679 52.1578 106.77C52.3264 106.862 52.8533 107.274 53.3169 107.686C53.9912 108.303 54.1388 108.555 54.0966 109.173C54.0755 109.562 53.9069 110.477 53.7173 111.163C53.5487 111.85 53.2115 113.406 52.9797 114.595C52.7268 115.785 52.2211 119.034 51.8207 121.803C51.4203 124.571 50.8723 127.821 50.5984 129.01C50.3034 130.2 49.7976 131.962 49.4604 132.9C49.1232 133.838 48.4699 135.234 48.0274 135.966C47.5638 136.721 46.7208 137.774 46.1308 138.346C45.5618 138.895 44.466 139.741 43.7073 140.222C42.9487 140.702 41.7264 141.32 40.9677 141.618C40.1459 141.915 38.8393 142.144 37.7013 142.213C36.2683 142.304 35.4675 142.235 34.4349 141.915C33.6763 141.686 32.8755 141.412 32.6436 141.274C32.4118 141.137 31.8007 140.702 31.2739 140.313C30.747 139.924 30.0305 139.215 29.6512 138.712C29.2929 138.231 28.6607 137.041 28.2603 136.103C27.8389 135.165 27.2699 133.518 26.9959 132.442C26.7009 131.367 26.3216 129.697 26.1319 128.713C25.9422 127.752 25.6893 125.899 25.5629 124.594C25.3732 122.833 25.3732 121.826 25.5629 120.43C25.7104 119.263 26.0687 117.982 26.5534 116.884C26.9748 115.945 27.8178 114.39 28.4711 113.451C29.1243 112.513 31.6532 109.585 34.0977 106.976C37.596 103.224 38.5653 102.309 38.6075 102.675C38.6286 102.949 38.7129 103.155 38.8182 103.155C38.9025 103.178 39.4504 103.201 40.0405 103.224C40.9256 103.27 41.3471 103.43 42.3375 104.185C43.0119 104.688 44.0445 105.672 44.6345 106.358C45.2246 107.045 45.9833 108.189 46.2994 108.875C46.6787 109.722 46.9105 110.66 46.9948 111.735C47.0791 112.628 47.0159 113.932 46.8894 114.641C46.763 115.373 46.5733 115.968 46.4469 115.968C46.3204 115.968 46.2361 115.9 46.2361 115.785C46.2361 115.694 46.0254 115.305 45.7304 114.939C45.4564 114.573 44.6345 113.429 43.897 112.445C43.0751 111.346 42.2743 110.5 41.8739 110.317C41.4946 110.157 40.9256 110.019 40.6095 110.019C40.2723 110.019 39.3451 110.225 38.5443 110.5C37.7435 110.752 36.0576 111.507 34.7932 112.147C33.5498 112.811 32.4751 113.474 32.4329 113.612C32.3697 113.772 32.3697 114.069 32.4329 114.252C32.4961 114.435 32.7069 114.595 32.9176 114.595C33.1073 114.595 34.182 114.138 35.2779 113.589C36.3737 113.04 37.8699 112.353 38.6075 112.101C39.324 111.827 40.2302 111.621 40.6095 111.621C41.1152 111.644 41.4735 111.85 42.0003 112.49C42.4007 112.948 43.4123 114.321 44.2341 115.511C45.056 116.701 45.92 118.188 46.1308 118.828C46.4258 119.606 46.5522 120.476 46.5312 121.574C46.5101 122.627 46.3204 123.794 45.9622 125.006C45.6672 126.013 45.2246 127.111 44.9717 127.454C44.7399 127.821 44.466 128.095 44.3395 128.095C44.2131 128.095 44.1288 127.706 44.1288 127.226C44.1288 126.768 43.8337 125.235 43.4966 123.862C43.1383 122.489 42.6115 120.911 42.3164 120.361C42.0425 119.835 41.4103 119.126 40.9256 118.76C40.2302 118.256 39.8298 118.142 38.8814 118.165C38.2282 118.165 36.9848 118.417 36.1208 118.691C35.2568 118.989 33.9924 119.515 33.3391 119.881C32.6647 120.247 32.0747 120.659 32.0114 120.773C31.9482 120.888 31.9482 121.208 32.0114 121.46C32.0747 121.711 32.2643 121.917 32.4329 121.917C32.6015 121.917 33.1494 121.688 33.6552 121.437C34.1399 121.162 35.1514 120.705 35.9101 120.43C36.6687 120.133 37.7013 119.858 38.2282 119.767C38.9236 119.675 39.3872 119.744 39.9141 120.041C40.4198 120.316 40.7991 120.796 41.2206 121.688C41.5367 122.375 41.9793 123.794 42.2322 124.823C42.464 125.876 42.6536 127.386 42.6536 128.21C42.6536 129.033 42.5272 129.971 42.3586 130.315C42.19 130.681 41.895 131.138 41.6842 131.344C41.4524 131.55 41.0099 131.802 40.6516 131.87C40.1459 132.008 39.9141 131.893 39.4294 131.367C39.0922 131.024 38.6075 130.2 37.7856 128.438L38.3757 128.324C38.8182 128.232 38.9657 128.072 38.9657 127.66C38.9657 127.363 38.7971 126.997 38.6075 126.86C38.3125 126.654 38.1439 126.699 37.8699 126.997C37.5327 127.34 37.4274 127.34 37.027 127.043C36.753 126.86 36.3948 126.768 36.2262 126.837C36.0576 126.905 35.9101 127.18 35.9101 127.454C35.9101 127.752 36.3737 128.965 36.9637 130.154C37.5327 131.344 38.2492 132.557 38.5443 132.831C38.8393 133.129 39.4294 133.426 39.8719 133.495C40.3566 133.586 40.9677 133.495 41.4946 133.289C41.9582 133.083 42.6115 132.58 42.9487 132.168C43.2858 131.756 43.6441 131.138 43.7284 130.772C43.8548 130.383 44.2131 129.994 44.761 129.697C45.2246 129.445 45.7725 128.965 46.0043 128.598C46.2151 128.255 46.6365 127.363 46.9316 126.608C47.2266 125.853 47.5638 124.617 47.7113 123.862C47.8588 123.016 47.922 121.78 47.8377 120.659C47.7534 119.652 47.6902 118.462 47.6691 118.028C47.6481 117.593 47.8167 116.609 48.0274 115.854C48.3014 114.801 48.3646 113.909 48.3014 112.079C48.2381 109.905 48.1538 109.516 47.5006 108.074C47.0159 106.976 46.2994 105.969 45.2878 104.871C44.487 103.979 43.2858 102.926 42.6536 102.514C41.8107 101.988 41.1995 101.782 40.4409 101.759C39.8719 101.737 39.5558 101.691 39.7665 101.645C40.1037 101.553 40.1248 101.004 40.1248 86.5666L41.052 84.2785Z" fill="#F7BC4C"/>
<path d="M135.483 120.147C135.747 120.014 136.065 119.855 136.221 119.812C136.389 119.744 136.916 119.675 137.38 119.675C137.843 119.652 138.665 119.721 139.234 119.812C140.204 119.995 140.225 120.018 140.225 121.597H138.665C137.38 121.597 136.979 121.689 136.452 122.1C136.073 122.398 135.757 122.535 135.694 122.398C135.631 122.283 135.293 122.169 134.956 122.169C134.619 122.169 134.324 122.123 134.324 122.055C134.324 121.986 134.471 121.597 134.64 121.185C134.809 120.796 135.167 120.339 135.42 120.178L135.483 120.147Z" fill="#F7BC4C"/>
<path d="M142.585 121.78C141.953 121.62 141.91 121.528 141.91 120.728C141.91 119.904 141.932 119.881 142.69 119.881C143.133 119.881 144.081 119.95 146.125 120.224V121.94H144.692C143.912 121.94 142.964 121.872 142.585 121.78Z" fill="#F7BC4C"/>
<path d="M158.727 154.751C158.79 152.921 158.854 152.646 159.359 152.074C159.718 151.662 160.118 151.456 160.54 151.456C160.898 151.456 162.436 151.662 163.932 151.914C165.429 152.166 167.515 152.6 168.569 152.875C169.622 153.149 170.613 153.493 170.781 153.676C170.95 153.836 171.603 154.454 172.235 155.049C172.847 155.666 173.584 156.559 173.858 157.062C174.153 157.588 174.406 158.549 174.49 159.35C174.596 160.471 174.49 161.272 173.963 163.583C173.605 165.162 173.31 166.672 173.31 166.947C173.31 167.244 173.121 168.113 172.868 168.891C172.636 169.692 171.983 171.363 171.435 172.621C170.887 173.879 169.896 175.824 169.222 176.968C168.526 178.112 167.452 179.622 166.798 180.378C166.145 181.11 165.281 181.888 164.881 182.116C164.48 182.345 163.722 182.597 163.195 182.688C162.605 182.78 161.699 182.711 160.771 182.483C159.76 182.231 158.706 181.75 157.442 180.927C156.43 180.263 154.976 179.234 152.869 177.54L152.911 175.115C152.953 173.239 153.058 172.621 153.29 172.438C153.522 172.278 153.859 172.392 154.555 172.85C155.081 173.216 156.704 174.154 158.179 174.955C159.676 175.733 161.593 176.648 162.457 176.968C163.743 177.426 164.101 177.495 164.354 177.243C164.544 177.106 164.691 176.785 164.67 176.556C164.67 176.351 164.375 176.03 163.975 175.824C163.616 175.641 162.057 174.909 160.561 174.177C159.064 173.445 156.704 172.186 152.869 169.875V167.816C152.869 165.803 152.869 165.734 154.133 164.498L155.334 165.276C156.009 165.711 157.926 166.786 159.612 167.679C161.298 168.548 163.827 169.692 165.239 170.196C167.367 170.974 167.894 171.088 168.147 170.836C168.337 170.699 168.484 170.379 168.463 170.15C168.463 169.944 168.253 169.669 167.979 169.532C167.726 169.418 166.145 168.731 164.459 168.022C162.773 167.313 160.413 166.214 159.191 165.574C157.969 164.933 156.514 164.086 155.967 163.697C154.955 163.011 154.955 163.011 154.955 161.753C154.955 160.517 154.976 160.471 156.241 159.167C157.379 157.977 157.547 157.886 157.863 158.206C158.074 158.389 159.191 158.984 160.35 159.533C161.509 160.105 163.701 160.998 165.197 161.524C166.735 162.073 168.4 162.508 168.99 162.531C169.981 162.553 170.044 162.531 170.044 161.981C170.044 161.455 169.833 161.341 166.672 160.22C164.818 159.556 162.542 158.687 161.614 158.275C160.687 157.886 159.633 157.382 158.664 156.788L158.727 154.751Z" fill="#F7BC4C"/>
<path d="M132.954 126.15C133.502 124.526 134.029 122.947 134.134 122.672C134.261 122.283 134.493 122.146 134.956 122.146C135.378 122.146 135.623 122.283 135.694 122.558C135.757 122.764 136.263 123.359 136.811 123.862C137.359 124.343 138.328 125.006 138.96 125.326C139.592 125.624 140.772 125.967 141.594 126.059C142.395 126.173 147.052 126.356 151.92 126.493C156.788 126.631 162.942 126.837 165.618 126.951C168.274 127.065 171.961 127.18 173.795 127.226C176.577 127.271 177.146 127.248 177.314 126.951C177.483 126.653 177.567 126.676 177.946 127.065C178.199 127.317 178.536 127.798 178.705 128.164C178.874 128.507 179 128.987 179 129.239C179 129.491 178.305 131.619 177.441 133.998C176.598 136.355 175.08 140.656 174.069 143.539C173.057 146.445 171.856 149.786 171.414 150.976C170.697 152.875 170.528 153.149 170.107 153.126C169.833 153.104 168.442 152.829 166.988 152.509C165.534 152.188 163.384 151.777 160.055 151.319L159.402 152.005C158.79 152.646 158.769 152.783 158.769 154.408C158.769 155.346 158.685 156.238 158.601 156.376C158.516 156.536 158.264 156.673 158.032 156.719C157.779 156.787 157.589 157.016 157.547 157.337C157.526 157.611 156.936 158.435 156.24 159.167C154.976 160.448 154.955 160.494 154.976 161.73C154.976 162.874 154.934 162.988 154.491 162.988C154.112 162.988 154.028 163.125 153.965 163.789C153.943 164.292 153.712 164.819 153.396 165.162C152.89 165.688 152.869 165.871 152.869 167.976C152.869 169.303 152.784 170.195 152.658 170.195C152.553 170.195 152.405 170.356 152.342 170.539C152.279 170.722 152.342 171.088 152.447 171.34C152.553 171.591 152.848 171.843 153.079 171.912C153.459 172.003 153.459 172.072 153.185 172.438C152.953 172.712 152.869 173.445 152.848 177.403L153.648 178.112C154.091 178.501 155.018 179.233 155.714 179.737C156.409 180.24 157.568 181.018 159.633 182.208L158.833 182.94C158.39 183.329 157.652 183.832 157.189 184.038C156.725 184.267 155.587 184.496 154.66 184.542C153.733 184.61 149.708 184.496 145.704 184.29C141.7 184.084 135.63 183.81 132.217 183.695C128.803 183.558 125.009 183.352 123.787 183.238C122.164 183.077 121.3 182.871 120.521 182.46C119.931 182.139 119.088 181.453 118.624 180.904C118.16 180.355 117.402 179.416 116.938 178.799C116.201 177.815 116.095 177.54 116.116 176.511C116.116 175.618 116.622 173.879 118.266 169.166C119.425 165.78 121.343 160.151 122.523 156.696L122.523 156.696C123.703 153.241 124.883 149.786 125.157 149.031C125.431 148.276 126.253 145.85 127.011 143.654C127.77 141.457 129.203 137.293 130.172 134.387C131.163 131.504 132.406 127.798 132.954 126.15Z" fill="#ED942F"/>
<path d="M140.225 121.689V120.773V119.858H141.911V121.689H140.225Z" fill="#F6AF35"/>
<path d="M146.399 122.009C146.231 121.963 146.125 121.528 146.125 121.002C146.125 120.11 146.147 120.087 146.863 120.087C147.263 120.087 149.708 120.178 152.279 120.316C154.871 120.43 160.624 120.705 165.092 120.888C169.559 121.094 173.5 121.3 173.837 121.345C174.174 121.414 174.996 121.94 175.629 122.535C176.261 123.107 176.956 123.839 177.146 124.183C177.357 124.503 177.525 125.052 177.525 125.395C177.525 125.761 177.483 126.036 177.42 126.036C177.357 126.036 176.872 125.624 176.303 125.098C175.755 124.594 174.933 123.977 174.47 123.748C173.732 123.382 172.763 123.29 167.199 123.084C163.659 122.947 157.59 122.672 153.712 122.467C149.834 122.284 146.526 122.078 146.399 122.009Z" fill="#F6AF35"/>
<path d="M56.3094 110.363C56.2883 110.088 56.3937 109.768 56.5623 109.608C56.7309 109.447 57.1523 109.333 57.4895 109.333C57.8478 109.333 58.7539 109.493 59.5126 109.699C60.2712 109.882 61.7464 110.34 62.779 110.683C63.8116 111.049 65.6239 111.713 66.783 112.17C67.942 112.651 70.1337 113.589 71.6299 114.298C73.1262 115.007 76.0765 116.54 78.1628 117.684C80.249 118.829 82.4618 120.11 83.0729 120.545C83.7262 121.025 84.232 121.551 84.2741 121.849C84.3373 122.146 84.253 122.535 84.1055 122.718C83.9791 122.924 83.6841 123.084 83.4733 123.061C83.2837 123.061 82.2932 122.535 81.2817 121.895C80.249 121.254 78.2892 120.087 76.8983 119.332C75.5075 118.577 72.8522 117.25 70.9977 116.38C69.1432 115.511 66.1086 114.229 64.2542 113.543C62.3997 112.88 59.9762 112.102 58.8804 111.827C57.7845 111.575 56.7519 111.232 56.6044 111.095C56.4569 110.935 56.3094 110.614 56.3094 110.363Z" fill="#080A16"/>
<path d="M139.192 132.557C139.887 130.406 140.478 128.53 140.541 128.37C140.583 128.232 140.794 128.095 141.004 128.095C141.215 128.072 141.531 128.255 141.7 128.461C141.974 128.804 141.932 129.102 141.215 131.39C140.751 132.786 139.297 137.225 137.97 141.252C136.642 145.279 134.745 150.884 133.755 153.722C132.765 156.559 130.784 162.21 129.351 166.306C127.897 170.402 126.442 174.543 126.105 175.504C125.642 176.785 125.368 177.289 125.115 177.289C124.904 177.312 124.588 177.151 124.419 176.946C124.145 176.625 124.209 176.282 125.136 173.788C125.705 172.255 127.011 168.571 128.044 165.62C129.077 162.668 130.826 157.611 131.943 154.408C133.039 151.205 134.851 145.851 135.947 142.51C137.043 139.169 138.497 134.685 139.192 132.557Z" fill="#080A16"/>
<path d="M47.6903 147.773C47.6692 145.324 47.7113 143.174 47.7956 143.013C47.8799 142.876 48.2803 142.739 48.6597 142.739C49.2497 142.739 49.4183 142.83 49.5026 143.242C49.5658 143.54 49.608 146.079 49.608 148.917C49.608 151.754 49.5026 156.788 49.3762 160.128C49.2286 163.469 49.039 166.42 48.9547 166.695C48.8282 167.038 48.5964 167.221 48.3014 167.221C48.0274 167.221 47.6692 167.107 47.5006 166.992C47.2899 166.855 47.2056 166.466 47.2267 165.803L47.2339 165.615C47.2683 164.719 47.3845 161.7 47.5006 158.527C47.6271 155.072 47.7113 150.221 47.6903 147.773Z" fill="#080A16"/>
<path d="M112.408 48.2413C113.504 47.8523 114.979 47.2116 115.674 46.7769C116.37 46.365 117.002 45.999 117.086 45.9761C117.192 45.9761 117.466 46.3879 117.718 46.9142C117.95 47.4633 118.582 49.0879 119.088 50.5293C119.594 51.9708 120.289 54.3275 120.648 55.7233C120.985 57.1419 121.259 58.5376 121.259 58.8122C121.259 59.3384 121.259 59.3384 118.056 59.2698C116.285 59.224 113.778 59.3155 112.513 59.4528C111.249 59.613 109.099 59.9791 107.772 60.2765C106.023 60.6655 104.674 60.8257 102.862 60.8257C100.817 60.8257 99.9955 60.7113 98.0356 60.1621C96.7291 59.796 94.7271 59.3842 93.5891 59.2469C92.4722 59.1096 90.4281 58.9952 89.0793 58.9952C87.7096 58.9952 85.6022 59.1096 84.3799 59.224C83.1577 59.3613 81.0924 59.6587 79.8069 59.9104C78.5004 60.1621 77.1938 60.368 76.3719 60.368L76.4984 55.38C76.6248 51.1014 76.5827 50.209 76.2666 48.9277C76.0769 48.104 75.7819 47.1659 75.6133 46.7998C75.4447 46.4566 75.3604 46.182 75.4236 46.182C75.4869 46.182 76.7934 46.6396 78.3107 47.1888C79.8491 47.7379 82.104 48.4243 83.3262 48.676C84.5485 48.9506 86.5716 49.3167 87.8571 49.5226C89.2058 49.7285 92.5776 49.9116 95.9704 50.0031C99.7637 50.0946 102.63 50.0488 104.295 49.8658C105.685 49.7056 107.624 49.4311 108.615 49.248C109.605 49.065 111.312 48.6074 112.408 48.2413Z" fill="#F7BC4C"/>
<path d="M74.3699 65.6306C74.5807 64.9442 74.7703 64.2806 74.8336 64.1891C74.8968 64.0976 75.803 64.0518 78.7954 64.1434L78.9429 67.1179C79.0483 69.0627 79.259 70.6415 79.5541 71.694C79.7859 72.5863 80.2495 73.799 80.5445 74.4168C80.8606 75.0346 81.6404 76.0642 82.2936 76.7049C83.1998 77.5972 83.8531 78.0091 85.1386 78.4896C86.0447 78.8328 87.5199 79.176 88.3839 79.2446C89.5008 79.359 90.4281 79.2904 91.545 79.0387C92.409 78.8328 93.6945 78.3294 94.3688 77.9176C95.0432 77.5057 96.1601 76.5447 96.8344 75.7439C97.6633 74.7982 98.3939 73.616 99.0261 72.1974C99.574 70.9847 100.206 69.0856 100.522 67.6899C100.838 66.317 101.218 65.173 101.407 64.99C101.618 64.8298 102.166 64.7154 102.672 64.7154C103.157 64.7154 103.747 64.8069 103.978 64.9442C104.21 65.0815 104.547 65.6535 104.716 66.2484C104.885 66.8662 105.306 68.5822 105.643 70.0924C106.001 71.6025 106.655 74.0736 107.139 75.5837C107.603 77.0938 108.046 78.8328 108.109 79.4734C108.214 80.3887 108.172 80.6861 107.877 80.9607C107.582 81.2353 106.676 81.3268 100.291 81.5327L100.248 82.1505C100.206 82.631 100.333 82.8827 100.775 83.1801C101.239 83.5005 101.871 83.5691 104.295 83.5462C106.697 83.5462 107.413 83.4547 108.172 83.1115C108.678 82.8827 109.268 82.4251 109.479 82.1047C109.689 81.7844 109.921 81.1666 110.005 80.7319C110.069 80.2971 110.027 79.2218 109.9 78.3294C109.774 77.4371 109.689 76.7049 109.71 76.682C109.753 76.6591 110.258 76.8879 110.827 77.1854C111.417 77.4828 112.534 77.8489 113.356 78.0091C114.178 78.1464 115.59 78.215 116.517 78.1692C117.676 78.0777 118.625 77.8489 120.837 76.8422V77.4142C120.837 77.7345 120.69 78.787 120.5 79.748C120.31 80.7319 119.889 82.3106 119.573 83.2488C119.194 84.347 118.625 85.3767 118.035 86.1088C117.529 86.7266 116.749 87.4588 116.306 87.7105C115.864 87.9622 115.485 88.0766 115.442 87.9393C115.4 87.8249 115.084 87.2758 114.726 86.7266C114.304 86.086 113.672 85.5368 112.829 85.0792C112.134 84.7131 110.933 84.2784 110.153 84.1411C109.289 84.0038 107.624 83.9809 105.98 84.0725C103.473 84.2098 103.051 84.1869 100.923 83.6377C99.6583 83.2945 97.9513 82.9284 97.1295 82.7911C96.3076 82.631 94.411 82.5166 92.9148 82.5166C90.7652 82.5166 89.9223 82.6081 89.0161 82.9513C88.3839 83.203 87.4356 83.7064 86.9088 84.0953C86.3819 84.4843 85.539 85.2851 85.0121 85.9029C84.4853 86.5207 83.9163 87.2758 83.7477 87.5732C83.4527 88.0766 83.3895 88.0995 82.5887 87.8249C82.125 87.6647 81.1767 87.2071 80.4813 86.7953C79.7859 86.3834 78.69 85.5368 78.0578 84.9191C77.4256 84.3013 76.4984 83.0657 76.0137 82.1963C75.4658 81.2353 74.96 79.9082 74.6861 78.787C74.4542 77.7803 74.1381 75.8812 74.0117 74.5541C73.9063 73.227 73.8431 70.9618 73.9063 69.5203C73.9695 68.0788 74.1803 66.317 74.3699 65.6306Z" fill="#F7BC4C"/>
<path d="M90.2805 90.3875C90.2805 89.4723 90.3859 89.0833 90.7231 88.7173C91.0181 88.4198 91.3342 88.2825 91.6293 88.3512C91.8611 88.4198 92.8305 88.7401 93.7577 89.0605C94.6849 89.3579 96.3076 89.7698 97.3402 89.9757C98.415 90.1816 100.396 90.3418 101.871 90.3418C103.726 90.3418 105.074 90.2045 106.402 89.8842C107.456 89.6325 108.509 89.3579 108.783 89.3121C109.099 89.2435 109.415 89.3808 109.774 89.7698C110.153 90.1816 110.301 90.5935 110.301 91.1884C110.301 91.6689 110.069 92.5612 109.816 93.2019C109.521 93.8883 108.867 94.7806 108.172 95.4442C107.54 96.062 106.57 96.7484 105.98 96.9772C105.411 97.206 104.273 97.5263 103.452 97.6865C102.524 97.8467 101.218 97.8924 99.9744 97.8238C98.8786 97.7323 97.4034 97.5034 96.708 97.2975C96.0126 97.0916 94.9167 96.6569 94.2845 96.3365C93.6523 96.0162 92.704 95.3298 92.1982 94.8264C91.6925 94.3001 91.0392 93.362 90.7863 92.7443C90.4491 92.0121 90.2805 91.1655 90.2805 90.3875Z" fill="#F7BC4C"/>
<path d="M93.3992 92.2867C93.3781 92.0121 93.4835 91.6918 93.652 91.5316C93.8206 91.3715 94.0524 91.2571 94.1578 91.2571C94.2842 91.28 94.9165 91.6232 95.5487 92.035C96.1809 92.4469 97.2346 92.996 97.8668 93.2248C98.6465 93.4994 99.6159 93.6367 100.817 93.6367C102.208 93.6138 102.946 93.4765 104.189 92.996C105.053 92.6528 106.022 92.3325 106.359 92.2638C106.844 92.1952 106.95 92.2638 107.055 92.7901C107.139 93.2477 107.055 93.5452 106.781 93.8426C106.57 94.0714 105.938 94.4604 105.348 94.7349C104.779 94.9866 103.536 95.3527 102.608 95.5358C101.639 95.7188 100.48 95.7875 99.8688 95.7188C99.2998 95.6273 98.2461 95.4214 97.5507 95.2154C96.8552 95.0324 95.9069 94.6663 95.4433 94.4146C94.9797 94.1629 94.3475 93.6824 94.0103 93.3392C93.6942 93.0189 93.4202 92.5384 93.3992 92.2867Z" fill="#080A16"/>
<path d="M148.74 102.247C148.597 102.104 148.332 101.982 148.149 102.002C147.965 102.002 147.761 102.063 147.72 102.165C147.659 102.247 147.435 103.042 147.19 103.94C146.945 104.837 146.66 105.796 146.558 106.081C146.374 106.53 146.089 106.652 144.314 107.06C142.907 107.366 142.214 107.611 142.091 107.876C141.989 108.06 141.969 108.386 142.05 108.59C142.112 108.794 142.438 109.039 142.785 109.141C143.111 109.243 143.947 109.447 144.62 109.589C145.293 109.732 145.987 109.997 146.17 110.16C146.354 110.324 146.721 111.16 146.966 111.996C147.21 112.832 147.537 113.73 147.7 113.995C147.863 114.239 148.169 114.443 148.393 114.443C148.618 114.443 148.883 114.28 148.985 114.097C149.087 113.893 149.413 112.914 149.699 111.894C150.005 110.874 150.351 109.997 150.494 109.916C150.637 109.834 151.289 109.671 151.962 109.528C152.636 109.406 153.492 109.161 153.839 109.018C154.349 108.794 154.512 108.61 154.512 108.223C154.512 107.937 154.349 107.631 154.145 107.529C153.961 107.427 153.064 107.203 152.166 107.019C151.269 106.836 150.412 106.571 150.29 106.428C150.147 106.285 149.801 105.367 149.495 104.348C149.209 103.328 148.862 102.39 148.74 102.247Z" fill="#080A16"/>
<path d="M157.74 39.247C157.597 39.1042 157.332 38.9818 157.149 39.0022C156.965 39.0022 156.761 39.0634 156.72 39.1654C156.659 39.247 156.435 40.0424 156.19 40.9398C155.945 41.8372 155.66 42.7958 155.558 43.0813C155.374 43.53 155.089 43.6524 153.314 44.0603C151.907 44.3662 151.214 44.611 151.091 44.8761C150.989 45.0597 150.969 45.386 151.05 45.5899C151.112 45.7939 151.438 46.0386 151.785 46.1406C152.111 46.2426 152.947 46.4466 153.62 46.5893C154.293 46.7321 154.987 46.9972 155.17 47.1604C155.354 47.3236 155.721 48.1598 155.966 48.996C156.21 49.8322 156.537 50.7296 156.7 50.9947C156.863 51.2395 157.169 51.4434 157.393 51.4434C157.618 51.4434 157.883 51.2803 157.985 51.0967C158.087 50.8927 158.413 49.9138 158.699 48.894C159.005 47.8742 159.351 46.9972 159.494 46.9156C159.637 46.8341 160.289 46.6709 160.962 46.5281C161.636 46.4058 162.492 46.161 162.839 46.0183C163.349 45.7939 163.512 45.6103 163.512 45.2228C163.512 44.9373 163.349 44.6314 163.145 44.5294C162.961 44.4274 162.064 44.2031 161.166 44.0195C160.269 43.8359 159.412 43.5708 159.29 43.428C159.147 43.2853 158.801 42.3675 158.495 41.3477C158.209 40.3279 157.862 39.3898 157.74 39.247Z" fill="#080A16"/>
<path d="M42.74 6.24698C42.5972 6.10422 42.3321 5.98184 42.1486 6.00223C41.965 6.00223 41.761 6.06342 41.7203 6.1654C41.6591 6.24698 41.4347 7.0424 41.19 7.93979C40.9452 8.83719 40.6597 9.79578 40.5577 10.0813C40.3742 10.53 40.0886 10.6524 38.3142 11.0603C36.9069 11.3662 36.2135 11.611 36.0911 11.8761C35.9892 12.0597 35.9688 12.386 36.0503 12.5899C36.1115 12.7939 36.4379 13.0386 36.7846 13.1406C37.1109 13.2426 37.9471 13.4466 38.6201 13.5893C39.2932 13.7321 39.9866 13.9972 40.1702 14.1604C40.3538 14.3236 40.7209 15.1598 40.9656 15.996C41.2104 16.8322 41.5367 17.7296 41.6999 17.9947C41.863 18.2395 42.1689 18.4434 42.3933 18.4434C42.6176 18.4434 42.8828 18.2803 42.9848 18.0967C43.0867 17.8927 43.4131 16.9138 43.6986 15.894C44.0045 14.8742 44.3513 13.9972 44.494 13.9156C44.6368 13.8341 45.2894 13.6709 45.9625 13.5281C46.6355 13.4058 47.4921 13.161 47.8389 13.0183C48.3487 12.7939 48.5119 12.6103 48.5119 12.2228C48.5119 11.9373 48.3488 11.6314 48.1448 11.5294C47.9612 11.4274 47.0638 11.2031 46.1664 11.0195C45.269 10.8359 44.4125 10.5708 44.2901 10.428C44.1473 10.2853 43.8006 9.36748 43.4947 8.34771C43.2091 7.32794 42.8624 6.38975 42.74 6.24698Z" fill="#080A16"/>
</svg>
