<svg width="200" height="200" viewBox="0 0 200 200" fill="none" xmlns="http://www.w3.org/2000/svg">
<g clip-path="url(#clip0_628_1246)">
<path d="M127.985 91.8767V87.3961V82.8887H129.729C130.695 82.8887 132.708 83.1301 134.21 83.4253C135.739 83.7204 137.644 84.1765 138.449 84.4448C139.254 84.7399 140.354 85.1692 140.864 85.4375C141.374 85.7058 142.286 86.2961 142.876 86.779C143.466 87.262 144.432 88.4961 145.049 89.4889C145.666 90.5084 146.364 92.1719 146.632 93.2182C146.981 94.6134 147.062 95.7134 146.954 97.511C146.874 99.2818 146.632 100.382 146.123 101.67C145.72 102.636 145.344 103.521 145.291 103.682C145.237 103.843 146.042 104.353 147.115 104.862C148.188 105.372 149.771 106.258 150.657 106.848C151.542 107.438 153.286 108.726 154.547 109.719C155.808 110.711 157.633 112.402 158.652 113.448C159.645 114.494 161.282 116.587 162.274 118.09C163.294 119.619 165.252 122.785 166.621 125.146C167.989 127.507 169.599 130.458 170.162 131.719C170.753 132.98 171.987 136.039 172.926 138.561C173.865 141.083 175.179 144.92 175.877 147.147C176.548 149.347 177.46 152.62 177.916 154.391C178.345 156.161 178.936 159.059 179.258 160.83C179.58 162.735 179.875 165.874 179.955 168.476C180.063 171.803 179.982 173.655 179.66 175.855C179.445 177.465 178.989 179.584 178.667 180.55C178.372 181.516 177.675 183.126 177.138 184.172C176.467 185.46 175.421 186.801 173.865 188.358C172.389 189.86 170.913 191.041 169.706 191.711C168.687 192.275 166.969 193.08 165.95 193.455C164.93 193.858 162.569 194.502 160.718 194.85C158.867 195.226 156.559 195.602 153.742 195.843L153.608 207.97L152.132 209.258H71.9107L70.3009 207.648V187.526L69.7106 187.66C69.3618 187.74 68.3691 187.875 67.4837 187.955C66.5983 188.062 64.9617 187.982 63.8617 187.821C62.7616 187.633 60.9372 187.204 59.8372 186.828C58.7371 186.453 57.1542 185.701 56.3493 185.165C55.5443 184.601 54.176 183.448 53.2638 182.535C52.3784 181.65 50.9832 179.906 50.1247 178.645C49.293 177.411 48.3539 175.935 48.0588 175.372C47.7368 174.835 47.2807 173.977 47.0124 173.494C46.7441 173.038 45.9929 171.428 45.3489 169.952C44.705 168.476 43.8465 166.196 43.444 164.854C43.0147 163.513 42.3976 161.179 42.022 159.623C41.6464 158.066 41.1635 155.732 40.9488 154.391C40.7073 153.049 40.5195 151.654 40.5195 151.225C40.5195 150.581 40.5732 150.527 41.0561 150.769C41.3513 150.903 41.7269 151.332 41.861 151.708C41.9952 152.083 42.505 152.566 42.9342 152.781C43.3903 153.022 44.4635 153.183 45.4294 153.183C46.3416 153.183 47.9783 152.942 49.0515 152.647C50.0979 152.352 51.6808 151.761 52.5126 151.332C53.3711 150.903 54.7931 150.017 55.6785 149.347C56.5639 148.703 57.9322 147.442 58.7371 146.583C59.542 145.698 60.3201 144.732 60.4811 144.383C60.6689 143.981 60.9372 143.82 61.2323 143.927C61.5006 144.007 61.7153 143.927 61.7153 143.793C61.7153 143.659 61.9567 142.103 62.2519 140.359C62.547 138.641 63.2177 135.637 63.7543 133.732C64.2909 131.827 65.0958 129.358 65.4983 128.285C65.9276 127.239 66.813 125.307 67.4569 123.992C68.1008 122.704 69.4691 120.397 70.5155 118.841C71.7497 116.99 73.3058 115.138 75.023 113.448C76.4986 112.053 78.8865 110.014 80.3621 108.914C81.8378 107.841 83.072 106.928 83.1256 106.928C83.1525 106.902 82.9915 106.419 82.7232 105.828C82.428 105.131 82.2939 103.977 82.2671 102.475C82.2671 100.65 82.3744 99.9257 82.8842 98.8525C83.2061 98.1013 83.7159 97.1891 84.5208 96.0354L86.3452 97.2427C87.3379 97.9135 89.1355 98.8257 90.3429 99.255C91.5771 99.7111 92.7039 100.06 92.8381 100.06C92.9722 100.06 93.1064 100.596 93.1064 101.267C93.1064 101.938 92.9722 102.528 92.8381 102.609C92.7039 102.689 92.3015 102.555 91.9527 102.34C91.6307 102.126 91.1478 101.938 90.8795 101.938C90.5844 101.938 90.4234 102.153 90.4234 102.528C90.3966 102.877 90.9332 103.923 91.5503 104.889C92.1942 105.855 93.4552 107.384 94.3674 108.297C95.3065 109.236 97.2919 110.899 98.7944 112.026C100.324 113.153 101.853 114.172 102.229 114.307C102.685 114.468 103.034 114.441 103.302 114.226C103.516 114.038 103.946 113.69 104.241 113.421C104.536 113.18 105.69 112.214 106.79 111.275C107.89 110.336 109.956 108.646 111.351 107.545C112.746 106.445 114.57 105.077 115.375 104.487C116.18 103.897 118.058 102.582 119.534 101.616C121.01 100.623 124.015 98.8525 126.241 97.6988C128.442 96.5183 131.232 95.15 132.412 94.6939C133.593 94.2378 135.525 93.567 136.705 93.2182C137.886 92.8694 138.878 92.467 138.905 92.306C138.959 92.145 138.53 91.8231 137.993 91.5816C137.161 91.2328 136.437 91.1792 134.156 91.3133C132.6 91.3938 130.588 91.5548 127.985 91.8767Z" fill="#6F4BFF"/>
<path d="M92.5704 24.614C94.2607 24.2116 96.7291 23.7555 98.0706 23.6213C99.4121 23.514 101.21 23.3799 102.095 23.353C102.98 23.353 105.1 23.4603 106.79 23.6213C108.481 23.7823 110.734 24.0774 111.754 24.2921C112.773 24.5067 114.249 24.8555 114.974 25.097C115.698 25.3384 117.227 25.8751 118.327 26.3312C119.427 26.7873 121.064 27.5653 121.949 28.1019C122.835 28.6385 124.042 29.4434 124.632 29.8727C125.223 30.3288 126.296 31.2411 127.02 31.9118C127.718 32.5826 128.818 33.7899 129.435 34.5948C130.079 35.3997 130.911 36.7412 131.286 37.5461C131.689 38.351 132.333 40.2291 132.708 41.7048C133.298 43.9853 133.433 45.139 133.54 49.4855C133.647 52.6514 133.567 55.3076 133.084 58.4735L131.957 58.4467C131.125 58.4199 130.267 58.715 126.779 60.4858L126.618 63.1688C126.51 64.6444 126.43 67.7836 126.403 70.1446C126.403 72.5056 126.242 76.0204 126.108 77.9253C125.947 79.8302 125.652 82.2449 125.437 83.2913C125.223 84.3377 124.471 86.3231 123.801 87.7183C122.727 89.8915 122.164 90.6427 119.964 92.8428C118.435 94.3721 116.637 95.8746 115.51 96.5185C114.491 97.1356 112.773 97.9942 111.754 98.4235C110.734 98.8796 108.722 99.5503 107.327 99.9259C105.449 100.436 103.866 100.677 101.29 100.785C99.0901 100.892 96.9706 100.811 95.5217 100.597C94.2607 100.436 92.2216 99.8991 90.9606 99.4698C89.6996 99.0406 88.0093 98.2893 87.2044 97.8332C86.3995 97.4039 84.6556 95.9283 83.3141 94.5868C81.3286 92.5745 80.6579 91.6623 79.5042 89.4622C78.753 87.9866 77.8676 85.9475 77.5456 84.9011C77.2505 83.8548 76.7407 81.7083 76.4724 80.0717C76.2041 78.4351 75.8285 75.3765 75.6407 73.2301C75.3187 69.769 75.2114 69.2056 74.5138 67.9982C74.0845 67.2738 73.4406 65.7713 73.0918 64.7249C72.6089 63.2761 72.4479 62.1761 72.4479 60.4858C72.4479 58.2321 72.4479 58.2052 71.643 57.8028C70.8918 57.4272 70.8381 57.293 70.8381 55.871C70.8381 55.0125 70.9722 54.1539 71.1601 53.9929C71.3479 53.7783 72.1528 53.6441 74.7285 53.6441L74.9163 49.8343C75.0236 47.7147 75.3187 44.7902 75.5334 43.3146C75.748 41.8389 76.1773 39.773 76.4992 38.7535C76.7944 37.7339 77.4919 36.0436 78.0285 35.0241C78.592 33.9777 79.8261 32.2874 80.792 31.2679C81.7579 30.2215 83.2067 28.9337 84.0116 28.3971C84.8165 27.8336 86.3727 26.9483 87.4727 26.4117C88.5728 25.8482 90.8801 25.0433 92.5704 24.614Z" fill="#080A16"/>
<path d="M127.959 91.9306L130.454 91.6355C131.823 91.4745 133.862 91.3135 135.016 91.3135C136.357 91.2867 137.43 91.394 138.047 91.6623C138.557 91.8769 138.986 92.1721 138.986 92.333C138.986 92.494 138.825 92.655 138.638 92.7087C138.45 92.7623 137.216 93.1379 135.901 93.5404C134.559 93.9428 132.386 94.7477 131.072 95.338C129.73 95.9014 128.496 96.438 128.308 96.5185C128.067 96.599 127.959 96.0356 127.959 91.9306Z" fill="#080A16"/>
<path d="M91.5509 104.943C90.907 103.977 90.3972 102.931 90.3972 102.582C90.3972 102.206 90.585 101.992 90.8801 101.992C91.1484 101.992 91.6314 102.18 91.9533 102.394C92.2753 102.609 92.6777 102.743 92.8387 102.663C92.9729 102.582 93.107 102.716 93.107 102.931C93.107 103.146 93.3217 103.789 93.59 104.326C93.8583 104.889 95.1193 106.285 96.3534 107.438C97.5876 108.592 99.7877 110.336 101.263 111.329C102.712 112.321 103.973 113.234 104.027 113.395C104.08 113.556 103.812 113.878 103.437 114.119C102.954 114.468 102.578 114.548 102.149 114.361C101.827 114.226 100.297 113.207 98.795 112.08C97.2925 110.953 95.2803 109.29 94.368 108.351C93.4558 107.438 92.168 105.909 91.5509 104.943Z" fill="#080A16"/>
<path d="M27.3466 120.263C27.3198 120.129 27.5344 119.807 27.7759 119.566C28.0442 119.324 28.3393 119.163 28.4735 119.217C28.5808 119.27 30.9955 121.229 33.8127 123.59C36.6566 125.951 39.3665 128.178 39.8762 128.554C40.386 128.929 40.7885 129.385 40.7885 129.546C40.7885 129.734 40.6007 129.949 40.386 130.029C40.1446 130.11 39.447 129.922 38.8299 129.627C38.2128 129.305 36.8445 128.419 35.8249 127.615C34.7785 126.81 33.759 125.978 33.5444 125.79C33.3029 125.602 32.2297 124.717 31.1297 123.805C30.0028 122.919 28.7149 121.819 28.232 121.336C27.7491 120.88 27.3466 120.397 27.3466 120.263Z" fill="#080A16"/>
<path d="M23.8051 125.978C23.8051 125.817 23.8856 125.602 24.0197 125.522C24.127 125.414 24.449 125.334 24.7173 125.334C24.9856 125.334 25.4953 125.468 25.8173 125.656C26.1393 125.817 27.4539 126.836 28.715 127.883C29.9491 128.956 32.0687 130.834 33.4102 132.068C34.8859 133.437 35.8249 134.537 35.8786 134.912C35.9322 135.395 35.8249 135.529 35.342 135.529C35.02 135.503 33.9736 134.859 33.0078 134.027C32.0419 133.195 30.8345 132.149 30.2979 131.693C29.7967 131.218 28.1802 129.861 26.698 128.617L26.6222 128.554C25.0929 127.293 23.8319 126.139 23.8051 125.978Z" fill="#080A16"/>
<path d="M47.6033 129.01C47.6838 128.446 47.8984 127.749 48.0594 127.48C48.2472 127.185 48.4887 126.944 48.6228 126.944C48.7302 126.944 48.8911 127.212 48.9448 127.534C49.0253 127.883 49.2668 129.224 49.5082 130.566C49.7229 131.907 50.1522 133.893 50.4473 134.993C50.7424 136.093 50.9034 137.112 50.7692 137.22C50.6619 137.354 50.34 137.407 50.0448 137.354C49.6692 137.3 49.2936 136.79 48.8643 135.664C48.5155 134.778 48.0594 133.142 47.8448 132.041C47.6301 130.941 47.5228 129.573 47.6033 129.01Z" fill="#080A16"/>
<path d="M56.3231 146.261C57.4231 145.296 58.5768 144.061 58.9256 143.525C59.3817 142.773 59.65 142.559 59.9988 142.72C60.2402 142.827 60.5354 143.122 60.6695 143.364C60.8305 143.713 60.6964 144.142 60.2134 144.839C59.811 145.403 59.006 146.369 58.389 147.013C57.7719 147.657 56.5645 148.73 55.6791 149.401C54.7937 150.071 53.3717 150.957 52.5132 151.386C51.6546 151.815 50.0985 152.405 49.0253 152.701C47.9521 152.996 46.2886 153.237 45.3496 153.237C44.0617 153.237 43.3641 153.103 42.7202 152.701C42.2373 152.405 41.8617 152.003 41.8617 151.815C41.8617 151.574 42.5324 151.493 44.33 151.466C46.1545 151.466 47.3082 151.305 48.7033 150.849C49.7229 150.501 51.4132 149.722 52.4595 149.132C53.4791 148.515 55.223 147.227 56.3231 146.261Z" fill="#080A16"/>
<path d="M127.986 59.8418C128.657 59.4661 129.783 58.9564 130.481 58.7149C131.34 58.4287 132.144 58.3482 132.896 58.4734C133.513 58.5539 134.264 58.7685 134.559 58.9295C134.854 59.0905 135.418 59.5735 135.82 60.0027C136.223 60.4052 136.786 61.2906 137.081 61.9613C137.376 62.6321 137.698 63.8394 137.806 64.6443C137.913 65.4761 137.859 66.8712 137.671 67.8639C137.484 68.8298 137.001 70.2518 136.571 71.003C136.088 71.8348 135.31 72.747 134.64 73.2031C133.996 73.6324 132.896 74.2226 132.144 74.5178C131.42 74.8129 130.266 75.1349 128.388 75.4032L128.2 77.2008C128.066 78.1935 127.986 83.0229 127.986 96.8404L125.249 98.2355C123.72 99.0136 121.037 100.623 119.266 101.804C117.495 102.984 115.563 104.326 114.973 104.755C114.383 105.185 112.746 106.446 111.351 107.572C109.956 108.672 107.836 110.39 106.656 111.382C105.475 112.402 104.429 113.207 104.322 113.207C104.188 113.207 102.819 112.321 101.263 111.248C99.6801 110.202 97.4264 108.404 96.2459 107.304C95.0654 106.204 93.8848 104.836 93.6165 104.272C93.2946 103.655 93.1068 102.716 93.1068 100.328L94.6629 100.516C95.4946 100.65 98.0703 100.731 100.351 100.704C103.785 100.704 104.912 100.597 106.79 100.087C108.051 99.738 109.983 99.1209 111.083 98.6916C112.183 98.2624 114.061 97.3501 115.242 96.6794C116.69 95.8208 118.246 94.5598 119.964 92.8427C122.164 90.6426 122.727 89.8914 123.8 87.7182C124.471 86.323 125.222 84.3376 125.437 83.2912C125.652 82.2448 125.947 79.8301 126.108 77.9252C126.242 76.0203 126.376 72.8543 126.376 70.9494C126.376 69.0445 126.456 65.9053 126.778 60.5662L127.986 59.8418Z" fill="#F7BC4C"/>
<path d="M49.5348 117.795C49.8299 117.07 50.3665 116.399 50.8495 116.104C51.3056 115.836 52.1373 115.621 52.7276 115.621C53.3178 115.621 54.0691 115.809 54.4179 116.024C54.7398 116.238 55.1154 116.829 55.2496 117.285C55.3837 117.768 55.5984 119.19 55.6789 120.451C55.7862 121.712 56.3496 124.663 56.9399 127.024C57.5301 129.385 58.1741 132.283 58.3887 133.463C58.6033 134.644 58.7643 137.005 58.7912 138.695C58.7912 140.385 58.8985 142.022 59.0058 142.317C59.1399 142.639 59.0863 143.149 58.8716 143.578C58.657 144.008 57.557 145.134 56.4301 146.154C55.2764 147.147 53.613 148.408 52.7276 148.944C51.8422 149.481 50.2055 150.259 49.1055 150.635C47.7908 151.091 46.2615 151.386 42.2639 151.627L40.5199 150.339C39.554 149.642 37.1393 147.415 35.1539 145.43C33.1685 143.417 31.1026 141.298 30.566 140.707C30.0562 140.117 28.9562 138.856 28.1244 137.89C27.2927 136.924 25.9512 135.422 25.1195 134.537C24.2877 133.651 23.617 132.846 23.617 132.712C23.617 132.605 23.456 132.363 23.2682 132.176C23.0536 132.015 22.5706 131.371 22.1682 130.78C21.6584 130.002 21.4706 129.385 21.4706 128.5C21.4706 127.829 21.6316 127.105 21.8194 126.863C22.0072 126.622 22.5438 126.246 23.0267 126.005C23.6438 125.656 23.8853 125.629 23.8853 125.87C23.8585 126.058 25.1195 127.239 26.6219 128.5C28.1513 129.761 29.8147 131.156 30.3245 131.639C30.8343 132.095 32.0416 133.141 33.0075 133.973C33.9734 134.805 35.0197 135.449 35.3685 135.476C35.8246 135.476 35.932 135.341 35.9051 134.859C35.8515 134.483 34.8856 133.383 33.4099 132.015C32.0953 130.78 29.8684 128.822 28.5269 127.668C27.1585 126.488 25.7634 125.495 25.4414 125.414C25.0926 125.334 24.556 124.824 24.2341 124.261C23.9121 123.724 23.6438 122.812 23.617 122.248C23.617 121.551 23.8048 121.068 24.2877 120.585C24.7975 120.075 25.2 119.914 26.1658 119.914C27.0781 119.914 27.4 120.022 27.5073 120.37C27.561 120.639 28.7952 121.819 30.2172 123C31.666 124.18 33.088 125.361 33.3831 125.602C33.7051 125.87 34.8051 126.729 35.8246 127.561C36.871 128.366 38.2125 129.251 38.8564 129.573C39.4735 129.868 40.1711 130.056 40.3858 129.975C40.6004 129.895 40.7882 129.68 40.7882 129.493C40.815 129.332 40.3858 128.875 39.876 128.5C39.3662 128.124 36.5491 125.817 33.5709 123.322C30.405 120.692 28.1781 118.653 28.1781 118.358C28.1513 118.117 28.3927 117.58 28.7147 117.151C29.0098 116.748 29.7074 116.292 30.2708 116.131C30.8343 115.943 31.7733 115.89 32.4709 115.997C33.1416 116.104 34.4563 116.614 35.4222 117.124C36.3881 117.66 37.9442 118.653 38.9101 119.324C39.876 120.022 41.3785 121.229 42.2639 122.061C43.1492 122.865 44.3029 123.858 44.8127 124.287C45.3225 124.69 46.3152 125.441 47.0396 125.951C47.7372 126.461 48.3006 126.997 48.3006 127.158C48.3006 127.292 48.1933 127.48 48.0323 127.561C47.8982 127.641 47.7104 128.205 47.603 128.822C47.5225 129.466 47.6299 130.888 47.8445 131.988C48.0591 133.088 48.5153 134.724 48.864 135.61C49.3202 136.737 49.6689 137.246 50.0446 137.3C50.3397 137.354 50.6617 137.3 50.7958 137.166C50.9031 137.059 50.769 136.039 50.4738 134.939C50.1787 133.839 49.6689 131.478 49.347 129.707C48.864 127.051 48.8104 125.817 48.9177 122.731C49.025 119.914 49.186 118.68 49.5348 117.795Z" fill="#F7BC4C"/>
<path d="M100.029 82.9962C101.183 82.7547 102.954 82.2181 103.973 81.8157C104.993 81.4132 105.932 81.1181 106.093 81.1986C106.227 81.2522 106.308 81.762 106.308 82.2986C106.281 82.8352 106.039 83.7743 105.771 84.3645C105.503 84.9548 104.859 85.8134 104.376 86.2963C103.866 86.7792 102.847 87.4232 102.122 87.7451C101.129 88.2012 100.11 88.389 98.2318 88.4695C96.0854 88.55 95.3878 88.4695 93.8049 87.9329C92.517 87.5036 91.5512 86.967 90.6389 86.1085C89.9145 85.4377 89.0828 84.445 88.8145 83.9084C88.5194 83.345 88.3315 82.8084 88.3584 82.7279C88.412 82.6474 89.3243 82.7816 90.3706 82.9962C91.4438 83.2377 93.5902 83.4255 95.1464 83.4255C96.7025 83.4255 98.9026 83.2377 100.029 82.9962Z" fill="#FEFEF0"/>
<path d="M105.637 132.122C106.281 128.285 106.952 124.529 107.086 123.751C107.274 122.839 107.461 122.41 107.703 122.463C107.864 122.544 117.549 124.207 129.221 126.219C140.865 128.205 153.314 130.324 156.855 130.968C160.397 131.585 163.348 132.122 163.429 132.176C163.509 132.229 163.241 134 162.839 136.093C162.436 138.186 161.202 144.92 160.102 151.037C159.002 157.154 158.063 162.467 158.009 162.816C157.929 163.406 157.687 163.513 154.843 164.077C153.153 164.425 149.584 165.257 146.928 165.901C144.272 166.572 140.945 167.484 139.55 167.913C137.672 168.53 136.679 169.013 134.452 170.891L133.165 170.167C132.467 169.765 131.206 168.772 130.347 167.94C129.489 167.135 128.335 165.74 127.772 164.855C127.208 163.969 126.538 162.762 126.242 162.198C125.974 161.608 125.437 160.803 125.062 160.401C124.686 159.998 124.096 159.596 123.72 159.489C123.264 159.354 122.647 159.489 120.42 160.481L115.162 159.542C111.7 158.925 109.742 158.684 109.42 158.845C109.178 158.979 108.964 159.301 108.964 159.569C108.937 159.811 109.098 160.159 109.286 160.347C109.474 160.508 111.861 161.072 119.562 162.44L119.723 164.184C119.83 165.15 120.232 166.706 120.608 167.672C120.984 168.638 121.789 170.086 122.379 170.891C122.969 171.696 123.452 172.582 123.452 172.85C123.452 173.091 123.372 173.36 123.237 173.413C123.13 173.494 121.869 173.735 120.42 173.95C118.998 174.191 117.013 174.674 115.993 175.05C115.001 175.426 113.981 175.935 113.686 176.204C113.418 176.445 113.015 177.062 112.827 177.545C112.613 178.001 112.452 178.806 112.452 179.289C112.425 179.826 112.64 180.362 112.988 180.684C113.283 180.979 113.552 181.436 113.525 181.704C113.525 181.945 113.364 182.321 113.176 182.509C112.962 182.67 112.666 183.099 112.505 183.448C112.318 183.77 112.183 184.414 112.183 184.843C112.183 185.272 112.344 186.05 112.532 186.533C112.747 186.989 113.337 187.767 113.847 188.197C114.545 188.787 114.732 189.109 114.571 189.404C114.437 189.619 114.33 190.343 114.33 191.014C114.33 191.926 114.491 192.49 115.081 193.294C115.51 193.885 116.181 194.555 116.584 194.77C116.986 194.985 117.227 195.334 117.147 195.521C117.066 195.682 117.12 196.246 117.281 196.729C117.415 197.185 117.469 197.641 117.388 197.721C117.308 197.802 112.344 197.024 106.334 196.031C100.325 195.012 95.2537 194.099 95.0927 194.019C94.8244 193.858 94.9049 193.026 95.3879 190.209C95.7635 188.224 96.6757 183.019 97.4269 178.672C98.1782 174.326 99.3855 167.43 100.11 163.379C100.834 159.328 102.095 152.191 102.927 147.549C103.759 142.908 104.966 135.959 105.637 132.122Z" fill="#FEFEF0"/>
<path d="M134.452 198.124C135.418 197.641 136.465 196.943 136.813 196.568C137.323 196.004 137.538 195.924 138.074 196.138C138.45 196.273 140.275 196.38 142.179 196.353C144.058 196.353 147.036 196.246 148.806 196.138C150.577 196.031 152.053 195.951 152.107 195.977C152.16 195.977 151.704 197.56 151.087 199.465C150.47 201.37 149.933 203.087 149.88 203.222C149.826 203.383 148.458 203.248 146.231 202.873C144.245 202.551 139.792 201.773 136.33 201.183C132.869 200.592 129.999 200.082 129.972 200.056C129.918 200.029 130.535 199.787 131.313 199.492C132.065 199.224 133.486 198.607 134.452 198.124Z" fill="#FEFEF0"/>
<path d="M131.071 105.56C133.003 104.702 135.578 103.682 136.839 103.253C138.422 102.716 139.656 102.475 140.864 102.475C141.83 102.475 143.064 102.582 143.627 102.689C144.164 102.797 144.62 103.038 144.62 103.226C144.62 103.387 144.352 103.602 144.03 103.655C143.681 103.736 142.5 103.977 141.4 104.246C140.3 104.487 138.53 104.997 137.51 105.372C136.491 105.721 133.083 107.09 129.998 108.377C126.912 109.665 123.236 111.275 121.895 111.973C120.527 112.643 119.158 113.207 118.863 113.207C118.568 113.207 118.273 113.1 118.192 112.939C118.112 112.804 118.38 112.295 118.783 111.839C119.239 111.329 121.09 110.256 123.558 109.048C125.758 107.975 129.139 106.392 131.071 105.56Z" fill="#080A16"/>
<path d="M72.0984 135.395C72.3131 133.651 72.5545 132.122 72.635 131.961C72.6887 131.827 73.0375 131.72 73.3863 131.72C73.7887 131.72 74.1107 131.907 74.1912 132.203C74.2717 132.444 74.218 134.295 74.057 136.281C73.896 138.266 73.6009 141.888 73.3863 144.33C73.1716 146.771 72.9302 151.225 72.8228 154.257C72.7424 157.289 72.5814 165.66 72.4472 172.904C72.3131 180.148 72.1253 186.158 71.9911 186.265C71.8838 186.399 71.5082 186.372 70.5691 185.916V157.476L68.4764 155.008C67.3227 153.64 65.6324 151.574 64.7202 150.447C63.808 149.293 63.0567 148.193 63.0567 148.032C63.0299 147.844 63.2445 147.469 63.5128 147.201C63.9689 146.744 64.0494 146.798 65.3909 148.14C66.1422 148.918 67.3495 150.313 68.0739 151.198C68.7715 152.11 69.6032 153.184 70.4886 154.391L70.6764 150.769C70.7838 148.783 71.0252 145.215 71.2667 142.854C71.4813 140.493 71.857 137.139 72.0984 135.395Z" fill="#080A16"/>
<path d="M108.882 159.569C108.856 159.328 109.07 158.979 109.365 158.845C109.634 158.684 110.063 158.63 110.278 158.684C110.492 158.737 112.934 159.167 115.697 159.65C118.434 160.133 120.714 160.589 120.714 160.669C120.714 160.75 120.419 161.206 119.427 162.44L114.517 161.555C111.807 161.072 109.446 160.508 109.258 160.347C109.07 160.159 108.909 159.811 108.882 159.569Z" fill="#080A16"/>
<path d="M156.828 163.674C159.779 163.084 162.542 162.547 162.999 162.494C163.455 162.44 164.045 162.359 164.34 162.333C164.635 162.306 165.118 162.467 165.413 162.681C165.843 163.003 165.896 163.164 165.655 163.567C165.44 163.942 164.179 164.291 160.423 165.042C157.713 165.579 151.274 167.082 146.096 168.369C140.944 169.657 136.651 170.757 136.571 170.811C136.491 170.838 136.893 171.348 137.456 171.884C138.02 172.448 138.825 173.44 139.254 174.111C139.683 174.782 140.274 176.043 140.596 176.928C140.891 177.814 141.266 179.799 141.4 181.355C141.561 183.099 141.561 185.272 141.4 187.124C141.266 188.733 140.917 190.987 140.622 192.087C140.327 193.187 139.925 194.529 139.71 195.038C139.495 195.548 139.147 196.058 138.959 196.138C138.744 196.246 138.342 196.219 138.047 196.112C137.51 195.897 137.51 195.87 138.127 193.912C138.449 192.838 138.905 190.933 139.12 189.672C139.334 188.411 139.522 186.185 139.522 184.709C139.495 183.233 139.334 181.06 139.12 179.879C138.905 178.699 138.449 176.955 138.127 175.989C137.644 174.648 137.134 173.87 134.398 171.026L135.551 169.952C136.41 169.174 137.349 168.665 138.986 168.101C140.247 167.699 143.547 166.76 146.364 166.062C149.181 165.338 153.876 164.264 156.828 163.674Z" fill="#080A16"/>
<path d="M113.497 182.106C113.497 181.704 113.792 181.597 115.161 181.543H115.187C116.1 181.489 117.468 181.436 118.192 181.382C119.131 181.355 119.641 181.462 119.936 181.758C120.285 182.133 120.285 182.241 119.936 182.562C119.668 182.831 118.595 183.045 116.958 183.153C114.839 183.341 114.302 183.287 113.926 182.965C113.685 182.75 113.47 182.348 113.497 182.106Z" fill="#080A16"/>
<path d="M114.409 189.672C114.517 189.216 114.812 189.109 116.1 189.055C116.931 189.002 118.488 188.975 119.507 188.975C121.332 189.002 121.385 189.029 121.385 189.672C121.385 190.263 121.251 190.37 120.178 190.531C119.507 190.612 117.978 190.719 116.77 190.719C115.536 190.746 114.49 190.638 114.409 190.477C114.329 190.343 114.329 189.968 114.409 189.672Z" fill="#080A16"/>
<path d="M117.414 196.326C117.119 196.112 116.985 195.817 117.092 195.521C117.253 195.092 117.656 195.038 120.071 195.038C122.673 195.038 122.861 195.065 122.861 195.575C122.861 195.87 122.619 196.246 122.324 196.38C122.029 196.514 120.902 196.648 119.856 196.648C118.702 196.648 117.709 196.514 117.414 196.326Z" fill="#080A16"/>
<path d="M78.9399 44.3879C79.2351 43.5025 79.9058 41.9732 80.4156 40.9804V40.9536C80.9254 39.9609 81.4351 39.156 81.5156 39.156C81.6229 39.1828 82.1059 39.5316 82.562 39.9609C83.0449 40.417 84.3059 41.1951 85.3255 41.7049C86.345 42.2146 88.1963 42.939 89.4036 43.2878C90.6378 43.6366 93.3745 44.1464 95.5209 44.3879C98.4454 44.7367 100.377 44.8171 103.302 44.683C105.448 44.5757 108.453 44.3342 110.009 44.0927C111.565 43.8781 114.141 43.422 115.778 43.0464C117.387 42.6707 118.836 42.3756 118.997 42.3756C119.185 42.3756 119.185 43.2073 119.024 44.8708C118.836 46.6148 118.863 47.8758 119.078 49.1368C119.265 50.1563 119.614 51.6051 119.883 52.3564C120.178 53.1345 120.473 53.993 120.553 54.2345C120.741 54.6906 120.526 54.6906 117.441 54.5028C115.643 54.3955 111.216 54.315 107.594 54.3418C101.611 54.3418 100.726 54.4223 97.6673 55.0394C94.8233 55.6296 94.0452 55.7101 92.5696 55.4955C91.6037 55.3613 90.289 55.0662 89.6183 54.8784C88.9475 54.6638 87.7402 54.3418 86.9353 54.1808C86.1304 54.0198 83.501 53.7784 81.0863 53.6979C78.6985 53.5906 76.7399 53.5101 76.7399 53.5101C76.7399 53.5101 76.9277 52.5442 77.1423 51.3637C77.3838 50.1831 77.7594 48.4929 77.974 47.6075C78.2155 46.7221 78.6448 45.2733 78.9399 44.3879Z" fill="#F7BC4C"/>
<path d="M89.8061 65.4763C90.1817 64.3762 90.611 62.525 90.772 61.3444L91.0939 59.2517L92.7037 59.4127C93.5891 59.4932 94.555 59.5737 94.8501 59.5737C95.3063 59.5737 95.4404 59.8688 95.7624 61.6396C95.9502 62.7933 96.4063 64.564 96.7819 65.6104C97.1307 66.6568 97.6941 67.9715 98.0429 68.5617C98.3917 69.152 99.2234 70.1179 99.8674 70.7081C100.538 71.2984 101.719 72.0228 102.524 72.3179C103.65 72.7472 104.643 72.8545 107.058 72.8545C109.794 72.8545 110.304 72.774 111.592 72.1838C112.397 71.8082 113.47 71.0301 114.007 70.4398C114.57 69.8496 115.375 68.4544 115.831 67.3544C116.287 66.2543 117.012 64.0811 118.192 59.7883L119.534 59.9493C120.258 60.0298 121.144 60.1103 121.466 60.1103C121.975 60.1103 122.083 60.2444 122.083 60.9688C122.083 61.4518 121.841 63.4372 121.546 65.3421C121.251 67.247 120.714 69.9569 120.339 71.2984C119.963 72.6667 119.239 74.6253 118.729 75.6717C118.219 76.718 117.334 78.0327 116.77 78.6498C116.234 79.2401 115.295 79.9645 114.704 80.2596C114.114 80.5279 113.417 80.7694 113.148 80.7694C112.88 80.7694 112.451 80.3133 112.102 79.6157C111.78 78.9986 110.948 77.9254 110.224 77.201C109.526 76.5034 108.668 75.8595 108.319 75.779C107.997 75.6985 106.95 75.8595 105.985 76.1546C105.019 76.4766 103.516 76.8522 102.631 77.0132C101.745 77.201 97.9893 77.4156 94.3135 77.5498C90.611 77.6839 87.3109 77.8717 86.9353 77.9791C86.5597 78.0595 85.4596 78.5157 82.6425 79.8303L81.5693 78.7571C80.979 78.1669 80.2009 77.0668 79.8253 76.3424C79.4765 75.5912 78.9936 74.3302 78.779 73.5253C78.5911 72.7204 78.457 71.9691 78.5107 71.835C78.5643 71.7277 79.3156 71.835 80.1473 72.0765C81.2473 72.3716 82.24 72.4521 83.501 72.3448C84.5206 72.2643 85.7816 71.9691 86.3182 71.674C87.1231 71.2984 87.5255 70.8154 88.2231 69.3398C88.7329 68.3202 89.4305 66.5763 89.8061 65.4763Z" fill="#F7BC4C"/>
<path d="M120.312 161.259C120.768 160.616 121.492 159.918 121.948 159.73C122.378 159.542 122.888 159.381 123.075 159.381C123.263 159.355 123.746 159.516 124.149 159.73C124.551 159.945 125.222 160.589 125.624 161.206C126.027 161.823 126.375 162.413 126.375 162.52C126.375 162.628 126.912 163.567 127.556 164.586C128.2 165.633 129.434 167.135 130.293 167.967C131.151 168.772 132.412 169.765 133.083 170.167C133.727 170.543 135.015 171.616 135.9 172.555C137.107 173.843 137.644 174.674 138.1 175.989C138.449 176.955 138.905 178.699 139.12 179.88C139.308 181.06 139.495 183.233 139.495 184.709C139.495 186.185 139.334 188.358 139.147 189.538C138.932 190.719 138.503 192.57 138.207 193.643C137.886 194.743 137.322 195.951 136.893 196.434C136.49 196.89 135.363 197.668 134.424 198.124C133.459 198.607 131.956 199.251 131.071 199.546C130.185 199.841 128.656 200.217 127.717 200.378C126.751 200.539 125.061 200.673 123.961 200.673C122.727 200.673 121.412 200.512 120.607 200.217C119.856 199.975 118.836 199.331 118.326 198.795C117.79 198.285 117.334 197.561 117.253 196.514L119.453 196.621C120.768 196.675 121.922 196.595 122.27 196.434C122.592 196.246 122.888 195.87 122.888 195.575C122.888 195.092 122.7 195.038 119.936 195.038C117.495 195.038 116.851 194.958 116.234 194.556C115.831 194.287 115.241 193.643 114.892 193.134C114.57 192.651 114.302 191.873 114.302 190.612L116.368 190.692C117.522 190.746 119.104 190.692 119.936 190.558C121.251 190.37 121.412 190.29 121.412 189.002H114.597L113.738 188.197C113.282 187.768 112.719 187.016 112.504 186.533C112.316 186.05 112.156 185.299 112.156 184.843C112.156 184.414 112.29 183.77 112.451 183.448C112.638 183.099 112.907 182.697 113.068 182.536C113.282 182.294 113.443 182.375 113.738 182.804C114.087 183.341 114.221 183.367 116.824 183.18C118.595 183.045 119.668 182.831 119.936 182.589C120.285 182.241 120.285 182.133 119.936 181.758C119.587 181.355 119.131 181.328 113.765 181.623L113.095 180.899C112.692 180.443 112.424 179.826 112.424 179.289C112.424 178.806 112.585 178.028 112.773 177.545C112.987 177.062 113.363 176.445 113.658 176.204C113.926 175.935 114.973 175.426 115.965 175.05C116.958 174.701 118.944 174.192 120.392 173.977C121.841 173.735 123.102 173.494 123.209 173.44C123.317 173.36 123.424 173.092 123.424 172.85C123.424 172.582 122.941 171.723 122.351 170.891C121.734 170.087 120.956 168.638 120.553 167.672C120.178 166.733 119.775 165.15 119.695 164.184C119.507 162.547 119.534 162.386 120.312 161.259Z" fill="#F7BC4C"/>
<path d="M88.4115 74.4375C88.1969 74.2228 88.0359 73.7667 88.0359 73.4716C88.0895 72.935 88.17 72.9082 89.3237 73.1228C89.9945 73.257 92.0336 73.3643 93.858 73.3643C96.9971 73.3643 97.1581 73.3911 97.0776 73.9009C97.0239 74.2228 96.5678 74.6521 95.9239 74.9472C95.1727 75.3229 94.2873 75.4838 92.9726 75.457C91.9531 75.457 90.5847 75.3229 89.9677 75.1619C89.3237 74.9741 88.6261 74.6521 88.4115 74.4375Z" fill="#080A16"/>
<path d="M129.596 135.61C129.596 135.529 129.676 135.288 129.757 135.073C129.864 134.832 130.132 134.698 130.374 134.778C130.615 134.832 131.34 134.966 132.01 135.073C132.681 135.181 133.432 135.288 133.701 135.368C133.942 135.422 134.157 135.664 134.157 135.878C134.157 136.173 133.942 136.254 133.352 136.147C132.735 136.039 132.52 136.12 132.413 136.495C132.359 136.737 132.171 137.756 132.01 138.776C131.796 140.305 131.662 140.574 131.205 140.574C130.91 140.574 130.669 140.439 130.669 140.305C130.669 140.171 130.857 139.205 131.071 138.159C131.286 137.139 131.42 136.147 131.34 136.012C131.259 135.878 130.857 135.744 130.401 135.744C129.944 135.744 129.596 135.69 129.596 135.61Z" fill="#080A16"/>
<path d="M111.566 146.932C111.539 146.583 111.673 146.181 111.888 145.993C112.102 145.805 112.317 145.671 112.424 145.671C112.505 145.671 115.027 146.1 118.059 146.637C121.09 147.147 128.576 148.488 134.693 149.588C140.811 150.688 146.042 151.574 146.311 151.574C146.552 151.574 147.008 151.815 147.303 152.11C147.733 152.54 147.786 152.754 147.572 153.184C147.411 153.479 147.035 153.72 146.713 153.72C146.364 153.72 143.091 153.184 139.389 152.54C135.713 151.869 128.147 150.554 122.62 149.562C117.093 148.596 112.344 147.737 112.102 147.657C111.834 147.603 111.593 147.281 111.566 146.932Z" fill="#080A16"/>
<path d="M110.224 153.184C110.197 152.942 110.332 152.593 110.546 152.432C110.761 152.245 111.244 152.164 111.619 152.218C111.995 152.298 113.793 152.62 115.644 152.915C117.495 153.237 121.466 153.962 124.498 154.525C127.53 155.115 132.708 156.028 136.035 156.537C139.362 157.074 142.85 157.637 143.816 157.798C144.781 157.959 145.774 158.174 146.042 158.308C146.284 158.442 146.499 158.764 146.499 159.033C146.525 159.274 146.364 159.65 146.177 159.837C145.881 160.133 144.674 160.025 139.389 159.22C135.847 158.684 129.757 157.637 125.839 156.913C121.922 156.162 116.985 155.25 114.839 154.874C112.693 154.498 110.788 154.069 110.6 153.908C110.412 153.72 110.224 153.398 110.224 153.184Z" fill="#080A16"/>
<path d="M112.37 133.168C112.612 132.846 113.068 132.47 113.363 132.31C113.658 132.149 114.302 131.988 114.758 131.988C115.348 131.988 115.867 132.211 116.314 132.658C116.69 133.034 116.985 133.436 116.985 133.597C116.985 133.732 116.77 133.866 116.529 133.866C116.261 133.892 115.858 133.705 115.644 133.463C115.429 133.222 114.919 133.034 114.517 133.061C114.034 133.061 113.604 133.302 113.363 133.651C113.148 134 112.961 134.617 112.961 135.073C112.961 135.502 113.175 136.093 113.443 136.361C113.685 136.629 114.114 136.844 114.356 136.817C114.624 136.817 115.107 136.683 115.429 136.522C115.912 136.307 116.1 136.307 116.234 136.602C116.341 136.79 116.261 137.112 116.1 137.3C115.912 137.488 115.483 137.702 115.107 137.783C114.731 137.836 114.087 137.783 113.631 137.649C113.175 137.515 112.612 137.085 112.37 136.71C112.075 136.307 111.887 135.529 111.887 134.858C111.887 134.188 112.102 133.49 112.37 133.168Z" fill="#606B6B"/>
<path d="M117.683 134.402C117.951 133.973 118.327 133.49 118.568 133.356C118.809 133.195 119.507 133.061 120.151 133.061C121.09 133.061 121.385 133.195 121.949 133.866C122.378 134.375 122.619 134.993 122.619 135.61C122.619 136.119 122.458 136.871 122.244 137.273C122.056 137.702 121.573 138.185 121.171 138.346C120.795 138.534 120.124 138.695 119.668 138.695C119.131 138.695 118.595 138.427 118.058 137.89C117.468 137.3 117.253 136.844 117.253 136.146C117.253 135.636 117.441 134.858 117.683 134.402Z" fill="#606B6B"/>
<path d="M123.773 136.602C124.041 135.18 124.31 133.919 124.39 133.812C124.444 133.705 124.632 133.678 124.819 133.732C125.007 133.812 125.651 134.805 126.215 135.932C126.778 137.085 127.288 137.89 127.341 137.756C127.368 137.595 127.556 136.79 127.69 135.932C127.932 134.671 128.093 134.402 128.522 134.402C128.817 134.402 129.059 134.429 129.059 134.456C129.059 134.51 128.817 135.744 128.522 137.219C128.227 138.695 127.985 139.929 127.985 139.956C127.985 140.01 127.798 140.037 127.583 140.037C127.341 140.037 126.751 139.178 126.188 138.051C125.624 136.951 125.088 136.093 124.98 136.173C124.846 136.227 124.685 136.924 124.605 137.676C124.497 138.454 124.39 139.178 124.336 139.285C124.283 139.419 124.015 139.419 123.773 139.339C123.317 139.205 123.317 139.071 123.773 136.602Z" fill="#606B6B"/>
<path d="M134.022 140.976C134.022 140.815 134.264 139.527 134.532 138.105C135.015 135.717 135.095 135.502 135.605 135.61C135.927 135.663 136.625 135.771 137.188 135.851C137.805 135.958 138.342 136.227 138.583 136.602C138.798 136.951 138.986 137.461 138.986 137.756C139.012 138.051 138.691 138.588 138.315 138.963C137.671 139.607 137.671 139.661 138.047 140.627C138.261 141.19 138.449 141.7 138.449 141.781C138.449 141.861 138.181 141.888 137.859 141.834C137.456 141.807 137.188 141.485 136.947 140.707C136.732 140.09 136.356 139.554 136.034 139.419C135.605 139.258 135.471 139.366 135.337 139.956C135.256 140.385 135.122 140.868 135.068 141.029C135.015 141.217 134.747 141.351 134.505 141.298C134.237 141.271 134.022 141.11 134.022 140.976Z" fill="#606B6B"/>
<path d="M138.932 141.888C138.905 141.7 139.576 140.493 140.434 139.205C141.481 137.568 142.152 136.817 142.5 136.817C142.903 136.817 143.064 137.085 143.252 138.078C143.386 138.802 143.654 140.117 143.869 141.029C144.057 141.941 144.164 142.773 144.083 142.854C144.003 142.934 143.735 142.907 143.439 142.8C143.171 142.666 142.876 142.263 142.769 141.834C142.688 141.432 142.42 141.11 142.205 141.11C141.991 141.11 141.535 141.056 141.213 140.976C140.756 140.868 140.515 141.002 140.274 141.512C140.086 141.888 139.71 142.183 139.469 142.183C139.2 142.183 138.959 142.049 138.932 141.888Z" fill="#606B6B"/>
<path d="M145.13 139.688C145.291 139.285 145.693 138.722 146.015 138.427C146.391 138.078 146.981 137.89 147.679 137.89C148.537 137.863 148.94 138.051 149.53 138.615C149.932 139.017 150.281 139.446 150.254 139.554C150.254 139.688 150.04 139.768 149.798 139.768C149.53 139.768 149.127 139.58 148.913 139.339C148.698 139.124 148.162 138.937 147.705 138.91C147.222 138.91 146.766 139.098 146.552 139.419C146.364 139.688 146.149 140.198 146.069 140.573C145.988 140.976 146.096 141.485 146.337 141.834C146.632 142.29 147.035 142.451 147.705 142.451C148.215 142.451 148.698 142.317 148.779 142.183C148.859 142.022 149.074 142.129 149.288 142.371C149.637 142.8 149.61 142.881 149.101 143.176C148.779 143.363 148.108 143.498 147.652 143.524C147.088 143.524 146.471 143.283 145.961 142.854C145.479 142.451 145.103 141.834 144.996 141.298C144.915 140.841 144.969 140.117 145.13 139.688Z" fill="#606B6B"/>
<path d="M151.327 139.366C150.845 139.285 150.523 139.071 150.523 138.829C150.523 138.615 150.737 138.427 151.006 138.427C151.247 138.427 152.213 138.561 153.152 138.695C154.332 138.883 154.815 139.071 154.815 139.366C154.815 139.634 154.547 139.768 154.01 139.768C153.474 139.768 153.179 139.929 153.071 140.224C153.018 140.493 152.83 141.512 152.669 142.505C152.535 143.524 152.32 144.329 152.213 144.329C152.079 144.329 151.837 144.222 151.649 144.115C151.354 143.954 151.354 143.605 151.596 142.317C151.757 141.432 151.945 140.439 151.998 140.09C152.106 139.607 151.998 139.473 151.327 139.366Z" fill="#606B6B"/>
<path d="M118.327 135.878C118.354 135.503 118.649 134.886 118.998 134.537C119.347 134.161 119.83 133.866 120.071 133.866C120.286 133.866 120.715 134.107 121.01 134.403C121.305 134.698 121.547 135.261 121.547 135.664C121.547 136.093 121.359 136.683 121.144 137.005C120.849 137.461 120.473 137.622 119.803 137.622C119.132 137.622 118.783 137.461 118.595 137.086C118.461 136.79 118.327 136.254 118.327 135.878Z" fill="#FEFEF0"/>
<path d="M166.778 26.8547C166.624 26.7008 166.339 26.5688 166.141 26.5908C165.943 26.5908 165.723 26.6568 165.679 26.7668C165.613 26.8547 165.371 27.7125 165.107 28.6803C164.843 29.6481 164.535 30.6819 164.425 30.9898C164.227 31.4737 163.919 31.6057 162.005 32.0456C160.488 32.3755 159.74 32.6394 159.608 32.9254C159.498 33.1233 159.476 33.4752 159.564 33.6952C159.63 33.9151 159.982 34.1791 160.356 34.2891C160.708 34.399 161.61 34.619 162.335 34.7729C163.061 34.9269 163.809 35.2128 164.007 35.3888C164.205 35.5648 164.601 36.4666 164.865 37.3683C165.129 38.2701 165.481 39.2379 165.657 39.5239C165.833 39.7878 166.163 40.0078 166.404 40.0078C166.646 40.0078 166.932 39.8318 167.042 39.6338C167.152 39.4139 167.504 38.3581 167.812 37.2584C168.142 36.1586 168.516 35.2128 168.67 35.1249C168.824 35.0369 169.528 34.8609 170.254 34.707C170.979 34.575 171.903 34.3111 172.277 34.1571C172.827 33.9151 173.003 33.7172 173.003 33.2993C173.003 32.9913 172.827 32.6614 172.607 32.5514C172.409 32.4415 171.441 32.1995 170.474 32.0016C169.506 31.8036 168.582 31.5177 168.45 31.3637C168.296 31.2097 167.922 30.22 167.592 29.1202C167.284 28.0205 166.91 27.0087 166.778 26.8547Z" fill="#080A16"/>
<path d="M22.2686 73.2273C22.1147 73.0733 21.8288 72.9413 21.6308 72.9633C21.4329 72.9633 21.2129 73.0293 21.1689 73.1393C21.1029 73.2273 20.861 74.0851 20.597 75.0529C20.3331 76.0207 20.0252 77.0544 19.9152 77.3624C19.7172 77.8462 19.4093 77.9782 17.4957 78.4181C15.9781 78.748 15.2303 79.012 15.0983 79.2979C14.9883 79.4959 14.9663 79.8478 15.0543 80.0677C15.1203 80.2877 15.4722 80.5516 15.8461 80.6616C16.198 80.7716 17.0998 80.9915 17.8256 81.1455C18.5515 81.2995 19.2993 81.5854 19.4973 81.7614C19.6952 81.9373 20.0911 82.8391 20.3551 83.7409C20.619 84.6427 20.9709 85.6105 21.1469 85.8964C21.3229 86.1604 21.6528 86.3803 21.8947 86.3803C22.1367 86.3803 22.4226 86.2044 22.5326 86.0064C22.6426 85.7865 22.9945 84.7307 23.3024 83.6309C23.6323 82.5312 24.0063 81.5854 24.1602 81.4974C24.3142 81.4094 25.018 81.2335 25.7439 81.0795C26.4697 80.9475 27.3935 80.6836 27.7674 80.5296C28.3173 80.2877 28.4932 80.0897 28.4932 79.6718C28.4932 79.3639 28.3173 79.034 28.0973 78.924C27.8994 78.814 26.9316 78.5721 25.9638 78.3741C24.996 78.1762 24.0723 77.8902 23.9403 77.7363C23.7863 77.5823 23.4124 76.5925 23.0825 75.4928C22.7745 74.393 22.4006 73.3813 22.2686 73.2273Z" fill="#080A16"/>
<path d="M75.1118 2.26635C74.9578 2.11239 74.6719 1.98041 74.474 2.00241C74.276 2.00241 74.056 2.0684 74.012 2.17837C73.9461 2.26635 73.7041 3.12415 73.4402 4.09193C73.1762 5.05972 72.8683 6.09348 72.7583 6.40142C72.5604 6.88531 72.2524 7.01728 70.3389 7.45718C68.8212 7.78711 68.0734 8.05105 67.9414 8.33698C67.8314 8.53494 67.8094 8.88686 67.8974 9.10681C67.9634 9.32676 68.3153 9.5907 68.6892 9.70067C69.0412 9.81065 69.943 10.0306 70.6688 10.1846C71.3946 10.3385 72.1425 10.6245 72.3404 10.8004C72.5384 10.9764 72.9343 11.8782 73.1982 12.78C73.4622 13.6818 73.8141 14.6496 73.99 14.9355C74.166 15.1994 74.4959 15.4194 74.7379 15.4194C74.9798 15.4194 75.2658 15.2434 75.3757 15.0455C75.4857 14.8255 75.8376 13.7697 76.1456 12.67C76.4755 11.5702 76.8494 10.6245 77.0034 10.5365C77.1573 10.4485 77.8612 10.2725 78.587 10.1186C79.3128 9.98661 80.2366 9.72267 80.6105 9.56871C81.1604 9.32676 81.3364 9.1288 81.3364 8.7109C81.3364 8.40297 81.1604 8.07304 80.9405 7.96307C80.7425 7.85309 79.7747 7.61114 78.807 7.41319C77.8392 7.21523 76.9154 6.9293 76.7834 6.77534C76.6295 6.62137 76.2555 5.63159 75.9256 4.53184C75.6177 3.43209 75.2438 2.42032 75.1118 2.26635Z" fill="#080A16"/>
</g>
<defs>
<clipPath id="clip0_628_1246">
<rect width="200" height="200" fill="white"/>
</clipPath>
</defs>
</svg>
