<svg width="200" height="200" viewBox="0 0 200 200" fill="none" xmlns="http://www.w3.org/2000/svg">
<g clip-path="url(#clip0_628_1274)">
<path d="M54.9945 91.3552C57.1587 91.164 59.5131 90.901 60.2265 90.8054C60.94 90.6859 61.8199 90.5903 62.8426 90.5425L62.7236 96.8767L57.6105 97.2592C54.8043 97.4743 52.1169 97.7372 51.665 97.809C51.2132 97.9046 50.5948 98.1675 50.2857 98.4304C49.9765 98.7173 49.7863 99.1236 49.81 99.4344C49.8814 99.8885 50.69 100.39 54.4 102.255C56.8733 103.498 60.1552 105.267 61.6535 106.175C63.1517 107.083 65.4586 108.541 66.7666 109.426C68.0746 110.31 70.4766 111.983 72.1175 113.131C73.7585 114.278 77.2306 116.788 79.8466 118.7C82.4627 120.612 84.8646 122.429 85.7921 123.289L87.8374 120.971C88.9551 119.68 90.7626 117.505 91.8803 116.119C92.9743 114.732 94.5201 112.724 96.7318 109.713L98.6819 109.211C99.7759 108.924 101.369 108.35 102.249 107.896C103.153 107.466 104.461 106.629 105.174 106.079C105.888 105.506 106.887 104.669 107.362 104.191L107.367 104.187C108.242 103.354 108.267 103.331 108.623 103.809C108.813 104.072 109.17 104.812 109.431 105.482C109.669 106.127 109.955 107.274 110.05 107.992C110.145 108.852 110.074 109.904 109.859 110.979L109.859 110.98C109.645 111.912 109.431 112.844 109.36 113.059C109.241 113.394 109.503 113.633 110.454 114.111C111.144 114.469 112.357 115.186 113.141 115.712C113.926 116.238 115.472 117.553 116.566 118.604C117.66 119.68 119.42 121.616 120.466 122.931C121.513 124.246 123.011 126.277 123.796 127.472C124.604 128.668 126.269 131.345 127.529 133.448C128.79 135.552 130.645 138.731 131.644 140.5C132.643 142.268 133.475 143.798 133.475 143.894C133.475 144.013 126.982 144.085 119.039 144.085C110.644 144.085 104.223 144.181 103.747 144.324C103.296 144.443 102.511 144.945 102.011 145.447C101.298 146.164 100.965 146.81 100.394 148.626C100.014 149.869 96.9697 160.243 87.6471 192.488L69.4777 192.608C51.8077 192.727 51.2845 192.751 50.6186 193.205C50.2381 193.468 49.7387 194.09 49.5009 194.568C49.2393 195.07 49.049 195.859 49.049 196.313C49.049 196.767 49.1917 197.436 49.382 197.795C49.5722 198.177 49.9527 198.679 50.2381 198.942C50.5235 199.205 51.0467 199.54 51.4034 199.707C51.8791 199.922 49.4771 199.994 40.44 199.994C29.1435 200.018 28.8106 199.994 28.3587 199.54C27.9306 199.109 27.8831 198.751 27.8831 194.998C27.8831 191.891 27.8117 190.935 27.5977 190.935C27.4312 190.958 26.6464 191.102 25.8616 191.293C25.0293 191.508 23.2456 191.652 21.5095 191.652C19.7972 191.652 17.8471 191.508 16.7769 191.269C15.7543 191.078 14.0658 190.528 13.0194 190.074C11.973 189.62 10.546 188.903 9.83259 188.473C9.11913 188.066 7.71599 186.895 6.71715 185.915C5.40914 184.624 4.64812 183.596 3.93466 182.21C3.38768 181.158 2.76935 179.652 2.55531 178.864C2.29371 177.931 2.10345 176.067 2.03211 173.605C1.96076 171.286 2.00832 168.968 2.1748 167.749C2.31749 166.625 2.72178 164.474 3.05473 162.968C3.41146 161.462 4.1487 158.713 4.74325 156.873C5.3378 155.032 6.33664 152.188 7.00253 150.539C7.64465 148.889 9.2856 145.28 10.6412 142.531C11.9967 139.782 13.828 136.269 14.7317 134.763C15.6354 133.257 17.2288 130.723 18.299 129.146C19.3691 127.568 21.2004 125.082 22.3419 123.648C23.4834 122.214 25.7665 119.632 27.4074 117.935C29.0484 116.262 31.2839 114.182 32.4017 113.346C33.5194 112.509 35.2555 111.386 36.2543 110.86C37.8953 110.023 38.0855 109.832 37.9666 109.354C37.8953 109.067 37.7764 107.872 37.705 106.677C37.6099 105.123 37.705 104.072 37.9904 102.852C38.2045 101.92 38.7039 100.486 39.1319 99.6256C39.5838 98.6934 40.4875 97.4265 41.4388 96.4226C42.6517 95.1318 43.4365 94.5821 45.125 93.7455C46.2903 93.1718 48.1215 92.4786 49.1679 92.2157C50.2143 91.9528 52.8303 91.5703 54.9945 91.3552Z" fill="#6F4BFF"/>
<path d="M142.56 137.129C145.865 133.424 148.767 130.15 149.005 129.839C149.29 129.456 149.694 129.265 150.146 129.265C150.527 129.265 150.883 129.337 150.931 129.456C150.978 129.552 150.86 129.982 150.693 130.412C150.503 130.819 150.241 131.177 150.122 131.177C150.003 131.177 149.884 131.44 149.884 131.775C149.884 132.11 150.051 132.731 150.265 133.137C150.479 133.568 151.216 134.619 151.882 135.456C152.548 136.293 153.832 137.583 154.76 138.324C155.687 139.065 157.114 140.069 157.97 140.547C158.827 141.025 160.182 141.647 160.991 141.91C161.823 142.197 162.608 142.412 162.727 142.412C162.846 142.412 163.155 142.005 163.416 141.503C163.654 141.025 164.035 140.452 164.273 140.26C164.629 139.95 164.724 139.95 165.01 140.38C165.2 140.643 165.462 141.288 165.604 141.814C165.747 142.34 165.795 143.057 165.581 144.085H151.074C143.107 144.085 136.567 144.037 136.567 143.965C136.567 143.895 139.203 140.918 142.424 137.282L142.56 137.129Z" fill="#6F4BFF"/>
<path d="M82.3858 32.2203C83.5719 32.0317 84.853 31.8432 85.2326 31.796C85.6359 31.7489 86.9644 31.6782 88.198 31.6782C89.4316 31.6546 91.4243 31.7489 92.5868 31.8668C93.7729 32.0082 95.5285 32.291 96.5011 32.4796C97.4738 32.6681 99.3479 33.1866 100.653 33.6109C101.957 34.0587 103.927 34.8601 105.042 35.4022C106.156 35.9443 107.699 36.8399 108.481 37.4056C109.264 37.9477 110.593 39.1261 111.399 40.0218C112.348 41.0353 113.273 42.3787 113.843 43.5336C114.388 44.6414 114.887 46.0556 115.029 46.9512C115.171 47.7997 115.219 48.9075 115.124 49.426C115.053 49.9445 115.171 51.3823 115.385 52.6079C115.67 54.3284 115.741 55.7426 115.646 58.7359C115.598 60.8807 115.456 62.7899 115.385 62.9784C115.266 63.2613 115.693 63.4027 117.781 63.7562C119.347 63.9919 120.58 64.3219 120.936 64.6047C121.268 64.8404 121.624 65.3354 121.719 65.7125C121.838 66.1132 121.814 66.6553 121.672 67.0324C121.529 67.4095 121.102 67.8337 120.699 67.9751C120.106 68.2344 119.987 68.4465 119.869 69.46C119.774 70.0964 119.513 71.487 119.252 72.524C118.991 73.5611 118.493 75.046 118.113 75.8238C117.71 76.6487 116.998 77.615 116.405 78.1336C115.836 78.6285 114.934 79.2413 114.412 79.477C113.89 79.7363 112.775 80.1134 111.921 80.3255C110.83 80.6084 109.834 80.6791 108.481 80.5848C107.343 80.5141 106.109 80.2784 105.397 79.972C104.757 79.6892 104.187 79.5006 104.164 79.5242C104.14 79.5713 104.259 80.0191 104.448 80.5377C104.638 81.0562 104.781 81.6926 104.804 81.9518C104.804 82.2111 104.614 82.8003 103.974 84.1202L105.753 84.9687C106.726 85.4401 108.007 86.265 108.6 86.8307C109.193 87.3964 110 88.2684 111.091 89.6826L111.874 89.2819C112.277 89.0698 112.989 88.457 113.44 87.8913C113.867 87.3492 114.46 86.4772 115.266 85.0159L115.1 85.8408C115.029 86.2886 114.697 87.8913 114.365 89.3762C114.033 90.8611 113.44 93.0295 113.06 94.2079C112.657 95.3864 111.874 97.2248 111.304 98.3326C110.735 99.4403 109.691 101.067 109.003 101.986C108.315 102.905 106.939 104.296 105.967 105.121C104.994 105.922 103.405 107.006 102.432 107.501C101.459 108.02 99.7512 108.68 98.6362 108.962C96.9281 109.434 96.0504 109.504 92.824 109.504C90.0484 109.504 88.4827 109.387 87.0118 109.08C85.8968 108.845 84.1887 108.373 83.2161 108.067C82.2434 107.737 80.5828 107.077 79.539 106.582C78.4951 106.087 76.8345 105.168 75.8619 104.531C74.8892 103.895 73.4184 102.787 72.6118 102.08C71.8052 101.373 70.4767 100.006 69.6464 99.0161C68.816 98.0262 67.701 96.3763 67.1554 95.3628C66.6098 94.3258 65.8981 92.6524 65.566 91.6153C65.2338 90.5782 64.7831 88.6691 64.5933 87.3728C64.3086 85.5108 64.2849 83.7667 64.3798 79.1235C64.4984 75.1874 64.451 72.6655 64.2612 71.5106C64.1188 70.5913 63.8342 69.46 63.6206 69.0358C63.4071 68.6351 62.9564 67.9751 62.6005 67.6216C62.2684 67.2445 61.7228 66.7967 61.3907 66.6317C61.0585 66.4667 60.3706 66.2546 59.8486 66.1603C59.3267 66.0896 58.4964 66.1132 57.1205 66.5138V62.6249C57.1205 60.3622 57.2628 57.746 57.4763 56.379C57.6661 55.0827 58.1168 53.15 58.449 52.0658C58.7811 51.0051 59.4928 49.2846 60.0147 48.2475C60.5366 47.2105 61.4144 45.7256 61.9363 44.9478C62.4819 44.17 63.8342 42.5673 64.9729 41.4124C66.1116 40.2339 67.9857 38.6076 69.1244 37.7827C70.2869 36.9813 72.3034 35.7557 73.6081 35.1193C74.9129 34.4594 76.9531 33.6109 78.1156 33.2338C79.3017 32.8567 81.2233 32.4088 82.3858 32.2203Z" fill="#080A16"/>
<path d="M51.6641 97.7198C52.1149 97.6491 54.1076 97.4369 56.0529 97.272C58.0219 97.107 60.2519 96.9656 62.5056 96.9184L62.4345 99.676C62.4108 101.208 62.221 103.235 62.0075 104.154C61.794 105.097 61.5804 105.875 61.5093 105.875C61.4381 105.875 60.8213 105.521 60.157 105.121C59.4691 104.696 56.8832 103.329 54.3923 102.104C50.6915 100.265 49.8849 99.7703 49.8374 99.3225C49.79 99.0161 49.9798 98.6154 50.3119 98.3326C50.5966 98.0733 51.2134 97.8141 51.6641 97.7198Z" fill="#080A16"/>
<path d="M176.686 122.727C176.52 121.949 176.449 121.124 176.544 120.889C176.662 120.582 176.899 120.488 177.35 120.535C177.896 120.606 178.038 120.771 178.465 122.656L179.414 122.538C179.936 122.468 182.498 122.067 185.108 121.666C187.812 121.242 190.872 120.889 192.225 120.865C193.529 120.865 194.81 120.936 195.071 121.054C195.427 121.195 194.739 121.36 192.58 121.69C190.944 121.926 188.168 122.397 186.412 122.703C184.657 123.033 182.213 123.505 178.821 124.259V126.262C178.821 127.441 178.916 128.266 179.058 128.266C179.201 128.266 181.027 127.842 183.162 127.299C185.677 126.663 187.788 126.286 189.259 126.215C191.157 126.097 191.655 126.145 192.414 126.522C192.913 126.757 193.268 127.087 193.221 127.205C193.174 127.323 191.964 127.512 190.54 127.582C189.117 127.653 187.575 127.794 187.124 127.889C186.673 127.983 184.301 128.549 181.858 129.161C179.414 129.774 177.326 130.175 177.231 130.081C177.137 129.963 177.042 128.596 177.018 127.017C177.018 125.437 176.876 123.505 176.686 122.727Z" fill="#080A16"/>
<path d="M55.2753 67.5888C55.9127 66.8417 56.5502 66.4079 57.4709 66.0705C58.4153 65.7331 59.0999 65.6367 59.9499 65.7572C60.5873 65.8295 61.39 66.0464 61.7205 66.2151C62.0511 66.3838 62.5941 66.8417 62.9246 67.2273C63.2787 67.5888 63.7273 68.2636 63.9398 68.6973C64.1523 69.107 64.4356 70.2638 64.5772 71.2278C64.7661 72.3846 64.8133 74.9632 64.6953 78.9878C64.6008 83.7354 64.6244 85.5187 64.9077 87.4226C65.0966 88.748 65.5452 90.7001 65.8757 91.7605C66.2062 92.8208 66.9145 94.5319 67.4575 95.5923C68.0005 96.6285 69.1101 98.3155 69.9365 99.3277C70.7628 100.34 72.0849 101.738 72.8876 102.461C73.6903 103.184 75.154 104.316 76.122 104.967C77.09 105.618 78.7426 106.557 79.7814 107.064C80.8202 107.57 82.4728 108.244 83.4408 108.582C84.4088 108.895 86.1086 109.377 87.2182 109.618C88.6584 109.931 90.2638 110.052 92.9316 110.076C94.9856 110.076 96.6618 110.1 96.6618 110.148C96.6618 110.172 96.0008 111.088 95.1981 112.197C94.3954 113.281 92.8844 115.257 91.8456 116.583C90.8068 117.908 89.0597 120.053 85.9197 123.692L85.3295 123.138C84.999 122.825 82.5673 120.945 79.8995 118.969C77.2316 116.993 73.2653 114.101 71.0461 112.534C68.8268 110.968 65.9229 108.967 64.5536 108.076C63.1843 107.208 62.0511 106.485 62.0038 106.485C61.9566 106.461 62.0983 105.642 62.3108 104.654C62.5232 103.666 62.8065 101.015 62.9482 98.7493C63.0662 96.4839 63.1135 93.0377 63.0426 91.0375C62.9718 89.0613 62.7829 86.5068 62.6413 85.3741C62.4996 84.2415 62.3816 83.3016 62.358 83.2775C62.3344 83.2534 61.6733 83.1088 60.8942 82.9401C60.1151 82.7955 59.0763 82.4581 58.6041 82.2171C58.1084 81.9761 57.2112 81.3013 56.621 80.747C56.0308 80.1687 55.2044 79.0119 54.7795 78.1443C54.3309 77.2526 53.8823 75.8067 53.6935 74.7704C53.5282 73.7823 53.4574 72.481 53.5518 71.8785C53.6226 71.276 53.8587 70.312 54.0476 69.7095C54.2365 69.107 54.7795 68.1672 55.2753 67.5888Z" fill="#F7BC4C"/>
<path d="M113.188 79.8795C114.038 79.5903 114.982 79.1324 115.313 78.8673C115.643 78.6022 115.927 78.3853 115.95 78.3853C115.998 78.3853 115.95 79.0601 115.88 79.9036C115.809 80.7229 115.643 82.193 115.525 83.157C115.407 84.0969 115.077 85.35 114.817 85.9284C114.534 86.4827 113.944 87.3985 113.519 87.9769C113.07 88.5311 112.362 89.1577 111.181 89.7843L110.473 88.8444C110.095 88.3383 109.293 87.4467 108.702 86.8683C108.112 86.2899 106.837 85.4464 104.099 84.0969L104.524 83.2293C104.736 82.7473 104.925 82.1448 104.925 81.8797C104.901 81.6146 104.76 80.9639 104.571 80.4337C104.382 79.9036 104.311 79.4457 104.382 79.3975C104.453 79.3734 105.019 79.5903 105.61 79.8795C106.507 80.3133 107.121 80.4096 109.175 80.4096C111.158 80.4337 111.96 80.3374 113.188 79.8795Z" fill="#F7BC4C"/>
<path d="M166.615 109.016C167.276 108.076 168.008 107.377 168.48 107.16C168.905 106.991 169.614 106.847 170.039 106.823C170.511 106.823 171.054 107.039 171.502 107.425C171.927 107.787 172.305 108.437 172.47 109.064C172.683 109.859 172.659 110.389 172.352 111.642C172.116 112.534 171.384 114.221 170.605 115.619C169.873 116.944 169.236 118.173 169.212 118.342C169.165 118.535 169.637 118.679 170.747 118.776C171.62 118.848 173.509 118.848 174.926 118.752C176.342 118.679 179.317 118.342 181.536 118.005C184.015 117.643 186.588 117.426 188.265 117.426C190.035 117.45 191.31 117.571 191.924 117.812C192.444 118.005 193.057 118.342 193.317 118.583C193.553 118.8 193.884 119.258 194.049 119.595C194.214 119.933 194.403 120.535 194.592 121.644L192.089 121.668C190.531 121.692 187.745 122.005 184.841 122.487C182.244 122.897 179.695 123.307 178.231 123.499L177.995 122.463C177.782 121.499 177.688 121.403 177.05 121.403C176.389 121.403 176.342 121.475 176.366 122.246C176.366 122.704 176.507 124.054 176.673 125.259C176.862 126.488 176.932 128.102 176.838 128.994C176.767 129.862 176.791 130.729 176.909 130.922C177.121 131.235 177.735 131.139 181.583 130.151C184.015 129.524 186.4 128.946 186.848 128.849C187.297 128.753 188.831 128.608 190.248 128.536C191.664 128.464 192.868 128.271 192.916 128.151C192.963 128.03 192.609 127.693 192.113 127.452C191.357 127.066 190.862 127.018 188.973 127.138C187.509 127.211 185.408 127.596 182.905 128.247C180.781 128.801 178.939 129.235 178.821 129.235C178.679 129.235 178.585 128.392 178.585 127.187C178.585 125.259 178.609 125.138 179.128 125.018C179.411 124.969 180.899 124.632 182.433 124.295C183.944 123.957 187.084 123.379 189.398 122.993C191.688 122.584 194.049 122.246 194.592 122.198C195.513 122.126 195.702 122.222 196.315 122.921C196.858 123.523 197 123.909 197 124.777C197 125.62 196.858 126.03 196.363 126.608C195.985 127.042 195.253 127.693 194.71 128.054C193.718 128.729 193.695 128.777 193.836 129.789C193.931 130.56 193.836 130.994 193.482 131.597C193.199 132.006 192.632 132.633 192.231 132.97C191.806 133.284 190.437 134.007 189.209 134.561C187.981 135.115 185.266 136.127 183.189 136.85C181.111 137.549 178.089 138.393 176.46 138.73C174.831 139.068 172.022 139.453 170.204 139.598C168.386 139.718 166.308 139.959 165.6 140.104C164.892 140.248 164.113 140.538 163.853 140.779C163.617 140.996 163.216 141.574 162.979 142.08C162.743 142.562 162.413 142.972 162.295 142.972C162.177 142.972 161.398 142.755 160.595 142.466C159.769 142.2 158.423 141.574 157.573 141.092C156.723 140.61 155.307 139.598 154.386 138.851C153.465 138.104 152.19 136.802 151.529 135.959C150.868 135.115 150.136 134.055 149.924 133.645C149.711 133.211 149.546 132.585 149.546 132.247C149.546 131.91 149.688 131.597 149.853 131.573C149.995 131.524 150.49 130.464 150.915 129.211C151.34 127.958 152.214 125.861 152.851 124.536C153.489 123.21 154.527 121.475 155.165 120.68C155.826 119.884 157.809 117.981 159.603 116.438C161.421 114.896 163.475 112.944 164.207 112.1C164.915 111.257 166.001 109.859 166.615 109.016Z" fill="#F7BC4C"/>
<path d="M179.977 146.906C182.887 146.718 183.407 146.624 183.762 146.225C183.998 145.966 184.259 145.755 184.353 145.731C184.472 145.731 184.85 146.037 185.252 146.436C185.868 147.047 185.962 147.305 185.962 148.362C185.962 149.326 184.235 155.128 178.604 173.335C174.559 186.374 171.105 197.322 170.939 197.651C170.773 197.98 170.324 198.52 169.945 198.872C169.59 199.225 168.999 199.624 168.62 199.742C168.171 199.93 155.608 200 127.762 200C105.641 200 87.5424 199.977 87.5424 199.93C87.5424 199.908 87.7233 199.467 87.9555 198.901L88.0155 198.755C88.2758 198.144 88.5833 197.604 88.7253 197.533C88.8436 197.463 89.2221 196.547 89.5533 195.466C89.8609 194.409 90.8782 191.049 91.7772 188.019C92.6763 184.988 94.3324 179.326 95.468 175.45C96.5799 171.574 98.7329 164.291 100.247 159.24C101.738 154.189 103.204 149.608 103.488 149.044C103.749 148.48 104.293 147.822 104.695 147.587C105.379 147.165 106.77 147.164 140.779 147.141L141.011 147.141C160.6 147.141 178.131 147.023 179.977 146.906Z" fill="#819BA7"/>
<path d="M102.787 144.523C103.381 144.116 104.665 144.092 118.425 143.972C126.648 143.9 144.306 143.876 157.638 143.9C170.971 143.924 182.331 144.02 182.877 144.092C183.471 144.164 183.97 144.379 184.065 144.57C184.184 144.81 184.113 145.097 183.899 145.312C183.638 145.552 182.568 145.719 180.097 145.887C178.148 146.006 161.084 146.126 140.883 146.126L140.65 146.126C106.488 146.15 105.091 146.151 104.403 146.581C104.023 146.82 103.452 147.49 103.191 148.065C102.906 148.639 101.432 153.306 99.9352 158.452C98.4142 163.597 96.2515 171.017 95.1345 174.966C93.9938 178.915 92.3302 184.683 91.4271 187.77C90.524 190.857 89.5021 194.28 89.1931 195.357C88.8604 196.458 88.4801 197.391 88.3613 197.463C88.2187 197.535 87.886 198.133 87.0542 200H69.5865C54.9469 200 51.9762 199.928 51.287 199.641C50.8354 199.449 50.2175 199.043 49.9561 198.731C49.6709 198.444 49.3144 197.942 49.1718 197.654C49.0292 197.343 48.9104 196.721 48.9104 196.266C48.9104 195.812 49.1005 195.022 49.3619 194.543C49.5996 194.04 50.0987 193.418 50.4789 193.155C51.1444 192.7 51.6672 192.676 87.482 192.437L93.4947 171.615C96.7981 160.151 99.8401 149.764 100.22 148.519C100.648 147.203 101.195 145.983 101.551 145.6C101.884 145.217 102.431 144.738 102.787 144.523Z" fill="#B4B9BA"/>
<path d="M53.8437 142.766C54.7046 142.6 56.57 142.387 58.0288 142.269C59.4637 142.174 63.5053 142.056 66.9969 142.056C70.4884 142.032 74.6257 142.127 76.2041 142.245C77.7824 142.387 79.6 142.577 80.2696 142.719C80.9153 142.837 81.848 143.193 82.3023 143.5C83.0915 144.021 83.1394 144.116 83.2111 145.561C83.2589 146.414 83.1633 148.806 83.0198 150.89C82.8763 152.974 82.5415 156.172 82.3023 157.995C82.0632 159.819 81.5849 162.59 81.2262 164.153C80.8675 165.716 80.3652 167.682 80.1022 168.535C79.8391 169.388 79.313 170.667 78.9543 171.377C78.5956 172.088 77.9977 173.035 77.615 173.485C77.2324 173.935 76.515 174.551 76.0127 174.859C75.5345 175.143 74.2909 175.617 73.2625 175.877C72.0429 176.209 70.2254 176.398 67.8339 176.493C65.6337 176.588 63.5292 176.54 62.3813 176.374C61.3769 176.232 60.0376 175.948 59.3919 175.735C58.7702 175.522 57.8136 175.001 57.2396 174.598C56.6656 174.195 55.8765 173.39 55.4938 172.798C55.1351 172.206 54.609 171.188 54.3459 170.548C53.9394 169.459 53.8198 169.34 52.9588 169.198C52.4566 169.127 51.237 168.914 50.2565 168.772C49.276 168.606 48.3911 168.44 48.2715 168.393C48.1759 168.345 48.3672 167.895 48.702 167.398C49.0368 166.924 49.3477 166.119 49.4195 165.622C49.539 164.816 49.5869 164.745 50.1847 164.84C50.5674 164.911 51.2609 165.006 51.7392 165.077C52.2414 165.148 52.648 165.172 52.648 165.101C52.648 165.03 52.4327 163.774 52.1697 162.306C51.9066 160.861 51.524 158.208 51.3326 156.456C51.1413 154.703 50.95 153.235 50.9022 153.211C50.8783 153.164 49.826 152.998 48.5824 152.808C47.3389 152.595 45.7605 152.287 45.1148 152.074C44.4452 151.885 43.7516 151.624 43.5603 151.482C43.2494 151.269 43.3451 151.103 44.0386 150.464C44.493 150.037 45.4974 149.445 46.2388 149.161C47.1475 148.829 48.152 148.64 50.7348 148.64L50.7826 146.343C50.8543 144.069 50.8783 144.021 51.5718 143.548C51.9544 143.264 52.9828 142.908 53.8437 142.766Z" fill="#FEFBEF"/>
<path d="M130.849 174.811C131.28 173.39 131.71 171.969 131.83 171.661L132.045 171.14H147.112C161.341 171.14 162.178 171.164 162.034 171.543C161.963 171.78 161.747 172.561 161.556 173.272C161.341 173.982 160.767 175.996 160.241 177.701C159.667 179.619 159.38 180.969 159.499 181.135C159.619 181.301 159.667 181.869 159.619 182.39C159.547 183.148 159.404 183.409 158.878 183.646C158.447 183.835 157.993 184.451 157.514 185.422C156.988 186.488 156.63 186.938 156.199 187.056C155.864 187.127 153.616 187.151 151.177 187.08C148.738 187.009 146.633 186.843 146.514 186.748C146.394 186.63 142.496 186.535 137.904 186.535C130.299 186.535 129.486 186.488 129.104 186.109C128.769 185.777 128.673 185.327 128.697 183.74C128.697 182.272 128.865 181.277 129.391 179.596C129.773 178.411 130.443 176.232 130.849 174.811Z" fill="#FEFBEF"/>
<path d="M48.4454 152.981C48.1832 152.907 47.9686 152.683 47.9924 152.485C47.9924 152.187 48.1832 152.112 48.7554 152.211C49.1846 152.286 49.9238 152.41 50.4007 152.485C51.259 152.609 51.3067 152.658 51.4259 153.652C51.4975 154.248 51.6644 155.838 51.8074 157.204C51.9505 158.57 52.2605 160.855 52.5228 162.296C52.7612 163.736 52.9758 164.978 52.9758 165.078C52.9758 165.202 52.6897 165.227 52.3082 165.177C51.9505 165.103 51.259 165.003 50.7583 164.929C50.1384 164.829 49.8761 164.655 49.8761 164.333C49.8761 164.109 49.6615 163.538 49.3992 163.091C49.1369 162.668 48.7793 161.7 48.6124 161.004C48.3262 159.762 48.3262 159.638 48.8508 158.818C49.1608 158.346 49.5184 157.552 49.6376 157.08C49.7807 156.608 49.8761 155.863 49.8761 155.465C49.8761 155.068 49.6615 154.348 49.3992 153.925C49.1369 153.478 48.7077 153.056 48.4454 152.981Z" fill="#6F4BFF"/>
<path d="M140.721 167.462C144.584 167.462 149.734 167.363 152.167 167.288C154.599 167.189 157.937 167.09 159.606 167.065C162.3 167.015 162.682 167.065 162.896 167.437C163.039 167.76 162.968 168.431 162.658 169.623C162.396 170.592 162.181 171.387 162.181 171.411C162.181 171.461 155.409 171.486 147.159 171.486C138.909 171.486 132.138 171.411 132.138 171.287C132.138 171.188 132.305 170.492 132.519 169.747C132.734 169.002 133.068 168.182 133.282 167.934C133.664 167.537 134.307 167.487 140.721 167.462Z" fill="#6F4BFF"/>
<path d="M45.1031 110.067C45.0792 109.716 45.2225 109.317 45.4135 109.153H45.3897C45.6285 108.965 46.13 108.895 46.8225 108.965C47.4195 109.036 48.8524 109.411 50.0464 109.786C51.2166 110.161 53.7957 111.216 55.7779 112.107C57.7361 112.998 60.96 114.592 62.9421 115.67C64.9004 116.749 67.4079 118.179 68.4825 118.882C70.202 119.984 70.4646 120.219 70.393 120.758C70.3691 121.109 70.1781 121.508 69.9631 121.649C69.6288 121.86 69.0795 121.625 67.0974 120.476C65.7362 119.679 63.5869 118.484 62.3451 117.804C61.1033 117.124 58.6197 115.858 56.8525 114.991C55.0853 114.123 52.3868 112.927 50.8823 112.341C49.3778 111.755 47.4673 111.122 46.6315 110.958C45.2941 110.677 45.1509 110.583 45.1031 110.067Z" fill="#080A16"/>
<path d="M99.8859 120.359C101.247 119.375 103.325 117.757 104.495 116.772C106.429 115.131 106.692 114.991 107.647 114.991C108.22 114.991 108.698 115.108 108.698 115.225C108.698 115.342 107.862 116.257 106.835 117.241C105.832 118.226 104.137 119.703 103.086 120.5C102.035 121.297 100.292 122.539 99.1934 123.266C98.0949 124.016 96.9725 124.603 96.6381 124.603C96.2322 124.603 95.9934 124.438 95.8978 124.063C95.7784 123.665 95.9217 123.383 96.5665 122.844C97.0202 122.446 98.5247 121.344 99.8859 120.359Z" fill="#080A16"/>
<path d="M38.4642 138.2C38.3209 137.098 38.2731 136.067 38.3448 135.902C38.4164 135.762 38.7985 135.621 39.2045 135.621C39.8015 135.621 39.9448 135.738 40.0403 136.254C40.112 136.629 40.2553 137.637 40.3985 138.552C40.518 139.466 40.6374 140.99 40.6374 141.951C40.6374 142.912 40.5657 144.084 40.4941 144.53C40.3985 145.21 40.2075 145.421 39.4911 145.702C39.0135 145.89 38.5597 146.077 38.4881 146.101C38.4164 146.147 38.4403 145.608 38.5358 144.928C38.6075 144.272 38.703 142.912 38.703 141.951C38.7269 140.99 38.6075 139.302 38.4642 138.2Z" fill="#080A16"/>
<path d="M39.0851 151.211C40.518 151.141 42.0225 150.977 42.4284 150.86C42.8105 150.742 43.3598 150.696 43.6225 150.742C43.8852 150.789 44.9359 151.071 45.9628 151.352C46.9658 151.633 47.8016 151.938 47.8016 152.008C47.8016 152.079 45.0314 152.29 41.6642 152.454C38.2731 152.618 35.4313 152.665 35.3119 152.571C35.2164 152.477 35.1925 152.196 35.2641 151.962C35.3358 151.751 35.6224 151.516 35.9089 151.469C36.2194 151.399 37.6284 151.305 39.0851 151.211Z" fill="#080A16"/>
<path d="M21.8908 154.4C23.2043 154.142 24.5894 153.884 24.9953 153.837C25.3774 153.79 26.2849 153.72 28.2193 153.673L27.5506 154.611C26.9536 155.455 26.7864 155.548 25.5924 155.689C24.8759 155.759 23.3714 156.017 22.249 156.252C21.1266 156.51 19.4072 156.978 18.4281 157.307C17.449 157.635 15.7773 158.315 14.7265 158.807C13.6758 159.323 12.0996 160.261 11.1922 160.917C10.1892 161.667 9.4011 162.089 9.04288 162.042C8.68467 162.019 8.49362 161.808 8.44586 161.409C8.3981 161.034 8.58915 160.612 8.92348 160.261C9.23393 159.956 10.0698 159.323 10.7862 158.831C11.5026 158.362 12.84 157.588 13.7713 157.143C14.6788 156.674 16.3505 155.994 17.4729 155.595C18.5953 155.22 20.5774 154.681 21.8908 154.4Z" fill="#080A16"/>
<path d="M40.8284 160.003C40.8045 159.792 40.9239 159.51 41.115 159.346C41.3299 159.159 42.5478 159.065 48.1599 159.065L48.327 159.698C48.3987 160.073 48.5419 160.636 48.6136 160.987C48.7569 161.62 48.733 161.644 47.9688 161.409C47.5628 161.292 45.915 161.105 44.3389 161.034C42.7628 160.941 41.3299 160.753 41.1627 160.612C40.9956 160.472 40.8284 160.19 40.8284 160.003Z" fill="#080A16"/>
<path d="M40.518 167.247C40.112 166.919 40.0881 166.801 40.3747 166.473C40.5418 166.262 40.8284 166.098 41.0195 166.098C41.2105 166.098 42.5001 166.262 43.909 166.473C45.3419 166.661 46.8942 166.942 47.3718 167.059C48.2315 167.247 48.2793 167.317 48.1599 168.021C48.0882 168.443 47.9927 168.818 47.9688 168.841C47.9449 168.865 47.324 168.747 46.6076 168.583C45.8912 168.419 44.315 168.138 43.1449 167.95C41.8792 167.786 40.8045 167.481 40.518 167.247Z" fill="#080A16"/>
<path d="M38.3687 174.702C38.2015 174.444 38.2254 174.233 38.4403 173.975C38.6314 173.764 38.9896 173.647 39.2761 173.717C39.5627 173.788 40.4941 173.928 41.3538 174.069C42.2135 174.186 43.3598 174.304 43.909 174.304C44.7688 174.304 44.912 174.374 44.7926 174.702C44.721 174.936 44.6255 175.358 44.5538 175.64C44.4822 176.062 44.3389 176.156 43.909 176.038C43.6225 175.945 42.3095 175.71 40.9962 175.476L40.9956 175.476C39.4433 175.218 38.512 174.96 38.3687 174.702Z" fill="#080A16"/>
<path d="M105.653 51.7688C106.497 51.3678 107.694 50.6131 108.327 50.0943C108.937 49.5754 109.524 49.1509 109.618 49.1509C109.688 49.1509 109.9 49.4339 110.087 49.7877C110.251 50.1414 110.791 51.5565 111.284 52.9244C111.777 54.2923 112.551 56.8866 112.997 58.7026C113.443 60.5186 113.912 62.5233 114.217 64.3157L112.574 64.1978C111.683 64.127 109.243 64.1742 107.178 64.2685C105.113 64.3865 102.696 64.5987 101.781 64.7402C100.889 64.8582 99.7631 65.2119 99.3172 65.4713C98.5664 65.9195 98.3083 65.9666 96.5016 65.8015C95.1172 65.66 94.3194 65.4713 93.9205 65.1647C93.592 64.9053 92.5361 64.5516 91.5741 64.3393C90.0959 64.0091 88.7115 63.9855 82.6578 64.1034C78.7158 64.1742 74.2811 64.3157 72.8029 64.41C70.1984 64.5516 70.1045 64.5516 70.3157 64.1034C70.4096 63.8676 70.5738 61.9101 70.6207 59.7639C70.7146 57.1932 70.6677 55.4244 70.4799 54.5753C70.3157 53.8678 69.9872 52.8536 69.7291 52.3348C69.4475 51.8159 69.2833 51.1791 69.3302 50.9197C69.3771 50.6603 69.7291 50.3065 70.1045 50.1178C70.5034 49.9292 71.6531 49.7169 72.6856 49.6697C73.718 49.599 75.3135 49.6933 76.2052 49.8584C77.1203 50.0235 79.232 50.5659 80.898 51.0848C82.5639 51.5801 85.2154 52.264 86.764 52.5706C88.3126 52.8772 90.7529 53.2546 92.1607 53.4197C93.6155 53.5612 96.0088 53.6319 97.6748 53.5612C99.3642 53.4668 101.359 53.231 102.368 52.9716C103.33 52.7121 104.808 52.1697 105.653 51.7688Z" fill="#F7BC4C"/>
<path d="M69.166 76.391C69.166 73.9618 69.3067 71.5561 69.5179 70.2826L69.8464 68.2071L71.395 68.3722C72.2397 68.4666 73.0375 68.5845 73.1548 68.6317C73.2956 68.6788 73.5772 69.976 73.7884 71.4854C73.9996 73.0184 74.375 74.858 74.6565 75.5655C74.9146 76.3202 75.5951 77.3815 76.2521 78.1362C76.956 78.9145 77.918 79.6456 78.7862 80.0702C79.6075 80.4947 80.9214 80.872 81.9539 81.0135C83.3617 81.2258 84.1125 81.2022 85.8254 80.8956C86.9986 80.6833 88.5707 80.2117 89.345 79.8579C90.1193 79.4805 91.0814 78.9145 91.4568 78.5843C91.8557 78.2541 92.4892 77.3579 92.9116 76.6032C93.3104 75.8485 93.9909 73.9382 94.3898 72.3816C94.8121 70.825 95.211 69.4807 95.2814 69.3864C95.3753 69.292 96.0323 69.1505 98.0267 68.8911L98.5899 71.108C98.8949 72.3344 99.505 74.3391 99.9742 75.5655C100.42 76.7919 101.194 78.6551 101.711 79.6928C102.203 80.7305 102.602 81.9333 102.602 82.3578C102.602 82.806 102.391 83.372 102.063 83.7729C101.757 84.1267 101.03 84.622 100.467 84.8578C99.5519 85.2823 99.0357 85.3059 96.0323 85.2352C94.1552 85.188 91.1518 85.1408 89.345 85.1408C86.4824 85.1172 85.8254 85.2116 84.3003 85.7068C83.3382 86.0134 82.1181 86.6031 81.6019 87.004C81.0857 87.4049 80.241 88.2776 79.7248 88.9615C78.9505 89.9756 78.6689 90.2115 78.0823 90.2115C77.7069 90.2115 76.5806 89.8105 75.6186 89.3153C74.5392 88.7964 73.4129 87.9945 72.6856 87.2398C72.052 86.5795 71.1839 85.4002 70.7615 84.6455C70.3626 83.8673 69.8464 82.5937 69.5883 81.8154C69.2598 80.6833 69.166 79.5985 69.166 76.391Z" fill="#F7BC4C"/>
<path d="M83.8544 89.6219C84.1125 89.2681 84.5584 88.8672 84.8634 88.7492C85.145 88.6549 85.7081 88.537 86.1305 88.537C86.7171 88.537 87.1863 88.7728 88.1249 89.6219C88.8054 90.2115 89.8847 90.9662 90.5417 91.2492C91.1752 91.5558 92.4892 91.9803 93.4747 92.1926C94.6714 92.452 95.7507 92.5228 96.877 92.4284C97.7686 92.3577 99.153 92.1218 99.9273 91.9567C100.702 91.7681 101.664 91.603 102.086 91.603C102.508 91.603 103.025 91.6737 103.236 91.7681C103.447 91.8624 103.775 92.2397 103.94 92.5935C104.127 92.9473 104.268 93.6312 104.245 94.1265C104.245 94.6218 104.057 95.4237 103.822 95.9425C103.588 96.4614 103.025 97.2632 102.579 97.7113C102.109 98.183 101.124 98.8906 100.373 99.2915C99.5988 99.716 98.144 100.282 97.1116 100.541C95.9619 100.848 94.4837 101.037 93.3574 101.037C92.325 101.037 90.8467 100.872 90.0724 100.659C89.2981 100.471 88.078 100.023 87.374 99.6689C86.6467 99.3387 85.4969 98.4661 84.7695 97.7349C83.8544 96.8387 83.3382 96.0604 83.0567 95.235C82.8455 94.5982 82.6578 93.7492 82.6578 93.3482C82.6578 92.9709 82.822 92.1218 83.0097 91.4615C83.1974 90.8247 83.5729 89.9992 83.8544 89.6219Z" fill="#F7BC4C"/>
<path d="M38.0996 147.144C39.437 146.437 41.4549 145.611 42.5577 145.281C43.9421 144.857 45.1388 144.668 46.5466 144.668C48.1891 144.644 48.6349 144.715 49.1746 145.116C49.5735 145.423 49.8316 145.824 49.8316 146.177C49.8316 146.508 49.6439 147.097 49.4092 147.498C49.1981 147.876 48.8696 148.206 48.7053 148.206C48.5411 148.206 47.8137 148.418 47.0628 148.701C46.2651 149.008 45.3265 149.597 44.7868 150.14C44.2706 150.659 43.5198 151.177 43.1444 151.295C42.7455 151.39 41.2672 151.555 39.8594 151.625C38.4281 151.696 37.0437 151.814 36.7387 151.861C36.4571 151.909 36.1521 152.144 36.0817 152.38C36.0347 152.616 36.0582 152.875 36.1521 152.97C36.2459 153.088 38.9678 153.041 42.2058 152.899C46.4997 152.687 48.236 152.687 48.7053 152.875C49.0573 153.017 49.5735 153.489 49.8316 153.913C50.0897 154.338 50.3009 154.998 50.3009 155.375C50.3009 155.776 50.1836 156.46 50.0662 156.908C49.9489 157.38 49.597 158.111 48.7523 159.385L45.3734 159.503C42.5108 159.621 41.9711 159.691 41.76 160.045C41.5723 160.352 41.5723 160.564 41.76 160.871C41.9711 161.201 42.5343 161.319 44.9276 161.46C46.5232 161.578 48.236 161.743 48.7053 161.885C49.3389 162.05 49.6908 162.309 49.9489 162.805C50.1366 163.205 50.3009 163.819 50.3009 164.172C50.3009 164.526 50.1836 165.21 50.0662 165.705C49.9255 166.201 49.597 166.861 49.2919 167.191C48.8226 167.71 48.6819 167.757 47.9545 167.545C47.4852 167.427 45.8662 167.144 44.3176 166.932C41.7365 166.578 41.4549 166.578 41.1499 166.932C40.8214 167.262 40.8449 167.333 41.2203 167.71C41.5019 167.993 42.6751 168.3 44.7868 168.654C46.5232 168.937 48.1657 169.29 48.4238 169.408C48.7523 169.597 48.893 169.88 48.893 170.54C48.8696 171.036 48.6115 171.979 48.3064 172.663C47.931 173.418 47.4148 174.078 46.9455 174.361C46.4058 174.715 45.7958 174.833 44.7868 174.833C44.0125 174.833 42.5343 174.668 41.5019 174.502C39.8828 174.219 39.5544 174.243 39.2728 174.526C39.0147 174.762 38.9678 174.951 39.1555 175.234C39.2962 175.493 40.141 175.752 41.7365 176.035C43.027 176.248 44.3176 176.507 44.5991 176.578C44.9042 176.672 45.1153 176.908 45.1153 177.144C45.1153 177.38 44.7634 177.875 44.341 178.252C43.9187 178.653 43.1209 179.125 42.5343 179.29C41.9711 179.455 40.7979 179.667 39.9767 179.738C38.9678 179.809 37.818 179.738 36.6917 179.479C35.7063 179.267 34.1342 178.701 33.1721 178.229C31.952 177.663 30.9431 176.932 29.981 175.941C28.9486 174.903 28.2682 173.913 27.5877 172.474C27.0246 171.319 26.4614 169.644 26.2268 168.465C25.9218 166.955 25.8514 165.847 25.9687 163.866C26.0391 162.451 26.2737 160.635 26.4849 159.856C26.6961 159.078 27.2123 157.71 27.6346 156.791C28.0335 155.894 28.9017 154.574 29.5352 153.842C30.1687 153.135 31.7878 151.626 33.1487 150.47C34.8381 149.078 36.4336 147.993 38.0996 147.144Z" fill="#F7BC4C"/>
<path d="M139.62 154.291C140.095 153.73 140.547 153.023 140.618 152.706L140.737 152.17L157.498 152.219L157.637 152.219C173.951 152.292 174.26 152.293 174.592 152.779C174.782 153.048 174.924 153.535 174.924 153.877C174.924 154.218 174.663 155.315 173.783 158.143L171.786 158.436C170.716 158.582 169.1 158.728 168.196 158.728C166.984 158.753 166.176 158.582 164.749 158.046C163.751 157.656 162.039 157.217 160.945 157.07C159.875 156.924 158.877 156.753 158.758 156.68C158.615 156.607 158.52 156.29 158.52 155.949C158.52 155.559 158.259 155.12 157.807 154.73C157.403 154.389 156.69 154.047 156.19 153.974C155.715 153.877 154.716 153.852 154.003 153.925C153.076 153.998 152.363 154.267 151.507 154.803C150.841 155.242 149.462 156.022 148.416 156.534C147.299 157.07 146.182 157.826 145.73 158.363C145.231 158.948 144.969 159.484 144.969 159.972C144.969 160.557 144.708 160.923 143.59 161.849C142.853 162.459 141.379 163.385 140.333 163.873C138.954 164.531 138.289 164.994 137.908 165.604C137.623 166.067 137.361 166.628 137.361 166.847C137.361 167.237 137.124 167.286 135.507 167.286C134.057 167.261 133.605 167.359 133.272 167.7C133.058 167.944 132.678 168.895 132.416 169.846C132.155 170.772 131.561 172.918 131.061 174.6C130.586 176.282 129.873 178.672 129.492 179.891C128.969 181.646 128.803 182.621 128.803 184.157C128.803 185.742 128.898 186.278 129.231 186.62C129.611 187.01 130.277 187.058 137.956 187.034C143.067 187.034 146.372 187.107 146.514 187.254C146.633 187.4 148.084 187.546 152.696 187.644V189.155C152.696 190.325 152.815 190.813 153.219 191.398C153.528 191.813 153.766 192.252 153.766 192.398C153.766 192.568 144.446 192.617 98.5385 192.52L98.0392 191.837C97.5637 191.179 97.5399 191.13 97.9441 189.887C98.1581 189.204 99.8223 183.67 101.653 177.648C103.483 171.601 105.813 163.921 106.812 160.581C107.834 157.217 108.714 154.389 108.809 154.291C108.88 154.194 109.427 154.389 110.021 154.73C110.616 155.047 111.305 155.339 111.567 155.339C111.828 155.339 112.28 155.583 112.589 155.9C113.064 156.388 113.112 156.656 113.112 158.558C113.112 160.411 113.017 160.874 112.446 161.971C111.971 162.946 111.804 163.604 111.828 164.604C111.828 165.433 112.018 166.384 112.351 167.091C112.636 167.749 113.397 168.846 114.015 169.529C114.657 170.236 115.347 171.089 115.561 171.431C115.798 171.772 115.965 172.43 115.965 172.893C115.965 173.503 115.798 173.917 115.347 174.356C115.014 174.698 114.586 175.258 114.396 175.624C114.206 176.014 114.063 176.55 114.063 176.843C114.063 177.16 114.277 177.769 114.538 178.184C114.919 178.842 115.014 179.403 115.014 181.232C115.014 183.036 114.871 183.865 114.396 185.327C113.944 186.668 113.801 187.449 113.896 188.253C113.968 188.863 114.134 189.643 114.277 190.009C114.443 190.447 114.705 190.691 115.014 190.691C115.275 190.691 115.632 190.447 115.822 190.13C115.989 189.838 116.345 189.033 116.583 188.375C116.868 187.644 117.558 186.571 118.366 185.693C119.103 184.889 120.815 183.475 122.17 182.524C123.525 181.597 125.118 180.403 125.688 179.842C126.259 179.305 126.877 178.574 127.044 178.184C127.234 177.818 127.376 177.331 127.376 177.087C127.4 176.867 126.782 176.112 126.021 175.429C125.023 174.527 124.571 173.917 124.333 173.186C124.143 172.455 123.834 172.064 123.335 171.796C122.622 171.431 122.622 171.406 122.622 169.48C122.622 168.066 122.74 167.286 123.073 166.603C123.311 166.116 124.024 165.189 124.666 164.531C125.546 163.653 126.116 163.312 126.948 163.141C127.59 162.995 128.256 162.897 128.446 162.897C128.708 162.897 128.755 162.751 128.636 162.337C128.565 162.044 128.47 161.142 128.446 158.875L129.873 158.899C130.657 158.923 131.679 159.021 132.131 159.118C132.686 159.216 133.074 159.159 133.296 158.948C133.558 158.704 134.2 158.68 136.268 158.826C138.455 158.972 139.002 158.948 139.43 158.631C139.739 158.436 139.977 158.119 139.977 157.948C139.977 157.802 139.715 157.509 139.382 157.339C138.907 157.119 138.788 156.851 138.788 156.193C138.788 155.583 139.026 155.047 139.62 154.291Z" fill="#E0EBE9"/>
<path d="M165.32 178.477C165.676 178.696 165.985 178.672 166.627 178.403C167.079 178.208 167.531 178.038 167.626 178.013C167.721 178.013 167.816 178.062 167.816 178.111C167.816 178.184 167.317 179.866 166.722 181.841C166.128 183.816 165.225 186.839 164.702 188.546C164.083 190.594 163.584 191.813 163.228 192.154C162.919 192.447 162.372 192.642 161.04 192.642L161.801 191.837C162.514 191.081 162.562 190.935 162.562 189.277C162.586 187.912 162.443 187.205 161.991 186.156C161.659 185.425 161.088 184.596 160.731 184.328C160.375 184.06 159.947 183.84 159.78 183.84C159.59 183.84 159.495 183.548 159.543 182.963C159.59 182.182 159.709 182.06 160.517 181.768C160.993 181.597 161.659 181.183 161.991 180.866C162.3 180.573 162.705 179.866 162.871 179.33C163.132 178.477 163.275 178.355 164.012 178.281C164.464 178.233 165.058 178.33 165.32 178.477Z" fill="#E0EBE9"/>
<path d="M108.761 153.176L117.58 153.104C122.421 153.08 129.395 153.08 133.085 153.152C136.776 153.2 139.819 153.271 139.867 153.319C139.891 153.367 139.7 153.774 139.46 154.18C139.196 154.611 138.765 155.185 138.501 155.448C138.142 155.783 137.974 156.213 137.998 156.811C137.998 157.529 138.118 157.792 138.597 158.007C138.933 158.175 139.196 158.462 139.196 158.605C139.196 158.773 138.957 159.084 138.669 159.275C138.214 159.586 137.663 159.61 135.458 159.466C133.373 159.323 132.726 159.347 132.462 159.586C132.238 159.793 131.847 159.849 131.288 159.753C130.832 159.658 129.802 159.562 127.573 159.514L127.597 160.949C127.597 161.739 127.693 162.624 127.765 162.911C127.885 163.317 127.837 163.461 127.573 163.461C127.382 163.461 126.711 163.556 126.087 163.7C125.225 163.867 124.65 164.202 123.763 165.063C123.116 165.709 122.397 166.618 122.157 167.096C121.822 167.766 121.702 168.531 121.702 169.919C121.702 171.808 121.702 171.832 122.421 172.191C122.924 172.454 123.236 172.837 123.451 173.554C123.667 174.272 124.122 174.87 125.129 175.755C125.896 176.425 126.519 177.166 126.495 177.381C126.495 177.621 126.351 178.099 126.159 178.458C125.992 178.84 125.368 179.558 124.793 180.084C124.218 180.634 122.613 181.806 121.247 182.715C119.881 183.648 118.155 185.035 117.412 185.825C116.597 186.686 115.902 187.738 115.615 188.456C115.375 189.102 115.016 189.891 114.848 190.178C114.656 190.489 114.297 190.728 114.033 190.728C113.722 190.728 113.458 190.489 113.29 190.058C113.146 189.699 112.979 188.934 112.907 188.336C112.811 187.547 112.955 186.781 113.41 185.466C113.889 184.031 114.033 183.218 114.033 181.448C114.033 179.654 113.937 179.104 113.554 178.458C113.29 178.051 113.074 177.453 113.074 177.142C113.074 176.855 113.218 176.329 113.41 175.946C113.602 175.587 114.033 175.037 114.369 174.702C114.824 174.272 114.992 173.865 114.992 173.267C114.992 172.813 114.824 172.167 114.584 171.832C114.369 171.497 113.674 170.66 113.027 169.967C112.403 169.297 111.637 168.221 111.349 167.575C111.013 166.881 110.822 165.948 110.822 165.135C110.798 164.154 110.966 163.509 111.469 162.552C112.02 161.475 112.116 161.045 112.116 159.203C112.116 157.385 112.044 157.05 111.565 156.572C111.277 156.285 110.822 156.022 110.558 156.022C110.295 156.022 109.552 155.735 108.929 155.376C108.305 155.017 107.778 154.683 107.778 154.611C107.778 154.539 107.994 154.204 108.761 153.176Z" fill="#8DD3DD"/>
<path d="M150.22 155.855C150.939 155.4 151.802 154.922 152.137 154.826C152.473 154.73 153.36 154.635 154.126 154.635C154.869 154.611 155.78 154.73 156.163 154.874C156.523 155.017 157.05 155.352 157.362 155.639C157.649 155.926 157.889 156.405 157.889 156.692C157.889 157.003 158.009 157.29 158.129 157.361C158.272 157.433 159.255 157.601 160.357 157.744C161.436 157.888 163.161 158.318 164.192 158.701C165.438 159.179 166.468 159.395 167.427 159.395C168.17 159.395 169.728 159.251 170.878 159.084C172.028 158.94 173.011 158.844 173.083 158.916C173.131 158.988 172.34 161.786 171.333 165.135C170.303 168.484 168.985 172.789 167.355 178.123L166.277 178.601C165.414 178.96 165.102 179.008 164.719 178.769C164.455 178.625 163.856 178.529 163.401 178.577C162.658 178.649 162.538 178.745 162.251 179.606C162.083 180.132 161.627 180.85 161.244 181.208C160.837 181.591 160.237 181.95 159.878 182.022C159.431 182.117 159.087 182.038 158.848 181.782C158.536 181.448 158.56 181.208 159.135 179.438C159.495 178.338 160.381 175.372 161.124 172.837C162.227 168.986 162.394 168.149 161.891 167.168L157.434 167.359C154.989 167.455 149.286 167.599 144.756 167.718C136.656 167.886 136.56 167.886 136.56 167.407C136.56 167.144 136.824 166.57 137.111 166.116C137.495 165.518 138.166 165.063 139.556 164.417C140.61 163.939 142.096 163.03 142.863 162.432C143.965 161.523 144.229 161.164 144.229 160.59C144.229 160.112 144.493 159.562 145.02 158.988C145.451 158.486 146.458 157.816 147.344 157.433C148.207 157.05 149.501 156.333 150.22 155.855Z" fill="#8DD3DD"/>
<path d="M157.002 185.777C157.29 185.083 157.745 184.413 158.009 184.294C158.272 184.174 158.704 184.055 158.967 184.031C159.231 184.031 159.734 184.222 160.118 184.509C160.477 184.772 161.028 185.585 161.364 186.303C161.819 187.332 161.963 188.001 161.963 189.341C161.963 190.991 161.915 191.135 160.405 192.641H156.811C153.336 192.641 153.216 192.618 152.928 192.115C152.76 191.804 152.473 191.206 152.281 190.776C152.018 190.274 151.946 189.676 152.161 187.977L153.911 187.858C154.965 187.786 155.804 187.595 156.068 187.379C156.283 187.188 156.715 186.447 157.002 185.777Z" fill="#8DD3DD"/>
<path d="M81.6591 58.6727C82.3748 58.3386 83.496 57.9329 84.1639 57.7659C84.8319 57.5749 86.0962 57.4318 87.0266 57.4318C88.1717 57.4079 88.9589 57.5511 89.5076 57.8374C89.9608 58.0522 90.438 58.434 90.5811 58.6488C90.7719 58.959 90.7719 59.1977 90.5811 59.484C90.3664 59.842 89.8177 59.9375 87.4799 60.0568C85.2136 60.1761 84.1639 60.367 82.2555 60.9636C80.9434 61.3931 79.6552 61.7034 79.3928 61.6557C79.1304 61.6079 78.8919 61.3693 78.8441 61.1068C78.7964 60.7966 79.035 60.3909 79.5598 59.9375C79.9892 59.5556 80.9434 58.9829 81.6591 58.6727Z" fill="#080A16"/>
<path d="M103.368 59.317C103.487 59.0545 103.964 58.7443 104.393 58.6011C104.799 58.4818 105.634 58.4102 106.23 58.4818C106.827 58.5295 107.948 58.8159 108.735 59.1022C109.522 59.4125 110.596 59.9852 111.121 60.3909C111.646 60.7966 112.099 61.3454 112.147 61.5841C112.194 61.8466 112.051 62.2045 111.86 62.3477C111.55 62.6102 111.049 62.5386 109.165 61.9659C107.876 61.6079 106.302 61.2261 105.634 61.1306C104.99 61.0352 104.25 60.9159 104.036 60.8443C103.797 60.7966 103.487 60.5341 103.368 60.2716C103.209 59.9534 103.209 59.6352 103.368 59.317Z" fill="#080A16"/>
<path d="M84.4741 91.1035C84.4502 90.8649 84.5695 90.5547 84.7603 90.3876C84.9512 90.2206 85.2136 90.1013 85.3329 90.1013C85.476 90.1251 86.2394 90.6263 87.0266 91.2229C87.8138 91.8194 89.3167 92.7263 90.3664 93.2274C91.416 93.7285 92.8712 94.2536 93.5869 94.4206C94.3026 94.5638 95.4715 94.6354 96.1394 94.5399C96.8313 94.4683 98.2626 94.1342 99.3122 93.8001C100.863 93.3229 101.292 93.2513 101.602 93.5138C101.793 93.657 101.936 94.0149 101.889 94.2774C101.841 94.6354 101.34 94.9217 99.7893 95.4467C98.191 95.9956 97.2129 96.1627 95.2568 96.2581C93.1336 96.3297 92.5134 96.282 91.2013 95.8286C90.3425 95.5422 89.0543 94.9695 88.3387 94.5638C87.623 94.1342 86.4779 93.299 85.7861 92.6785C85.0943 92.0342 84.4979 91.3422 84.4741 91.1035Z" fill="#080A16"/>
<path d="M56.1813 143.294C57.1356 143.15 59.0917 142.936 60.5469 142.84C62.0021 142.721 65.652 142.673 68.6578 142.721C71.6636 142.792 75.0511 142.936 76.1723 143.079C77.2935 143.222 78.534 143.437 78.9157 143.556C79.2974 143.675 79.7745 143.938 79.9177 144.129C80.1801 144.463 80.1085 144.558 79.4405 144.845C79.035 145.036 77.6037 145.322 76.2916 145.489C74.8364 145.68 71.0672 145.799 66.6301 145.799C62.2407 145.799 58.4953 145.704 57.2071 145.513C56.0382 145.37 54.7023 145.131 54.2968 144.988C53.8674 144.869 53.5095 144.582 53.5095 144.391C53.5095 144.2 53.7242 143.914 53.9866 143.795C54.249 143.675 55.251 143.437 56.1813 143.294Z" fill="#080A16"/>
<path d="M134.523 174.985C134.452 174.841 134.571 174.46 134.762 174.173V174.149C135.119 173.624 135.143 173.624 141.417 173.624C146.833 173.624 147.763 173.672 147.858 173.982C147.93 174.173 147.858 174.555 147.739 174.818C147.501 175.271 147.262 175.295 141.06 175.295C136.121 175.295 134.595 175.223 134.523 174.985Z" fill="#080A16"/>
<path d="M150.649 174.841C150.626 174.507 150.721 174.102 150.864 173.935C151.079 173.72 151.866 173.648 153.798 173.696C156.232 173.768 156.446 173.815 156.518 174.245C156.566 174.507 156.446 174.913 156.232 175.128C155.898 175.486 155.468 175.557 153.274 175.486L153.268 175.486C150.745 175.438 150.721 175.438 150.649 174.841Z" fill="#080A16"/>
<path d="M149.29 179.614C149.218 179.352 149.29 178.922 149.409 178.66C149.648 178.23 149.91 178.182 152.51 178.182C155.206 178.182 155.373 178.206 155.373 178.66C155.373 178.922 155.254 179.352 155.134 179.614C154.92 180.044 154.657 180.092 152.152 180.092C149.6 180.092 149.409 180.068 149.29 179.614Z" fill="#080A16"/>
<path d="M133.521 179.781C133.45 179.638 133.497 179.256 133.664 178.946L133.927 178.421L140.415 178.469C146.379 178.54 146.904 178.564 146.952 178.946C147 179.185 146.856 179.543 146.642 179.734C146.332 180.044 145.258 180.092 139.962 180.092C135.167 180.092 133.64 180.02 133.521 179.781Z" fill="#080A16"/>
<path d="M148.264 183.647C148.24 183.337 148.383 182.86 148.622 182.645C148.956 182.263 149.385 182.215 154.061 182.335L154.156 183.051C154.18 183.456 154.085 183.91 153.918 184.077C153.679 184.268 152.796 184.339 150.96 184.315L150.951 184.315C148.359 184.244 148.335 184.243 148.264 183.647Z" fill="#080A16"/>
<path d="M131.756 183.671C131.732 183.409 131.899 183.051 132.114 182.836C132.448 182.526 133.402 182.454 138.698 182.454C144.352 182.454 144.9 182.502 145.115 182.884C145.282 183.17 145.234 183.456 144.996 183.838C144.638 184.363 144.614 184.363 138.555 184.363C135.215 184.363 132.328 184.315 132.114 184.244C131.923 184.196 131.756 183.934 131.756 183.671Z" fill="#080A16"/>
</g>
<defs>
<clipPath id="clip0_628_1274">
<rect width="200" height="200" fill="white"/>
</clipPath>
</defs>
</svg>
