<svg width="267" height="40" viewBox="0 0 267 40" fill="none" xmlns="http://www.w3.org/2000/svg">
<path d="M210.506 0.581892C210.814 0.436438 211.327 0.239035 211.635 0.155918C212.128 0.0208532 215.514 7.39265e-05 262.177 0.0416324L262.895 0.332541C263.285 0.498775 263.798 0.758515 264.024 0.91436C264.25 1.08059 264.681 1.48579 264.989 1.81826C265.287 2.15072 265.687 2.75332 265.882 3.15852C266.066 3.56371 266.272 4.18709 266.333 4.56111C266.395 4.99748 266.436 10.5351 266.436 19.9897C266.436 32.5819 266.405 34.8468 266.282 35.4702C266.2 35.8754 265.995 36.478 265.82 36.8209C265.646 37.1637 265.307 37.6728 265.071 37.9637C264.825 38.2442 264.353 38.6702 264.014 38.9092C263.686 39.1377 263.08 39.439 261.972 39.8338H211.994L211.276 39.5845C210.886 39.439 210.301 39.1481 209.993 38.9403C209.685 38.7325 209.223 38.3273 208.967 38.0468C208.71 37.7663 208.361 37.2572 208.177 36.9144C208.002 36.5819 207.776 36.0001 207.694 35.626C207.551 35.0338 207.53 33.1118 207.53 19.9377C207.53 6.75332 207.551 4.84163 207.694 4.24942C207.776 3.8754 208.023 3.25202 208.228 2.85722C208.474 2.40007 208.854 1.91176 209.275 1.50657C209.644 1.15332 210.198 0.737736 210.506 0.581892Z" fill="#343D45"/>
<path d="M72.6006 0.571429C73.0111 0.374026 73.5755 0.166234 73.8629 0.114286C74.1707 0.051948 83.9508 0.0103896 98.903 0C119.233 0 123.543 0.0207792 124.097 0.135065C124.467 0.207792 125.062 0.425974 125.431 0.612987C125.842 0.820779 126.355 1.21558 126.776 1.64156C127.237 2.11948 127.566 2.56623 127.822 3.10649C128.058 3.58442 128.243 4.16623 128.305 4.61299C128.376 5.1013 128.407 10.3065 128.387 20.3532C128.356 34.6078 128.346 35.3974 128.171 35.9377C128.058 36.2493 127.833 36.7688 127.658 37.0805C127.484 37.3922 127.073 37.9221 126.745 38.2442C126.345 38.6493 125.872 38.9818 125.308 39.2623C124.651 39.5844 124.261 39.7091 123.584 39.7922C123.009 39.8545 114.297 39.8857 98.3899 39.8649C75.0636 39.8338 74.0476 39.8234 73.5037 39.6468C73.1958 39.5325 72.6622 39.3039 72.3235 39.1273C71.9849 38.9403 71.4512 38.5351 71.1434 38.2234C70.8355 37.9117 70.4353 37.3714 70.2505 37.0286C70.0761 36.6857 69.8503 36.1247 69.7682 35.7818C69.6245 35.2312 69.604 33.4234 69.604 19.9377C69.604 6.72208 69.6245 4.63377 69.7579 4.11429C69.84 3.79221 70.0555 3.24156 70.2197 2.8987C70.3942 2.53506 70.8047 1.9948 71.1947 1.6C71.6565 1.13247 72.0875 0.820779 72.6006 0.571429Z" fill="#1C6FD1"/>
<path d="M180.335 39.8544C173.592 39.8749 162.53 39.8749 155.757 39.8544C148.983 39.8441 154.504 39.8339 168.02 39.8339C181.536 39.8339 187.077 39.8441 180.335 39.8544Z" fill="#E14748"/>
<path d="M4.30479 0.280616C4.6024 0.1975 4.95132 0.103993 5.07447 0.0728242C5.20788 0.0416554 16.3733 0.0104866 29.8888 0.0104866C51.5013 -0.0102927 54.5492 0.0104866 55.1855 0.155941C55.5857 0.239058 56.1809 0.45724 56.5196 0.644253C56.8583 0.831266 57.4124 1.25724 57.7511 1.6001C58.0897 1.94295 58.5208 2.50399 58.6952 2.84685C58.8799 3.18971 59.0955 3.75075 59.1776 4.0936C59.3212 4.64425 59.3418 6.45205 59.3418 19.9378C59.3418 33.4235 59.3212 35.2313 59.1776 35.7819C59.0955 36.1248 58.8697 36.6858 58.6952 37.0287C58.5105 37.3715 58.1103 37.9118 57.8024 38.2235C57.4227 38.6183 56.9609 38.9404 56.3657 39.2417C55.791 39.5326 55.2471 39.7092 54.775 39.7819C54.2927 39.8546 46.0418 39.8858 5.00263 39.8339L4.33558 39.6053C3.96613 39.4806 3.39144 39.1897 3.05279 38.9715C2.71413 38.7533 2.22154 38.3378 1.96498 38.0572C1.70842 37.7767 1.34924 37.2572 1.17478 36.904C0.990054 36.5404 0.774544 35.9482 0.692446 35.5741C0.559035 34.9923 0.53851 32.8936 0.589822 4.3014L0.825856 3.67802C0.959267 3.33516 1.1953 2.84685 1.3595 2.58711C1.5237 2.32737 1.92393 1.85984 2.25232 1.53776C2.58072 1.22607 3.05279 0.841655 3.30934 0.696201C3.5659 0.550746 4.00718 0.363733 4.30479 0.280616Z" fill="#00B778"/>
<path d="M141.646 0.581803C142.066 0.37401 142.672 0.155829 142.98 0.103881C143.298 0.0519325 154.166 0.0207637 193.009 0.0415429L193.676 0.301283C194.045 0.446738 194.569 0.706478 194.856 0.893491C195.133 1.07011 195.615 1.4857 195.903 1.79739C196.211 2.12985 196.601 2.71167 196.806 3.12726C197.011 3.57401 197.206 4.187 197.268 4.61297C197.339 5.11167 197.37 10.161 197.35 20.4052C197.319 33.8701 197.298 35.5221 197.155 35.9376C197.062 36.1974 196.857 36.6649 196.703 36.9766C196.549 37.2883 196.139 37.8286 195.79 38.1714C195.441 38.5143 194.887 38.9402 194.548 39.1273C194.209 39.3039 193.635 39.5325 193.265 39.6156C192.67 39.761 189.817 39.7818 167.969 39.7818C146.12 39.7818 143.267 39.761 142.672 39.6156C142.303 39.5325 141.728 39.3039 141.389 39.1273C141.051 38.9402 140.517 38.535 140.199 38.2234C139.891 37.9117 139.511 37.4441 139.357 37.1844C139.214 36.9247 138.988 36.4363 138.618 35.4701L138.588 20.4052C138.567 10.1714 138.598 5.11167 138.67 4.61297C138.731 4.187 138.926 3.56362 139.142 3.10648C139.409 2.54544 139.696 2.14024 140.188 1.65193C140.65 1.19479 141.133 0.841543 141.646 0.581803Z" fill="#F24C2C"/>
<path d="M69.717 3.93767C69.7067 3.85455 69.8196 3.53248 69.9633 3.24157C70.0967 2.94027 70.2301 2.69092 70.2609 2.69092C70.2814 2.69092 70.2301 2.84676 70.148 3.03378C70.0556 3.2104 69.9222 3.53248 69.8504 3.72988C69.7786 3.92728 69.717 4.02079 69.717 3.93767Z" fill="#69C3EA"/>
<path d="M69.5733 27.574C69.5631 31.8026 69.5528 28.3636 69.5528 19.9377C69.5528 11.5117 69.5631 8.05196 69.5733 12.2494C69.5938 16.4468 69.5938 23.3455 69.5733 27.574Z" fill="#69C3EA"/>
<path d="M59.4136 27.5221C59.4033 31.6675 59.3931 28.2286 59.3931 19.8857C59.3931 11.5429 59.4033 8.15585 59.4136 12.3533C59.4341 16.5507 59.4341 23.3766 59.4136 27.5221Z" fill="#69C3EA"/>
<path d="M125.534 39.1481C125.842 38.9818 126.17 38.774 126.252 38.6909C126.334 38.6078 126.416 38.5351 126.437 38.5351C126.457 38.5351 126.406 38.6078 126.334 38.7013C126.263 38.7948 125.975 39.013 125.688 39.1688C125.411 39.3351 125.123 39.4701 125.072 39.4701C125.021 39.4701 125.226 39.3247 125.534 39.1481Z" fill="#69C3EA"/>
<path d="M197.442 27.2624C197.432 31.3247 197.422 28.0208 197.422 19.9377C197.422 11.8546 197.432 8.52988 197.442 12.5611C197.463 16.5922 197.463 23.2 197.442 27.2624Z" fill="#CECECE"/>
<path d="M80.4924 27.5533C80.318 27.0753 80.1743 26.6702 80.1743 26.639C80.1743 26.6078 80.7285 26.587 82.6373 26.587L82.627 33.0805L81.7137 30.7429C81.2211 29.4546 80.6669 28.0208 80.4924 27.5533Z" fill="#004F80"/>
<path d="M168.584 19.4909C168.307 19.5117 167.866 19.5117 167.609 19.4909C167.353 19.4701 167.589 19.4597 168.122 19.4597C168.656 19.4597 168.872 19.4701 168.584 19.4909Z" fill="#E14748"/>
<path d="M172.74 24.0935C172.125 24.0935 171.612 24.0623 171.612 24.0208C171.612 23.9688 172.135 23.9584 173.921 24.0415V25.1844H170.278L173.869 25.1324V24.0935H172.74Z" fill="#E14748"/>
<path d="M171.54 26.2026C170.462 26.213 169.6 26.1922 169.621 26.1506C169.652 26.0987 170.534 26.0675 171.591 26.0675C173.315 26.0571 173.531 26.0779 173.664 26.2441C173.797 26.4104 173.797 26.4208 173.664 26.3065C173.551 26.2026 172.997 26.1818 171.54 26.2026Z" fill="#E14748"/>
<path d="M78.2961 27.4493C77.0133 27.0026 75.9666 26.6182 75.9666 26.587C75.9666 26.5558 76.8902 26.5454 80.0715 26.587L80.3794 27.3974C80.5436 27.8337 80.677 28.2078 80.6564 28.2285C80.6462 28.2389 79.5892 27.8857 78.2961 27.4493Z" fill="#E14748"/>
<path d="M168.636 35.1792C168.328 35.2 167.845 35.2 167.558 35.1792C167.281 35.1584 167.527 35.148 168.122 35.148C168.718 35.148 168.943 35.1584 168.636 35.1792Z" fill="#E14748"/>
<path d="M127.124 3.13762C126.95 2.81554 126.529 2.27528 126.18 1.93242C125.831 1.58957 125.626 1.361 125.718 1.42333C125.811 1.47528 126.149 1.79736 126.468 2.12983C126.786 2.47268 127.145 2.94022 127.258 3.18957C127.381 3.42853 127.473 3.64671 127.463 3.66749C127.443 3.69866 127.299 3.4597 127.124 3.13762Z" fill="#69C3EA"/>
<path d="M70.1684 15.2103V9.98437V4.76879L70.2197 15.1584L127.74 15.2103H70.1684Z" fill="#69C3EA"/>
<path d="M44.4099 15.2311C36.5079 15.2415 23.526 15.2415 15.5727 15.2311C7.6091 15.2207 14.0744 15.2 29.94 15.2C45.7953 15.2 52.3119 15.2207 44.4099 15.2311Z" fill="#69C3EA"/>
<path d="M83.8686 23.5532C84.5151 23.3142 85.1822 23.0649 85.3566 22.9922C85.5208 22.9194 85.7158 22.8571 85.7877 22.8467C85.88 22.8467 85.8698 23.0026 85.7158 23.4389C85.6132 23.7714 85.0282 25.6207 84.4228 27.5636C83.8173 29.5064 83.2015 31.4909 83.0579 31.9584C82.9142 32.4363 82.7397 32.8207 82.6884 32.8207C82.6166 32.8207 82.6063 31.3142 82.6884 23.9896L83.8686 23.5532Z" fill="#69C3EA"/>
<path d="M21.5762 25.6207C20.8167 25.6415 19.5853 25.6415 18.8566 25.6207C18.1177 25.6 18.7437 25.5896 20.2421 25.5896C21.7404 25.5896 22.3356 25.6 21.5762 25.6207Z" fill="#69C3EA"/>
<path d="M44.3894 26.2129C44.3688 25.9844 44.3688 25.7454 44.3996 25.6727C44.4407 25.5896 44.6459 25.548 45.5387 25.5792L44.4612 25.6415L44.4407 26.1402C44.4304 26.6285 44.4201 26.6285 44.3894 26.2129Z" fill="#69C3EA"/>
<path d="M46.3392 28.9246C46.3392 27.2103 46.3495 25.7454 46.37 25.6727C46.3905 25.5896 46.5855 25.548 47.4886 25.5792L46.411 25.6415V31.9792L47.386 32.0519L46.3597 32.0311L46.3392 28.9246Z" fill="#69C3EA"/>
<path d="M36.1487 27.3039L36.1692 26.6077L36.1897 25.9013L36.2205 26.5246C36.241 26.8675 36.2308 27.2103 36.2 27.2831C36.1692 27.3558 35.9845 27.4077 35.379 27.3766L36.1487 27.3039Z" fill="#69C3EA"/>
<path d="M55.1853 27.3662L55.1751 26.6909L55.1648 26.0155L55.2367 27.3142L55.6677 27.335C56.109 27.3662 56.109 27.3662 56.1295 28.1974L56.0884 27.8026C56.0576 27.4285 56.0474 27.4181 55.1853 27.3662Z" fill="#69C3EA"/>
<path d="M105.276 26.5974L104.65 26.5558L104.034 26.5142L105.368 26.535L105.389 27.4701L105.276 26.5974Z" fill="#69C3EA"/>
<path d="M19.6776 32.0415L19.6674 29.2883V26.535L19.7289 31.9896H20.7552L20.8065 26.535V32.0415H19.6776Z" fill="#69C3EA"/>
<path d="M97.5894 31.574C97.5688 32.5194 97.5586 31.7714 97.5586 29.9116C97.5586 28.0519 97.5688 27.2831 97.5894 28.1974C97.5996 29.1116 97.5996 30.6285 97.5894 31.574Z" fill="#69C3EA"/>
<path d="M114.902 31.3142V28.9246V26.535L114.953 31.2623H116.185V29.6311C116.185 28.0519 116.185 27.9792 116.647 27.574L116.472 27.7818C116.328 27.9584 116.298 28.2701 116.236 31.3142H114.902Z" fill="#69C3EA"/>
<path d="M22.6229 29.8077C22.6127 28.5818 22.6229 27.522 22.6537 27.4493C22.6742 27.3662 22.8589 27.3246 23.6697 27.3558L22.6948 27.4181V31.9896L23.5157 32.0415H22.6434L22.6229 29.8077Z" fill="#69C3EA"/>
<path d="M26.0095 29.2467C25.9992 28.3324 26.0095 27.522 26.03 27.4493C26.0608 27.3558 26.2558 27.3246 27.1589 27.3558L26.0813 27.4181L26.0403 30.8987L26.0095 29.2467Z" fill="#69C3EA"/>
<path d="M30.1863 27.4181L29.6424 27.387L29.1087 27.3454L30.2376 27.3662L30.2478 31.9376L30.1863 27.4181Z" fill="#69C3EA"/>
<path d="M44.3791 29.8181C44.3688 28.5922 44.3791 27.522 44.3996 27.4493C44.4304 27.3662 44.6151 27.3246 45.5182 27.3558L44.4407 27.4285V32L45.313 32.0623L44.3894 32.0519L44.3791 29.8181Z" fill="#69C3EA"/>
<path d="M53.2971 27.8961C53.2765 27.7194 53.2868 27.522 53.3176 27.4493C53.3484 27.3766 53.5331 27.3246 54.1386 27.3558L53.7589 27.387C53.3894 27.4285 53.3689 27.4389 53.3586 27.8129C53.3484 28.1662 53.3381 28.1662 53.2971 27.8961Z" fill="#69C3EA"/>
<path d="M96.4502 29.7662C96.4297 30.161 96.4092 29.8597 96.4092 29.0909C96.4092 28.3116 96.4297 27.9896 96.4502 28.3636C96.4708 28.7272 96.4708 29.361 96.4502 29.7662Z" fill="#69C3EA"/>
<path d="M110.222 29.0909L110.243 28.4363L110.263 27.7922L110.304 28.3636C110.325 28.6753 110.315 28.987 110.284 29.0597C110.243 29.1532 109.863 29.1948 108.888 29.1948C107.708 29.1948 107.554 29.2155 107.523 29.3714C107.493 29.5064 107.472 29.4857 107.472 29.3194C107.462 29.0909 107.472 29.0909 110.222 29.0909Z" fill="#69C3EA"/>
<path d="M36.2103 30.3792C36.1897 30.8363 36.1692 30.5142 36.1692 29.6519C36.1692 28.8 36.1897 28.4259 36.2103 28.8207C36.2308 29.2259 36.2308 29.922 36.2103 30.3792Z" fill="#69C3EA"/>
<path d="M55.1956 30.2233C55.1751 30.6493 55.1546 30.348 55.1546 29.548C55.1546 28.748 55.1751 28.3948 55.1956 28.7688C55.2161 29.1428 55.2161 29.7974 55.1956 30.2233Z" fill="#69C3EA"/>
<path d="M23.6902 31.3662C23.6697 31.7402 23.6491 31.4805 23.6491 30.7948C23.6491 30.109 23.6697 29.8077 23.6902 30.1194C23.7107 30.4311 23.7107 30.9922 23.6902 31.3662Z" fill="#69C3EA"/>
<path d="M56.0371 31.6259C56.0371 31.4285 55.9858 31.2415 55.914 31.2103C55.8421 31.1792 55.8524 31.1792 55.9345 31.2C56.0474 31.2207 56.0884 31.3558 56.0884 32.0415L54.7543 32.0623L56.0371 31.9896V31.6259Z" fill="#69C3EA"/>
<path d="M112.223 31.3454C111.998 31.3662 111.68 31.3662 111.505 31.335C111.341 31.3142 111.526 31.2935 111.916 31.3039C112.316 31.3039 112.449 31.3142 112.223 31.3454Z" fill="#69C3EA"/>
<path d="M40.0073 33.1844C39.9868 33.5272 39.9663 33.2987 39.9663 32.6649C39.9663 32.0415 39.9868 31.761 40.0073 32.0415C40.0279 32.3324 40.0279 32.8415 40.0073 33.1844Z" fill="#69C3EA"/>
<path d="M78.0192 25.7766C79.1173 25.361 80.5951 24.8 81.3032 24.5195L82.5757 24.0104L82.6065 25.2779C82.627 25.9636 82.6168 26.5454 82.5962 26.5662C82.5757 26.5766 81.0877 26.5766 76.0181 26.5351L78.0192 25.7766Z" fill="#FF9D28"/>
<path fill-rule="evenodd" clip-rule="evenodd" d="M17.7279 0.685774C24.5011 0.706554 35.5639 0.706554 42.3063 0.685774C49.0486 0.675385 43.5069 0.664995 29.9914 0.664995C16.4759 0.664995 10.9548 0.675385 17.7279 0.685774ZM86.6909 0.685774C93.464 0.706554 104.527 0.706554 111.269 0.685774C118.012 0.675385 112.47 0.664995 98.9544 0.664995C85.4389 0.664995 79.9178 0.675385 86.6909 0.685774ZM155.551 0.685774C162.324 0.706554 173.459 0.706554 180.283 0.685774C187.108 0.675385 181.566 0.664995 167.969 0.664995C154.371 0.664995 148.778 0.675385 155.551 0.685774ZM211.738 0.779281C211.43 0.862398 210.947 1.0598 210.67 1.21564C210.403 1.37149 210.126 1.5585 210.055 1.64162C209.993 1.72474 210.126 1.6624 210.352 1.51694C210.578 1.3611 211.019 1.13253 211.327 1.00785L211.892 0.768891L261.664 0.664995C215.391 0.633826 212.23 0.644216 211.738 0.779281ZM262.208 0.872787C262.495 0.955904 262.895 1.10136 263.07 1.19487C263.255 1.28837 263.542 1.45461 263.716 1.56889L264.024 1.77668C263.624 1.41305 263.275 1.20525 262.998 1.07019C262.711 0.935125 262.3 0.80006 262.074 0.768891C261.715 0.716943 261.725 0.727333 262.198 0.872787H262.208ZM208.289 4.40525C208.248 4.63383 208.207 7.1585 208.207 10.0156V15.2104H265.779V5.23642L265.728 15.1585H208.259C208.259 7.47019 208.3 4.98707 208.351 4.67538C208.413 4.3637 208.433 4.08318 208.413 4.05201C208.392 4.02084 208.33 4.17668 208.289 4.40525V4.40525ZM1.21582 10.0676C1.21582 12.8936 1.22608 14.0468 1.23635 12.613C1.25687 11.1897 1.25687 8.87279 1.23635 7.47019C1.22608 6.06759 1.21582 7.24162 1.21582 10.0676ZM127.751 10.1715C127.751 12.9455 127.761 14.0676 127.771 12.665C127.792 11.2624 127.792 8.99746 127.771 7.62603C127.761 6.25461 127.751 7.39746 127.751 10.1715ZM153.612 15.2312C161.565 15.252 174.547 15.252 182.449 15.2312C190.351 15.2208 183.834 15.2104 167.979 15.2104C152.113 15.2104 145.648 15.2208 153.612 15.2312ZM170.545 20.8001L170.278 21.1325C170.934 21.7975 171.027 21.839 171.129 21.7247C171.242 21.6105 171.232 21.6001 171.109 21.652C171.017 21.6832 170.842 21.5897 170.668 21.4234L170.38 21.1325C170.791 20.613 170.893 20.4572 170.863 20.4572C170.842 20.4572 170.698 20.613 170.545 20.8001V20.8001ZM82.6886 25.2884C82.6886 25.9741 82.6988 26.2338 82.7194 25.8598C82.7399 25.4858 82.7399 24.9247 82.7194 24.613C82.6988 24.3014 82.6886 24.6027 82.6886 25.2884ZM251.638 24.9247C251.484 25.2053 251.381 25.4442 251.412 25.4442C251.443 25.4442 251.566 25.2468 251.679 24.9975C251.874 24.613 251.915 24.5819 251.987 24.7689C252.038 24.904 252.069 24.9247 252.069 24.8208C252.069 24.7377 252.038 24.6027 251.997 24.5299C251.945 24.4468 251.822 24.5715 251.638 24.9247V24.9247ZM170.329 24.8208L170.339 25.0806H173.88C170.411 25.0286 170.391 25.0286 170.36 24.7897C170.329 24.6027 170.319 24.613 170.329 24.8208ZM220.799 27.6988L220.83 30.8988L220.881 24.613L223.601 24.5507L220.779 24.5092L220.799 27.6988ZM227.654 24.5819C228.014 24.6027 228.66 24.6027 229.091 24.5819C229.512 24.5611 229.214 24.5403 228.424 24.5403C227.634 24.5403 227.285 24.5611 227.654 24.5819ZM239.99 26.6598L240.01 28.8104L240.072 24.6027H241.406L241.457 28.7066L241.509 24.4988H239.969L239.99 26.6598ZM243.551 24.5819C243.756 24.6027 244.095 24.6027 244.321 24.5819C244.546 24.5611 244.392 24.5403 243.961 24.5403C243.541 24.5403 243.356 24.5611 243.551 24.5819ZM256.225 24.6858C256.061 24.7689 255.722 25.039 255.476 25.278C255.229 25.5066 254.942 25.8806 254.839 26.0884C254.727 26.3066 254.644 26.504 254.665 26.5351C254.675 26.5663 254.768 26.4105 254.87 26.1923C254.973 25.9845 255.25 25.6105 255.486 25.3819C255.722 25.1429 256.102 24.852 256.327 24.7377C256.553 24.613 256.697 24.5195 256.635 24.5195C256.584 24.5195 256.399 24.5923 256.225 24.6858ZM259.15 24.7585C259.406 24.8936 259.837 25.2572 260.125 25.5585C260.402 25.8702 260.586 26.0364 260.535 25.9429C260.473 25.8494 260.248 25.5689 260.022 25.3299C259.796 25.091 259.437 24.8105 259.232 24.7066C259.016 24.5923 258.811 24.5092 258.77 24.5092C258.729 24.5195 258.903 24.6234 259.15 24.7585V24.7585ZM223.898 24.7066C224.073 24.7481 224.371 24.8728 224.565 24.9871C224.771 25.1014 225.027 25.3819 225.161 25.6104C225.335 25.9117 225.386 26.1819 225.386 26.7117C225.386 27.1066 225.345 27.5429 225.284 27.6988C225.192 27.9377 225.192 27.9689 225.304 27.8546C225.387 27.7715 225.458 27.3975 225.479 26.9195C225.51 26.2754 225.479 26.0364 225.315 25.704C225.202 25.4754 225.017 25.2156 224.914 25.1221C224.812 25.0286 224.576 24.8728 224.391 24.7793C224.206 24.6858 223.95 24.613 223.827 24.6234C223.642 24.6338 223.662 24.6546 223.898 24.7066V24.7066ZM230.754 24.9559C230.969 25.0806 231.257 25.3715 231.4 25.6001C231.534 25.8286 231.647 25.9741 231.647 25.9117C231.647 25.8494 231.554 25.6728 231.452 25.4962C231.349 25.3195 231.113 25.0806 230.918 24.9559C230.733 24.8312 230.528 24.7169 230.466 24.7169C230.415 24.7169 230.538 24.8208 230.754 24.9559V24.9559ZM102.813 25.2676C102.793 25.3403 102.782 26.4936 102.793 27.8338L102.813 30.2754L102.854 25.2364L103.624 25.1637C103.008 25.1429 102.834 25.1845 102.813 25.2676V25.2676ZM6.41883 25.413C5.10525 25.4338 4.0277 25.4754 4.0277 25.5169C4.0277 25.5689 5.08472 25.5897 6.36752 25.5689C7.67084 25.5481 8.74838 25.4962 8.79969 25.4442C8.85101 25.3819 8.87153 25.3507 8.85101 25.3611C8.82022 25.3819 7.73241 25.4027 6.41883 25.413ZM12.4941 25.5169C12.9457 25.5377 14.0438 25.5585 14.9366 25.5689C15.8294 25.5897 16.5478 25.5689 16.5478 25.5169C16.5478 25.4754 15.4497 25.4546 14.1156 25.465C12.7712 25.4754 12.0426 25.4962 12.4941 25.5169ZM214.529 26.8676C214.18 27.6572 213.903 28.3117 213.923 28.3221C213.934 28.3325 214.231 27.7092 214.591 26.9195C214.939 26.1403 215.217 25.4858 215.196 25.465C215.186 25.4546 214.878 26.078 214.529 26.8676ZM22.8283 26.0364L22.8078 26.4832L20.8066 26.5455C22.5307 26.5767 22.8283 26.5455 22.8694 26.452C22.9002 26.3897 22.9104 26.1611 22.8796 25.9637C22.8488 25.6208 22.8386 25.6208 22.8283 26.0364V26.0364ZM45.4055 26.0364L45.385 26.4832L44.41 26.5455C45.2105 26.5767 45.4055 26.5351 45.4465 26.452C45.4773 26.3897 45.4876 26.1611 45.4568 25.9637C45.426 25.6208 45.4157 25.6208 45.4055 26.0364V26.0364ZM54.1285 26.6598L54.149 27.3663L54.2106 26.0676L55.1855 26.0053L54.108 25.9637L54.1285 26.6598ZM248.405 26.3481C248.436 26.3897 248.713 26.878 249.031 27.439C249.349 28.0001 249.657 28.4572 249.708 28.4572C249.77 28.4468 249.862 28.3429 249.924 28.2182C250.026 27.9897 250.026 27.9897 249.872 28.1871C249.79 28.3117 249.698 28.3741 249.677 28.3429C249.647 28.3221 249.38 27.8442 249.072 27.2832C248.774 26.7221 248.487 26.265 248.436 26.265C248.395 26.265 248.374 26.3066 248.405 26.3481V26.3481ZM18.0358 26.5559C18.3231 26.5767 18.8055 26.5767 19.1134 26.5559C19.4315 26.5351 19.1954 26.5143 18.6002 26.5143C18.0153 26.5143 17.7587 26.5351 18.0358 26.5559ZM252.376 26.6286C252.376 26.691 252.51 27.3559 252.664 28.1143C252.818 28.8624 252.961 29.4754 252.972 29.465C252.992 29.4442 252.879 28.8104 252.736 28.0312C252.582 27.2624 252.438 26.6079 252.418 26.5767C252.397 26.5559 252.376 26.5767 252.376 26.6286ZM111.321 28.9663C111.321 30.2546 111.331 30.7741 111.351 30.1091C111.372 29.4546 111.372 28.4053 111.351 27.7715C111.331 27.1481 111.321 27.6884 111.321 28.9663ZM27.0564 28.9663C27.0564 29.8598 27.0769 30.2027 27.0975 29.7455C27.118 29.2988 27.118 28.5715 27.0975 28.1351C27.0769 27.7091 27.0564 28.0832 27.0564 28.9663ZM29.2115 28.8624C29.2115 29.6936 29.232 30.0468 29.2525 29.6416C29.2731 29.2468 29.2731 28.5715 29.2525 28.1351C29.232 27.7091 29.2115 28.0416 29.2115 28.8624ZM35.4818 27.7507C35.4818 28.0728 35.5023 28.0832 35.8718 28.0832C36.2515 28.0832 36.2515 28.0832 35.8923 28.0624C35.5844 28.0416 35.5331 28.0001 35.5023 27.7195C35.4715 27.4286 35.4715 27.4286 35.4818 27.7507ZM38.971 30.5247C38.971 32.2702 38.9813 32.9767 39.0018 32.0832C39.0223 31.2001 39.0223 29.7767 39.0018 28.9143C38.9813 28.0624 38.971 28.7897 38.971 30.5247ZM45.4363 29.6936C45.4363 30.9819 45.4465 31.5014 45.4671 30.8364C45.4876 30.1819 45.4876 29.1325 45.4671 28.4988C45.4465 27.8754 45.4363 28.4156 45.4363 29.6936ZM104.024 28.7066C104.024 29.4027 104.045 29.652 104.065 29.278C104.086 28.9143 104.086 28.3533 104.065 28.0312C104.045 27.7195 104.024 28.0208 104.024 28.7066ZM231.472 27.8027C231.4 27.9585 231.246 28.1871 231.113 28.3117C230.99 28.426 230.743 28.6027 230.569 28.6962C230.405 28.7897 230.302 28.8624 230.343 28.8624C230.384 28.8624 230.528 28.8105 230.651 28.7481C230.774 28.6858 230.99 28.5299 231.123 28.4156C231.257 28.291 231.431 28.0624 231.503 27.9066C231.585 27.7507 231.636 27.5949 231.626 27.5637C231.605 27.5325 231.534 27.6364 231.472 27.8027V27.8027ZM247.758 28.0312C247.758 28.0936 247.799 28.1351 247.841 28.1351C247.882 28.1351 248.179 28.6027 248.508 29.1741C248.836 29.7455 249.123 30.213 249.144 30.213C249.175 30.213 249.051 29.9533 248.877 29.6208C248.692 29.2884 248.395 28.7793 248.21 28.478C248.015 28.1767 247.84 27.9273 247.81 27.9273C247.789 27.9273 247.758 27.9793 247.758 28.0312ZM53.7796 28.104L54.108 28.1351L54.1593 31.1585V28.0832C53.4614 28.0728 53.4614 28.0728 53.7796 28.104ZM112.542 29.6416C112.552 30.5663 112.562 30.9091 112.583 30.4208C112.603 29.9429 112.603 29.1949 112.583 28.7585C112.562 28.3325 112.542 28.7273 112.542 29.6416ZM122.291 28.7585C122.291 29.1949 122.311 29.3819 122.332 29.1741C122.353 28.9767 122.353 28.6234 122.332 28.3949C122.311 28.1767 122.291 28.3325 122.291 28.7585ZM218.1 28.1663C218.1 28.2079 218.357 28.8208 218.675 29.5169C218.983 30.213 219.239 30.8053 219.239 30.8156C219.239 30.826 218.89 30.8364 218.459 30.8364C217.946 30.8364 217.679 30.7949 217.638 30.7117C217.618 30.639 217.608 30.6494 217.628 30.7325C217.649 30.8572 217.854 30.8988 218.5 30.9195C218.962 30.9299 219.342 30.9092 219.342 30.8676C219.342 30.826 219.085 30.2027 218.767 29.4858C218.449 28.7793 218.162 28.1663 218.141 28.1351C218.121 28.1143 218.1 28.1247 218.1 28.1663ZM11.3653 29.278C10.8316 29.7455 10.3801 30.0676 10.2877 30.0468C10.2056 30.0156 10.2569 30.0676 10.3904 30.1507C10.534 30.2338 10.6777 30.265 10.6982 30.2234C10.729 30.1715 11.1806 30.0053 11.7039 29.839C12.3607 29.6416 12.6583 29.4962 12.6583 29.3819C12.6481 29.2988 12.607 29.0598 12.5454 28.8416C12.4941 28.6234 12.412 28.4572 12.371 28.4572C12.3299 28.4572 11.8784 28.8312 11.3653 29.278ZM233.689 28.8416C233.566 29.0079 233.566 29.0079 233.73 28.8936C233.884 28.7793 233.976 28.8104 234.346 29.0806C234.582 29.2468 234.818 29.3923 234.859 29.3923C234.9 29.3923 234.705 29.226 234.417 29.0182C234.14 28.8208 233.894 28.6546 233.873 28.6546C233.843 28.6546 233.771 28.7377 233.689 28.8416V28.8416ZM251.576 28.9663C251.566 29.0598 251.638 29.5481 251.73 30.0572C251.822 30.5767 251.915 30.9507 251.935 30.8884C251.956 30.8364 251.884 30.3481 251.771 29.7975C251.668 29.2572 251.576 28.8832 251.576 28.9663ZM222.236 29.9325L222.256 30.8884L222.308 29.0702L223.591 29.0079L222.205 28.9663L222.236 29.9325ZM228.496 29.9325L228.527 30.8988L228.578 29.0806L229.861 29.0182L228.475 28.9767L228.496 29.9325ZM236.726 29.2572C236.644 29.3819 236.419 29.4546 236.008 29.5066L235.403 29.5689C236.295 29.6001 236.501 29.5481 236.685 29.4027C236.829 29.2884 236.921 29.1741 236.891 29.1429C236.85 29.1117 236.778 29.1637 236.726 29.2572ZM254.747 29.1221C254.747 29.1845 254.88 29.4234 255.045 29.6416C255.209 29.8702 255.476 30.1819 255.63 30.3169C255.845 30.504 255.825 30.4624 255.558 30.1611C255.353 29.9325 255.086 29.5897 254.963 29.3819C254.85 29.1845 254.747 29.0702 254.747 29.1221ZM167.825 29.5169C167.825 29.5585 168.667 29.5897 169.703 29.5897C171.068 29.5897 171.612 29.6312 171.725 29.7247C171.848 29.839 171.858 29.8286 171.745 29.6728C171.643 29.5169 171.407 29.4858 169.724 29.465C168.687 29.4546 167.825 29.4754 167.825 29.5169ZM214.888 29.6936C214.796 29.8702 214.734 30.0364 214.755 30.0676C214.765 30.0884 214.827 29.9741 214.878 29.8079L214.991 29.4858H217.033C217.279 29.9741 217.351 30.0884 217.372 30.0676C217.382 30.0364 217.331 29.8702 217.238 29.6936L217.084 29.3819H215.042L214.888 29.6936ZM253.033 29.7455C253.033 29.8702 253.085 30.1923 253.156 30.4728C253.228 30.7637 253.29 30.9091 253.29 30.7845C253.3 30.6702 253.239 30.3481 253.167 30.0572C253.095 29.7767 253.033 29.6312 253.033 29.7455ZM214.416 30.7117C214.416 30.8053 214.211 30.8364 213.605 30.8156C213.164 30.8053 212.815 30.826 212.836 30.8676C212.866 30.9092 213.226 30.9403 213.657 30.9403C214.077 30.9403 214.447 30.8988 214.478 30.8364C214.498 30.7845 214.498 30.7014 214.467 30.6598C214.437 30.6182 214.416 30.639 214.416 30.7117ZM167.733 31.7507C167.928 31.7715 168.277 31.7715 168.502 31.7507C168.728 31.7299 168.564 31.7092 168.143 31.7092C167.712 31.7092 167.527 31.7299 167.733 31.7507Z" fill="#CECECE"/>
<path d="M3.7198 1.28835C4.02767 1.12211 4.48948 0.935101 4.74603 0.862373C5.10522 0.758477 10.4416 0.737698 29.8888 0.727309C51.9836 0.716919 54.6313 0.737698 55.1855 0.883153C55.5241 0.96627 56.0065 1.15328 56.263 1.29874C56.5196 1.4338 56.9814 1.79744 57.2892 2.09874C57.5971 2.41043 57.9768 2.88835 58.1308 3.16887C58.2847 3.44939 58.4797 4.00004 58.5618 4.40523C58.6952 4.99744 58.726 6.05718 58.726 15.1585H1.25684V9.99484C1.25684 6.75328 1.29789 4.64419 1.36972 4.35328C1.4313 4.09354 1.60576 3.62601 1.74943 3.31432C1.90336 3.00263 2.28307 2.48315 2.59094 2.16107C2.89881 1.839 3.41193 1.44419 3.7198 1.28835Z" fill="white"/>
<path d="M72.2825 1.54809C72.5801 1.35069 73.1343 1.08056 73.5038 0.95588L74.1708 0.727309H98.9031C115.826 0.716919 123.779 0.758477 124.097 0.831205C124.354 0.893542 124.815 1.07017 125.123 1.21562C125.431 1.37146 125.944 1.75588 126.262 2.06757C126.581 2.37926 126.96 2.88835 127.114 3.17926C127.258 3.48056 127.453 4.00004 127.535 4.32211C127.658 4.82082 127.689 5.81822 127.689 15.1585H70.2198V10.1507C70.2198 6.05718 70.2506 4.99744 70.384 4.40523C70.4661 4.01043 70.6611 3.44939 70.815 3.16887C70.969 2.88835 71.2358 2.49354 71.4102 2.28575C71.5847 2.07796 71.9747 1.74549 72.2825 1.54809Z" fill="white"/>
<path d="M141.646 1.28835C141.841 1.18445 142.261 1.00783 142.569 0.914322C143.103 0.737698 144.478 0.727309 167.917 0.716919C190.371 0.716919 192.752 0.727309 193.265 0.883153C193.573 0.96627 194.066 1.17406 194.343 1.3403C194.63 1.49614 195.092 1.88056 195.379 2.18185C195.667 2.49354 196.026 2.95069 196.17 3.21043C196.324 3.47017 196.518 4.00004 196.601 4.40523C196.724 4.99744 196.755 6.07796 196.755 15.1585H139.183L139.214 9.82861C139.244 4.76887 139.255 4.47796 139.45 3.9377C139.573 3.62601 139.799 3.15848 139.973 2.89874C140.147 2.639 140.517 2.21302 140.794 1.95328C141.061 1.69354 141.451 1.39224 141.646 1.28835Z" fill="white"/>
<path d="M210.66 1.31952C210.947 1.16367 211.43 0.96627 211.738 0.883153C212.23 0.748088 215.442 0.727309 236.932 0.716919C258.975 0.716919 261.633 0.727309 262.177 0.872763C262.516 0.96627 263.029 1.16367 263.306 1.31952C263.593 1.47536 264.055 1.82861 264.332 2.11952C264.619 2.40004 264.968 2.86757 265.122 3.15848C265.276 3.439 265.471 4.00004 265.564 4.40523C265.687 4.99744 265.717 6.05718 265.717 15.1585H208.248V10.1403C208.259 6.05718 208.279 4.99744 208.413 4.40523C208.495 4.00004 208.69 3.439 208.844 3.15848C208.998 2.86757 209.357 2.40004 209.634 2.11952C209.921 1.82861 210.383 1.47536 210.66 1.31952Z" fill="white"/>
<path d="M165.916 19.8754C166.255 19.7819 166.788 19.6572 167.096 19.6156C167.404 19.5741 168.051 19.5533 168.533 19.5845C169.015 19.6156 169.446 19.678 169.508 19.7195C169.559 19.7715 169.303 20.426 168.861 21.3195C168.153 22.7741 168.112 22.8468 167.815 22.8468C167.651 22.8468 167.24 22.9299 166.922 23.0338C166.594 23.1273 166.101 23.3559 165.814 23.5429C165.536 23.7195 165.105 24.0832 164.869 24.3429C164.623 24.6026 164.326 25.039 164.192 25.3091C164.059 25.5793 163.884 26.0676 163.812 26.3793C163.73 26.7429 163.71 27.2312 163.751 27.7299C163.792 28.2598 163.905 28.6961 164.1 29.1325C164.264 29.4754 164.572 29.9637 164.798 30.213C165.013 30.4624 165.454 30.8364 165.762 31.0442C166.07 31.252 166.624 31.5117 166.994 31.6156C167.486 31.7507 167.866 31.7922 168.43 31.7507C168.954 31.7091 169.405 31.6052 169.816 31.4182C170.155 31.2624 170.565 31.0546 170.719 30.9403C170.873 30.826 171.017 30.7533 171.027 30.7637C171.047 30.7845 171.417 31.4078 171.848 32.1663C172.289 32.9247 172.617 33.5896 172.587 33.652C172.556 33.7039 172.299 33.8909 172.002 34.0572C171.704 34.2338 171.109 34.4832 170.688 34.6286C170.267 34.7741 169.549 34.9507 169.098 35.013C168.646 35.0754 167.958 35.0858 167.558 35.0546C167.168 35.013 166.563 34.9091 166.224 34.826C165.885 34.7429 165.331 34.5559 164.993 34.4C164.654 34.2546 164.1 33.9325 163.761 33.6935C163.422 33.4546 162.827 32.9143 162.448 32.4987C161.955 31.9585 161.606 31.4494 161.288 30.7948C161.042 30.2754 160.764 29.5793 160.682 29.2364C160.6 28.8935 160.498 28.2182 160.467 27.7299C160.436 27.1585 160.467 26.5455 160.559 26.0156C160.641 25.5585 160.826 24.8832 160.98 24.5091C161.124 24.1351 161.401 23.5741 161.585 23.2624C161.77 22.9507 162.304 22.2857 162.786 21.7974C163.443 21.1429 163.874 20.8104 164.479 20.4883C164.931 20.2494 165.578 19.9793 165.916 19.8754Z" fill="white"/>
<path d="M170.493 20.9455C170.544 20.852 170.781 20.6234 171.017 20.4572C171.386 20.187 171.53 20.1455 172.125 20.1455C172.617 20.1455 172.884 20.1974 173.131 20.3533C173.315 20.4676 173.551 20.7065 173.675 20.8935C173.818 21.1325 173.87 21.3611 173.849 21.652C173.828 21.8806 173.736 22.1922 173.633 22.3481C173.541 22.5039 173.131 22.826 172.72 23.065C172.31 23.3039 171.868 23.5948 171.735 23.7195C171.612 23.8338 171.509 23.9689 171.509 24.0104C171.509 24.052 172.043 24.0935 173.87 24.0935V25.0286H170.329L170.401 24.5299C170.432 24.2598 170.544 23.8754 170.637 23.678C170.739 23.4806 170.893 23.2208 170.986 23.1169C171.078 23.013 171.478 22.7429 171.868 22.5039C172.269 22.2754 172.648 22.0156 172.72 21.9221C172.792 21.8286 172.843 21.6728 172.843 21.5689C172.843 21.4754 172.771 21.3195 172.689 21.2364C172.607 21.1533 172.371 21.0806 172.176 21.0806C171.981 21.0806 171.714 21.1325 171.591 21.1948C171.458 21.2572 171.283 21.413 171.006 21.7559L170.698 21.4442C170.462 21.1948 170.411 21.0909 170.493 20.9455Z" fill="white"/>
<path d="M8.79966 25.4961L9.51802 23.3351C9.90799 22.1507 10.2672 21.1845 10.3185 21.1845C10.3698 21.1845 10.7187 22.1611 11.7757 25.5481L16.4554 25.6L15.5523 26.2546C15.0597 26.6182 14.2284 27.2 13.7051 27.5533C13.1817 27.9065 12.7609 28.2702 12.7507 28.3533C12.7507 28.4364 13.0688 29.4546 13.469 30.6078C13.8693 31.7715 14.1258 32.6754 14.054 32.6338C13.9821 32.5922 13.1919 32.0416 12.3094 31.4182C11.4166 30.7845 10.6879 30.2546 10.6982 30.2234C10.6982 30.1922 11.1395 30.026 11.6731 29.8598C12.3504 29.6416 12.6583 29.4961 12.648 29.3922C12.648 29.3091 12.607 29.0598 12.5454 28.8416C12.4941 28.6338 12.4223 28.4572 12.3915 28.4572C12.3607 28.4572 11.9194 28.8208 11.4063 29.2572C10.8829 29.7039 10.3903 30.0676 10.298 30.078C10.2056 30.078 9.5796 30.4728 8.90228 30.9611C8.22497 31.4494 7.38346 32.0416 7.03454 32.2806C6.67535 32.5195 6.40853 32.6546 6.43932 32.5819C6.47011 32.5091 6.78824 31.5429 7.15769 30.4312C7.52713 29.3195 7.82474 28.3637 7.82474 28.3221C7.82474 28.2806 7.40398 27.9377 6.8806 27.5741C6.35722 27.2 5.51571 26.5974 4.10977 25.6L8.79966 25.4961Z" fill="white"/>
<path d="M234.233 23.9896C234.479 23.8546 234.818 23.7091 234.982 23.6572C235.156 23.6156 235.567 23.6052 235.905 23.626C236.244 23.6468 236.726 23.7403 236.983 23.8338C237.239 23.9273 237.619 24.1143 238.214 24.5091L237.835 25.0806C237.619 25.4026 237.434 25.652 237.424 25.652C237.404 25.652 237.27 25.5585 237.116 25.4546C236.962 25.3507 236.665 25.2156 236.47 25.1429C236.275 25.0806 235.895 25.0286 235.628 25.0286C235.279 25.0286 235.084 25.0806 234.93 25.2364C234.818 25.3507 234.725 25.5377 234.725 25.652C234.725 25.7663 234.818 25.9533 234.93 26.0676C235.043 26.1819 235.474 26.3689 235.885 26.4832C236.295 26.6078 236.829 26.7845 237.086 26.878C237.342 26.9715 237.681 27.1585 237.845 27.3039C238.009 27.4494 238.214 27.7195 238.286 27.9065C238.358 28.0935 238.42 28.4883 238.42 28.7896C238.42 29.0909 238.338 29.5273 238.235 29.7559C238.132 29.9845 237.896 30.2961 237.701 30.4416C237.506 30.587 237.178 30.7637 236.983 30.8364C236.788 30.8987 236.254 30.9507 235.803 30.9507C235.166 30.9403 234.848 30.8883 234.366 30.6806C234.027 30.5455 233.576 30.3065 232.981 29.9117L233.186 29.6208C233.288 29.465 233.494 29.1948 233.873 28.7169L234.222 28.9974C234.417 29.1533 234.807 29.3507 235.084 29.4442C235.372 29.5273 235.782 29.6 236.008 29.6C236.234 29.6 236.521 29.5273 236.655 29.4442C236.808 29.3299 236.88 29.1845 236.891 28.9455C236.891 28.7585 236.808 28.5299 236.706 28.426C236.603 28.3325 236.039 28.1039 235.444 27.9273C234.848 27.7507 234.192 27.5013 233.986 27.3559C233.771 27.2208 233.525 26.9507 233.422 26.7637C233.33 26.5663 233.258 26.1819 233.247 25.8078C233.247 25.3195 233.309 25.0806 233.514 24.7169C233.689 24.4156 233.945 24.1559 234.233 23.9896Z" fill="white"/>
<path d="M213.492 29.3611C213.831 28.6026 214.539 27.0234 215.052 25.839C215.576 24.6546 216.037 23.678 216.089 23.678C216.13 23.678 216.232 23.8546 216.304 24.0624C216.376 24.2806 216.838 25.3715 217.331 26.4832C217.823 27.5948 218.449 29.0182 218.726 29.652C219.014 30.2754 219.239 30.8052 219.229 30.8156C219.229 30.8364 218.901 30.8468 217.741 30.8468L217.074 29.3922H215.022L214.354 30.8468H213.616C213.205 30.8468 212.866 30.826 212.866 30.7948C212.866 30.7637 213.154 30.1195 213.492 29.3611Z" fill="white"/>
<path d="M256.225 24.7896C256.451 24.6754 256.748 24.5403 256.892 24.4987C257.036 24.4572 257.426 24.4156 257.764 24.4156C258.247 24.4052 258.524 24.4676 258.996 24.6961C259.375 24.8832 259.796 25.1948 260.073 25.5065C260.32 25.7871 260.617 26.2234 260.73 26.4832C260.863 26.7845 260.935 27.1896 260.935 27.626C260.935 28 260.863 28.5299 260.771 28.8208C260.679 29.1013 260.391 29.5689 260.145 29.8598C259.899 30.1403 259.447 30.5143 259.139 30.6909C258.647 30.9715 258.503 31.0026 257.713 30.9922C256.984 30.9922 256.758 30.9507 256.327 30.7221C256.05 30.5767 255.63 30.2546 255.414 29.9948C255.188 29.7455 254.891 29.2883 254.757 28.9767C254.573 28.5507 254.501 28.2182 254.501 27.7299C254.501 27.2104 254.562 26.8987 254.778 26.4312C254.932 26.0883 255.229 25.6312 255.435 25.4026C255.65 25.1845 255.999 24.9143 256.225 24.7896Z" fill="white"/>
<path d="M246.691 27.678C247.009 26.078 247.297 24.6961 247.327 24.613C247.379 24.5195 247.789 25.1741 248.477 26.4208C249.072 27.5013 249.616 28.3948 249.688 28.4156C249.76 28.4364 249.913 28.2598 250.026 28.0104C250.15 27.7715 250.622 26.9091 251.083 26.0883C251.545 25.278 251.925 24.6234 251.935 24.6338C251.944 24.6514 252.15 25.6471 252.424 26.9701L252.582 27.7299C252.92 29.413 253.197 30.826 253.197 30.8676C253.197 30.9091 252.92 30.9507 251.966 30.9507L251.75 29.6728C251.638 28.9767 251.525 28.3221 251.494 28.2182C251.473 28.1247 251.422 28.0416 251.381 28.0416C251.34 28.0416 250.929 28.7169 249.657 31.0338L248.856 29.6208C248.415 28.8312 248.005 28.1351 247.933 28.0624C247.84 27.9689 247.758 28.2286 247.563 29.3091C247.43 30.0676 247.266 30.7533 247.204 30.826C247.143 30.8987 246.886 30.9507 246.609 30.9507C246.209 30.9507 246.116 30.9091 246.116 30.7637C246.116 30.6702 246.373 29.278 246.691 27.678Z" fill="white"/>
<path d="M220.871 30.8468L220.881 27.7195L220.892 24.5922L222.451 24.6234C223.878 24.665 224.042 24.6858 224.463 24.9247C224.74 25.0806 225.007 25.3403 225.15 25.6C225.335 25.9117 225.386 26.1819 225.386 26.7117C225.386 27.0961 225.335 27.5429 225.284 27.6987C225.222 27.8546 225.027 28.1455 224.843 28.3325C224.648 28.5299 224.309 28.7273 224.001 28.8208C223.724 28.9039 223.201 28.9767 222.205 28.9767V30.8468H220.871Z" fill="white"/>
<path d="M227.08 30.7948L227.069 27.6883L227.049 24.5922L228.66 24.6234C230.179 24.6546 230.292 24.6754 230.723 24.9351C230.99 25.0909 231.287 25.3819 231.41 25.6104C231.595 25.9221 231.647 26.1819 231.647 26.7429C231.647 27.3039 231.595 27.5637 231.421 27.8754C231.287 28.1039 231.031 28.3948 230.826 28.5299C230.631 28.665 230.312 28.8208 230.107 28.8728C229.912 28.9247 229.461 28.9767 228.465 28.9767V30.8468L227.08 30.7948Z" fill="white"/>
<path d="M240.216 29.3819C240.103 29.0286 240.072 28.3948 240.072 26.7637V24.6026H241.406L241.427 26.7637C241.447 28.613 241.478 28.9663 241.632 29.2052C241.786 29.4442 241.888 29.4858 242.299 29.4858C242.668 29.4961 242.843 29.4442 242.997 29.2676C243.181 29.0702 243.202 28.8935 243.233 24.6026H244.639L244.628 26.8156C244.618 28.3429 244.577 29.1325 244.485 29.3819C244.413 29.5793 244.238 29.9013 244.105 30.0883C243.972 30.2754 243.674 30.5247 243.428 30.6494C243.11 30.826 242.822 30.878 242.33 30.878C241.929 30.878 241.539 30.8052 241.355 30.7117C241.18 30.6182 240.893 30.3896 240.708 30.2026C240.523 30.0052 240.308 29.6416 240.216 29.3819Z" fill="white"/>
<path d="M87.7684 25.5169C88.025 25.2364 88.4252 24.9455 88.651 24.8728C88.8767 24.7896 89.3591 24.7169 89.7285 24.7169C90.098 24.7169 90.6008 24.7793 90.8574 24.8728C91.1139 24.9663 91.4218 25.1429 91.5552 25.2676C91.6784 25.3922 91.781 25.5585 91.781 25.652C91.7707 25.7351 91.6784 25.9117 91.3705 26.2754L90.9805 26.0156C90.7753 25.8702 90.4366 25.7247 90.2416 25.6935C90.0467 25.652 89.7183 25.6624 89.5233 25.7143C89.3283 25.7559 89.0102 25.9325 88.8254 26.1091C88.6202 26.2961 88.4149 26.639 88.3226 26.9507C88.2097 27.3039 88.1686 27.7091 88.2097 28.2494C88.2405 28.8208 88.3226 29.1429 88.497 29.4858C88.651 29.7455 88.8973 30.0156 89.1128 30.1299C89.3078 30.2338 89.6772 30.3273 89.9338 30.3273C90.2211 30.3273 90.5906 30.2338 90.9087 30.0676C91.3808 29.8286 91.4321 29.8286 91.545 29.9948C91.6168 30.0883 91.6989 30.265 91.7399 30.3793C91.781 30.5247 91.7297 30.639 91.5552 30.7637C91.4218 30.8676 91.0626 31.0234 90.7548 31.1169C90.3545 31.2312 89.9851 31.2728 89.5233 31.2208C89.123 31.1896 88.651 31.065 88.3431 30.9091C88.0455 30.7637 87.7068 30.4832 87.5426 30.2546C87.3887 30.0364 87.1937 29.6 87.1116 29.2883C87.0295 28.9663 86.9577 28.3637 86.9577 27.9377C86.9577 27.5013 87.0295 26.8987 87.1219 26.587C87.245 26.1819 87.4298 25.8598 87.7684 25.5169Z" fill="white"/>
<path d="M102.998 30.6078C102.895 30.3896 102.864 29.7143 102.864 27.7819V25.2364H103.244C103.47 25.2364 103.706 25.3091 103.819 25.413C103.942 25.5377 103.993 25.7455 103.993 26.587H105.327V27.5221H103.993V28.665C103.993 29.2883 104.024 29.8806 104.065 29.9741C104.106 30.0676 104.25 30.1819 104.373 30.2338C104.527 30.2961 104.742 30.265 104.989 30.1611C105.204 30.078 105.379 30.0052 105.379 30.0052C105.379 30.0052 105.43 30.1507 105.502 30.3169C105.604 30.5767 105.604 30.6702 105.502 30.8052C105.43 30.8987 105.225 31.0442 105.04 31.1169C104.855 31.2 104.527 31.2624 104.301 31.2624C104.075 31.2624 103.716 31.1793 103.511 31.0754C103.306 30.9819 103.08 30.7637 102.998 30.6078Z" fill="white"/>
<path d="M17.5637 26.1299C17.5534 25.9429 17.5842 25.7559 17.6355 25.7143C17.6766 25.6832 18.867 25.652 22.818 25.652V26.4832L20.8169 26.5351L20.7656 31.9896H19.7393L19.688 26.5351L17.5842 26.4832L17.5637 26.1299Z" fill="white"/>
<path d="M44.4716 26.4832V26.0676V25.652H45.3952V26.4832H44.4716Z" fill="white"/>
<path d="M46.4727 31.9377L46.4419 28.7896L46.4214 25.652H47.4477L47.3963 31.9377H46.4727Z" fill="white"/>
<path d="M36.2514 27.4078V26.7325V26.0572H37.2777V27.4078H37.7395C38.191 27.4078 38.2013 27.4182 38.2013 27.7195C38.2013 28.0208 38.191 28.0312 37.2777 28.0312L37.329 31.2L37.7395 31.252C38.1192 31.3039 38.15 31.3351 38.15 31.9273H37.4624C36.8774 31.9273 36.7338 31.8961 36.5388 31.6883C36.313 31.4702 36.3027 31.3663 36.2514 28.0312H35.8923C35.5639 28.0312 35.5331 28.0104 35.5331 27.7195C35.5331 27.439 35.5639 27.4078 36.2514 27.4078Z" fill="white"/>
<path d="M54.1592 27.3559L54.19 26.7117L54.2208 26.0572H55.1342V27.4078H55.596C56.0475 27.4078 56.0578 27.4182 56.0578 27.7195C56.0578 28.0208 56.0475 28.0312 55.1342 28.0312V29.5169C55.1342 30.5663 55.1649 31.0338 55.2676 31.1273C55.3394 31.2 55.5446 31.252 55.7294 31.252C56.0372 31.252 56.0578 31.2728 56.0578 31.9793L55.3497 31.9585C54.8263 31.9377 54.58 31.8754 54.4466 31.7403C54.2926 31.5845 54.2516 31.3039 54.1592 28.0832L53.7795 28.0624C53.4203 28.0312 53.3896 28.0104 53.3896 27.7195C53.3896 27.439 53.4203 27.4078 54.1592 27.3559Z" fill="white"/>
<path d="M168.749 27.9065C169.21 27.0961 169.631 26.3689 169.693 26.2961C169.765 26.2026 170.278 26.1715 171.602 26.1611C172.956 26.1611 173.438 26.1922 173.531 26.2961C173.592 26.3689 174.044 27.1273 174.537 27.9896C175.019 28.8416 175.409 29.5689 175.388 29.6C175.368 29.6312 174.947 30.3793 173.531 32.8728L173.1 32.0935C172.864 31.6572 172.443 30.9091 171.653 29.5481L169.785 29.5169C168.759 29.5065 167.917 29.465 167.917 29.4442C167.917 29.413 168.297 28.7273 168.749 27.9065Z" fill="white"/>
<path d="M99.0262 26.8676C99.1288 26.7948 99.3649 26.6806 99.5701 26.6182C99.7651 26.5455 100.001 26.5039 100.083 26.5247C100.165 26.5455 100.401 26.587 100.596 26.6286C100.812 26.6598 101.099 26.826 101.294 27.0234C101.489 27.2104 101.684 27.5533 101.746 27.7819C101.807 28.0104 101.838 28.5922 101.818 29.0806C101.787 29.839 101.735 30.0364 101.499 30.4104C101.345 30.6494 101.079 30.9091 100.904 31.0026C100.74 31.0858 100.401 31.1896 100.165 31.2208C99.8267 31.2728 99.6317 31.2416 98.8517 30.8468V33.1325H97.6203V26.587L97.9589 26.5767C98.1436 26.5767 98.4207 26.6702 98.5747 26.7845C98.8004 26.9611 98.8825 26.9715 99.0262 26.8676Z" fill="white"/>
<path d="M107.144 26.878C107.349 26.7533 107.636 26.6078 107.78 26.5663C107.924 26.5247 108.273 26.5039 108.55 26.5351C108.837 26.5663 109.176 26.6494 109.309 26.7117C109.453 26.7845 109.689 27.0026 109.853 27.2104C110.099 27.5013 110.171 27.7091 110.294 29.0806H108.888C108.108 29.0806 107.452 29.1117 107.431 29.1533C107.411 29.1948 107.472 29.4338 107.585 29.6728C107.729 29.9845 107.883 30.1611 108.139 30.2754C108.427 30.4 108.601 30.4104 108.991 30.3169C109.258 30.2546 109.555 30.1299 109.658 30.026C109.822 29.8702 109.843 29.8702 109.986 30.0676C110.068 30.1819 110.13 30.3793 110.12 30.5247C110.099 30.6598 109.956 30.8676 109.802 30.9922C109.555 31.1689 109.371 31.2104 108.621 31.2104C107.862 31.2 107.667 31.1689 107.287 30.9507C107 30.7845 106.733 30.5143 106.569 30.2234C106.374 29.8806 106.292 29.5585 106.251 29.0286C106.21 28.3948 106.241 28.2182 106.477 27.6987C106.682 27.2728 106.867 27.0442 107.144 26.878Z" fill="white"/>
<path d="M112.398 26.9195C112.429 26.9715 112.634 26.8987 112.85 26.7429C113.075 26.5974 113.383 26.4832 113.547 26.4832C113.701 26.4832 113.927 26.5767 114.04 26.6909C114.225 26.878 114.235 26.9299 114.122 27.3143C114.009 27.678 113.958 27.7299 113.783 27.6676C113.671 27.626 113.414 27.5948 113.219 27.5948C112.962 27.5948 112.809 27.6676 112.675 27.8442C112.521 28.052 112.49 28.3117 112.501 31.2624H111.372V26.587H111.628C111.772 26.587 111.988 26.639 112.121 26.7013C112.244 26.7637 112.367 26.8676 112.398 26.9195Z" fill="white"/>
<path d="M115.949 26.826C116.144 27.0026 116.164 27.0026 116.544 26.7429C116.77 26.5974 117.037 26.4832 117.139 26.4832C117.242 26.4832 117.437 26.5247 117.581 26.587C117.765 26.6598 117.837 26.7637 117.837 26.9507C117.837 27.0858 117.786 27.3247 117.714 27.4702C117.632 27.6364 117.529 27.7091 117.427 27.678C117.344 27.6364 117.18 27.5844 117.067 27.5533C116.955 27.5221 116.718 27.5741 116.195 27.8338V31.2624H114.964L115.015 26.639H115.384C115.61 26.639 115.836 26.7117 115.949 26.826Z" fill="white"/>
<path d="M93.1767 26.8676C93.3511 26.7845 93.5872 26.6909 93.6898 26.6598C93.7924 26.6286 94.1619 26.5974 94.521 26.5974C94.87 26.587 95.3318 26.6494 95.5473 26.7429C95.7628 26.826 96.0193 27.0338 96.1322 27.2312C96.3067 27.5117 96.3477 27.8338 96.399 29.1845C96.4298 30.0676 96.4914 30.878 96.5222 30.9715C96.5838 31.1169 96.5325 31.1689 96.3169 31.2104C96.163 31.2416 95.9065 31.2208 95.7525 31.1585C95.5986 31.0961 95.4446 30.9819 95.4139 30.8987C95.3728 30.7637 95.3112 30.7741 95.0342 30.9403C94.8494 31.0546 94.4697 31.1793 94.1824 31.2208C93.8232 31.2624 93.5564 31.2312 93.2896 31.1169C93.074 31.0234 92.8072 30.7948 92.6943 30.6078C92.5404 30.3793 92.4891 30.1403 92.5199 29.8598C92.5404 29.6312 92.6328 29.3091 92.7251 29.1533C92.8278 28.9974 93.0946 28.7793 93.3409 28.665C93.5769 28.5507 94.1003 28.426 94.4902 28.3845C95.0034 28.3221 95.2189 28.2494 95.2394 28.1455C95.2599 28.052 95.1778 27.8546 95.0649 27.6987C94.8802 27.4598 94.7776 27.4182 94.3671 27.4182C94.1003 27.4182 93.6795 27.5117 93.4435 27.626C93.0022 27.8338 93.0022 27.8338 92.8996 27.626C92.8483 27.5117 92.8072 27.3247 92.8175 27.2208C92.8278 27.1065 92.992 26.9507 93.1767 26.8676Z" fill="white"/>
<path d="M119.038 26.8676C119.212 26.7845 119.448 26.6909 119.551 26.6598C119.654 26.6286 120.033 26.6078 120.403 26.5974C120.772 26.5974 121.234 26.6494 121.429 26.7221C121.634 26.7948 121.88 26.9922 122.024 27.2104C122.219 27.5117 122.26 27.7091 122.26 28.4052C122.26 28.8624 122.301 29.652 122.353 30.1715C122.404 30.826 122.394 31.1273 122.311 31.1896C122.25 31.2312 122.034 31.2416 121.839 31.2104C121.644 31.1896 121.419 31.0754 121.357 30.9715C121.224 30.8052 121.203 30.8052 120.741 31.0234C120.464 31.1585 120.085 31.2624 119.89 31.252C119.695 31.252 119.376 31.1896 119.181 31.1273C118.966 31.0546 118.72 30.8468 118.576 30.639C118.391 30.3585 118.34 30.1715 118.371 29.8598C118.391 29.6312 118.484 29.3195 118.566 29.1845C118.658 29.039 118.925 28.8104 119.181 28.6858C119.448 28.5507 119.941 28.4156 120.382 28.3741C121.111 28.3013 121.121 28.2909 121.121 28.0104C121.121 27.8338 121.039 27.6676 120.895 27.5741C120.762 27.4806 120.454 27.4182 120.197 27.4182C119.941 27.4182 119.541 27.5117 119.305 27.626C118.863 27.8338 118.863 27.8338 118.761 27.626C118.709 27.5117 118.668 27.3247 118.679 27.2208C118.689 27.1065 118.853 26.9507 119.038 26.8676Z" fill="white"/>
<path d="M23.9058 27.9481C24.0085 27.7715 24.2034 27.5637 24.3471 27.4806C24.4908 27.387 24.7781 27.3143 24.9936 27.3143C25.3631 27.3143 25.3734 27.3143 25.3734 27.6987C25.3734 28.0832 25.3734 28.0935 24.891 28.1663C24.5934 28.2078 24.3061 28.3325 24.1521 28.478C24.0187 28.6026 23.8443 28.8624 23.7724 29.0494C23.6801 29.278 23.6287 29.8078 23.6287 31.8857H22.7051V27.4182L23.1464 27.439C23.5672 27.4702 23.5774 27.4806 23.7108 28.2598L23.9058 27.9481Z" fill="white"/>
<path d="M31.2845 27.9585C31.3768 27.8338 31.6129 27.6364 31.8181 27.5221C32.0952 27.3767 32.4133 27.3143 32.947 27.3143C33.3575 27.3143 33.8398 27.3767 34.0245 27.4494C34.2092 27.5325 34.4555 27.7091 34.5787 27.8442C34.6916 27.9793 34.825 28.1974 34.8558 28.3221C34.9173 28.5403 34.8865 28.5611 34.435 28.5611C34.0553 28.5611 33.9116 28.5091 33.8193 28.3533C33.7474 28.239 33.5422 28.1039 33.3575 28.052C33.1727 28 32.8546 27.9896 32.6596 28.0312C32.4646 28.0728 32.2491 28.1351 32.1773 28.1767C32.1054 28.2182 32.0439 28.3637 32.0439 28.5091C32.0439 28.6546 32.1362 28.8312 32.2799 28.9247C32.4031 29.0078 32.8854 29.1637 33.3575 29.2883C33.8193 29.4026 34.3426 29.5585 34.5068 29.652C34.6813 29.7351 34.866 29.9013 34.9173 30.0156C34.9789 30.1299 35.02 30.4208 35.02 30.6598C35.02 30.9091 34.9584 31.2104 34.866 31.3351C34.7839 31.4702 34.5171 31.678 34.2811 31.8026C33.9321 31.9896 33.6756 32.0312 33.0188 32.0312C32.3723 32.0312 32.1054 31.9896 31.7668 31.8026C31.5205 31.678 31.2639 31.439 31.1818 31.2832C31.11 31.1273 31.0176 30.8987 30.9766 30.7637C30.9253 30.5455 30.9458 30.5351 31.4281 30.5351C31.9002 30.5351 31.9515 30.5559 31.9926 30.7948C32.0233 30.9507 32.1773 31.1169 32.3825 31.2208C32.598 31.3351 32.8854 31.3767 33.2343 31.3455C33.5217 31.3247 33.8398 31.2416 33.9321 31.1585C34.0245 31.065 34.1066 30.8676 34.1066 30.7117C34.0963 30.5351 34.0142 30.3689 33.8706 30.2754C33.7372 30.1922 33.224 30.0364 32.7109 29.9221C31.9926 29.7559 31.7155 29.6312 31.4589 29.3922C31.1818 29.1325 31.1203 28.9974 31.1203 28.6338C31.1203 28.3948 31.1921 28.0832 31.2845 27.9585Z" fill="white"/>
<path d="M40.0998 27.8857C40.1306 27.7922 40.3051 27.6364 40.4898 27.5221C40.7156 27.3767 41.0029 27.3143 41.4134 27.3143C41.7931 27.3143 42.142 27.387 42.4088 27.5221C42.6346 27.6364 42.9117 27.8546 43.0143 28.0104C43.1272 28.1663 43.2914 28.5091 43.3838 28.7689C43.4659 29.0182 43.5377 29.4442 43.5377 29.7039C43.5377 29.9533 43.4967 30.3273 43.4453 30.5351C43.3838 30.7325 43.2401 31.0546 43.1067 31.2624C42.9733 31.4598 42.6654 31.7299 42.4088 31.8546C42.1523 31.9896 41.7623 32.0935 41.5365 32.0935C41.3108 32.0832 40.9311 31.9896 40.695 31.8754C40.4487 31.7715 40.2332 31.626 40.2024 31.5741C40.1717 31.5117 40.1101 31.4702 40.0485 31.4702C39.9869 31.4702 39.9356 31.9273 39.8946 33.7039L39.0223 33.7559V27.4182H39.4328C39.8022 27.4182 39.8433 27.439 39.8433 27.678C39.8433 27.813 39.8946 27.9585 39.9459 27.9896C40.0075 28.0104 40.069 27.9689 40.0998 27.8857Z" fill="white"/>
<path d="M48.751 28.187C48.9254 27.9273 49.223 27.678 49.5001 27.5429C49.808 27.3871 50.1569 27.3247 50.6187 27.3143C51.1113 27.3143 51.4089 27.3767 51.7476 27.5429C52.0041 27.678 52.3325 27.9585 52.4865 28.1974C52.6507 28.426 52.8251 28.8624 52.8867 29.1845C52.9688 29.5896 52.9688 29.9013 52.8867 30.2754C52.8149 30.5559 52.6507 30.9715 52.5173 31.1793C52.3736 31.3974 52.0657 31.678 51.8297 31.8026C51.491 31.9793 51.2139 32.0312 50.6187 32.0312C49.9722 32.0416 49.7772 31.9896 49.3872 31.7715C49.1307 31.6156 48.8228 31.3351 48.6997 31.1481C48.5765 30.9507 48.4226 30.5559 48.3507 30.2754C48.2584 29.8702 48.2584 29.6208 48.3405 29.1845C48.4123 28.8624 48.5868 28.4156 48.751 28.187Z" fill="white"/>
<path d="M26.3585 31.4286C26.1636 31.1689 26.143 30.9611 26.1122 29.278L26.0712 27.4182H27.0153L27.0666 30.8572L27.354 31.1169C27.549 31.2935 27.7542 31.3663 28.0723 31.3663C28.3494 31.3663 28.606 31.2935 28.7907 31.1585C28.9446 31.0338 29.1088 30.7741 29.1704 30.5559C29.232 30.3481 29.273 29.5481 29.273 27.4182H30.1864L30.1453 31.9377L29.7143 31.9585C29.2936 31.9896 29.273 31.9793 29.273 31.678C29.273 31.5013 29.2423 31.3559 29.2012 31.3559C29.1602 31.3559 29.0267 31.4598 28.9139 31.5845C28.801 31.7091 28.5649 31.8754 28.3802 31.9481C28.1955 32.0312 27.8671 32.0935 27.6619 32.0935C27.4463 32.0935 27.1179 32.0104 26.923 31.9065C26.728 31.813 26.4714 31.5948 26.3585 31.4286Z" fill="white"/>
<path d="M44.4716 31.9793V29.6935V27.4078H45.3952V31.9793H44.4716Z" fill="white"/>
<path d="M214.426 6.37922L215.104 5.00779C215.535 4.12468 215.812 3.66753 215.883 3.72987C215.945 3.77143 216.263 4.38442 217.187 6.37922L218.49 6.56624C219.208 6.67013 219.906 6.78442 220.05 6.81559C220.286 6.86753 220.224 6.95065 218.08 9.08052L218.326 10.6078C218.459 11.4494 218.541 12.1455 218.511 12.1455C218.48 12.1455 217.854 11.8338 215.791 10.7532L214.436 11.4701C213.462 11.9896 213.082 12.1558 213.072 12.0416C213.072 11.9584 213.174 11.2623 213.533 9.13247L212.405 8C211.358 6.95065 211.296 6.86753 211.532 6.81559C211.676 6.78442 212.384 6.67013 214.426 6.37922Z" fill="#343D45"/>
<path d="M224.843 6.43117C224.914 6.43117 225.284 5.79741 225.663 5.02857C226.043 4.25974 226.372 3.62598 226.402 3.62598C226.433 3.62598 226.762 4.23896 227.798 6.37922L228.67 6.51429C229.153 6.58702 229.851 6.69091 230.928 6.84676L228.64 9.08052L228.906 10.587C229.05 11.4182 229.153 12.1143 229.132 12.1455C229.101 12.1766 228.475 11.8753 226.361 10.7636L224.996 11.5117C223.919 12.1039 223.642 12.2078 223.642 12.0727C223.642 11.9688 223.734 11.3455 223.847 10.6909C223.96 10.0364 224.052 9.39221 224.052 9.26753C224.052 9.1013 223.714 8.69611 222.975 7.96883C222.38 7.37663 221.907 6.88831 221.918 6.86753C221.938 6.85715 222.575 6.75325 223.334 6.63896C224.093 6.52468 224.781 6.44156 224.843 6.43117Z" fill="#343D45"/>
<path d="M235.464 6.43117C235.515 6.43117 235.854 5.79741 236.234 5.02857C236.613 4.25974 236.942 3.62598 236.973 3.62598C237.003 3.62598 237.322 4.22857 237.67 4.97663C238.03 5.71429 238.348 6.34805 238.389 6.36883C238.44 6.38961 238.861 6.46234 239.343 6.53507C239.826 6.5974 240.513 6.7013 241.55 6.86753L239.241 9.08052L239.497 10.587C239.641 11.4182 239.733 12.1143 239.702 12.1455C239.672 12.1766 239.046 11.8753 236.932 10.7636L235.597 11.4909C234.561 12.0519 234.253 12.1766 234.233 12.0519C234.222 11.9584 234.315 11.2519 234.694 9.08052L233.576 7.98961C232.97 7.38702 232.478 6.88831 232.488 6.87792C232.508 6.85715 233.165 6.75325 233.955 6.63896C234.746 6.52468 235.423 6.43117 235.464 6.43117Z" fill="#343D45"/>
<path d="M246.086 6.37922C246.157 6.34805 246.506 5.72468 246.845 4.97663C247.194 4.22857 247.522 3.62598 247.584 3.62598C247.656 3.62598 247.984 4.24935 248.959 6.37922L250.334 6.57663C251.094 6.68052 251.791 6.8052 251.894 6.83637C252.048 6.88831 251.874 7.1065 249.842 9.08052L250.088 10.587C250.221 11.4182 250.303 12.1143 250.273 12.1455C250.242 12.1766 249.831 11.9896 249.37 11.7299C248.911 11.4736 248.323 11.155 247.604 10.774L246.424 11.3766C245.778 11.6987 245.162 12.0208 245.07 12.0831C244.977 12.1455 244.864 12.1766 244.834 12.1455C244.803 12.1143 244.895 11.4182 245.295 9.08052L244.146 7.95844C243.51 7.34546 243.017 6.84676 243.058 6.84676C243.109 6.84676 243.777 6.75325 244.546 6.63896C245.326 6.52468 246.024 6.41039 246.086 6.37922Z" fill="#343D45"/>
<path d="M256.738 6.32728C256.789 6.28572 257.107 5.66234 257.446 4.93507C257.774 4.21818 258.103 3.62598 258.164 3.62598C258.226 3.62598 258.554 4.24935 259.529 6.37922L260.904 6.57663C261.664 6.68052 262.362 6.8052 262.464 6.83637C262.618 6.88831 262.444 7.1065 261.571 7.96883C260.904 8.61299 260.484 9.11169 260.484 9.23637C260.484 9.35065 260.576 10.0364 260.699 10.774C260.812 11.5013 260.884 12.1039 260.853 12.1247C260.822 12.1351 260.207 11.8338 258.175 10.7636L256.81 11.4805C256.061 11.8753 255.435 12.1766 255.404 12.1455C255.383 12.1143 255.486 11.4182 255.896 9.08052L254.747 7.96883C254.121 7.34546 253.628 6.84676 253.659 6.84676C253.69 6.84676 254.367 6.75325 255.168 6.62857C255.978 6.51429 256.676 6.37922 256.738 6.32728Z" fill="#343D45"/>
<path d="M256.42 26.4312C256.543 26.2649 256.799 26.0675 256.994 25.9948C257.189 25.9221 257.508 25.8701 257.682 25.8597C257.867 25.8597 258.144 25.9117 258.298 25.974C258.462 26.026 258.719 26.2026 258.883 26.3584C259.047 26.5143 259.242 26.7948 259.314 26.9818C259.396 27.1584 259.457 27.4909 259.457 27.7091C259.457 27.9169 259.365 28.2909 259.252 28.5403C259.108 28.8312 258.903 29.0597 258.606 29.2364C258.339 29.3922 258.01 29.4961 257.733 29.4961C257.497 29.4961 257.179 29.4338 257.015 29.3507C256.861 29.2779 256.584 29.039 256.399 28.8312C256.163 28.561 256.061 28.3325 256.03 28C256.009 27.7403 256.04 27.3558 256.091 27.1377C256.153 26.9195 256.297 26.6078 256.42 26.4312Z" fill="#343D45"/>
<path d="M222.308 27.7299V26.8987V26.0675H222.975C223.549 26.0675 223.662 26.0987 223.796 26.3065C223.878 26.4312 223.95 26.7117 223.95 26.9299C223.95 27.2416 223.898 27.3455 223.662 27.4909C223.508 27.5948 223.139 27.6883 222.308 27.7299Z" fill="#343D45"/>
<path d="M228.568 27.7299V26.8987V26.0675H229.235C229.809 26.0675 229.922 26.0987 230.056 26.3065C230.138 26.4312 230.21 26.6597 230.21 26.826C230.21 26.9818 230.158 27.2 230.107 27.3143C230.046 27.4286 229.851 27.574 229.666 27.626C229.491 27.6883 229.163 27.7299 228.568 27.7299Z" fill="#343D45"/>
<path d="M215.535 28.0727C215.535 28.0208 215.637 27.7195 215.76 27.3974C215.883 27.0649 215.996 26.7948 216.017 26.7948C216.037 26.7948 216.13 26.9922 216.243 27.2416C216.345 27.4805 216.458 27.7818 216.499 27.9169C216.561 28.1351 216.53 28.1455 216.048 28.1455C215.76 28.1455 215.535 28.1143 215.535 28.0727Z" fill="#343D45"/>
<path d="M76.4284 6.33773C76.4797 6.28578 76.8081 5.66241 77.1365 4.93514C77.4752 4.21825 77.7933 3.62604 77.8549 3.62604C77.9164 3.62604 78.2448 4.25981 78.5835 5.02864C78.9222 5.80786 79.2505 6.44163 79.3019 6.44163C79.3532 6.44163 80.01 6.52475 80.7386 6.63903C81.4672 6.75332 82.1137 6.84682 82.1651 6.84682C82.2164 6.84682 81.7546 7.35591 80.0202 9.13254L80.2768 10.639C80.4205 11.4702 80.5128 12.1455 80.482 12.1455C80.4512 12.1455 79.8355 11.8234 77.8036 10.7429L76.4695 11.439C75.7408 11.8338 75.1251 12.1351 75.0943 12.1247C75.0635 12.104 75.1559 11.4183 75.5561 9.08059L74.4786 8.01046C73.8833 7.42864 73.4113 6.92994 73.4318 6.89877C73.4421 6.8676 74.0988 6.74293 74.8891 6.62864C75.6793 6.51436 76.3771 6.37929 76.4284 6.33773Z" fill="#1C6FD1"/>
<path d="M86.9473 6.43124C86.9781 6.43124 87.2962 5.80786 87.6657 5.02864C88.0351 4.25981 88.3532 3.62604 88.384 3.62604C88.4148 3.62604 88.733 4.24942 89.1024 5.02864C89.4718 5.80786 89.8208 6.44163 89.8721 6.44163C89.9234 6.43124 90.5802 6.52475 91.3088 6.63903C92.0477 6.75332 92.684 6.84682 92.7353 6.84682C92.7866 6.84682 92.3248 7.34552 90.6212 9.08059L90.888 10.5871C91.0317 11.4183 91.1241 12.104 91.1036 12.1144C91.0728 12.1351 90.4468 11.8338 88.3738 10.7429L87.0499 11.439C86.311 11.8338 85.6953 12.1351 85.6645 12.1247C85.644 12.104 85.7363 11.4183 86.1468 9.08059L83.9199 6.85721L84.2791 6.79488C84.4741 6.76371 85.1514 6.6702 85.7671 6.58708C86.3829 6.50397 86.9165 6.43124 86.9473 6.43124Z" fill="#1C6FD1"/>
<path d="M97.5791 6.40007C97.5894 6.38968 97.9075 5.74553 98.2975 4.97669L98.985 3.5741L99.6418 4.94553C99.9907 5.70397 100.319 6.34812 100.37 6.3689C100.412 6.40007 101.089 6.51436 101.879 6.62864C102.669 6.75332 103.326 6.87799 103.347 6.89877C103.357 6.92994 102.885 7.42864 101.212 9.08059L101.469 10.5871C101.612 11.4183 101.715 12.104 101.705 12.1247C101.684 12.1351 101.068 11.8338 98.9645 10.7429L97.6304 11.439C96.8915 11.8338 96.2758 12.1455 96.2655 12.1455C96.245 12.1455 96.3476 11.4702 96.7478 9.13254L95.619 8.00007C94.4901 6.8676 94.4901 6.8676 94.798 6.80527C94.9725 6.7741 95.66 6.6702 96.3374 6.58708C97.0147 6.49358 97.5791 6.41046 97.5791 6.40007Z" fill="#1C6FD1"/>
<path d="M108.867 4.97788L108.868 4.97669L109.555 3.5741L110.263 4.99747C110.653 5.78708 111.002 6.43124 111.043 6.43124C111.084 6.43124 111.751 6.52475 112.511 6.63903C113.27 6.75332 113.927 6.84682 113.968 6.84682C114.009 6.84682 113.547 7.34552 111.803 9.08059L112.059 10.5871C112.193 11.4183 112.295 12.104 112.275 12.1144C112.265 12.1247 111.649 11.8234 109.555 10.7429L108.211 11.439C107.431 11.8546 106.867 12.0936 106.867 12.0208C106.856 11.9481 106.969 11.2624 107.328 9.13254L105.071 6.85721L105.43 6.80527C105.625 6.7741 106.323 6.6702 106.969 6.57669C107.616 6.48319 108.149 6.40007 108.16 6.40007C108.17 6.38969 108.488 5.74619 108.867 4.97788Z" fill="#1C6FD1"/>
<path d="M118.73 6.40007C118.74 6.38968 119.068 5.75591 119.448 4.98708L120.156 3.60527L120.854 5.01825C121.234 5.79747 121.593 6.43124 121.644 6.43124C121.706 6.43124 122.383 6.52475 123.163 6.63903L123.384 6.67479C124.053 6.78305 124.581 6.86861 124.6 6.87799C124.61 6.88838 124.128 7.38708 122.393 9.08059L122.64 10.5871C122.783 11.4183 122.876 12.104 122.855 12.1144C122.845 12.1247 122.219 11.8234 120.136 10.7429L118.791 11.439C118.011 11.8442 117.437 12.0936 117.437 12.0105C117.437 11.9481 117.529 11.3455 117.642 10.691C117.755 10.0364 117.847 9.39228 117.847 9.25721C117.847 9.10137 117.509 8.69617 116.77 7.95851C116.174 7.37669 115.702 6.88838 115.723 6.87799C115.733 6.8676 116.41 6.75332 117.231 6.63903C118.052 6.51436 118.73 6.40007 118.73 6.40007Z" fill="#1C6FD1"/>
<path d="M107.472 28.1559C107.462 28.052 107.564 27.8338 107.688 27.6884C107.852 27.4702 107.995 27.4079 108.314 27.4079C108.611 27.4079 108.755 27.4702 108.868 27.6468C108.95 27.7715 109.022 27.9897 109.022 28.1144C109.022 28.3325 108.981 28.3429 108.252 28.3429C107.575 28.3429 107.482 28.3221 107.472 28.1559Z" fill="#1C6FD1"/>
<path d="M98.8516 28.8728C98.8516 28.0416 98.8824 27.8131 99.0158 27.678C99.1082 27.5845 99.3647 27.5118 99.5905 27.5118C99.8779 27.5118 100.042 27.5741 100.175 27.7507C100.278 27.8754 100.391 28.1975 100.432 28.4468C100.483 28.7377 100.473 29.1014 100.401 29.3819C100.329 29.6416 100.206 29.9325 100.104 30.0364C100.011 30.1403 99.7958 30.2234 99.6316 30.2234C99.4571 30.2234 99.2211 30.1507 99.0877 30.0572C98.8824 29.9221 98.8619 29.8286 98.8516 28.8728Z" fill="#1C6FD1"/>
<path d="M93.8539 29.3611C93.9257 29.2572 94.1207 29.1325 94.2951 29.0806C94.4593 29.0286 94.7262 28.9871 94.8801 28.9767C95.1572 28.9663 95.1674 28.9871 95.1674 29.5377C95.1674 30.078 95.1469 30.1195 94.8596 30.265C94.6851 30.3585 94.4696 30.4208 94.367 30.4208C94.2746 30.4312 94.0899 30.3585 93.9565 30.265C93.8128 30.1715 93.7307 30.0053 93.7307 29.8286C93.7307 29.6728 93.782 29.4546 93.8539 29.3611Z" fill="#1C6FD1"/>
<path d="M119.766 29.3611C119.869 29.2676 120.084 29.1429 120.259 29.0806C120.423 29.0286 120.69 28.9871 120.844 28.9767C121.111 28.9663 121.131 28.9975 121.131 29.3819C121.131 29.6105 121.08 29.891 121.029 30.0053C120.967 30.1195 120.772 30.265 120.587 30.3273C120.413 30.3793 120.167 30.4001 120.054 30.3585C119.941 30.3169 119.787 30.2131 119.725 30.1195C119.653 30.026 119.592 29.8598 119.592 29.7455C119.592 29.6312 119.664 29.465 119.766 29.3611Z" fill="#1C6FD1"/>
<path d="M149.291 8.87265L150.266 7.86486C150.8 7.30382 151.251 6.84668 151.261 6.84668C151.282 6.84668 151.292 6.85707 151.292 6.87785C151.292 6.88824 150.841 7.34538 149.291 8.87265Z" fill="#E14748"/>
<path d="M176.024 8.82071C175.994 8.82071 175.532 8.37395 174.998 7.83369C174.465 7.29343 174.064 6.84668 174.105 6.84668C174.146 6.84668 174.608 7.29343 175.132 7.83369C175.655 8.37395 176.055 8.82071 176.024 8.82071Z" fill="#E14748"/>
<path d="M186.492 8.71681C186.461 8.71681 186.03 8.30123 185.517 7.78174C185.004 7.26226 184.635 6.84668 184.676 6.84668C184.717 6.84668 185.158 7.27265 185.651 7.78174C186.143 8.30123 186.523 8.71681 186.492 8.71681Z" fill="#E14748"/>
<path d="M159.605 9.15317C159.574 9.14278 160.015 8.65447 160.58 8.09343C161.144 7.522 161.626 7.05447 161.647 7.05447C161.678 7.05447 161.236 7.53239 160.672 8.1246C160.118 8.70642 159.635 9.17395 159.605 9.15317Z" fill="#E14748"/>
<path d="M165.762 9.15317C165.731 9.17395 165.269 8.71681 164.736 8.14538L163.761 7.10642L164.787 8.11421C165.352 8.67525 165.793 9.14278 165.762 9.15317Z" fill="#E14748"/>
<path d="M170.175 9.15317C170.144 9.14278 170.544 8.70642 171.047 8.19733C171.55 7.67785 171.991 7.26226 172.012 7.26226C172.043 7.26226 171.653 7.69863 171.15 8.2285C170.637 8.74798 170.206 9.17395 170.175 9.15317Z" fill="#E14748"/>
<path d="M155.089 9.0285C155.058 9.0285 154.72 8.70642 154.32 8.30123C153.93 7.89603 153.642 7.57395 153.683 7.57395C153.735 7.57395 154.073 7.89603 154.453 8.30123C154.833 8.70642 155.12 9.0285 155.089 9.0285Z" fill="#E14748"/>
<path d="M7.37309 6.40001C7.38336 6.38962 7.70149 5.75585 8.09146 4.99741C8.57379 4.05196 8.82009 3.65715 8.88166 3.75066C8.93297 3.82338 9.24084 4.44676 9.5795 5.13248C9.91816 5.81819 10.2055 6.38962 10.2158 6.40001C10.226 6.40001 10.8931 6.51429 11.7038 6.62858C12.5043 6.75325 13.1918 6.84676 13.2226 6.84676C13.2637 6.84676 12.7916 7.36624 11.0573 9.13247L11.2933 10.6182C11.4267 11.4286 11.5191 12.1039 11.4986 12.1247C11.478 12.1351 10.8726 11.8338 8.79956 10.7533L7.46546 11.4494C6.72657 11.8338 6.11083 12.1143 6.08004 12.0831C6.04925 12.052 6.14161 11.3766 6.54184 9.13247L5.41299 8.00001C4.28413 6.86754 4.28413 6.86754 4.592 6.8052C4.76646 6.77403 5.45404 6.67014 6.13135 6.58702C6.80867 6.49351 7.37309 6.4104 7.37309 6.40001Z" fill="#00B778"/>
<path d="M17.9125 6.43118C17.9536 6.43118 18.2922 5.8078 18.6719 5.03897C19.0414 4.27014 19.38 3.65715 19.4108 3.67793C19.4416 3.69871 19.77 4.32209 20.8065 6.4104L21.6788 6.53507C22.1611 6.59741 22.8487 6.70131 23.8852 6.86754L21.6275 9.13247L21.8841 10.5766C22.0277 11.3766 22.1201 12.052 22.0893 12.0831C22.0585 12.1143 21.4428 11.8338 19.3698 10.7533L18.0665 11.4494C17.3378 11.8338 16.7221 12.1351 16.6913 12.1143C16.6605 12.1039 16.7324 11.5013 16.8452 10.7636C16.9684 10.0364 17.0607 9.35066 17.0607 9.23637C17.0607 9.1117 16.64 8.61299 15.9832 7.95845C15.388 7.37663 14.9159 6.88832 14.9262 6.87793C14.9467 6.85715 15.6035 6.75325 16.3937 6.63897C17.1839 6.52468 17.8612 6.43118 17.9125 6.43118Z" fill="#00B778"/>
<path d="M28.452 6.43118C28.5135 6.43118 28.8624 5.8078 29.2319 5.03897C29.6116 4.27014 29.9503 3.65715 29.981 3.67793C30.0118 3.69871 30.3402 4.32209 31.3767 6.4104L32.6595 6.58702C33.3676 6.68053 34.0552 6.78442 34.1989 6.81559C34.4349 6.86754 34.3733 6.95066 32.1977 9.13247L32.4543 10.639C32.5979 11.4701 32.6903 12.1455 32.6595 12.1455C32.6287 12.1455 32.0027 11.8338 29.94 10.7533L28.6367 11.4494C27.908 11.8338 27.2923 12.1351 27.2615 12.1247C27.2307 12.1039 27.3026 11.5013 27.4155 10.774C27.5386 10.0364 27.631 9.35066 27.631 9.23637C27.631 9.1117 27.2102 8.61299 26.5534 7.96884C25.9582 7.37663 25.4861 6.88832 25.4964 6.87793C25.5169 6.86754 26.1634 6.76364 26.9434 6.63897C27.7131 6.52468 28.3904 6.43118 28.452 6.43118Z" fill="#00B778"/>
<path d="M39.0016 6.43118C39.0632 6.43118 39.4327 5.79741 39.8124 5.02858C40.1921 4.25975 40.5205 3.62598 40.5513 3.62598C40.582 3.61559 40.9002 4.23897 41.9059 6.37923L43.2092 6.56624C43.9276 6.67014 44.6254 6.78442 44.7691 6.81559C45.0051 6.86754 44.9435 6.95066 42.7987 9.08053L43.0553 10.587C43.1989 11.4182 43.2913 12.1039 43.2708 12.1247C43.2503 12.1351 42.614 11.8338 40.5102 10.7533L39.2069 11.4494C38.4783 11.8338 37.8728 12.1351 37.842 12.1247C37.8112 12.1039 37.9036 11.4182 38.2833 9.08053L37.1442 7.96884C36.5079 7.35585 36.0358 6.84676 36.0974 6.84676C36.159 6.84676 36.8055 6.75325 37.5341 6.63897C38.2628 6.52468 38.9298 6.43118 39.0016 6.43118Z" fill="#00B778"/>
<path d="M49.6745 6.37923C49.7361 6.34806 50.085 5.72468 50.4236 4.97663C50.7726 4.22858 51.0804 3.62598 51.1215 3.62598C51.1523 3.62598 51.4704 4.22858 51.8296 4.97663C52.1785 5.71429 52.5274 6.34806 52.5993 6.37923C52.6608 6.4104 53.3484 6.52468 54.1078 6.63897C54.8672 6.75325 55.5035 6.86754 55.524 6.89871C55.5343 6.92988 55.052 7.42858 53.3792 9.08053L53.6357 10.587C53.7897 11.4182 53.882 12.1039 53.8513 12.1247C53.8205 12.1351 53.2047 11.8338 51.142 10.7429L49.7976 11.4494C49.069 11.8338 48.443 12.1351 48.4122 12.1247C48.3814 12.1039 48.4738 11.4182 48.8843 9.08053L47.7452 7.96884C47.1294 7.34546 46.6368 6.84676 46.6676 6.84676C46.6984 6.84676 47.3552 6.75325 48.1351 6.63897C48.9048 6.52468 49.6026 6.4104 49.6745 6.37923Z" fill="#00B778"/>
<path d="M40.3768 28.4883C40.5102 28.3533 40.7565 28.2078 40.9207 28.1558C41.0849 28.1039 41.3209 28.0831 41.4338 28.1143C41.5467 28.1351 41.7417 28.2182 41.8751 28.2805C42.0085 28.3533 42.2035 28.5922 42.3061 28.8208C42.419 29.0494 42.5114 29.4546 42.5114 29.7351C42.5114 30.0052 42.4498 30.3792 42.378 30.5662C42.3061 30.7429 42.1317 30.9818 41.988 31.0857C41.8443 31.1896 41.557 31.2623 41.2799 31.2623C41.0233 31.2623 40.7155 31.1896 40.5923 31.1065C40.4589 31.0234 40.2947 30.826 40.2126 30.6701C40.1408 30.5039 40.0484 30.2234 40.0074 30.0468C39.9766 29.8597 39.9868 29.4857 40.0484 29.2156C40.0997 28.9351 40.2537 28.613 40.3768 28.4883Z" fill="#00B778"/>
<path d="M49.9105 28.3429C50.0439 28.2494 50.2492 28.1455 50.3621 28.1143C50.4749 28.0935 50.6289 28.0831 50.7007 28.1039C50.7623 28.1247 50.8957 28.1455 50.9778 28.1455C51.0599 28.1455 51.2754 28.2597 51.4396 28.4052C51.6551 28.5922 51.7783 28.8208 51.8706 29.2156C51.963 29.6416 51.963 29.8597 51.8501 30.2234C51.7783 30.4831 51.5935 30.8156 51.4293 30.9818C51.2036 31.2104 51.0599 31.2623 50.6494 31.2623C50.3723 31.2623 50.0645 31.1896 49.9516 31.0961C49.8387 31.013 49.6642 30.8156 49.5719 30.6597C49.4487 30.4727 49.3871 30.1714 49.3871 29.7351C49.3871 29.3714 49.4487 28.9559 49.5308 28.8C49.6026 28.6338 49.7771 28.4364 49.9105 28.3429Z" fill="#00B778"/>
<path d="M145.402 6.40011C145.412 6.38972 145.73 5.77673 146.11 5.04946C146.5 4.3118 146.828 3.72998 146.838 3.75076C146.859 3.77154 147.146 4.36375 147.495 5.08063C147.844 5.79751 148.142 6.38972 148.142 6.40011C148.152 6.40011 148.819 6.5144 149.63 6.62868C150.43 6.75336 151.118 6.84686 151.149 6.84686C151.19 6.84686 150.728 7.34556 149.045 9.08063L149.291 10.5352C149.435 11.3352 149.548 12.0209 149.548 12.0624C149.548 12.1144 148.963 11.8443 148.244 11.4702C147.516 11.0962 146.859 10.7949 146.777 10.7949C146.695 10.7949 146.058 11.1066 145.371 11.4702C144.673 11.8443 144.109 12.1144 144.109 12.0624C144.109 12.0209 144.221 11.3352 144.601 9.08063L143.462 7.96894C142.826 7.35595 142.364 6.85725 142.415 6.84686C142.467 6.84686 143.164 6.75336 143.955 6.62868C144.745 6.5144 145.391 6.4105 145.402 6.40011Z" fill="#F24C2C"/>
<path d="M155.941 6.43128C155.982 6.43128 156.31 5.82868 156.68 5.08063C157.049 4.33258 157.368 3.72998 157.398 3.72998C157.429 3.72998 157.716 4.30141 158.045 4.99751C158.373 5.70401 158.681 6.3066 158.732 6.34816C158.794 6.38972 159.482 6.5144 160.272 6.63907C161.062 6.75336 161.719 6.86764 161.739 6.87803C161.75 6.88842 161.277 7.38712 159.615 9.08063L159.872 10.5352C160.005 11.3352 160.118 12.0209 160.118 12.0624C160.118 12.1144 159.543 11.8443 158.835 11.4702C158.127 11.0962 157.48 10.7949 157.398 10.7949C157.316 10.7949 156.67 11.0962 155.962 11.4702C155.253 11.8443 154.679 12.1144 154.679 12.0624C154.679 12.0209 154.792 11.3352 155.182 9.08063L154.032 7.95855C153.396 7.34556 152.955 6.84686 153.037 6.84686C153.119 6.84686 153.786 6.75336 154.525 6.63907C155.264 6.52479 155.89 6.43128 155.941 6.43128Z" fill="#F24C2C"/>
<path d="M166.665 6.24427C166.737 6.15076 167.055 5.53777 167.373 4.89362C167.681 4.25985 167.958 3.72998 167.979 3.72998C167.999 3.72998 168.317 4.33258 168.687 5.08063C169.056 5.82868 169.385 6.43128 169.436 6.43128C169.477 6.43128 170.103 6.52479 170.842 6.63907C171.581 6.75336 172.238 6.84686 172.309 6.84686C172.371 6.84686 171.93 7.34556 170.185 9.08063L170.431 10.5352C170.575 11.3352 170.688 12.0209 170.688 12.0624C170.688 12.1144 170.113 11.8443 169.405 11.4702C168.697 11.0962 168.051 10.7949 167.969 10.7949C167.886 10.7949 167.24 11.0962 166.532 11.4702C165.824 11.8443 165.249 12.1144 165.249 12.0624C165.249 12.0209 165.362 11.3352 165.752 9.08063L164.674 8.0105C164.089 7.42868 163.617 6.92998 163.638 6.89881C163.648 6.87803 164.305 6.76375 165.095 6.63907C166.162 6.48323 166.563 6.37933 166.665 6.24427Z" fill="#F24C2C"/>
<path d="M177.205 6.32738C177.256 6.28582 177.584 5.67284 177.923 4.98712C178.262 4.30141 178.57 3.77154 178.6 3.8131C178.641 3.85466 178.959 4.45725 179.319 5.16375C179.678 5.87024 179.975 6.44167 179.975 6.43128L181.412 6.63907C182.202 6.75336 182.9 6.84686 182.952 6.84686C183.003 6.84686 182.541 7.35595 180.755 9.08063L181.012 10.5352C181.145 11.3352 181.258 12.0209 181.258 12.0624C181.258 12.1144 180.684 11.8443 179.975 11.4702C179.267 11.0962 178.621 10.7949 178.539 10.7949C178.457 10.7949 177.81 11.0962 177.102 11.4702C176.394 11.8443 175.819 12.1144 175.819 12.0624C175.819 12.0209 175.932 11.3352 176.312 9.08063L175.224 7.95855C174.619 7.34556 174.157 6.84686 174.208 6.84686C174.249 6.84686 174.916 6.75336 175.696 6.63907C176.466 6.5144 177.153 6.37933 177.205 6.32738Z" fill="#F24C2C"/>
<path d="M187.672 6.43128C187.724 6.43128 188.072 5.82868 188.432 5.08063C188.801 4.34297 189.119 3.72998 189.15 3.72998C189.181 3.72998 189.509 4.33258 189.879 5.08063L190.546 6.43128C190.546 6.43128 191.213 6.52479 192.034 6.63907C192.855 6.76375 193.532 6.86764 193.553 6.87803C193.563 6.88842 193.07 7.38712 191.336 9.08063L191.582 10.4832C191.716 11.2521 191.828 11.9482 191.828 12.0105C191.828 12.0936 191.285 11.8547 190.576 11.4702C189.879 11.1066 189.242 10.7949 189.16 10.7949C189.078 10.7949 188.421 11.0962 187.703 11.4702C186.974 11.8443 186.389 12.1144 186.389 12.0624C186.389 12.0209 186.502 11.3352 186.903 9.08063L185.804 7.95855C185.189 7.34556 184.747 6.84686 184.799 6.84686C184.85 6.84686 185.497 6.75336 186.235 6.63907C186.974 6.52479 187.621 6.43128 187.672 6.43128Z" fill="#F24C2C"/>
<path fill-rule="evenodd" clip-rule="evenodd" d="M120.249 3.72998C120.279 3.72998 120.464 4.05206 120.659 4.45725C120.854 4.86245 121.008 5.20531 120.998 5.23647C120.977 5.25725 120.792 4.93518 120.587 4.5092C120.372 4.08323 120.218 3.72998 120.249 3.72998ZM77.3725 4.41569C77.393 4.43647 77.198 4.87284 76.9415 5.39232C76.6849 5.9118 76.4489 6.34816 76.4078 6.36894C76.3565 6.38972 76.5515 5.95336 76.8286 5.39232C77.1159 4.83128 77.352 4.38453 77.3725 4.41569V4.41569ZM4.26355 6.84686C4.3046 6.84686 4.65352 7.17933 5.03322 7.57414C5.41293 7.97933 5.70028 8.30141 5.66949 8.30141C5.6387 8.30141 5.28978 7.97933 4.89981 7.57414C4.49958 7.16894 4.2225 6.84686 4.26355 6.84686ZM13.3355 6.84686C13.356 6.84686 13.3662 6.85725 13.3662 6.87803C13.3662 6.88842 13.0584 7.20011 11.9808 8.24946L12.6479 7.55336C13.0071 7.15855 13.3252 6.84686 13.3355 6.84686ZM23.9057 6.84686C23.9262 6.84686 23.9365 6.85725 23.9365 6.87803C23.9365 6.88842 23.5054 7.32479 22.0379 8.76894L22.9615 7.8131C23.4644 7.28323 23.8954 6.84686 23.9057 6.84686ZM34.4759 6.84686C34.4964 6.84686 34.5067 6.85725 34.5067 6.87803C34.5067 6.88842 34.0551 7.34556 32.5055 8.87284L33.4804 7.86505C34.0141 7.30401 34.4656 6.84686 34.4759 6.84686ZM45.0461 6.84686C45.0666 6.84686 45.0769 6.85725 45.0769 6.87803C45.0769 6.88842 44.5535 7.41829 42.7679 9.18453L43.8967 8.02089C44.5125 7.37673 45.0358 6.84686 45.0461 6.84686ZM82.3292 6.84686C82.3497 6.84686 81.8777 7.34556 81.2722 7.96894C80.3999 8.85206 80.1741 9.14297 80.1433 9.70401L80.1023 9.39232C80.0612 9.1118 80.1741 8.96634 81.1696 7.96894C81.775 7.34556 82.2984 6.84686 82.3292 6.84686ZM83.8173 6.79492L84.9769 7.93777C85.8697 8.83128 86.1263 9.13258 86.0955 9.60011L86.0544 9.34037C86.0237 9.18453 85.5516 8.60271 84.9153 7.93777L83.8173 6.79492ZM92.8892 6.84686C92.9199 6.84686 92.4479 7.34556 91.8424 7.96894C91.0727 8.73777 90.7341 9.16375 90.7135 9.60011L90.6725 9.34037C90.6314 9.12219 90.8059 8.89362 91.7295 7.96894C92.3453 7.34556 92.8686 6.84686 92.8892 6.84686V6.84686ZM94.3875 6.79492L95.5368 7.93777C96.5323 8.92479 96.6965 9.12219 96.6657 9.70401L96.6247 9.39232C96.5939 9.16375 96.2757 8.76894 95.4855 7.93777L94.3875 6.79492ZM105.04 6.84686C105.081 6.84686 105.543 7.29362 106.066 7.83388C106.579 8.37414 106.979 8.82089 106.959 8.82089C106.928 8.82089 106.466 8.37414 105.933 7.83388C105.389 7.29362 104.988 6.84686 105.04 6.84686ZM115.61 6.84686C115.651 6.84686 116.092 7.27284 116.585 7.78193C117.067 8.30141 117.447 8.71699 117.426 8.71699C117.396 8.71699 116.954 8.30141 116.452 7.78193C115.938 7.26245 115.559 6.84686 115.61 6.84686ZM46.8728 7.1066L47.8683 8.09362C48.4224 8.63388 48.8637 9.15336 48.8637 9.23647C48.8534 9.37154 48.8432 9.37154 48.8021 9.23647C48.7713 9.15336 48.3198 8.63388 47.8067 8.09362L46.8728 7.1066ZM73.5549 7.1066L74.5606 8.09362C75.1045 8.63388 75.5561 9.15336 75.5458 9.23647C75.5355 9.37154 75.5355 9.37154 75.4842 9.23647C75.4534 9.15336 75.0122 8.63388 74.4888 8.09362L73.5549 7.1066ZM55.2366 7.26245C55.2674 7.26245 54.8877 7.66764 54.3951 8.17673C53.9025 8.67543 53.492 9.17414 53.4715 9.49621L53.4202 9.28842C53.3894 9.13258 53.6049 8.85206 54.2822 8.17673C54.7748 7.66764 55.2058 7.26245 55.2366 7.26245V7.26245ZM103.059 7.26245C103.09 7.26245 102.71 7.66764 102.218 8.17673C101.725 8.67543 101.315 9.15336 101.315 9.23647C101.304 9.37154 101.294 9.37154 101.253 9.23647C101.212 9.13258 101.52 8.74816 102.105 8.17673C102.597 7.66764 103.028 7.26245 103.059 7.26245V7.26245ZM113.609 7.26245C113.619 7.26245 113.629 7.27284 113.629 7.29362C113.629 7.30401 113.229 7.7092 111.833 9.08063L112.706 8.17673C113.188 7.66764 113.588 7.26245 113.609 7.26245ZM118.432 11.6261C118.442 11.6261 118.453 11.6469 118.453 11.678C118.453 11.7092 118.227 11.8443 117.94 11.9897C117.662 12.1352 117.406 12.2495 117.375 12.2495C117.355 12.2495 117.334 12.1456 117.334 12.0209C117.344 11.8339 117.355 11.8131 117.416 11.9586C117.478 12.104 117.529 12.104 117.94 11.8858C118.196 11.7508 118.412 11.6365 118.432 11.6261V11.6261ZM106.856 12.1456L107.267 11.9378C107.492 11.8235 107.677 11.7508 107.677 11.7819C107.677 11.8131 107.492 11.9274 107.267 12.0417C107.041 12.156 106.836 12.2495 106.805 12.2495C106.784 12.2495 106.764 12.1248 106.774 11.9689C106.784 11.73 106.795 11.7196 106.856 12.1456ZM94.9519 28.904C95.1982 28.9248 95.2085 28.9663 95.229 30.0676L95.1982 29.517C95.1674 29.0495 95.1264 28.9663 94.9314 28.9352C94.7364 28.8936 94.7467 28.8936 94.9519 28.904V28.904Z" fill="#69C3EA"/>
<path fill-rule="evenodd" clip-rule="evenodd" d="M157.193 3.70911C157.131 3.85456 157.152 3.86495 157.285 3.76106C157.429 3.64677 157.501 3.72989 157.86 4.43638C158.076 4.87274 158.26 5.20521 158.271 5.16365C158.271 5.11171 158.096 4.72729 157.891 4.30132C157.675 3.87534 157.45 3.52209 157.378 3.52209C157.316 3.52209 157.234 3.60521 157.193 3.70911ZM167.722 3.813C167.661 3.96885 167.63 4.1143 167.661 4.14547C167.691 4.17664 167.712 4.15586 167.712 4.09352C167.712 4.04158 167.773 3.89612 167.856 3.78183C167.989 3.58443 168.02 3.62599 168.41 4.40521C168.646 4.86235 168.831 5.20521 168.841 5.16365C168.841 5.11171 168.666 4.72729 168.461 4.30132C168.246 3.87534 168.02 3.52209 167.958 3.52209C167.897 3.52209 167.784 3.64677 167.722 3.813V3.813ZM236.182 4.92469C235.803 5.69352 235.423 6.33768 235.341 6.36885C235.228 6.40002 235.228 6.41041 235.361 6.4208C235.495 6.43119 235.731 6.06755 236.223 5.05976C236.603 4.30132 236.962 3.64677 237.024 3.60521C237.106 3.54287 237.096 3.52209 237.003 3.52209C236.942 3.52209 236.572 4.15586 236.182 4.92469V4.92469ZM247.512 3.60521C247.573 3.64677 247.933 4.30132 248.312 5.05976C248.805 6.06755 249.041 6.43119 249.164 6.4208C249.308 6.41041 249.308 6.40002 249.195 6.36885C249.113 6.33768 248.733 5.69352 248.343 4.92469C247.963 4.15586 247.594 3.52209 247.522 3.52209C247.44 3.52209 247.43 3.54287 247.512 3.60521V3.60521ZM188.257 5.13248C187.96 5.73508 187.744 6.22339 187.775 6.22339C187.806 6.22339 188.052 5.75586 188.339 5.18443C188.616 4.613 188.842 4.12469 188.822 4.09352C188.801 4.07274 188.555 4.54028 188.257 5.13248ZM225.509 5.13248C225.212 5.73508 224.996 6.22339 225.027 6.22339C225.058 6.22339 225.304 5.75586 225.592 5.18443C225.869 4.613 226.094 4.12469 226.074 4.09352C226.053 4.07274 225.807 4.54028 225.509 5.13248ZM237.958 5.49612C238.214 6.0156 238.481 6.43119 238.543 6.43119C238.635 6.43119 238.645 6.41041 238.563 6.34807C238.502 6.30651 238.255 5.89093 238.019 5.42339C237.793 4.94547 237.578 4.56106 237.547 4.56106C237.516 4.56106 237.701 4.98703 237.958 5.49612V5.49612ZM51.9527 5.11171C51.9527 5.15326 52.0963 5.46495 52.2605 5.80781C52.435 6.15067 52.63 6.43119 52.7018 6.43119C52.7839 6.43119 52.7942 6.41041 52.7121 6.34807C52.6505 6.30651 52.4555 5.99482 52.2811 5.65196C52.1066 5.30911 51.9629 5.05976 51.9527 5.11171V5.11171ZM258.954 5.11171C258.944 5.15326 259.078 5.46495 259.252 5.80781C259.457 6.23378 259.621 6.43119 259.745 6.4208C259.878 6.41041 259.878 6.40002 259.765 6.36885C259.683 6.34807 259.468 6.03638 259.283 5.67274C259.108 5.3195 258.954 5.05976 258.954 5.11171V5.11171ZM246.342 5.75586C246.188 6.06755 245.993 6.34807 245.911 6.36885C245.798 6.40002 245.798 6.41041 245.942 6.4208C246.055 6.43119 246.209 6.23378 246.414 5.80781C246.578 5.46495 246.691 5.18443 246.67 5.18443C246.65 5.18443 246.496 5.44417 246.342 5.75586V5.75586ZM25.4348 6.82599C25.404 6.86755 25.8555 7.36625 26.4302 7.93768L27.477 8.97664C25.7221 7.17924 25.4655 6.84677 25.5784 6.8156C25.6605 6.78443 25.6811 6.75326 25.6092 6.75326C25.5374 6.74287 25.4655 6.77404 25.4348 6.82599V6.82599ZM36.005 6.82599C35.9742 6.86755 36.4052 7.34547 36.9491 7.88573L37.9446 8.87274C36.2821 7.15846 36.0358 6.84677 36.1486 6.8156C36.2307 6.78443 36.2513 6.75326 36.1794 6.75326C36.1076 6.74287 36.0358 6.77404 36.005 6.82599V6.82599ZM46.5752 6.82599C46.5444 6.86755 46.9754 7.34547 47.5193 7.88573L48.5148 8.87274C46.8523 7.15846 46.606 6.84677 46.7189 6.8156C46.801 6.78443 46.8215 6.75326 46.7496 6.75326C46.6778 6.74287 46.606 6.77404 46.5752 6.82599V6.82599ZM55.5445 6.8156C55.6574 6.84677 55.4111 7.15846 54.7235 7.87534L53.7486 8.87274C55.2879 7.34547 55.7189 6.86755 55.6984 6.82599C55.6676 6.77404 55.5855 6.74287 55.524 6.75326C55.4419 6.75326 55.4521 6.78443 55.5445 6.8156V6.8156ZM73.2573 6.82599C73.2265 6.86755 73.6575 7.34547 74.2014 7.88573L75.1969 8.87274C73.5344 7.15846 73.2881 6.84677 73.401 6.8156C73.4831 6.78443 73.5036 6.75326 73.4317 6.75326C73.3599 6.74287 73.2881 6.77404 73.2573 6.82599V6.82599ZM83.8275 6.82599C83.7967 6.86755 84.1354 7.25196 84.5664 7.67794L85.3566 8.45716C84.0328 7.08573 83.8583 6.85716 83.9712 6.8156C84.0533 6.78443 84.0738 6.75326 84.002 6.75326C83.9301 6.74287 83.8583 6.77404 83.8275 6.82599V6.82599ZM92.7968 6.8156C92.9097 6.85716 92.7352 7.08573 92.1811 7.65716L91.4114 8.45716C92.6326 7.25196 92.9713 6.86755 92.9507 6.82599C92.9199 6.77404 92.8378 6.74287 92.7763 6.75326C92.6942 6.75326 92.7044 6.78443 92.7968 6.8156V6.8156ZM103.367 6.8156C103.48 6.84677 103.234 7.15846 102.546 7.87534L101.571 8.87274C103.11 7.34547 103.541 6.86755 103.521 6.82599C103.49 6.77404 103.408 6.74287 103.346 6.75326C103.264 6.75326 103.275 6.78443 103.367 6.8156V6.8156ZM113.937 6.8156C114.05 6.84677 113.804 7.15846 113.116 7.87534L112.141 8.87274C113.681 7.34547 114.112 6.86755 114.091 6.82599C114.06 6.77404 113.978 6.74287 113.917 6.75326C113.835 6.75326 113.845 6.78443 113.937 6.8156V6.8156ZM151.138 6.8156C151.313 6.85716 151.19 7.02339 150.369 7.86495L149.394 8.87274C150.933 7.34547 151.364 6.86755 151.343 6.82599C151.313 6.77404 151.21 6.75326 151.118 6.75326C150.964 6.76365 150.974 6.77404 151.138 6.8156V6.8156ZM161.76 6.8156C161.873 6.84677 161.585 7.21041 160.785 8.03119L159.656 9.18443C161.442 7.4182 161.934 6.86755 161.914 6.82599C161.883 6.77404 161.801 6.74287 161.739 6.75326C161.657 6.75326 161.667 6.78443 161.76 6.8156V6.8156ZM163.463 6.82599C163.433 6.86755 163.925 7.4182 164.561 8.04158L165.711 9.18443C163.648 7.05456 163.484 6.85716 163.658 6.8156C163.812 6.77404 163.822 6.76365 163.689 6.75326C163.597 6.75326 163.494 6.77404 163.463 6.82599V6.82599ZM172.33 6.8156C172.443 6.84677 172.156 7.21041 171.355 8.03119L170.226 9.18443C172.012 7.4182 172.504 6.86755 172.484 6.82599C172.453 6.77404 172.371 6.74287 172.309 6.75326C172.227 6.75326 172.238 6.78443 172.33 6.8156V6.8156ZM174.034 6.82599C174.003 6.86755 174.454 7.36625 175.029 7.93768L176.076 8.97664C174.187 7.03378 174.054 6.85716 174.229 6.8156C174.382 6.77404 174.393 6.76365 174.259 6.75326C174.167 6.75326 174.064 6.77404 174.034 6.82599V6.82599ZM184.604 6.82599C184.573 6.86755 185.004 7.34547 185.548 7.88573L186.543 8.87274C184.747 7.02339 184.624 6.85716 184.799 6.8156C184.953 6.77404 184.963 6.76365 184.83 6.75326C184.737 6.75326 184.635 6.77404 184.604 6.82599V6.82599ZM211.224 6.82599C211.224 6.86755 211.748 7.4182 212.374 8.04158L213.533 9.18443C211.471 7.05456 211.306 6.85716 211.481 6.8156C211.666 6.77404 211.666 6.76365 211.46 6.75326C211.327 6.75326 211.224 6.77404 211.224 6.82599V6.82599ZM221.856 6.82599C221.825 6.86755 222.277 7.36625 222.852 7.93768L223.898 8.97664C222.01 7.03378 221.877 6.85716 222.051 6.8156C222.205 6.77404 222.215 6.76365 222.082 6.75326C221.989 6.75326 221.887 6.77404 221.856 6.82599V6.82599ZM232.426 6.82599C232.395 6.86755 232.847 7.36625 233.422 7.93768L234.468 8.97664C232.58 7.03378 232.447 6.85716 232.621 6.8156C232.775 6.77404 232.785 6.76365 232.652 6.75326C232.56 6.75326 232.457 6.77404 232.426 6.82599V6.82599ZM241.344 6.8156C241.519 6.85716 241.396 7.02339 240.575 7.86495L239.6 8.87274C241.139 7.34547 241.57 6.86755 241.549 6.82599C241.519 6.77404 241.416 6.75326 241.324 6.75326C241.17 6.76365 241.18 6.77404 241.344 6.8156V6.8156ZM242.996 6.82599C242.966 6.86755 243.397 7.34547 243.941 7.88573L244.936 8.87274C243.14 7.02339 243.017 6.85716 243.191 6.8156C243.345 6.77404 243.356 6.76365 243.222 6.75326C243.13 6.75326 243.027 6.77404 242.996 6.82599V6.82599ZM251.914 6.8156C252.089 6.85716 251.955 7.03378 251.093 7.9169L250.067 8.97664C251.689 7.36625 252.14 6.86755 252.12 6.82599C252.089 6.77404 251.986 6.75326 251.894 6.75326C251.74 6.76365 251.75 6.77404 251.914 6.8156V6.8156ZM262.485 6.8156C262.659 6.85716 262.526 7.03378 261.664 7.9169L260.637 8.97664C262.259 7.36625 262.71 6.86755 262.69 6.82599C262.659 6.77404 262.557 6.75326 262.464 6.75326C262.31 6.76365 262.32 6.77404 262.485 6.8156V6.8156ZM154.032 8.09352C154.566 8.65456 154.987 9.19482 155.017 9.34028L155.058 9.60002C155.089 9.14287 154.863 8.86235 154.094 8.09352L153.088 7.10651L154.032 8.09352ZM16.0858 8.19742C16.5989 8.7169 17.0299 9.13248 17.0607 9.13248C17.0915 9.13248 16.7118 8.7169 16.2192 8.19742C15.7266 7.68833 15.2956 7.26235 15.2443 7.26235C15.2032 7.26235 15.5829 7.67794 16.0858 8.19742ZM123.327 8.22859L122.404 9.18443C123.881 7.74028 124.302 7.30391 124.302 7.29352C124.302 7.27274 124.292 7.26235 124.282 7.26235C124.261 7.26235 123.83 7.69872 123.327 8.22859ZM143.513 8.14547C144.006 8.66495 144.427 9.17404 144.447 9.28833L144.498 9.49612C144.519 9.15326 144.191 8.74807 143.575 8.14547L142.62 7.21041L143.513 8.14547ZM181.741 8.17664C181.002 8.92469 180.848 9.12209 180.889 9.34028L180.93 9.60002C180.95 9.16365 181.248 8.78963 181.853 8.17664C182.346 7.66755 182.726 7.26235 182.695 7.26235C182.664 7.26235 182.243 7.66755 181.741 8.17664V8.17664ZM218.993 8.17664L218.09 9.08054C218.459 11.2104 218.582 11.813 218.603 11.8026C218.623 11.7922 218.531 11.1792 218.408 10.4312L218.182 9.08054C219.054 8.28054 219.455 7.86495 219.639 7.65716C219.814 7.43898 219.947 7.26235 219.937 7.26235C219.916 7.26235 219.496 7.66755 218.993 8.17664ZM229.409 8.38443L228.65 9.08054L228.875 10.0156C228.783 9.14287 228.793 9.12209 229.522 8.40521C229.933 8.01041 230.24 7.68833 230.22 7.68833C230.189 7.68833 229.82 8.00002 229.409 8.38443ZM255.024 8.39482C255.753 9.12209 255.773 9.14287 255.722 9.57924L255.67 10.0156C255.835 9.37145 255.855 9.14287 255.835 9.08054C255.814 9.02859 255.455 8.67534 255.044 8.3117L254.285 7.65716L255.024 8.39482ZM178.138 10.9611C177.974 11.0442 177.841 11.1377 177.851 11.1585C177.861 11.1896 178.026 11.1377 178.21 11.0442C178.528 10.8779 178.559 10.8883 179.185 11.2C179.534 11.3766 179.832 11.5013 179.821 11.4701C179.821 11.439 179.544 11.2727 179.206 11.1065C178.867 10.9299 178.559 10.7948 178.518 10.7948C178.467 10.8052 178.303 10.8675 178.138 10.9611ZM214.601 11.3974C213.995 11.7195 213.461 12.0312 213.42 12.0831C213.369 12.1351 213.882 11.8857 214.56 11.5221L215.791 10.8779C218.357 12.2182 218.623 12.3221 218.695 12.1974C218.736 12.1143 218.736 12 218.685 11.9585C218.644 11.9169 218.613 11.9688 218.613 12.0624C218.613 12.2078 218.336 12.1039 217.228 11.5221C216.468 11.1169 215.812 10.7948 215.77 10.8052C215.719 10.8052 215.196 11.0753 214.601 11.3974V11.3974ZM225.273 11.3455C224.719 11.6468 224.237 11.9273 224.196 11.9792C224.145 12.0312 224.617 11.8026 225.232 11.4805L226.361 10.8779C227.357 11.3766 227.654 11.5013 227.644 11.4701C227.644 11.439 227.367 11.2727 227.028 11.1065C226.69 10.9299 226.382 10.7948 226.341 10.8052C226.289 10.8052 225.817 11.0546 225.273 11.3455ZM238.214 11.5221C238.974 11.9273 239.61 12.239 239.62 12.2286C239.63 12.2078 239.056 11.8857 238.337 11.5013C237.619 11.1169 236.993 10.7948 236.931 10.7948C236.88 10.7948 237.455 11.1273 238.214 11.5221ZM247.45 10.826C247.481 10.8572 247.933 11.0857 248.456 11.3559C248.969 11.6156 249.4 11.813 249.4 11.7818C249.4 11.7507 248.99 11.5221 248.477 11.2624C247.974 11.0026 247.522 10.7948 247.481 10.7948C247.43 10.7844 247.42 10.8052 247.45 10.826V10.826ZM257.364 11.1688C256.974 11.3663 256.656 11.5429 256.666 11.574C256.676 11.6052 257.025 11.4598 257.436 11.252C257.836 11.0442 258.195 10.8572 258.216 10.8364C258.246 10.8156 258.216 10.7948 258.164 10.7948C258.113 10.8052 257.754 10.9611 257.364 11.1688V11.1688ZM246.065 11.5637C245.008 12.1455 244.823 12.2078 244.762 12.0624C244.71 11.9169 244.69 11.9273 244.69 12.1143C244.68 12.2494 244.7 12.3533 244.731 12.3533C244.762 12.3533 245.357 12.052 246.065 11.6779C246.773 11.3039 247.348 10.9818 247.348 10.9507C247.348 10.9195 247.337 10.8987 247.327 10.8987C247.307 10.8987 246.742 11.2 246.065 11.5637V11.5637ZM258.534 11.0546C258.534 11.0857 258.954 11.3143 259.457 11.574C259.97 11.8338 260.381 12.0208 260.381 11.9896C260.381 11.9585 259.97 11.7299 259.457 11.4701C258.954 11.2104 258.534 11.0234 258.534 11.0546ZM255.968 11.9273C255.465 12.1974 255.393 12.2078 255.332 12.052C255.281 11.9169 255.26 11.9377 255.26 12.1143C255.25 12.2494 255.27 12.3533 255.301 12.3533C255.332 12.3533 255.629 12.2078 255.968 12.0416C256.307 11.865 256.584 11.7091 256.584 11.6779C256.584 11.6468 256.574 11.626 256.563 11.626C256.543 11.6364 256.276 11.7714 255.968 11.9273V11.9273ZM228.157 11.7818C228.157 11.813 228.393 11.9481 228.67 12.0935C228.958 12.239 229.204 12.3533 229.235 12.3533C229.265 12.3533 229.286 12.2494 229.276 12.1143C229.265 11.9481 229.255 11.9377 229.224 12.0624C229.183 12.2286 229.142 12.2286 228.67 11.9896C228.393 11.8442 228.167 11.7507 228.157 11.7818ZM257.764 25.8494C258.051 25.8909 258.431 25.9948 258.616 26.0987C258.79 26.1922 259.057 26.4727 259.201 26.7117C259.344 26.9611 259.457 27.1065 259.457 27.0546C259.457 26.9922 259.344 26.774 259.201 26.5559C259.057 26.3481 258.759 26.0779 258.534 25.9637C258.298 25.839 257.949 25.7663 257.692 25.7663L257.251 25.787L257.764 25.8494ZM222.267 25.9117C222.215 25.9533 222.184 26.3896 222.205 26.8883L222.246 27.7714L222.359 26.0052C223.365 26.0052 223.58 26.0675 223.765 26.213L224.001 26.4208C223.58 25.9637 223.406 25.9013 222.944 25.8701C222.626 25.8494 222.318 25.8701 222.267 25.9117ZM228.527 25.9117C228.475 25.9533 228.444 26.3896 228.465 26.8883L228.506 27.7714L228.619 26.0052C229.625 26.0052 229.84 26.0675 230.025 26.213L230.261 26.4208C229.84 25.9637 229.666 25.9013 229.204 25.8701C228.886 25.8494 228.578 25.8701 228.527 25.9117ZM256.769 26.0468C256.615 26.1507 256.368 26.3896 256.225 26.587C256.081 26.7844 255.968 27.013 255.968 27.0961C255.978 27.1896 256.04 27.1169 256.112 26.9403C256.194 26.774 256.389 26.5143 256.543 26.3585C256.707 26.213 256.933 26.0364 257.046 25.974C257.159 25.9117 257.21 25.8598 257.148 25.8598C257.097 25.8598 256.922 25.9429 256.769 26.0468V26.0468ZM215.791 27.0442C215.709 27.252 215.565 27.574 215.483 27.7714C215.401 27.9792 215.36 28.1663 215.411 28.1974C215.452 28.2286 215.75 28.2494 216.078 28.2494C216.396 28.2494 216.663 28.2078 216.663 28.1663C216.663 28.1247 216.386 28.1039 216.048 28.1143L215.432 28.1351C215.853 27.1377 216.017 26.8052 216.089 26.7637C216.171 26.7117 216.16 26.6909 216.068 26.6909C215.996 26.6805 215.873 26.8468 215.791 27.0442V27.0442ZM259.457 27.6156C259.457 27.8442 259.385 28.2078 259.293 28.426C259.201 28.6442 258.985 28.9455 258.811 29.1117C258.575 29.3299 258.544 29.3818 258.718 29.2987C258.842 29.2364 259.067 28.987 259.232 28.7377C259.426 28.4364 259.519 28.1455 259.539 27.7507C259.56 27.4494 259.55 27.2 259.519 27.2C259.488 27.2 259.457 27.387 259.457 27.6156V27.6156ZM255.876 27.6468C255.876 27.865 255.937 28.2078 256.03 28.426C256.112 28.6442 256.266 28.9039 256.358 29.0078C256.461 29.1117 256.625 29.2468 256.738 29.2987C256.881 29.3714 256.861 29.3299 256.676 29.1637C256.522 29.0286 256.327 28.8 256.235 28.6546C256.143 28.5195 256.03 28.1455 255.978 27.8234C255.907 27.3351 255.886 27.3039 255.876 27.6468V27.6468ZM107.831 28.426C108.118 28.4468 108.529 28.4468 108.755 28.426C108.981 28.4052 108.755 28.3844 108.242 28.3844C107.739 28.3844 107.554 28.4052 107.831 28.426Z" fill="#CECECE"/>
<path d="M122.968 7.96878C123.522 7.39735 123.697 7.16878 123.584 7.12722C123.461 7.08566 123.471 7.06488 123.604 7.06488C123.707 7.05449 123.789 7.08566 123.789 7.12722C123.789 7.17917 123.43 7.56358 122.198 8.76878L122.968 7.96878Z" fill="#69C3EA"/>
<path d="M52.8764 9.04945C52.8456 9.03906 53.1945 8.65464 53.6461 8.1975C54.0976 7.74036 54.4876 7.36633 54.5081 7.36633C54.5389 7.36633 54.19 7.75075 53.7384 8.22867C53.2972 8.6962 52.9072 9.07023 52.8764 9.04945Z" fill="#CECECE"/>
<path d="M51.2856 7.9169C51.2548 6.55586 51.2138 5.25716 51.1933 5.02858C51.1522 4.66495 51.2138 4.73768 52.2298 6.79482L53.3997 6.97144C54.0462 7.07534 54.5798 7.16884 54.6004 7.17923C54.6106 7.20001 54.2309 7.60521 52.8865 8.97664L53.0815 10.1195C53.1944 10.7429 53.256 11.2727 53.2355 11.2935C53.2047 11.3039 52.7634 11.1065 51.3369 10.3792L51.2856 7.9169Z" fill="white"/>
<path d="M122.25 8.5091L122.26 7.71949V6.94027L122.742 7.013C123.009 7.05456 123.338 7.1169 123.461 7.14806C123.686 7.2104 123.656 7.26235 122.25 8.5091Z" fill="white"/>
</svg>
