<svg width="128" height="35" viewBox="0 0 128 35" fill="none" xmlns="http://www.w3.org/2000/svg">
<path d="M17.8271 10.3782C22.5513 10.3782 23.8783 10.3976 24.5117 10.4768C24.9471 10.5296 25.5274 10.6288 25.7979 10.7014C26.0684 10.774 26.4115 10.88 26.5566 10.9329C26.7018 10.9857 26.9991 11.1044 27.2168 11.2034C27.4346 11.3025 27.817 11.5206 28.0742 11.679C28.3314 11.844 28.7271 12.1472 28.958 12.3518C29.1888 12.5564 29.5649 12.9722 29.7959 13.2825C30.0268 13.5928 30.3304 14.0818 30.4756 14.3723C30.6207 14.6627 30.7987 15.0916 30.8779 15.3293C30.9505 15.567 31.0634 15.9701 31.1162 16.2209C31.169 16.4719 31.2285 16.98 31.2549 17.343C31.2747 17.7061 31.2544 18.2744 31.2148 18.5979C31.1752 18.9213 31.0698 19.462 30.9775 19.7854C30.8852 20.1089 30.6801 20.6504 30.5283 20.9739C30.37 21.2972 30.1134 21.7595 29.9551 21.9973C29.7968 22.2349 29.4136 22.6904 29.1035 23.0139C28.7736 23.3572 28.2921 23.7604 27.9424 23.9915C27.6191 24.2093 27.1833 24.4596 26.9854 24.552C26.7874 24.6444 26.3716 24.8028 26.0615 24.9084C25.7515 25.0074 25.2505 25.1461 24.9404 25.2122C24.4984 25.298 24.0496 25.3245 22.8623 25.3245C21.9782 25.3245 21.1065 25.2916 20.7832 25.2454C20.4732 25.1992 20.0314 25.127 19.7939 25.094C19.5564 25.0544 18.9953 24.9357 18.54 24.8235C18.0848 24.7179 17.3917 24.5258 16.9893 24.3938C16.5867 24.2683 15.828 23.9849 15.2871 23.7737C14.7528 23.5558 13.9813 23.2186 13.5723 23.0139C13.1699 22.8093 12.5826 22.4927 12.2725 22.3079C11.9624 22.123 11.4605 21.7862 11.1504 21.5618C10.8403 21.3439 10.5109 21.0664 10.4053 20.9475C10.3064 20.8354 10.2268 20.6907 10.2266 20.6311C10.2266 20.5652 10.2596 20.4726 10.3057 20.4329C10.365 20.3668 10.9063 20.3469 12.5488 20.3469C13.8346 20.3469 14.778 20.3201 14.8779 20.2805C14.9835 20.2409 15.043 20.162 15.043 20.0696C15.0495 19.9838 14.9966 19.8712 14.9307 19.8118C14.8624 19.7512 14.2632 19.4218 13.5918 19.0793C12.919 18.7295 11.9229 18.1883 11.3818 17.8713C10.8342 17.5544 10.1077 17.1117 9.76465 16.8938C9.42153 16.6693 8.86713 16.3003 8.54395 16.0627C8.21405 15.8317 7.73899 15.4686 7.48828 15.2639C7.23096 15.0527 6.8681 14.7156 6.67676 14.511C6.45248 14.2668 6.33398 14.0814 6.33398 13.9758C6.3341 13.8769 6.3938 13.7715 6.47949 13.7122C6.61187 13.6264 7.24016 13.6125 11.2168 13.6125C14.8058 13.6125 15.8283 13.5929 15.8877 13.5334C15.9338 13.4872 15.967 13.3882 15.9736 13.3157C15.9735 13.2431 15.9338 13.1512 15.8877 13.1116C15.8415 13.072 15.5053 12.9135 15.1426 12.7551C14.7797 12.6033 14.1593 12.3126 13.7568 12.1145C13.3544 11.9164 12.8391 11.6389 12.6016 11.5002C12.3641 11.3682 12.0606 11.1503 11.9287 11.0315C11.7903 10.9061 11.6853 10.7674 11.6787 10.7278C11.6789 10.6815 11.7381 10.5825 11.8105 10.51C11.9424 10.3782 12.0306 10.3782 17.8271 10.3782ZM24.1484 12.7942C23.8385 12.781 23.3968 12.7876 23.1592 12.8206C22.9217 12.847 22.5383 12.9396 22.3008 13.0188C22.0633 13.0981 21.6942 13.257 21.4766 13.3625C21.2589 13.4747 20.9157 13.6922 20.7178 13.844C20.5198 13.9958 20.236 14.2539 20.0908 14.4124C19.9391 14.5708 19.721 14.8543 19.5957 15.0325C19.4703 15.2173 19.2923 15.5412 19.1934 15.759C19.101 15.977 18.9624 16.3667 18.8965 16.6174C18.8174 16.9276 18.7783 17.3168 18.7783 17.8049C18.7783 18.2867 18.8174 18.6898 18.8965 18.9934C18.9624 19.2508 19.1273 19.6932 19.2725 19.9836C19.411 20.2741 19.6683 20.6903 19.8398 20.9016C20.0179 21.1193 20.3543 21.4623 20.5918 21.6604C20.8293 21.8651 21.2719 22.156 21.582 22.3079C21.8855 22.4663 22.4072 22.6515 22.7305 22.7307C23.225 22.8494 23.4498 22.8626 24.083 22.8362C24.5907 22.8098 24.9928 22.7498 25.3027 22.6575C25.56 22.5783 26.0024 22.3874 26.2861 22.2356C26.5962 22.0771 26.999 21.7863 27.2695 21.5354C27.5202 21.2977 27.8236 20.9739 27.9424 20.8088C28.0611 20.6438 28.2529 20.3342 28.3584 20.1165C28.4705 19.8987 28.6281 19.5155 28.7139 19.2581C28.8458 18.8554 28.8662 18.6702 28.8662 17.7727C28.8596 16.8419 28.8465 16.7028 28.6816 16.2209C28.5893 15.9305 28.3973 15.5008 28.2588 15.2698C28.1201 15.0387 27.8299 14.6557 27.6123 14.4182C27.3946 14.1806 27.038 13.8637 26.8203 13.7053C26.6026 13.5536 26.2533 13.3495 26.0488 13.2571C25.8378 13.1647 25.4487 13.0253 25.1914 12.9592C24.9275 12.8866 24.4585 12.814 24.1484 12.7942Z" fill="#FF642D"/>
<path d="M23.3896 14.6695C23.3896 14.3195 23.416 14.1875 23.515 14.0819C23.614 13.9762 23.7195 13.9432 23.9769 13.9432C24.1616 13.9432 24.5509 14.0027 24.8412 14.0753C25.1315 14.1545 25.5604 14.3129 25.7979 14.4384C26.0354 14.5638 26.4115 14.8543 26.6424 15.0788C26.8734 15.3098 27.1637 15.6597 27.2824 15.8578C27.4078 16.0559 27.5661 16.3992 27.6453 16.617C27.7179 16.8349 27.8037 17.2376 27.8235 17.5083C27.8631 17.9572 27.8499 18.0166 27.7245 18.1553C27.5991 18.2807 27.5134 18.3005 27.0383 18.3005C26.5962 18.3071 26.4709 18.2807 26.3785 18.1883C26.3191 18.1223 26.2202 17.845 26.1674 17.5743C26.108 17.3036 25.9892 16.9339 25.9035 16.7491C25.8111 16.5708 25.5934 16.2803 25.4086 16.1087C25.2239 15.9304 24.9468 15.7324 24.795 15.6663C24.6367 15.5937 24.3068 15.4947 24.0626 15.4485C23.7921 15.3957 23.5612 15.3098 23.5018 15.2372C23.4226 15.1514 23.3896 14.9929 23.3896 14.6695Z" fill="#FF642D"/>
<path d="M87.4224 15.8118C87.4224 17.3433 87.4492 18.6572 87.4888 18.8157C87.5218 18.9741 87.6077 19.2245 87.6802 19.3762C87.7528 19.5347 87.9245 19.7922 88.063 19.9573C88.2082 20.1157 88.4984 20.347 88.7095 20.4592C88.9272 20.5714 89.277 20.7038 89.4947 20.7434C89.7256 20.7962 90.1017 20.8159 90.3853 20.7961C90.6622 20.7763 91.0312 20.7168 91.2095 20.6575C91.3942 20.6047 91.6915 20.4589 91.8697 20.3401C92.0478 20.2212 92.2924 20.0039 92.398 19.8586C92.5101 19.7134 92.6746 19.4159 92.9253 18.802L92.9448 13.0911H95.2681V15.8772C95.2681 18.4185 95.254 18.7227 95.1353 19.2639C95.0561 19.607 94.8854 20.0891 94.7271 20.4192C94.5159 20.8483 94.3307 21.0929 93.9546 21.4758C93.6776 21.7464 93.2949 22.063 93.0904 22.1819C92.8924 22.3007 92.5556 22.4532 92.3511 22.5325C92.1399 22.6051 91.7636 22.7036 91.5064 22.7629C91.2357 22.8223 90.7012 22.8625 90.2066 22.8625C89.7251 22.8625 89.1648 22.8157 88.9009 22.7629C88.6503 22.7102 88.3072 22.6185 88.1421 22.5657C87.9838 22.5063 87.6409 22.3471 87.3902 22.2151C87.1065 22.0633 86.7432 21.7863 86.4595 21.509C86.1362 21.1855 85.9116 20.8819 85.7202 20.5188C85.5685 20.2283 85.3902 19.766 85.3111 19.4954C85.2385 19.2181 85.1468 18.6698 85.1138 18.2737C85.0742 17.8707 85.0406 16.5442 85.0406 15.3167V13.0911H87.4165L87.4224 15.8118ZM40.4126 12.8274C41.0393 12.8274 41.8109 12.8671 42.1607 12.9133C42.5037 12.9661 42.9922 13.0514 43.2495 13.1174C43.5068 13.1768 43.8892 13.2899 44.107 13.3625C44.3247 13.4418 44.6615 13.5666 45.1958 13.8108V14.8674C45.1958 15.4484 45.1824 15.9241 45.1626 15.9241C45.141 15.9233 44.9107 15.831 44.648 15.7258C44.3907 15.6136 44.0214 15.4749 43.8433 15.4221C43.6587 15.3627 43.4082 15.2901 43.2827 15.2571C43.1575 15.2241 42.8276 15.1517 42.5572 15.0989C42.2866 15.0461 41.6921 14.9734 41.2368 14.9338C40.6168 14.8745 40.2277 14.8744 39.6538 14.9338C39.1986 14.9801 38.7495 15.0724 38.5318 15.1516C38.2549 15.2638 38.1358 15.356 38.0435 15.5276C37.9512 15.6924 37.9318 15.8113 37.9712 15.9563C37.9976 16.0685 38.0969 16.2272 38.1958 16.3196C38.2948 16.412 38.5323 16.5175 38.7368 16.5637C38.9349 16.6099 39.449 16.6833 39.8843 16.7229C40.3197 16.7625 41.1972 16.8541 41.8306 16.9202C42.464 16.9928 43.177 17.0922 43.4146 17.1516C43.652 17.211 44.0211 17.3434 44.2388 17.4358C44.4565 17.5348 44.7804 17.7461 44.9585 17.9045C45.13 18.0696 45.3542 18.3533 45.44 18.5315C45.5323 18.7163 45.6316 19.0465 45.6646 19.2776C45.7041 19.5219 45.6973 19.8651 45.6577 20.1292C45.6247 20.38 45.5126 20.7436 45.4136 20.9417C45.3145 21.1397 45.0835 21.4493 44.8989 21.634C44.7142 21.8189 44.3577 22.0706 44.107 22.2092C43.8498 22.3412 43.4806 22.4926 43.2827 22.552C43.0849 22.6114 42.6824 22.7043 42.3921 22.7571C42.0887 22.8099 41.4419 22.8557 40.8745 22.8557C40.3335 22.8557 39.6004 22.8158 39.2573 22.7629C38.9144 22.7101 38.4067 22.6053 38.1363 22.5393C37.8659 22.4667 37.4041 22.3146 37.1138 22.2024C36.8235 22.0902 36.4071 21.8982 35.7935 21.5549L35.7739 20.5383C35.7674 19.9773 35.7737 19.482 35.7935 19.4358C35.8133 19.383 35.9658 19.4363 36.3023 19.6145C36.5663 19.7598 37.0477 19.9843 37.3775 20.1096C37.7072 20.235 38.2082 20.3995 38.4986 20.4788C38.7888 20.5514 39.3566 20.6574 39.7525 20.7102C40.1483 20.763 40.7026 20.8088 40.9732 20.8088C41.2437 20.8088 41.7187 20.7698 42.0288 20.717C42.3389 20.6642 42.682 20.5914 42.7876 20.5452C42.8932 20.5056 43.0646 20.4127 43.1636 20.3401C43.2757 20.2675 43.3747 20.1161 43.4077 19.9709C43.4473 19.8191 43.4473 19.6406 43.4077 19.5217C43.3747 19.4161 43.256 19.2572 43.1372 19.178C43.0184 19.1054 42.7549 19.0067 42.5572 18.967C42.3592 18.934 41.9893 18.8814 41.732 18.8616C41.4746 18.8418 40.9269 18.7957 40.5113 18.7561C40.0956 18.7231 39.4886 18.6639 39.1587 18.6243C38.8288 18.5913 38.413 18.5245 38.2349 18.4915C38.0501 18.4518 37.7728 18.3733 37.6079 18.3206C37.443 18.2677 37.14 18.129 36.9224 18.0168C36.7114 17.8981 36.4277 17.6865 36.3023 17.5413C36.1704 17.3961 35.9916 17.1124 35.9058 16.9143C35.8069 16.6899 35.7284 16.3795 35.7085 16.0891C35.6887 15.7722 35.715 15.488 35.7876 15.1975C35.8536 14.9598 36.0111 14.6094 36.1431 14.4114C36.275 14.2134 36.5192 13.9428 36.6841 13.8108C36.849 13.6854 37.1463 13.5006 37.3443 13.4016C37.5422 13.3092 37.8529 13.1835 38.0376 13.1174C38.2159 13.058 38.5716 12.9663 38.8286 12.9202C39.086 12.874 39.7924 12.834 40.4126 12.8274ZM101.576 12.8274C102.202 12.8274 102.974 12.8671 103.324 12.9133C103.667 12.9661 104.162 13.0514 104.413 13.1174C104.663 13.1769 105.052 13.2899 105.27 13.3625C105.488 13.4418 105.825 13.5665 106.359 13.8108V14.8674C106.359 15.4484 106.346 15.9241 106.326 15.9241C106.305 15.9238 106.075 15.8313 105.811 15.7258C105.554 15.6136 105.185 15.475 105.006 15.4221C104.822 15.3628 104.571 15.2901 104.446 15.2571C104.32 15.2241 103.99 15.1509 103.719 15.1047C103.449 15.0519 102.855 14.9734 102.4 14.9338C101.813 14.881 101.377 14.8742 100.882 14.927C100.5 14.96 100.044 15.0322 99.8726 15.0784C99.6946 15.1246 99.4643 15.237 99.3521 15.3293C99.2201 15.4416 99.1468 15.5803 99.1138 15.7717C99.0676 16.0292 99.0882 16.0622 99.2993 16.2668C99.4577 16.412 99.649 16.5109 99.8931 16.5637C100.091 16.6099 100.612 16.6833 101.047 16.7229C101.483 16.7625 102.36 16.8541 102.994 16.9202C103.627 16.9928 104.34 17.0922 104.578 17.1516C104.815 17.2111 105.184 17.3434 105.402 17.4358C105.62 17.5348 105.93 17.7322 106.095 17.884C106.26 18.0292 106.471 18.2937 106.57 18.4719C106.662 18.6502 106.781 18.9872 106.821 19.2249C106.88 19.5547 106.88 19.7593 106.821 20.1155C106.781 20.373 106.663 20.7436 106.557 20.9417C106.458 21.1397 106.213 21.4632 106.022 21.6545C105.824 21.846 105.474 22.1032 105.237 22.2219C104.999 22.3472 104.644 22.4925 104.446 22.552C104.248 22.6114 103.845 22.7043 103.554 22.7571C103.244 22.8164 102.597 22.8557 101.984 22.8557C101.377 22.8557 100.698 22.8165 100.341 22.7571C100.005 22.7043 99.5493 22.6116 99.3316 22.5588C99.1137 22.4994 98.652 22.3471 98.3091 22.2151C97.9661 22.0831 97.5502 21.9051 97.3853 21.8127C97.2204 21.7203 97.0486 21.615 97.0025 21.5754C96.9365 21.5225 96.9175 21.2378 96.9175 20.4788C96.9175 19.9178 96.9368 19.436 96.9566 19.4094C96.9764 19.3764 97.2071 19.4759 97.4644 19.6145C97.7283 19.7597 98.2107 19.9842 98.5406 20.1096C98.8704 20.235 99.3714 20.4003 99.6616 20.4729C99.9519 20.5521 100.5 20.6574 100.882 20.7102C101.265 20.763 101.813 20.8088 102.103 20.8088C102.393 20.8088 102.895 20.763 103.225 20.7102C103.555 20.6574 103.937 20.5514 104.083 20.4788C104.228 20.4127 104.399 20.2609 104.459 20.1487C104.524 20.043 104.578 19.8383 104.578 19.7063C104.571 19.5152 104.524 19.4097 104.36 19.2581C104.208 19.1128 104.03 19.0333 103.752 18.9739C103.535 18.9343 102.987 18.868 102.532 18.8284C102.12 18.7985 101.525 18.7471 101.132 18.7131L101.014 18.7034C100.632 18.6638 100.111 18.6045 99.8599 18.5715C99.6092 18.5319 99.2263 18.4591 99.0152 18.3997C98.8108 18.3469 98.4614 18.2084 98.2437 18.1028C98.026 17.9972 97.7224 17.792 97.564 17.6467C97.4057 17.5015 97.2072 17.2181 97.0884 16.9739C96.9103 16.5844 96.8911 16.4915 96.8911 15.8577C96.8977 15.2308 96.9105 15.1249 97.0884 14.7688C97.194 14.5509 97.4317 14.2203 97.6099 14.0354C97.7946 13.8571 98.138 13.6 98.3755 13.468C98.6129 13.3361 98.982 13.1776 99.1997 13.1116C99.4175 13.0456 99.7874 12.9595 100.025 12.9133C100.263 12.8737 100.962 12.834 101.576 12.8274ZM60.0747 13.0852C61.6908 13.0852 62.1529 13.1051 62.1529 13.1711C62.1545 13.2156 62.3778 13.9526 62.6538 14.801C62.9243 15.6527 63.4194 17.1847 63.7427 18.2014C64.0725 19.2179 64.409 20.2806 64.5015 20.5647C64.587 20.841 64.6921 21.0648 64.732 21.0598C64.7715 21.0466 65.0227 20.3536 65.2866 19.5217C65.5506 18.6899 65.9927 17.3031 66.2632 16.4514C66.5403 15.5999 66.8896 14.491 67.3316 13.0852H71.3902V22.592H69.0806V18.6965C69.0806 16.5645 69.061 14.8125 69.0347 14.801C69.0017 14.801 68.7376 15.5474 68.4341 16.4651C68.1306 17.3827 67.5567 19.1388 66.4087 22.5979L62.8521 22.5588L62.2779 20.8088C61.9611 19.8449 61.3941 18.1086 61.0181 16.9534C60.6491 15.7994 60.2993 14.8369 60.2525 14.8215C60.1931 14.8083 60.1734 15.6138 60.1734 22.592H57.9956V13.0852H60.0747ZM56.0825 14.9993H49.4185V16.7815H55.9507V18.6965H49.4185V20.677H56.0825V22.592H47.1753V13.0852H56.0825V14.9993ZM77.48 13.0979C81.2393 13.1177 81.4711 13.1249 81.814 13.2502C82.0119 13.3229 82.3558 13.5005 82.5669 13.6458C82.8176 13.8108 83.0619 14.0624 83.2466 14.3264C83.4048 14.5508 83.5759 14.8939 83.6353 15.0852C83.6947 15.2701 83.761 15.7126 83.7808 16.0559C83.8006 16.5245 83.7806 16.7823 83.6948 17.0793C83.6354 17.2972 83.5106 17.6077 83.4116 17.7727C83.3193 17.9376 83.1344 18.1877 83.0025 18.3264C82.8771 18.4717 82.6191 18.6829 82.4409 18.7952C82.2562 18.914 81.9133 19.0793 81.2339 19.3235L82.5142 20.842C83.2135 21.6738 83.7869 22.4137 83.7935 22.4797C83.7933 22.5851 83.6858 22.592 81.1548 22.592L78.5415 19.3899L75.8101 19.3567V22.592H73.5015V17.8381L73.5073 13.0784L77.48 13.0979ZM110.575 16.6497H116.315V13.0852H118.493V22.592H116.315V18.8284L110.608 18.8616L110.575 22.592H108.2V13.0852H110.575V16.6497ZM75.8169 16.2141L75.8101 17.3762C80.653 17.3696 80.8052 17.3632 81.023 17.2444C81.1483 17.1718 81.3259 16.9867 81.4116 16.8284C81.5436 16.5973 81.5633 16.4846 81.5435 16.1545C81.5237 15.8908 81.4646 15.6864 81.3657 15.5413C81.2866 15.429 81.1212 15.2772 81.0025 15.2112C80.8177 15.1122 80.5203 15.0982 78.3042 15.0784L75.8169 15.0588V16.2141Z" fill="black"/>
</svg>
