<svg width="145" height="49" viewBox="0 0 145 49" fill="none" xmlns="http://www.w3.org/2000/svg">
<path d="M34.4504 33.6876V25.5209V17.3542H38.0497V20.1615C38.0497 22.8157 38.1011 22.9178 39.078 22.4584C39.6436 22.2032 40.5692 21.948 41.1348 21.948C41.7004 21.948 42.6259 22.4074 43.1915 22.9688C44.0656 23.8365 44.2199 24.6532 44.2199 33.6876L40.8777 33.4324L40.7234 29.8595C40.6206 27.8688 40.3635 26.0313 40.1064 25.7761C39.7979 25.4188 39.3351 25.5209 38.821 26.0313C38.3068 26.5417 37.9983 27.9199 37.7926 33.4324L34.4504 33.6876Z" fill="#272729"/>
<path d="M72.0373 22.4584C72.9114 20.0595 73.7341 17.9667 73.8369 17.7115V17.7626C73.9912 17.5074 75.0195 17.3542 76.0993 17.3542C77.2305 17.3542 78.1561 17.6095 78.1561 17.8647C78.1561 18.1199 77.2819 20.4678 74.2997 27.6136L72.3972 27.5626C71.3174 27.5626 70.4433 27.4095 70.4433 27.2053C70.4433 26.9501 71.1632 24.8574 72.0373 22.4584Z" fill="#272729"/>
<path d="M22.3156 25.1126C22.7784 24.1938 23.6525 23.0709 24.3209 22.6115C25.0408 22.1522 26.0178 21.948 26.9947 22.1522C27.8688 22.3053 29.5142 22.4074 32.9078 22.3563L33.1649 24.8063C33.3192 26.1334 33.422 28.3792 33.422 29.8084C33.422 31.2376 33.2163 32.6157 33.0107 32.922C32.805 33.2282 31.0053 33.5345 28.7944 33.5345C25.2465 33.5855 24.8351 33.4834 23.4983 32.2074C22.6241 31.3397 21.9557 30.0636 21.8014 28.7876C21.5444 27.4095 21.75 26.2355 22.3156 25.1126Z" fill="#272729"/>
<path d="M46.4309 23.9386C46.9451 23.2751 47.8706 22.6115 48.4876 22.3563C49.1046 22.1522 50.1844 21.948 50.9043 21.948C51.6241 21.897 52.961 22.3563 53.8866 22.9178C54.9663 23.5813 55.7376 24.6022 56.0975 25.8272C56.4575 26.9501 56.5089 28.4303 56.3032 29.298C56.0975 30.1147 55.2749 31.4417 54.5036 32.2074C53.3724 33.2792 52.5497 33.6365 50.9557 33.6365C49.3617 33.6365 48.4362 33.2792 47.2022 32.1563C45.6596 30.8292 45.5053 30.3699 45.5053 27.8688C45.5053 25.9292 45.8139 24.7042 46.4309 23.9386Z" fill="#272729"/>
<path d="M58.1543 24.5511C58.7199 23.6324 59.7483 22.6626 60.3139 22.4074C60.9309 22.1522 62.3706 21.999 63.5018 22.1522C64.633 22.3053 65.9699 22.8157 66.4841 23.2751C66.9983 23.7855 67.6153 24.7553 67.9238 25.4699C68.2323 26.1845 68.3351 27.6136 68.1295 28.7876C67.8724 30.0126 67.1525 31.3907 66.3298 32.2074C65.1986 33.2792 64.3759 33.6365 62.7819 33.6365C61.0851 33.6365 60.3653 33.3303 58.8741 31.8501C57.4344 30.4209 57.0745 29.6553 57.0745 28.124C57.0745 27.1032 57.5373 25.4699 58.1543 24.5511Z" fill="#272729"/>
<path d="M83.2465 22.5095C84.6348 22.5605 85.9717 22.4584 86.1773 22.2542C86.383 22.0501 87.2057 21.897 88.0284 21.897C89.0053 21.897 89.7766 22.3563 90.4965 23.2751C91.3706 24.449 91.5763 25.4699 91.5249 33.6365H87.4114L87.3085 29.9615C87.1543 26.5928 87.0515 26.2355 86.1259 26.2355C85.2004 26.2355 85.0975 26.5928 84.8405 33.6365H80.727V22.4074L83.2465 22.5095Z" fill="#272729"/>
<path d="M92.9131 25.5209C93.4273 24.2959 94.4043 22.9688 95.1241 22.6115C95.844 22.2542 97.0266 21.948 97.8493 21.897C98.6206 21.897 99.9575 22.2542 100.78 22.6626C101.809 23.173 102.58 24.1428 103.145 25.623C103.608 26.797 103.865 28.073 103.66 28.4303C103.454 28.8386 102.168 29.0428 100.009 29.0428C97.3866 29.0428 96.6667 29.1959 96.6667 29.8084C96.6667 30.4209 97.2323 30.523 99.1862 30.472C100.78 30.3699 102.014 30.574 102.426 30.9824C102.991 31.5438 102.837 31.9011 101.706 32.922C100.78 33.7386 99.649 34.147 98.4663 34.147C97.4894 34.147 96.0497 33.8407 95.3298 33.5345C94.61 33.1772 93.7358 32.4115 93.3759 31.8501C93.016 31.2886 92.5532 30.1147 92.3475 29.298C92.0905 28.2772 92.2961 27.0011 92.9131 25.5209Z" fill="#272729"/>
<path d="M121.553 24.398C121.862 23.6324 122.582 22.8157 123.147 22.4584C123.713 22.1522 125.255 21.948 126.592 22.0501C127.929 22.1011 129.266 22.4074 129.575 22.6626C129.934 23.0199 129.934 23.5813 129.575 24.5511C129.317 25.3678 128.752 25.8782 128.443 25.7761C128.083 25.674 127.261 25.4699 126.644 25.2657C125.975 25.1126 125.461 25.1636 125.461 25.4699C125.461 25.7251 126.284 26.2355 127.261 26.4907C128.238 26.7459 129.42 27.5115 129.832 28.124C130.243 28.7876 130.603 29.7063 130.603 30.1657C130.603 30.6761 129.934 31.799 129.112 32.6157C128.032 33.6876 127.106 34.147 125.872 34.147C124.947 34.147 123.404 33.9428 122.53 33.6365C121.605 33.3813 120.833 32.8709 120.833 32.6157C120.833 32.3605 121.039 31.6459 121.348 31.0845C121.81 30.2167 122.17 30.1147 124.33 30.4209C126.129 30.6761 126.644 30.6251 126.387 30.1657C126.129 29.8084 125.564 29.5532 125.101 29.5532C124.587 29.5532 123.661 29.1959 123.044 28.7876C122.376 28.3792 121.656 27.5115 121.399 26.899C121.142 26.1845 121.193 25.2147 121.553 24.398Z" fill="#272729"/>
<path d="M12.9575 30.574C12.3919 29.0428 11.4663 26.5417 10.8493 25.0615L9.76953 22.4074H11.8263C13.8316 22.4074 13.883 22.4584 14.6543 24.9595C15.0656 26.3376 15.6827 27.6136 15.9397 27.7667C16.2483 27.9199 16.8653 26.797 17.4309 25.3167C18.305 22.8157 18.5107 22.6626 20.2589 22.5095C21.9557 22.4074 22.0585 22.5095 21.8014 23.5303C21.5958 24.1938 20.3617 27.5626 16.6082 37.4647L14.7057 37.5667C13.6773 37.6688 12.8546 37.5667 12.8546 37.3115C12.8546 37.1074 13.1117 36.1376 13.4202 35.1678C13.9344 33.6876 13.8316 32.922 12.9575 30.574Z" fill="#272729"/>
<path d="M105.099 28.2772C104.174 25.4699 103.403 22.9688 103.403 22.7647C103.403 22.5605 104.277 22.3563 105.408 22.3563C107.453 22.3563 107.465 22.4068 107.97 24.6154L107.979 24.6532C108.287 25.9292 108.699 27.0011 108.904 27.0011C109.11 27.0011 109.573 25.9292 109.933 24.7042C110.55 22.5095 110.653 22.4074 112.195 22.5095C113.635 22.6115 113.943 22.9178 114.406 24.5001C114.715 25.5209 115.126 26.5928 115.332 26.797C115.537 27.0522 116 26.1334 116.36 24.8063C116.977 22.4584 117.028 22.3563 118.931 22.3563C119.959 22.3563 120.833 22.5605 120.833 22.7647C120.782 22.9688 120.011 25.4188 117.491 33.3303H115.692C113.995 33.3303 113.84 33.2282 113.121 30.9313C112.709 29.6042 112.246 28.4813 112.092 28.4813C111.989 28.4813 111.527 29.6042 111.064 30.9313C110.344 33.2282 110.19 33.3303 106.745 33.3303L105.099 28.2772Z" fill="#272729"/>
<path d="M68.7979 31.0334C68.7465 30.3188 69.055 29.4511 69.4149 29.1449C69.8263 28.7876 70.5975 28.4813 71.2146 28.4813C71.7802 28.4813 72.5514 28.7876 72.9114 29.1449C73.2713 29.5022 73.5798 30.3699 73.5798 31.0334C73.5798 31.748 73.2713 32.6157 72.9114 32.973C72.6029 33.3303 71.8316 33.6365 71.266 33.6365C70.649 33.6365 69.9291 33.3303 69.5692 32.973C69.2093 32.6157 68.8493 31.748 68.7979 31.0334Z" fill="#272729"/>
<path d="M97.5407 26.5416C96.101 26.5927 95.9982 26.4906 96.6152 25.776C97.0265 25.3166 97.695 25.0104 98.1063 25.1124C98.5691 25.2145 98.9804 25.5718 99.0833 25.8781C99.1861 26.3374 98.6205 26.5416 97.5407 26.5416Z" fill="#E4E8F4"/>
<path d="M25.1436 27.6135C25.1436 27.3583 25.5035 26.7458 26.0177 26.2864C26.4804 25.827 27.2003 25.5208 27.6631 25.6229C28.0744 25.7249 28.7428 26.2354 29.1028 26.7968C29.7198 27.6645 29.6684 27.9708 29.0514 28.9406C28.64 29.6041 27.8173 30.1145 27.2517 30.1145C26.6861 30.1145 26.0177 29.6552 25.7092 29.0937C25.4521 28.5322 25.195 27.8687 25.1436 27.6135Z" fill="#E4E8F4"/>
<path d="M48.9503 28.0218C48.8989 27.3583 49.1045 26.4906 49.4131 26.1333C49.7216 25.827 50.39 25.5208 50.8528 25.5208C51.3155 25.4697 51.984 25.776 52.3439 26.1333C52.7038 26.4906 52.9095 27.3583 52.8581 28.0218C52.7553 28.6854 52.2925 29.502 51.8297 29.8083C51.1613 30.2166 50.6471 30.2166 50.0301 29.8083C49.5159 29.502 49.0531 28.6854 48.9503 28.0218Z" fill="#E4E8F4"/>
<path d="M60.7765 28.0218C60.7251 27.3583 60.9308 26.4906 61.2393 26.1333C61.5478 25.827 62.2163 25.5208 62.679 25.5208C63.1418 25.4697 63.8102 25.776 64.1702 26.1333C64.5301 26.4906 64.7358 27.3583 64.6843 28.0218C64.5815 28.6854 64.1187 29.502 63.656 29.8083C62.9875 30.2166 62.4733 30.2166 61.8563 29.8083C61.3421 29.502 60.8794 28.6854 60.7765 28.0218Z" fill="#E4E8F4"/>
</svg>
