<svg width="131" height="100" viewBox="0 0 131 100" fill="none" xmlns="http://www.w3.org/2000/svg">
<path d="M50.0795 0.481093C50.4073 0.372031 50.9535 0.219344 51.2812 0.143001C51.609 0.077564 52.4721 0.0121269 53.1931 0.0012207C54.078 0.0012207 54.8209 0.0557516 55.4873 0.197532C56.0336 0.306594 56.8638 0.557436 57.3445 0.742841C57.8252 0.928246 58.5572 1.27724 58.9833 1.52809C59.4093 1.76802 60.0648 2.22608 60.4472 2.53146C60.8405 2.84774 61.4304 3.41486 61.7691 3.80748C62.0968 4.2001 62.5994 4.88719 62.8834 5.33435C63.1675 5.7815 63.528 6.50131 63.6809 6.91574C63.8448 7.34108 64.0524 8.02817 64.1398 8.44261C64.2709 8.97701 64.3146 9.71863 64.3146 10.8965C64.3037 12.5324 64.2053 13.2413 61.5288 31.062C60.0102 41.2266 58.7101 49.5589 58.6555 49.5807C58.6009 49.5916 55.1486 41.6956 50.9863 32.0218C46.8239 22.3589 43.328 14.0702 43.2078 13.623C43.0985 13.1759 42.9456 12.2925 42.8691 11.6599C42.7817 10.8202 42.7708 10.2203 42.8582 9.42416C42.9237 8.82432 43.0767 7.96274 43.2078 7.51558C43.328 7.06843 43.612 6.305 43.8524 5.82512C44.0818 5.34525 44.5078 4.63635 44.8137 4.24373C45.1087 3.8511 45.6659 3.24036 46.0482 2.89136C46.4306 2.53146 47.0643 2.04068 47.4576 1.77893C47.8508 1.52809 48.4626 1.17909 48.8232 1.00459C49.1837 0.819185 49.7518 0.590155 50.0795 0.481093Z" fill="#EF1541"/>
<path d="M12.4434 68.2521C13.0989 68.0885 14.0603 67.9031 14.5737 67.8485C15.0872 67.794 15.8629 67.7395 16.2889 67.7286C16.7259 67.7286 17.5672 67.7722 18.1462 67.8376C18.7361 67.8922 19.6647 68.0449 20.2 68.1757C20.7354 68.2957 21.6749 68.5684 22.2758 68.7756C22.8766 68.9937 23.8162 69.3754 24.3515 69.6481C24.8868 69.9207 25.7062 70.3897 26.1541 70.6842C26.602 70.9895 27.2684 71.4803 27.6289 71.7857C27.9895 72.0801 28.5357 72.6036 28.8525 72.9417C29.1693 73.2798 29.4206 73.607 29.4315 73.6615C29.4315 73.7161 28.3172 74.883 24.4607 78.722L23.7506 78.0458C23.3573 77.6859 22.5926 77.097 22.0573 76.748C21.5219 76.399 20.6807 75.9627 20.2 75.7773C19.7193 75.5919 18.9765 75.3629 18.5613 75.2757C18.1243 75.1884 17.2503 75.1121 16.5402 75.123C15.5788 75.123 15.0326 75.1884 14.246 75.3847C13.6561 75.5374 12.7821 75.8646 12.2249 76.1482C11.6787 76.4317 10.9248 76.9116 10.5425 77.2279C10.1492 77.5441 9.61386 78.0895 9.34074 78.4275C9.0567 78.7656 8.67433 79.3109 8.47768 79.6272C8.29196 79.9435 7.98606 80.6197 7.80034 81.1323C7.62554 81.6449 7.42889 82.5283 7.35242 83.0954C7.2541 83.9024 7.2541 84.3387 7.35242 85.0585C7.42889 85.5711 7.64739 86.4 7.83311 86.9126C8.02976 87.4251 8.37936 88.134 8.6197 88.494C8.86005 88.8539 9.35167 89.4428 9.71219 89.8136C10.0727 90.1735 10.5862 90.6207 10.8593 90.8061C11.1324 90.9915 11.7005 91.3187 12.1157 91.5259C12.5308 91.744 13.2955 92.0385 13.809 92.1802C14.3225 92.3329 15.2511 92.5074 15.8847 92.5729C16.7259 92.671 17.3159 92.671 18.0697 92.5838C18.6378 92.5074 19.5992 92.3002 20.2 92.093C20.8009 91.8967 21.664 91.5586 22.1119 91.3296C22.5598 91.1005 23.3027 90.6752 23.7506 90.3698C24.1985 90.0644 24.8649 89.53 25.881 88.5485L28.2516 91.275C30.6005 93.958 30.6333 94.0016 30.4366 94.2306C30.3383 94.3615 29.7593 94.8632 29.1584 95.343C28.5575 95.8229 27.5525 96.5645 26.9188 96.979C26.2852 97.3934 25.2801 97.9714 24.6792 98.255C24.0784 98.5385 23.1934 98.8985 22.7128 99.0511C22.2321 99.2038 21.6421 99.3892 21.4018 99.4438C21.1614 99.5092 20.3748 99.6619 19.6538 99.7819C18.8235 99.9127 17.8403 100 16.9772 100C16.1032 100 15.1309 99.9236 14.3006 99.7819C13.5796 99.651 12.6182 99.4656 12.1703 99.3456C11.7224 99.2365 10.9795 99.0075 10.5316 98.8439C10.0836 98.6912 9.27519 98.3313 8.72895 98.0587C8.18271 97.7969 7.45074 97.3716 7.09022 97.1317C6.7297 96.8917 6.01959 96.3464 5.50612 95.9211C5.00358 95.4957 4.27161 94.7759 3.88924 94.3288C3.50688 93.8816 2.94971 93.14 2.64381 92.6928C2.34884 92.2457 1.89 91.4386 1.6278 90.8933C1.36561 90.348 0.983236 89.3992 0.775664 88.7666C0.568092 88.134 0.305896 87.1525 0.196647 86.5854C0.0546242 85.8438 0 85.0476 0 83.8043C0.0109248 82.4301 0.0655491 81.8194 0.251271 80.9142C0.38237 80.2816 0.622716 79.3764 0.786589 78.8965C0.939537 78.4166 1.34376 77.4787 1.68243 76.8243C2.01017 76.1591 2.57826 75.2102 2.93878 74.6976C3.2993 74.1959 4.08589 73.2907 4.68676 72.6909C5.28763 72.0801 6.08514 71.3712 6.46751 71.0986C6.83895 70.8259 7.52722 70.3788 7.99699 70.0952C8.45583 69.8117 9.38444 69.3427 10.0399 69.07C10.6954 68.7865 11.7879 68.4266 12.4434 68.2521Z" fill="#0A1F55"/>
<path d="M112.515 68.3611C112.996 68.2303 113.76 68.0667 114.208 67.9903C114.656 67.914 115.803 67.8485 116.743 67.8376C118.021 67.8267 118.797 67.8813 119.747 68.0449C120.457 68.1648 121.604 68.4593 122.293 68.6883C122.981 68.9174 124.063 69.3645 124.696 69.6808C125.33 69.9971 126.04 70.3788 126.28 70.5424C126.521 70.6951 127.012 71.0332 127.373 71.3058C127.733 71.5676 128.432 72.1783 128.935 72.6691C129.427 73.1599 129.831 73.5961 129.831 73.6615C129.831 73.7161 128.717 74.883 124.86 78.7329L124.478 78.3403C124.27 78.1222 123.702 77.6532 123.221 77.2824C122.741 76.9225 121.856 76.3881 121.255 76.1045C120.654 75.821 119.846 75.4938 119.452 75.3847C118.917 75.2429 118.327 75.1993 117.049 75.1884C115.749 75.1884 115.181 75.232 114.591 75.3847C114.176 75.5047 113.334 75.8319 112.733 76.1263C112.133 76.4208 111.302 76.9443 110.876 77.2933C110.45 77.6423 109.849 78.264 109.532 78.6893C109.216 79.1037 108.79 79.7799 108.582 80.2053C108.374 80.6197 108.101 81.3613 107.959 81.8412C107.774 82.5283 107.719 82.9863 107.719 84.0224C107.719 84.9058 107.774 85.5602 107.905 86.0401C108.003 86.4327 108.287 87.1416 108.516 87.6215C108.757 88.1013 109.183 88.7884 109.478 89.1374C109.762 89.4973 110.341 90.0753 110.767 90.4353C111.193 90.7843 111.969 91.2859 112.515 91.5477C113.061 91.8094 113.87 92.1257 114.318 92.2566C114.766 92.3766 115.705 92.5401 116.393 92.6056C117.486 92.7146 117.803 92.7146 118.797 92.5511C119.43 92.442 120.315 92.2348 120.763 92.0712C121.211 91.9185 121.976 91.5913 122.457 91.3623C122.937 91.1223 123.68 90.697 124.095 90.4134C124.51 90.1408 125.177 89.6064 126.28 88.5703L128.629 91.2859C129.918 92.791 130.989 94.0452 131 94.0888C131.011 94.1325 130.519 94.5687 129.907 95.0704C129.296 95.5612 128.356 96.281 127.81 96.6736C127.264 97.0553 126.258 97.6661 125.57 98.026C124.882 98.375 123.942 98.8003 123.494 98.9639C123.047 99.1166 122.304 99.3456 121.856 99.4547C121.408 99.5637 120.578 99.7382 120.02 99.8255C119.419 99.9345 118.36 100 117.377 100C116.219 100 115.366 99.9345 114.449 99.7819C113.749 99.651 112.897 99.4874 112.57 99.4001C112.242 99.3129 111.532 99.0948 110.986 98.8985C110.439 98.713 109.609 98.3641 109.128 98.1241C108.648 97.8733 107.839 97.4043 107.326 97.0662C106.769 96.7063 105.873 95.9429 105.075 95.1467C104.223 94.296 103.524 93.4781 103.076 92.8019C102.694 92.2348 102.202 91.3732 101.973 90.8933C101.743 90.4134 101.404 89.5846 101.219 89.0393C101.022 88.494 100.76 87.5669 100.64 86.9671C100.443 86.0837 100.399 85.5057 100.399 83.9134C100.388 82.2447 100.432 81.7757 100.651 80.8051C100.793 80.1725 101.055 79.2455 101.23 78.7329C101.404 78.2203 101.82 77.2933 102.147 76.6607C102.486 76.0282 103.032 75.123 103.371 74.6431C103.71 74.1741 104.485 73.2907 105.086 72.68C105.698 72.0801 106.583 71.3058 107.053 70.9677C107.533 70.6296 108.342 70.117 108.855 69.8444C109.369 69.5717 110.199 69.1791 110.712 68.9719C111.226 68.7647 112.034 68.492 112.515 68.3611Z" fill="#0A1F55"/>
<path d="M75.0978 0.481061C75.4255 0.371999 76.0373 0.219313 76.4634 0.14297C76.8895 0.0666263 77.829 0.00118919 78.561 0.00118919C79.3148 -0.00971699 80.2543 0.0557201 80.6913 0.14297C81.1283 0.230219 81.8275 0.42653 82.2535 0.579217C82.6796 0.74281 83.4116 1.09181 83.8923 1.37537C84.373 1.64802 85.0394 2.08427 85.3671 2.33511C85.6949 2.58595 86.2848 3.14217 86.6781 3.55661C87.0714 3.98195 87.6176 4.71266 87.9126 5.18163C88.1967 5.6615 88.5681 6.45765 88.7538 6.97024C88.9286 7.48283 89.1471 8.33351 89.2454 8.87882C89.3328 9.41323 89.4093 10.2639 89.4093 10.7547C89.4093 11.2564 89.3547 12.0416 89.2891 12.4997C89.2236 12.9686 89.0597 13.6885 88.9286 14.1138C88.7866 14.5282 85.2907 22.6751 81.1501 32.1962C76.8348 42.1209 73.5683 49.5153 73.4809 49.5044C73.4154 49.5044 73.3498 49.4716 73.3498 49.428C73.3498 49.3735 72.3338 42.6226 71.0993 34.3993C69.5043 23.7767 68.8597 19.2833 68.9034 18.858C68.9252 18.5308 69.0782 17.9637 69.2421 17.6038C69.4059 17.2439 69.7446 16.6877 69.9959 16.3605C70.2471 16.0333 70.8262 15.4771 71.2741 15.1172C71.722 14.7573 72.4321 14.2665 72.8582 14.0156C73.2733 13.7757 74.0053 13.4049 74.4641 13.2195C74.9339 13.0232 75.3163 12.8269 75.3272 12.7832C75.3272 12.7287 75.1743 12.5324 74.9667 12.3361C74.77 12.1398 74.4314 11.8998 74.2238 11.7908C73.896 11.6272 73.4153 11.6054 67.6143 11.5399L67.7017 10.373C67.7563 9.72951 67.8546 8.88973 67.942 8.49711C68.0185 8.10448 68.2151 7.43921 68.379 7.02477C68.5319 6.59943 68.8378 5.94506 69.0563 5.55244C69.2639 5.15981 69.6791 4.52726 69.9631 4.13463C70.2471 3.74201 70.7715 3.15308 71.1321 2.81498C71.4817 2.4878 72.0825 1.99702 72.4758 1.73527C72.8691 1.47352 73.4809 1.12453 73.8414 0.960933C74.2019 0.808247 74.77 0.590123 75.0978 0.481061Z" fill="#6E55DC"/>
<path d="M104.758 39.8633C105.053 39.7651 105.621 39.6233 106.014 39.5361C106.408 39.4488 107.271 39.3725 107.926 39.3725C108.615 39.3616 109.521 39.4379 110.057 39.5361C110.57 39.6342 111.357 39.8524 111.805 40.0269C112.252 40.2014 112.995 40.5613 113.443 40.823C113.891 41.0848 114.612 41.5974 115.027 41.9464C115.443 42.3063 116.109 42.9934 116.502 43.4732C116.896 43.9531 117.442 44.7929 117.726 45.3164C117.999 45.8508 118.359 46.6905 118.512 47.1813C118.665 47.683 118.851 48.5664 118.928 49.1444C119.026 49.9624 119.026 50.4968 118.928 51.4129C118.851 52.0673 118.698 52.9834 118.567 53.4306C118.447 53.8777 118.185 54.5866 117.988 55.012C117.791 55.4373 117.42 56.0917 117.158 56.4843C116.896 56.8769 116.349 57.5204 115.934 57.9239C115.53 58.3384 114.765 58.9491 114.241 59.2981C113.705 59.6471 112.886 60.0942 112.405 60.2906C111.925 60.4869 111.062 60.7813 109.456 61.2285L90.8835 61.2503C80.6687 61.2721 72.2675 61.2503 72.2238 61.1958C72.1801 61.1522 79.0409 56.5279 87.464 50.9221C95.898 45.3164 103.108 40.5722 103.502 40.3868C103.895 40.2014 104.452 39.9614 104.758 39.8633Z" fill="#05AC3F"/>
<path fill-rule="evenodd" clip-rule="evenodd" d="M34.457 68.5902H41.7221L48.7686 78.0677C52.6469 83.2917 55.8479 87.5342 55.9025 87.5124C55.9462 87.4797 55.979 83.2154 55.979 68.5902H62.8616L62.8944 81.514C62.9053 88.6249 62.9163 95.5067 62.9163 99.182L55.7059 99.2366L48.5501 89.5846C44.6171 84.2842 41.3615 79.9653 41.3069 79.9872C41.2632 80.0199 41.2304 84.3605 41.2304 99.2366H34.457V68.5902ZM68.6627 68.5793L78.4077 68.6229C88.1308 68.6556 88.1526 68.6556 89.0813 68.9065C89.5947 69.0373 90.3485 69.2991 90.7746 69.4736C91.1898 69.659 91.8562 70.0189 92.2495 70.2806C92.6428 70.5315 93.2764 71.0877 93.6697 71.4912C94.063 71.9057 94.5765 72.5819 94.8168 73.0072C95.0462 73.4325 95.363 74.1414 95.5051 74.5886C95.7126 75.2102 95.7891 75.7337 95.8219 76.7698C95.8547 77.5769 95.8328 78.4058 95.7563 78.7875C95.6908 79.1474 95.5051 79.7145 95.3521 80.0417C95.1992 80.3689 94.8933 80.8596 94.6748 81.1214C94.4563 81.3941 93.8882 81.8739 92.5772 82.7682L93.4184 83.2808C93.8882 83.5644 94.5983 84.1097 94.9916 84.5023C95.4832 84.9931 95.8328 85.4839 96.1059 86.0401C96.3244 86.4872 96.5866 87.1743 96.6959 87.567C96.827 88.0795 96.8816 88.7121 96.8816 89.8573C96.8707 90.9479 96.816 91.7113 96.6849 92.3111C96.5757 92.791 96.3681 93.4999 96.2152 93.8925C96.0513 94.2852 95.7454 94.8959 95.516 95.2558C95.2975 95.6157 94.7513 96.2592 94.3033 96.6736C93.7571 97.208 93.1999 97.6006 92.5226 97.9496C91.9763 98.2223 91.1898 98.5495 90.7746 98.6804C90.3485 98.8003 89.5183 98.9748 88.9174 99.073C87.9997 99.2039 86.2517 99.2366 68.6518 99.2366L68.6627 68.5793ZM75.4252 80.0417C84.1105 80.0417 86.5685 79.9981 86.787 79.9326C86.9946 79.8781 87.3988 79.6818 87.6938 79.4964C88.0325 79.2783 88.3165 78.9729 88.535 78.5912C88.7972 78.1331 88.8628 77.8932 88.8628 77.3697C88.8628 76.9443 88.7754 76.5408 88.6333 76.2245C88.5132 75.9519 88.3056 75.6138 88.1745 75.472C88.0434 75.3411 87.7375 75.1121 87.4972 74.9812C87.0711 74.7522 86.9618 74.7522 81.2481 74.7195L75.4361 74.6867L75.4252 80.0417ZM75.4252 92.911C85.3887 92.911 86.5467 92.8783 87.1694 92.7474C87.5846 92.6601 88.1308 92.4638 88.3711 92.322C88.6115 92.1803 88.9392 91.9185 89.1031 91.7549C89.267 91.5804 89.5073 91.1987 89.6384 90.8933C89.8023 90.5225 89.8788 90.1299 89.8788 89.6391C89.8788 89.2247 89.8023 88.6794 89.6821 88.3304C89.5401 87.916 89.3107 87.567 88.9283 87.1743C88.5569 86.8144 88.1417 86.5309 87.7157 86.3564L87.0602 86.0946L75.4361 86.0292L75.4252 92.911Z" fill="#0A1F55"/>
<path d="M96.401 15.8043C96.8489 15.6843 97.5153 15.5425 97.8758 15.488C98.2363 15.4225 99.0994 15.4007 99.7877 15.4225C100.476 15.4335 101.437 15.5316 101.918 15.6407C102.399 15.7388 103.163 15.9679 103.611 16.1424C104.059 16.3169 104.802 16.6768 105.25 16.9385C105.698 17.2003 106.343 17.6474 106.67 17.931C106.998 18.2145 107.522 18.7489 107.839 19.1197C108.156 19.4796 108.626 20.1558 108.877 20.603C109.139 21.0501 109.5 21.8136 109.696 22.2934C109.882 22.7733 110.123 23.5477 110.21 24.0057C110.308 24.4747 110.385 25.4017 110.385 26.0779C110.385 27.0376 110.33 27.5502 110.112 28.4009C109.959 29.0007 109.653 29.8841 109.423 30.364C109.194 30.8439 108.79 31.5528 108.528 31.9454C108.265 32.338 107.632 33.0906 107.118 33.6141C106.332 34.4211 105.731 34.8792 103.447 36.3842C101.951 37.3876 97.3733 40.4522 93.2874 43.2224C89.2015 45.9817 83.3785 49.897 80.3414 51.9255C77.3043 53.9541 74.7807 55.5791 74.737 55.5355C74.6824 55.481 78.0472 47.7703 82.2096 38.3801C86.3719 28.9898 89.9662 20.9956 90.1956 20.603C90.436 20.2104 90.8839 19.5778 91.2007 19.1852C91.5066 18.7926 92.1403 18.1709 92.5773 17.7892C93.0689 17.3857 93.8445 16.884 94.4891 16.5677C95.09 16.2732 95.953 15.9242 96.401 15.8043Z" fill="#069DE0"/>
<path d="M29.4866 15.8697C30.022 15.7061 30.7648 15.5425 31.1254 15.4771C31.4859 15.4225 32.349 15.4007 33.0372 15.4225C33.7255 15.4444 34.6322 15.5316 35.0583 15.6298C35.4844 15.717 36.0962 15.8915 36.4239 16.0006C36.7517 16.1205 37.4181 16.4041 37.8988 16.6549C38.3795 16.8949 38.9476 17.2221 39.1551 17.3857C39.3627 17.5383 39.8215 17.9419 40.1821 18.2909C40.5317 18.629 41.0233 19.1852 41.2746 19.5124C41.5258 19.8395 41.8973 20.374 42.083 20.6902C42.2796 20.9956 45.8084 28.9244 49.927 38.3037C54.0457 47.6721 57.3887 55.4046 57.3559 55.481C57.3122 55.5682 56.1214 54.8266 53.8272 53.2997C51.9153 52.0346 46.7588 48.5555 42.378 45.5781C37.9971 42.6008 32.5347 38.9145 30.2514 37.3876C27.9244 35.8389 25.794 34.3339 25.4008 33.9631C25.0075 33.6032 24.4066 32.9161 24.0461 32.4362C23.6856 31.9563 23.1502 31.0729 22.8662 30.4731C22.5821 29.8732 22.2325 28.968 22.0905 28.4554C21.883 27.6811 21.8393 27.2667 21.8502 25.947C21.8611 24.5619 21.8939 24.2456 22.1561 23.3841C22.3199 22.8497 22.6368 22.0099 22.8553 21.53C23.0847 21.0501 23.4671 20.363 23.7183 20.0031C23.9587 19.6432 24.4066 19.0761 24.7016 18.7489C24.9965 18.4217 25.5865 17.8982 26.0016 17.582C26.4168 17.2766 27.1487 16.8294 27.6294 16.5895C28.1101 16.3496 28.9513 16.0224 29.4866 15.8697Z" fill="#FF7112"/>
<path d="M21.4013 39.6888C21.882 39.5579 22.6686 39.4161 23.1493 39.3725C23.63 39.3398 24.2964 39.318 24.6242 39.3398C24.9519 39.3507 25.5419 39.4161 25.9351 39.4816C26.3284 39.5361 26.9949 39.6997 27.41 39.8306C27.8361 39.9614 28.5571 40.2668 29.016 40.5067C29.4857 40.7467 36.6524 45.4581 44.9444 50.9767C53.2363 56.4952 60.0207 61.0758 60.0207 61.1412C60.0207 61.2503 56.2953 61.283 41.7543 61.283C26.2192 61.283 23.335 61.2612 22.5484 61.1303C22.035 61.0431 21.1719 60.8141 20.6366 60.6177C20.1013 60.4323 19.4021 60.1488 19.1071 59.9961C18.8012 59.8543 18.1894 59.4726 17.7415 59.1781C17.2936 58.8727 16.6053 58.2947 16.212 57.9021C15.8187 57.5095 15.2397 56.8006 14.9229 56.3207C14.6061 55.8408 14.2019 55.0556 14.0161 54.5757C13.8304 54.0958 13.5791 53.2561 13.4699 52.7217C13.3388 52.1 13.2623 51.2602 13.2514 50.4314C13.2405 49.7116 13.2951 48.8282 13.3606 48.4683C13.4262 48.1083 13.5791 47.4976 13.7102 47.105C13.8413 46.7124 14.0598 46.1234 14.2128 45.7962C14.3548 45.469 14.759 44.782 15.0977 44.2694C15.4364 43.7568 16.0919 42.9715 16.5398 42.5244C16.9986 42.0772 17.7087 41.4774 18.1239 41.1938C18.5499 40.9103 19.2601 40.5176 19.708 40.2995C20.1559 40.0923 20.9206 39.8196 21.4013 39.6888Z" fill="#FCCC12"/>
</svg>
